solid
 facet normal  0.000000e+000 -1.000000e+000  0.000000e+000
   outer loop
     vertex -5.841000e+001 -4.913000e+001  0.000000e+000
     vertex -3.841000e+001 -4.913000e+001  0.000000e+000
     vertex -3.841000e+001 -4.913000e+001  5.000000e+000
   endloop
 endfacet
 facet normal  0.000000e+000 -1.000000e+000  0.000000e+000
   outer loop
     vertex -5.841000e+001 -4.913000e+001  0.000000e+000
     vertex -3.841000e+001 -4.913000e+001  5.000000e+000
     vertex -5.841000e+001 -4.913000e+001  5.000000e+000
   endloop
 endfacet
 facet normal  1.000000e+000 -0.000000e+000  0.000000e+000
   outer loop
     vertex -3.841000e+001 -2.913000e+001  5.000000e+000
     vertex -3.841000e+001  3.413000e+001  0.000000e+000
     vertex -3.841000e+001  3.413000e+001  5.000000e+000
   endloop
 endfacet
 facet normal  1.000000e+000  0.000000e+000 -0.000000e+000
   outer loop
     vertex -3.841000e+001 -4.913000e+001  0.000000e+000
     vertex -3.841000e+001 -2.913000e+001  5.000000e+000
     vertex -3.841000e+001 -4.913000e+001  5.000000e+000
   endloop
 endfacet
 facet normal  1.000000e+000  0.000000e+000 -0.000000e+000
   outer loop
     vertex -3.841000e+001 -4.913000e+001  0.000000e+000
     vertex -3.841000e+001  3.413000e+001  0.000000e+000
     vertex -3.841000e+001 -2.913000e+001  5.000000e+000
   endloop
 endfacet
 facet normal -1.000000e+000 -0.000000e+000  0.000000e+000
   outer loop
     vertex -5.841000e+001 -2.913000e+001  5.000000e+000
     vertex -5.841000e+001 -4.913000e+001  0.000000e+000
     vertex -5.841000e+001 -4.913000e+001  5.000000e+000
   endloop
 endfacet
 facet normal -1.000000e+000  0.000000e+000  0.000000e+000
   outer loop
     vertex -5.841000e+001  3.413000e+001  0.000000e+000
     vertex -5.841000e+001 -2.913000e+001  5.000000e+000
     vertex -5.841000e+001  3.413000e+001  5.000000e+000
   endloop
 endfacet
 facet normal -1.000000e+000  0.000000e+000  0.000000e+000
   outer loop
     vertex -5.841000e+001  3.413000e+001  0.000000e+000
     vertex -5.841000e+001 -4.913000e+001  0.000000e+000
     vertex -5.841000e+001 -2.913000e+001  5.000000e+000
   endloop
 endfacet
 facet normal -0.000000e+000  0.000000e+000 -1.000000e+000
   outer loop
     vertex -4.826872e+001 -3.688444e+001  0.000000e+000
     vertex -4.883161e+001 -3.691985e+001  0.000000e+000
     vertex -4.873792e+001 -2.584900e+001  0.000000e+000
   endloop
 endfacet
 facet normal  0.000000e+000  0.000000e+000 -1.000000e+000
   outer loop
     vertex -4.883161e+001 -3.691985e+001  0.000000e+000
     vertex -4.915511e+001 -2.571345e+001  0.000000e+000
     vertex -4.873792e+001 -2.584900e+001  0.000000e+000
   endloop
 endfacet
 facet normal  0.000000e+000  0.000000e+000 -1.000000e+000
   outer loop
     vertex -4.786922e+001 -2.246565e+001  0.000000e+000
     vertex -4.830012e+001 -2.238345e+001  0.000000e+000
     vertex -4.830012e+001  2.238345e+001  0.000000e+000
   endloop
 endfacet
 facet normal -0.000000e+000  0.000000e+000 -1.000000e+000
   outer loop
     vertex -4.830012e+001 -2.238345e+001  0.000000e+000
     vertex -4.873792e+001 -2.241100e+001  0.000000e+000
     vertex -4.830012e+001  2.238345e+001  0.000000e+000
   endloop
 endfacet
 facet normal  0.000000e+000  0.000000e+000 -1.000000e+000
   outer loop
     vertex -4.873792e+001 -2.241100e+001  0.000000e+000
     vertex -4.873792e+001  2.241100e+001  0.000000e+000
     vertex -4.830012e+001  2.238345e+001  0.000000e+000
   endloop
 endfacet
 facet normal -0.000000e+000  0.000000e+000 -1.000000e+000
   outer loop
     vertex -4.984420e+001 -4.086365e+001  0.000000e+000
     vertex -5.841000e+001 -4.913000e+001  0.000000e+000
     vertex -5.023029e+001 -4.045252e+001  0.000000e+000
   endloop
 endfacet
 facet normal -0.000000e+000  0.000000e+000 -1.000000e+000
   outer loop
     vertex -5.003711e+001 -2.477422e+001  0.000000e+000
     vertex -5.841000e+001 -4.913000e+001  0.000000e+000
     vertex -5.014620e+001 -2.434933e+001  0.000000e+000
   endloop
 endfacet
 facet normal  0.000000e+000  0.000000e+000 -1.000000e+000
   outer loop
     vertex -5.841000e+001 -4.913000e+001  0.000000e+000
     vertex -4.984420e+001 -4.086365e+001  0.000000e+000
     vertex -4.936800e+001 -4.116586e+001  0.000000e+000
   endloop
 endfacet
 facet normal  0.000000e+000  0.000000e+000 -1.000000e+000
   outer loop
     vertex -4.826872e+001 -3.688444e+001  0.000000e+000
     vertex -4.873792e+001 -2.584900e+001  0.000000e+000
     vertex -4.830012e+001 -2.587655e+001  0.000000e+000
   endloop
 endfacet
 facet normal -0.000000e+000  0.000000e+000 -1.000000e+000
   outer loop
     vertex -5.023029e+001 -4.045252e+001  0.000000e+000
     vertex -5.841000e+001 -4.913000e+001  0.000000e+000
     vertex -5.050200e+001 -3.995828e+001  0.000000e+000
   endloop
 endfacet
 facet normal  0.000000e+000  0.000000e+000 -1.000000e+000
   outer loop
     vertex -4.747230e+001 -2.265243e+001  0.000000e+000
     vertex -4.786922e+001 -2.246565e+001  0.000000e+000
     vertex -4.786922e+001  2.246565e+001  0.000000e+000
   endloop
 endfacet
 facet normal  0.000000e+000  0.000000e+000 -1.000000e+000
   outer loop
     vertex -4.786922e+001 -2.246565e+001  0.000000e+000
     vertex -4.830012e+001  2.238345e+001  0.000000e+000
     vertex -4.786922e+001  2.246565e+001  0.000000e+000
   endloop
 endfacet
 facet normal -0.000000e+000  0.000000e+000 -1.000000e+000
   outer loop
     vertex -5.014620e+001 -2.434933e+001  0.000000e+000
     vertex -5.841000e+001 -4.913000e+001  0.000000e+000
     vertex -5.014620e+001 -2.391067e+001  0.000000e+000
   endloop
 endfacet
 facet normal  0.000000e+000  0.000000e+000 -1.000000e+000
   outer loop
     vertex -5.841000e+001 -4.913000e+001  0.000000e+000
     vertex -4.936800e+001 -4.116586e+001  0.000000e+000
     vertex -4.883161e+001 -4.134015e+001  0.000000e+000
   endloop
 endfacet
 facet normal  0.000000e+000  0.000000e+000 -1.000000e+000
   outer loop
     vertex -4.747230e+001 -2.265243e+001  0.000000e+000
     vertex -4.786922e+001  2.246565e+001  0.000000e+000
     vertex -4.747230e+001  2.265243e+001  0.000000e+000
   endloop
 endfacet
 facet normal -0.000000e+000  0.000000e+000 -1.000000e+000
   outer loop
     vertex -5.050200e+001 -3.995828e+001  0.000000e+000
     vertex -5.841000e+001 -4.913000e+001  0.000000e+000
     vertex -5.064226e+001 -3.941200e+001  0.000000e+000
   endloop
 endfacet
 facet normal  0.000000e+000  0.000000e+000 -1.000000e+000
   outer loop
     vertex -4.771471e+001 -3.699012e+001  0.000000e+000
     vertex -4.826872e+001 -3.688444e+001  0.000000e+000
     vertex -4.786922e+001 -2.579435e+001  0.000000e+000
   endloop
 endfacet
 facet normal  0.000000e+000  0.000000e+000 -1.000000e+000
   outer loop
     vertex -4.826872e+001 -3.688444e+001  0.000000e+000
     vertex -4.830012e+001 -2.587655e+001  0.000000e+000
     vertex -4.786922e+001 -2.579435e+001  0.000000e+000
   endloop
 endfacet
 facet normal  0.000000e+000  0.000000e+000 -1.000000e+000
   outer loop
     vertex -5.841000e+001 -4.913000e+001  0.000000e+000
     vertex -4.883161e+001 -4.134015e+001  0.000000e+000
     vertex -4.826872e+001 -4.137556e+001  0.000000e+000
   endloop
 endfacet
 facet normal -0.000000e+000  0.000000e+000 -1.000000e+000
   outer loop
     vertex -4.982578e+001  2.515862e+001  0.000000e+000
     vertex -5.003711e+001  2.477422e+001  0.000000e+000
     vertex -5.841000e+001  3.413000e+001  0.000000e+000
   endloop
 endfacet
 facet normal -0.000000e+000  0.000000e+000 -1.000000e+000
   outer loop
     vertex -5.003711e+001  2.477422e+001  0.000000e+000
     vertex -5.014620e+001  2.434933e+001  0.000000e+000
     vertex -5.841000e+001  3.413000e+001  0.000000e+000
   endloop
 endfacet
 facet normal -0.000000e+000 -0.000000e+000 -1.000000e+000
   outer loop
     vertex -5.014620e+001  2.434933e+001  0.000000e+000
     vertex -5.014620e+001  2.391067e+001  0.000000e+000
     vertex -5.841000e+001  3.413000e+001  0.000000e+000
   endloop
 endfacet
 facet normal -0.000000e+000 -0.000000e+000 -1.000000e+000
   outer loop
     vertex -5.014620e+001  2.391067e+001  0.000000e+000
     vertex -5.003711e+001  2.348578e+001  0.000000e+000
     vertex -5.841000e+001  3.413000e+001  0.000000e+000
   endloop
 endfacet
 facet normal -0.000000e+000  0.000000e+000 -1.000000e+000
   outer loop
     vertex -5.064226e+001 -3.941200e+001  0.000000e+000
     vertex -5.841000e+001 -4.913000e+001  0.000000e+000
     vertex -5.064226e+001 -3.884800e+001  0.000000e+000
   endloop
 endfacet
 facet normal -0.000000e+000 -0.000000e+000 -1.000000e+000
   outer loop
     vertex -5.003711e+001  2.348578e+001  0.000000e+000
     vertex -4.982578e+001  2.310138e+001  0.000000e+000
     vertex -5.841000e+001  3.413000e+001  0.000000e+000
   endloop
 endfacet
 facet normal -0.000000e+000  0.000000e+000 -1.000000e+000
   outer loop
     vertex -4.982578e+001 -2.310138e+001  0.000000e+000
     vertex -5.003711e+001 -2.348578e+001  0.000000e+000
     vertex -5.841000e+001  3.413000e+001  0.000000e+000
   endloop
 endfacet
 facet normal  0.000000e+000  0.000000e+000 -1.000000e+000
   outer loop
     vertex -4.720439e+001 -3.723026e+001  0.000000e+000
     vertex -4.771471e+001 -3.699012e+001  0.000000e+000
     vertex -4.747230e+001 -2.560757e+001  0.000000e+000
   endloop
 endfacet
 facet normal -0.000000e+000  0.000000e+000 -1.000000e+000
   outer loop
     vertex -4.982578e+001  2.310138e+001  0.000000e+000
     vertex -4.982578e+001 -2.310138e+001  0.000000e+000
     vertex -5.841000e+001  3.413000e+001  0.000000e+000
   endloop
 endfacet
 facet normal  0.000000e+000  0.000000e+000 -1.000000e+000
   outer loop
     vertex -4.771471e+001 -3.699012e+001  0.000000e+000
     vertex -4.786922e+001 -2.579435e+001  0.000000e+000
     vertex -4.747230e+001 -2.560757e+001  0.000000e+000
   endloop
 endfacet
 facet normal -0.000000e+000  0.000000e+000 -1.000000e+000
   outer loop
     vertex -5.064226e+001 -3.884800e+001  0.000000e+000
     vertex -5.841000e+001 -4.913000e+001  0.000000e+000
     vertex -5.050200e+001 -3.830172e+001  0.000000e+000
   endloop
 endfacet
 facet normal  0.000000e+000  0.000000e+000 -1.000000e+000
   outer loop
     vertex -4.713430e+001 -2.293204e+001  0.000000e+000
     vertex -4.747230e+001 -2.265243e+001  0.000000e+000
     vertex -4.713430e+001  2.293204e+001  0.000000e+000
   endloop
 endfacet
 facet normal  0.000000e+000  0.000000e+000 -1.000000e+000
   outer loop
     vertex -4.747230e+001 -2.265243e+001  0.000000e+000
     vertex -4.747230e+001  2.265243e+001  0.000000e+000
     vertex -4.713430e+001  2.293204e+001  0.000000e+000
   endloop
 endfacet
 facet normal  0.000000e+000  0.000000e+000 -1.000000e+000
   outer loop
     vertex -4.982578e+001  2.515862e+001  0.000000e+000
     vertex -5.841000e+001  3.413000e+001  0.000000e+000
     vertex -4.952549e+001  2.547840e+001  0.000000e+000
   endloop
 endfacet
 facet normal  0.000000e+000  0.000000e+000 -1.000000e+000
   outer loop
     vertex -4.713430e+001 -2.293204e+001  0.000000e+000
     vertex -4.713430e+001  2.293204e+001  0.000000e+000
     vertex -4.687646e+001  2.328693e+001  0.000000e+000
   endloop
 endfacet
 facet normal  0.000000e+000  0.000000e+000 -1.000000e+000
   outer loop
     vertex -4.676982e+001 -3.758977e+001  0.000000e+000
     vertex -4.720439e+001 -3.723026e+001  0.000000e+000
     vertex -4.713430e+001 -2.532796e+001  0.000000e+000
   endloop
 endfacet
 facet normal  0.000000e+000  0.000000e+000 -1.000000e+000
   outer loop
     vertex -4.720439e+001 -3.723026e+001  0.000000e+000
     vertex -4.747230e+001 -2.560757e+001  0.000000e+000
     vertex -4.713430e+001 -2.532796e+001  0.000000e+000
   endloop
 endfacet
 facet normal  0.000000e+000  0.000000e+000 -1.000000e+000
   outer loop
     vertex -4.687646e+001 -2.328693e+001  0.000000e+000
     vertex -4.713430e+001 -2.293204e+001  0.000000e+000
     vertex -4.687646e+001  2.328693e+001  0.000000e+000
   endloop
 endfacet
 facet normal  0.000000e+000  0.000000e+000 -1.000000e+000
   outer loop
     vertex -4.826872e+001 -4.137556e+001  0.000000e+000
     vertex -4.771471e+001 -4.126988e+001  0.000000e+000
     vertex -3.841000e+001 -4.913000e+001  0.000000e+000
   endloop
 endfacet
 facet normal  0.000000e+000  0.000000e+000 -1.000000e+000
   outer loop
     vertex -4.771471e+001 -4.126988e+001  0.000000e+000
     vertex -4.720439e+001 -4.102974e+001  0.000000e+000
     vertex -3.841000e+001 -4.913000e+001  0.000000e+000
   endloop
 endfacet
 facet normal  0.000000e+000  0.000000e+000 -1.000000e+000
   outer loop
     vertex -4.952549e+001  2.547840e+001  0.000000e+000
     vertex -5.841000e+001  3.413000e+001  0.000000e+000
     vertex -4.915511e+001  2.571345e+001  0.000000e+000
   endloop
 endfacet
 facet normal  0.000000e+000  0.000000e+000 -1.000000e+000
   outer loop
     vertex -4.643831e+001 -3.804605e+001  0.000000e+000
     vertex -4.676982e+001 -3.758977e+001  0.000000e+000
     vertex -4.687646e+001 -2.497307e+001  0.000000e+000
   endloop
 endfacet
 facet normal  0.000000e+000  0.000000e+000 -1.000000e+000
   outer loop
     vertex -5.841000e+001 -4.913000e+001  0.000000e+000
     vertex -4.826872e+001 -4.137556e+001  0.000000e+000
     vertex -3.841000e+001 -4.913000e+001  0.000000e+000
   endloop
 endfacet
 facet normal  0.000000e+000  0.000000e+000 -1.000000e+000
   outer loop
     vertex -4.676982e+001 -3.758977e+001  0.000000e+000
     vertex -4.713430e+001 -2.532796e+001  0.000000e+000
     vertex -4.687646e+001 -2.497307e+001  0.000000e+000
   endloop
 endfacet
 facet normal  0.000000e+000  0.000000e+000 -1.000000e+000
   outer loop
     vertex -3.841000e+001 -4.913000e+001  0.000000e+000
     vertex -4.720439e+001 -4.102974e+001  0.000000e+000
     vertex -4.676982e+001 -4.067023e+001  0.000000e+000
   endloop
 endfacet
 facet normal  0.000000e+000  0.000000e+000 -1.000000e+000
   outer loop
     vertex -4.915511e+001  2.571345e+001  0.000000e+000
     vertex -5.841000e+001  3.413000e+001  0.000000e+000
     vertex -4.873792e+001  2.584900e+001  0.000000e+000
   endloop
 endfacet
 facet normal  0.000000e+000  0.000000e+000 -1.000000e+000
   outer loop
     vertex -4.623069e+001 -3.857045e+001  0.000000e+000
     vertex -4.643831e+001 -3.804605e+001  0.000000e+000
     vertex -4.671498e+001 -2.456521e+001  0.000000e+000
   endloop
 endfacet
 facet normal  0.000000e+000  0.000000e+000 -1.000000e+000
   outer loop
     vertex -3.841000e+001 -4.913000e+001  0.000000e+000
     vertex -4.623069e+001 -3.857045e+001  0.000000e+000
     vertex -4.671498e+001 -2.456521e+001  0.000000e+000
   endloop
 endfacet
 facet normal  0.000000e+000  0.000000e+000 -1.000000e+000
   outer loop
     vertex -4.873792e+001  2.584900e+001  0.000000e+000
     vertex -5.841000e+001  3.413000e+001  0.000000e+000
     vertex -4.830012e+001  2.587655e+001  0.000000e+000
   endloop
 endfacet
 facet normal  0.000000e+000  0.000000e+000 -1.000000e+000
   outer loop
     vertex -3.841000e+001 -4.913000e+001  0.000000e+000
     vertex -4.676982e+001 -4.067023e+001  0.000000e+000
     vertex -4.643831e+001 -4.021395e+001  0.000000e+000
   endloop
 endfacet
 facet normal  0.000000e+000  0.000000e+000 -1.000000e+000
   outer loop
     vertex -4.643831e+001 -3.804605e+001  0.000000e+000
     vertex -4.687646e+001 -2.497307e+001  0.000000e+000
     vertex -4.671498e+001 -2.456521e+001  0.000000e+000
   endloop
 endfacet
 facet normal  0.000000e+000  0.000000e+000 -1.000000e+000
   outer loop
     vertex -3.841000e+001 -4.913000e+001  0.000000e+000
     vertex -4.643831e+001 -4.021395e+001  0.000000e+000
     vertex -4.623069e+001 -3.968955e+001  0.000000e+000
   endloop
 endfacet
 facet normal  0.000000e+000  0.000000e+000 -1.000000e+000
   outer loop
     vertex -3.841000e+001 -4.913000e+001  0.000000e+000
     vertex -4.671498e+001 -2.456521e+001  0.000000e+000
     vertex -4.666000e+001 -2.413000e+001  0.000000e+000
   endloop
 endfacet
 facet normal  0.000000e+000  0.000000e+000 -1.000000e+000
   outer loop
     vertex -3.841000e+001 -4.913000e+001  0.000000e+000
     vertex -4.623069e+001 -3.968955e+001  0.000000e+000
     vertex -4.616000e+001 -3.913000e+001  0.000000e+000
   endloop
 endfacet
 facet normal  0.000000e+000  0.000000e+000 -1.000000e+000
   outer loop
     vertex -3.841000e+001 -4.913000e+001  0.000000e+000
     vertex -4.616000e+001 -3.913000e+001  0.000000e+000
     vertex -4.623069e+001 -3.857045e+001  0.000000e+000
   endloop
 endfacet
 facet normal  0.000000e+000  0.000000e+000 -1.000000e+000
   outer loop
     vertex -4.687646e+001 -2.328693e+001  0.000000e+000
     vertex -4.687646e+001  2.328693e+001  0.000000e+000
     vertex -3.841000e+001  3.413000e+001  0.000000e+000
   endloop
 endfacet
 facet normal  0.000000e+000  0.000000e+000 -1.000000e+000
   outer loop
     vertex -4.830012e+001  2.587655e+001  0.000000e+000
     vertex -5.841000e+001  3.413000e+001  0.000000e+000
     vertex -3.841000e+001  3.413000e+001  0.000000e+000
   endloop
 endfacet
 facet normal  0.000000e+000  0.000000e+000 -1.000000e+000
   outer loop
     vertex -4.666000e+001  2.413000e+001  0.000000e+000
     vertex -4.671498e+001  2.456521e+001  0.000000e+000
     vertex -3.841000e+001  3.413000e+001  0.000000e+000
   endloop
 endfacet
 facet normal  0.000000e+000  0.000000e+000 -1.000000e+000
   outer loop
     vertex -4.671498e+001  2.456521e+001  0.000000e+000
     vertex -4.687646e+001  2.497307e+001  0.000000e+000
     vertex -3.841000e+001  3.413000e+001  0.000000e+000
   endloop
 endfacet
 facet normal  0.000000e+000  0.000000e+000 -1.000000e+000
   outer loop
     vertex -4.687646e+001  2.497307e+001  0.000000e+000
     vertex -4.713430e+001  2.532796e+001  0.000000e+000
     vertex -3.841000e+001  3.413000e+001  0.000000e+000
   endloop
 endfacet
 facet normal  0.000000e+000  0.000000e+000 -1.000000e+000
   outer loop
     vertex -4.713430e+001  2.532796e+001  0.000000e+000
     vertex -4.747230e+001  2.560757e+001  0.000000e+000
     vertex -3.841000e+001  3.413000e+001  0.000000e+000
   endloop
 endfacet
 facet normal  0.000000e+000  0.000000e+000 -1.000000e+000
   outer loop
     vertex -4.747230e+001  2.560757e+001  0.000000e+000
     vertex -4.786922e+001  2.579435e+001  0.000000e+000
     vertex -3.841000e+001  3.413000e+001  0.000000e+000
   endloop
 endfacet
 facet normal  0.000000e+000  0.000000e+000 -1.000000e+000
   outer loop
     vertex -4.786922e+001  2.579435e+001  0.000000e+000
     vertex -4.830012e+001  2.587655e+001  0.000000e+000
     vertex -3.841000e+001  3.413000e+001  0.000000e+000
   endloop
 endfacet
 facet normal  0.000000e+000  0.000000e+000 -1.000000e+000
   outer loop
     vertex -4.687646e+001  2.328693e+001  0.000000e+000
     vertex -4.671498e+001  2.369479e+001  0.000000e+000
     vertex -3.841000e+001  3.413000e+001  0.000000e+000
   endloop
 endfacet
 facet normal  0.000000e+000  0.000000e+000 -1.000000e+000
   outer loop
     vertex -4.671498e+001  2.369479e+001  0.000000e+000
     vertex -4.666000e+001  2.413000e+001  0.000000e+000
     vertex -3.841000e+001  3.413000e+001  0.000000e+000
   endloop
 endfacet
 facet normal  0.000000e+000  0.000000e+000 -1.000000e+000
   outer loop
     vertex -4.671498e+001 -2.369479e+001  0.000000e+000
     vertex -4.687646e+001 -2.328693e+001  0.000000e+000
     vertex -3.841000e+001  3.413000e+001  0.000000e+000
   endloop
 endfacet
 facet normal -0.000000e+000  0.000000e+000 -1.000000e+000
   outer loop
     vertex -5.014620e+001 -2.391067e+001  0.000000e+000
     vertex -5.841000e+001 -4.913000e+001  0.000000e+000
     vertex -5.841000e+001  3.413000e+001  0.000000e+000
   endloop
 endfacet
 facet normal -0.000000e+000  0.000000e+000 -1.000000e+000
   outer loop
     vertex -5.003711e+001 -2.348578e+001  0.000000e+000
     vertex -5.014620e+001 -2.391067e+001  0.000000e+000
     vertex -5.841000e+001  3.413000e+001  0.000000e+000
   endloop
 endfacet
 facet normal  0.000000e+000  0.000000e+000 -1.000000e+000
   outer loop
     vertex -4.666000e+001 -2.413000e+001  0.000000e+000
     vertex -3.841000e+001  3.413000e+001  0.000000e+000
     vertex -3.841000e+001 -4.913000e+001  0.000000e+000
   endloop
 endfacet
 facet normal  0.000000e+000 -0.000000e+000 -1.000000e+000
   outer loop
     vertex -4.671498e+001 -2.369479e+001  0.000000e+000
     vertex -3.841000e+001  3.413000e+001  0.000000e+000
     vertex -4.666000e+001 -2.413000e+001  0.000000e+000
   endloop
 endfacet
 facet normal -0.000000e+000  0.000000e+000 -1.000000e+000
   outer loop
     vertex -4.952549e+001 -2.278160e+001  0.000000e+000
     vertex -4.982578e+001 -2.310138e+001  0.000000e+000
     vertex -4.952549e+001  2.278160e+001  0.000000e+000
   endloop
 endfacet
 facet normal -0.000000e+000  0.000000e+000 -1.000000e+000
   outer loop
     vertex -4.952549e+001  2.278160e+001  0.000000e+000
     vertex -4.982578e+001 -2.310138e+001  0.000000e+000
     vertex -4.982578e+001  2.310138e+001  0.000000e+000
   endloop
 endfacet
 facet normal -0.000000e+000  0.000000e+000 -1.000000e+000
   outer loop
     vertex -4.936800e+001 -3.709414e+001  0.000000e+000
     vertex -4.984420e+001 -3.739635e+001  0.000000e+000
     vertex -4.952549e+001 -2.547840e+001  0.000000e+000
   endloop
 endfacet
 facet normal -0.000000e+000  0.000000e+000 -1.000000e+000
   outer loop
     vertex -4.952549e+001 -2.547840e+001  0.000000e+000
     vertex -4.984420e+001 -3.739635e+001  0.000000e+000
     vertex -4.982578e+001 -2.515862e+001  0.000000e+000
   endloop
 endfacet
 facet normal -0.000000e+000  0.000000e+000 -1.000000e+000
   outer loop
     vertex -4.984420e+001 -3.739635e+001  0.000000e+000
     vertex -5.023029e+001 -3.780748e+001  0.000000e+000
     vertex -4.982578e+001 -2.515862e+001  0.000000e+000
   endloop
 endfacet
 facet normal -0.000000e+000  0.000000e+000 -1.000000e+000
   outer loop
     vertex -4.873792e+001 -2.241100e+001  0.000000e+000
     vertex -4.915511e+001 -2.254655e+001  0.000000e+000
     vertex -4.915511e+001  2.254655e+001  0.000000e+000
   endloop
 endfacet
 facet normal -0.000000e+000  0.000000e+000 -1.000000e+000
   outer loop
     vertex -4.915511e+001 -2.254655e+001  0.000000e+000
     vertex -4.952549e+001 -2.278160e+001  0.000000e+000
     vertex -4.915511e+001  2.254655e+001  0.000000e+000
   endloop
 endfacet
 facet normal  0.000000e+000  0.000000e+000 -1.000000e+000
   outer loop
     vertex -4.952549e+001 -2.278160e+001  0.000000e+000
     vertex -4.952549e+001  2.278160e+001  0.000000e+000
     vertex -4.915511e+001  2.254655e+001  0.000000e+000
   endloop
 endfacet
 facet normal  0.000000e+000  0.000000e+000 -1.000000e+000
   outer loop
     vertex -4.936800e+001 -3.709414e+001  0.000000e+000
     vertex -4.952549e+001 -2.547840e+001  0.000000e+000
     vertex -4.915511e+001 -2.571345e+001  0.000000e+000
   endloop
 endfacet
 facet normal -0.000000e+000  0.000000e+000 -1.000000e+000
   outer loop
     vertex -4.883161e+001 -3.691985e+001  0.000000e+000
     vertex -4.936800e+001 -3.709414e+001  0.000000e+000
     vertex -4.915511e+001 -2.571345e+001  0.000000e+000
   endloop
 endfacet
 facet normal -0.000000e+000  0.000000e+000 -1.000000e+000
   outer loop
     vertex -5.050200e+001 -3.830172e+001  0.000000e+000
     vertex -5.841000e+001 -4.913000e+001  0.000000e+000
     vertex -5.003711e+001 -2.477422e+001  0.000000e+000
   endloop
 endfacet
 facet normal -0.000000e+000  0.000000e+000 -1.000000e+000
   outer loop
     vertex -5.023029e+001 -3.780748e+001  0.000000e+000
     vertex -5.050200e+001 -3.830172e+001  0.000000e+000
     vertex -5.003711e+001 -2.477422e+001  0.000000e+000
   endloop
 endfacet
 facet normal -0.000000e+000  0.000000e+000 -1.000000e+000
   outer loop
     vertex -4.982578e+001 -2.515862e+001  0.000000e+000
     vertex -5.023029e+001 -3.780748e+001  0.000000e+000
     vertex -5.003711e+001 -2.477422e+001  0.000000e+000
   endloop
 endfacet
 facet normal  0.000000e+000  0.000000e+000 -1.000000e+000
   outer loop
     vertex -4.873792e+001 -2.241100e+001  0.000000e+000
     vertex -4.915511e+001  2.254655e+001  0.000000e+000
     vertex -4.873792e+001  2.241100e+001  0.000000e+000
   endloop
 endfacet
 facet normal  0.000000e+000 -0.000000e+000  1.000000e+000
   outer loop
     vertex -4.713430e+001 -2.293204e+001  5.000000e+000
     vertex -4.687646e+001  2.328693e+001  5.000000e+000
     vertex -4.713430e+001  2.293204e+001  5.000000e+000
   endloop
 endfacet
 facet normal  0.000000e+000  0.000000e+000  1.000000e+000
   outer loop
     vertex -4.915511e+001 -2.571345e+001  5.000000e+000
     vertex -4.952549e+001 -2.547840e+001  5.000000e+000
     vertex -5.341000e+001 -2.913000e+001  5.000000e+000
   endloop
 endfacet
 facet normal -0.000000e+000  0.000000e+000  1.000000e+000
   outer loop
     vertex -5.003711e+001 -2.477422e+001  5.000000e+000
     vertex -5.341000e+001 -2.913000e+001  5.000000e+000
     vertex -4.982578e+001 -2.515862e+001  5.000000e+000
   endloop
 endfacet
 facet normal -0.000000e+000  0.000000e+000  1.000000e+000
   outer loop
     vertex -4.915511e+001  2.254655e+001  5.000000e+000
     vertex -4.915511e+001 -2.254655e+001  5.000000e+000
     vertex -4.873792e+001 -2.241100e+001  5.000000e+000
   endloop
 endfacet
 facet normal -0.000000e+000  0.000000e+000  1.000000e+000
   outer loop
     vertex -4.915511e+001  2.254655e+001  5.000000e+000
     vertex -4.952549e+001 -2.278160e+001  5.000000e+000
     vertex -4.915511e+001 -2.254655e+001  5.000000e+000
   endloop
 endfacet
 facet normal -0.000000e+000  0.000000e+000  1.000000e+000
   outer loop
     vertex -5.023029e+001 -4.045252e+001  5.000000e+000
     vertex -5.841000e+001 -4.913000e+001  5.000000e+000
     vertex -4.984420e+001 -4.086365e+001  5.000000e+000
   endloop
 endfacet
 facet normal  0.000000e+000  0.000000e+000  1.000000e+000
   outer loop
     vertex -4.915511e+001  2.254655e+001  5.000000e+000
     vertex -4.952549e+001  2.278160e+001  5.000000e+000
     vertex -4.952549e+001 -2.278160e+001  5.000000e+000
   endloop
 endfacet
 facet normal  0.000000e+000  0.000000e+000  1.000000e+000
   outer loop
     vertex -4.873792e+001 -2.584900e+001  5.000000e+000
     vertex -4.915511e+001 -2.571345e+001  5.000000e+000
     vertex -5.341000e+001 -2.913000e+001  5.000000e+000
   endloop
 endfacet
 facet normal  0.000000e+000  0.000000e+000  1.000000e+000
   outer loop
     vertex -4.936800e+001 -4.116586e+001  5.000000e+000
     vertex -4.984420e+001 -4.086365e+001  5.000000e+000
     vertex -5.841000e+001 -4.913000e+001  5.000000e+000
   endloop
 endfacet
 facet normal  0.000000e+000  0.000000e+000  1.000000e+000
   outer loop
     vertex -4.873792e+001  2.241100e+001  5.000000e+000
     vertex -4.915511e+001  2.254655e+001  5.000000e+000
     vertex -4.873792e+001 -2.241100e+001  5.000000e+000
   endloop
 endfacet
 facet normal -0.000000e+000  0.000000e+000  1.000000e+000
   outer loop
     vertex -5.014620e+001 -2.434933e+001  5.000000e+000
     vertex -5.341000e+001 -2.913000e+001  5.000000e+000
     vertex -5.003711e+001 -2.477422e+001  5.000000e+000
   endloop
 endfacet
 facet normal -0.000000e+000  0.000000e+000  1.000000e+000
   outer loop
     vertex -5.050200e+001 -3.995828e+001  5.000000e+000
     vertex -5.841000e+001 -4.913000e+001  5.000000e+000
     vertex -5.023029e+001 -4.045252e+001  5.000000e+000
   endloop
 endfacet
 facet normal  0.000000e+000  0.000000e+000  1.000000e+000
   outer loop
     vertex -4.883161e+001 -4.134015e+001  5.000000e+000
     vertex -4.936800e+001 -4.116586e+001  5.000000e+000
     vertex -5.841000e+001 -4.913000e+001  5.000000e+000
   endloop
 endfacet
 facet normal  0.000000e+000  0.000000e+000  1.000000e+000
   outer loop
     vertex -4.830012e+001 -2.587655e+001  5.000000e+000
     vertex -4.873792e+001 -2.584900e+001  5.000000e+000
     vertex -5.341000e+001 -2.913000e+001  5.000000e+000
   endloop
 endfacet
 facet normal -0.000000e+000  0.000000e+000  1.000000e+000
   outer loop
     vertex -5.064226e+001 -3.941200e+001  5.000000e+000
     vertex -5.841000e+001 -4.913000e+001  5.000000e+000
     vertex -5.050200e+001 -3.995828e+001  5.000000e+000
   endloop
 endfacet
 facet normal -0.000000e+000  0.000000e+000  1.000000e+000
   outer loop
     vertex -5.014620e+001 -2.391067e+001  5.000000e+000
     vertex -5.341000e+001 -2.913000e+001  5.000000e+000
     vertex -5.014620e+001 -2.434933e+001  5.000000e+000
   endloop
 endfacet
 facet normal  0.000000e+000  0.000000e+000  1.000000e+000
   outer loop
     vertex -4.830012e+001  2.238345e+001  5.000000e+000
     vertex -4.873792e+001  2.241100e+001  5.000000e+000
     vertex -4.873792e+001 -2.241100e+001  5.000000e+000
   endloop
 endfacet
 facet normal  0.000000e+000  0.000000e+000  1.000000e+000
   outer loop
     vertex -4.826872e+001 -4.137556e+001  5.000000e+000
     vertex -4.883161e+001 -4.134015e+001  5.000000e+000
     vertex -5.841000e+001 -4.913000e+001  5.000000e+000
   endloop
 endfacet
 facet normal -0.000000e+000  0.000000e+000  1.000000e+000
   outer loop
     vertex -5.064226e+001 -3.884800e+001  5.000000e+000
     vertex -5.841000e+001 -4.913000e+001  5.000000e+000
     vertex -5.064226e+001 -3.941200e+001  5.000000e+000
   endloop
 endfacet
 facet normal  0.000000e+000  0.000000e+000  1.000000e+000
   outer loop
     vertex -4.830012e+001  2.238345e+001  5.000000e+000
     vertex -4.830012e+001 -2.238345e+001  5.000000e+000
     vertex -4.786922e+001 -2.246565e+001  5.000000e+000
   endloop
 endfacet
 facet normal -0.000000e+000  0.000000e+000  1.000000e+000
   outer loop
     vertex -4.830012e+001  2.238345e+001  5.000000e+000
     vertex -4.873792e+001 -2.241100e+001  5.000000e+000
     vertex -4.830012e+001 -2.238345e+001  5.000000e+000
   endloop
 endfacet
 facet normal  0.000000e+000  0.000000e+000  1.000000e+000
   outer loop
     vertex -4.786922e+001  2.246565e+001  5.000000e+000
     vertex -4.830012e+001  2.238345e+001  5.000000e+000
     vertex -4.786922e+001 -2.246565e+001  5.000000e+000
   endloop
 endfacet
 facet normal  0.000000e+000  0.000000e+000  1.000000e+000
   outer loop
     vertex -4.786922e+001  2.246565e+001  5.000000e+000
     vertex -4.786922e+001 -2.246565e+001  5.000000e+000
     vertex -4.747230e+001 -2.265243e+001  5.000000e+000
   endloop
 endfacet
 facet normal  0.000000e+000  0.000000e+000  1.000000e+000
   outer loop
     vertex -4.747230e+001  2.265243e+001  5.000000e+000
     vertex -4.786922e+001  2.246565e+001  5.000000e+000
     vertex -4.747230e+001 -2.265243e+001  5.000000e+000
   endloop
 endfacet
 facet normal  0.000000e+000  0.000000e+000  1.000000e+000
   outer loop
     vertex -4.341000e+001 -2.913000e+001  5.000000e+000
     vertex -4.676982e+001 -3.758977e+001  5.000000e+000
     vertex -4.643831e+001 -3.804605e+001  5.000000e+000
   endloop
 endfacet
 facet normal -0.000000e+000  0.000000e+000  1.000000e+000
   outer loop
     vertex -5.841000e+001 -2.913000e+001  5.000000e+000
     vertex -5.050200e+001 -3.830172e+001  5.000000e+000
     vertex -5.023029e+001 -3.780748e+001  5.000000e+000
   endloop
 endfacet
 facet normal  0.000000e+000  0.000000e+000  1.000000e+000
   outer loop
     vertex -4.341000e+001 -2.913000e+001  5.000000e+000
     vertex -4.720439e+001 -3.723026e+001  5.000000e+000
     vertex -4.676982e+001 -3.758977e+001  5.000000e+000
   endloop
 endfacet
 facet normal -0.000000e+000  0.000000e+000  1.000000e+000
   outer loop
     vertex -5.841000e+001 -2.913000e+001  5.000000e+000
     vertex -5.064226e+001 -3.884800e+001  5.000000e+000
     vertex -5.050200e+001 -3.830172e+001  5.000000e+000
   endloop
 endfacet
 facet normal  0.000000e+000  0.000000e+000  1.000000e+000
   outer loop
     vertex -4.341000e+001 -2.913000e+001  5.000000e+000
     vertex -4.771471e+001 -3.699012e+001  5.000000e+000
     vertex -4.720439e+001 -3.723026e+001  5.000000e+000
   endloop
 endfacet
 facet normal  0.000000e+000  0.000000e+000  1.000000e+000
   outer loop
     vertex -4.341000e+001 -2.913000e+001  5.000000e+000
     vertex -4.826872e+001 -3.688444e+001  5.000000e+000
     vertex -4.771471e+001 -3.699012e+001  5.000000e+000
   endloop
 endfacet
 facet normal  0.000000e+000  0.000000e+000  1.000000e+000
   outer loop
     vertex -4.341000e+001 -2.913000e+001  5.000000e+000
     vertex -5.341000e+001 -2.913000e+001  5.000000e+000
     vertex -4.826872e+001 -3.688444e+001  5.000000e+000
   endloop
 endfacet
 facet normal -0.000000e+000  0.000000e+000  1.000000e+000
   outer loop
     vertex -5.841000e+001 -2.913000e+001  5.000000e+000
     vertex -5.841000e+001 -4.913000e+001  5.000000e+000
     vertex -5.064226e+001 -3.884800e+001  5.000000e+000
   endloop
 endfacet
 facet normal  0.000000e+000  0.000000e+000  1.000000e+000
   outer loop
     vertex -4.341000e+001 -2.913000e+001  5.000000e+000
     vertex -4.830012e+001 -2.587655e+001  5.000000e+000
     vertex -5.341000e+001 -2.913000e+001  5.000000e+000
   endloop
 endfacet
 facet normal  0.000000e+000  0.000000e+000  1.000000e+000
   outer loop
     vertex -3.841000e+001 -4.913000e+001  5.000000e+000
     vertex -4.771471e+001 -4.126988e+001  5.000000e+000
     vertex -4.826872e+001 -4.137556e+001  5.000000e+000
   endloop
 endfacet
 facet normal  0.000000e+000  0.000000e+000  1.000000e+000
   outer loop
     vertex -4.713430e+001  2.293204e+001  5.000000e+000
     vertex -4.747230e+001  2.265243e+001  5.000000e+000
     vertex -4.747230e+001 -2.265243e+001  5.000000e+000
   endloop
 endfacet
 facet normal  0.000000e+000  0.000000e+000  1.000000e+000
   outer loop
     vertex -3.841000e+001 -4.913000e+001  5.000000e+000
     vertex -4.720439e+001 -4.102974e+001  5.000000e+000
     vertex -4.771471e+001 -4.126988e+001  5.000000e+000
   endloop
 endfacet
 facet normal  0.000000e+000  0.000000e+000  1.000000e+000
   outer loop
     vertex -4.341000e+001 -2.913000e+001  5.000000e+000
     vertex -4.786922e+001 -2.579435e+001  5.000000e+000
     vertex -4.830012e+001 -2.587655e+001  5.000000e+000
   endloop
 endfacet
 facet normal  0.000000e+000  0.000000e+000  1.000000e+000
   outer loop
     vertex -4.341000e+001 -2.913000e+001  5.000000e+000
     vertex -4.747230e+001 -2.560757e+001  5.000000e+000
     vertex -4.786922e+001 -2.579435e+001  5.000000e+000
   endloop
 endfacet
 facet normal  0.000000e+000  0.000000e+000  1.000000e+000
   outer loop
     vertex -3.841000e+001 -4.913000e+001  5.000000e+000
     vertex -4.826872e+001 -4.137556e+001  5.000000e+000
     vertex -5.841000e+001 -4.913000e+001  5.000000e+000
   endloop
 endfacet
 facet normal  0.000000e+000  0.000000e+000  1.000000e+000
   outer loop
     vertex -4.713430e+001  2.293204e+001  5.000000e+000
     vertex -4.747230e+001 -2.265243e+001  5.000000e+000
     vertex -4.713430e+001 -2.293204e+001  5.000000e+000
   endloop
 endfacet
 facet normal  0.000000e+000  0.000000e+000  1.000000e+000
   outer loop
     vertex -4.676982e+001 -4.067023e+001  5.000000e+000
     vertex -4.720439e+001 -4.102974e+001  5.000000e+000
     vertex -3.841000e+001 -4.913000e+001  5.000000e+000
   endloop
 endfacet
 facet normal  0.000000e+000  0.000000e+000  1.000000e+000
   outer loop
     vertex -4.713430e+001 -2.532796e+001  5.000000e+000
     vertex -4.747230e+001 -2.560757e+001  5.000000e+000
     vertex -4.341000e+001 -2.913000e+001  5.000000e+000
   endloop
 endfacet
 facet normal  0.000000e+000  0.000000e+000  1.000000e+000
   outer loop
     vertex -4.687646e+001 -2.497307e+001  5.000000e+000
     vertex -4.713430e+001 -2.532796e+001  5.000000e+000
     vertex -4.341000e+001 -2.913000e+001  5.000000e+000
   endloop
 endfacet
 facet normal  0.000000e+000  0.000000e+000  1.000000e+000
   outer loop
     vertex -4.643831e+001 -4.021395e+001  5.000000e+000
     vertex -4.676982e+001 -4.067023e+001  5.000000e+000
     vertex -3.841000e+001 -4.913000e+001  5.000000e+000
   endloop
 endfacet
 facet normal  0.000000e+000  0.000000e+000  1.000000e+000
   outer loop
     vertex -4.623069e+001 -3.968955e+001  5.000000e+000
     vertex -4.643831e+001 -4.021395e+001  5.000000e+000
     vertex -3.841000e+001 -4.913000e+001  5.000000e+000
   endloop
 endfacet
 facet normal  0.000000e+000  0.000000e+000  1.000000e+000
   outer loop
     vertex -4.671498e+001 -2.456521e+001  5.000000e+000
     vertex -4.687646e+001 -2.497307e+001  5.000000e+000
     vertex -4.341000e+001 -2.913000e+001  5.000000e+000
   endloop
 endfacet
 facet normal  0.000000e+000  0.000000e+000  1.000000e+000
   outer loop
     vertex -4.616000e+001 -3.913000e+001  5.000000e+000
     vertex -4.623069e+001 -3.968955e+001  5.000000e+000
     vertex -3.841000e+001 -4.913000e+001  5.000000e+000
   endloop
 endfacet
 facet normal  0.000000e+000  0.000000e+000  1.000000e+000
   outer loop
     vertex -4.666000e+001 -2.413000e+001  5.000000e+000
     vertex -4.671498e+001 -2.456521e+001  5.000000e+000
     vertex -4.341000e+001 -2.913000e+001  5.000000e+000
   endloop
 endfacet
 facet normal -0.000000e+000  0.000000e+000  1.000000e+000
   outer loop
     vertex -5.341000e+001  3.413000e+001  5.000000e+000
     vertex -4.873792e+001  2.584900e+001  5.000000e+000
     vertex -4.830012e+001  2.587655e+001  5.000000e+000
   endloop
 endfacet
 facet normal -0.000000e+000  0.000000e+000  1.000000e+000
   outer loop
     vertex -5.341000e+001  3.413000e+001  5.000000e+000
     vertex -4.915511e+001  2.571345e+001  5.000000e+000
     vertex -4.873792e+001  2.584900e+001  5.000000e+000
   endloop
 endfacet
 facet normal -0.000000e+000  0.000000e+000  1.000000e+000
   outer loop
     vertex -5.341000e+001  3.413000e+001  5.000000e+000
     vertex -4.952549e+001  2.547840e+001  5.000000e+000
     vertex -4.915511e+001  2.571345e+001  5.000000e+000
   endloop
 endfacet
 facet normal -0.000000e+000  0.000000e+000  1.000000e+000
   outer loop
     vertex -5.341000e+001  3.413000e+001  5.000000e+000
     vertex -4.982578e+001  2.515862e+001  5.000000e+000
     vertex -4.952549e+001  2.547840e+001  5.000000e+000
   endloop
 endfacet
 facet normal -0.000000e+000  0.000000e+000  1.000000e+000
   outer loop
     vertex -5.341000e+001  3.413000e+001  5.000000e+000
     vertex -5.003711e+001  2.477422e+001  5.000000e+000
     vertex -4.982578e+001  2.515862e+001  5.000000e+000
   endloop
 endfacet
 facet normal -0.000000e+000  0.000000e+000  1.000000e+000
   outer loop
     vertex -5.341000e+001  3.413000e+001  5.000000e+000
     vertex -5.014620e+001  2.434933e+001  5.000000e+000
     vertex -5.003711e+001  2.477422e+001  5.000000e+000
   endloop
 endfacet
 facet normal -0.000000e+000  0.000000e+000  1.000000e+000
   outer loop
     vertex -5.341000e+001  3.413000e+001  5.000000e+000
     vertex -5.014620e+001  2.391067e+001  5.000000e+000
     vertex -5.014620e+001  2.434933e+001  5.000000e+000
   endloop
 endfacet
 facet normal  0.000000e+000  0.000000e+000  1.000000e+000
   outer loop
     vertex -5.341000e+001 -2.913000e+001  5.000000e+000
     vertex -5.841000e+001 -2.913000e+001  5.000000e+000
     vertex -5.023029e+001 -3.780748e+001  5.000000e+000
   endloop
 endfacet
 facet normal -0.000000e+000  0.000000e+000  1.000000e+000
   outer loop
     vertex -5.341000e+001 -2.913000e+001  5.000000e+000
     vertex -4.883161e+001 -3.691985e+001  5.000000e+000
     vertex -4.826872e+001 -3.688444e+001  5.000000e+000
   endloop
 endfacet
 facet normal  0.000000e+000  0.000000e+000  1.000000e+000
   outer loop
     vertex -4.341000e+001  3.413000e+001  5.000000e+000
     vertex -4.671498e+001  2.456521e+001  5.000000e+000
     vertex -4.666000e+001  2.413000e+001  5.000000e+000
   endloop
 endfacet
 facet normal -0.000000e+000  0.000000e+000  1.000000e+000
   outer loop
     vertex -5.341000e+001 -2.913000e+001  5.000000e+000
     vertex -4.936800e+001 -3.709414e+001  5.000000e+000
     vertex -4.883161e+001 -3.691985e+001  5.000000e+000
   endloop
 endfacet
 facet normal  0.000000e+000  0.000000e+000  1.000000e+000
   outer loop
     vertex -4.341000e+001  3.413000e+001  5.000000e+000
     vertex -4.687646e+001  2.497307e+001  5.000000e+000
     vertex -4.671498e+001  2.456521e+001  5.000000e+000
   endloop
 endfacet
 facet normal -0.000000e+000  0.000000e+000  1.000000e+000
   outer loop
     vertex -5.341000e+001 -2.913000e+001  5.000000e+000
     vertex -4.984420e+001 -3.739635e+001  5.000000e+000
     vertex -4.936800e+001 -3.709414e+001  5.000000e+000
   endloop
 endfacet
 facet normal  0.000000e+000  0.000000e+000  1.000000e+000
   outer loop
     vertex -4.341000e+001  3.413000e+001  5.000000e+000
     vertex -4.713430e+001  2.532796e+001  5.000000e+000
     vertex -4.687646e+001  2.497307e+001  5.000000e+000
   endloop
 endfacet
 facet normal -0.000000e+000  0.000000e+000  1.000000e+000
   outer loop
     vertex -5.341000e+001 -2.913000e+001  5.000000e+000
     vertex -5.023029e+001 -3.780748e+001  5.000000e+000
     vertex -4.984420e+001 -3.739635e+001  5.000000e+000
   endloop
 endfacet
 facet normal  0.000000e+000  0.000000e+000  1.000000e+000
   outer loop
     vertex -4.341000e+001  3.413000e+001  5.000000e+000
     vertex -4.747230e+001  2.560757e+001  5.000000e+000
     vertex -4.713430e+001  2.532796e+001  5.000000e+000
   endloop
 endfacet
 facet normal  0.000000e+000  0.000000e+000  1.000000e+000
   outer loop
     vertex -4.341000e+001  3.413000e+001  5.000000e+000
     vertex -4.786922e+001  2.579435e+001  5.000000e+000
     vertex -4.747230e+001  2.560757e+001  5.000000e+000
   endloop
 endfacet
 facet normal  0.000000e+000  0.000000e+000  1.000000e+000
   outer loop
     vertex -4.341000e+001  3.413000e+001  5.000000e+000
     vertex -4.830012e+001  2.587655e+001  5.000000e+000
     vertex -4.786922e+001  2.579435e+001  5.000000e+000
   endloop
 endfacet
 facet normal  0.000000e+000  0.000000e+000  1.000000e+000
   outer loop
     vertex -3.841000e+001 -2.913000e+001  5.000000e+000
     vertex -4.623069e+001 -3.857045e+001  5.000000e+000
     vertex -4.616000e+001 -3.913000e+001  5.000000e+000
   endloop
 endfacet
 facet normal  0.000000e+000  0.000000e+000  1.000000e+000
   outer loop
     vertex -4.341000e+001  3.413000e+001  5.000000e+000
     vertex -5.341000e+001  3.413000e+001  5.000000e+000
     vertex -4.830012e+001  2.587655e+001  5.000000e+000
   endloop
 endfacet
 facet normal  0.000000e+000  0.000000e+000  1.000000e+000
   outer loop
     vertex -3.841000e+001 -2.913000e+001  5.000000e+000
     vertex -4.643831e+001 -3.804605e+001  5.000000e+000
     vertex -4.623069e+001 -3.857045e+001  5.000000e+000
   endloop
 endfacet
 facet normal  0.000000e+000  0.000000e+000  1.000000e+000
   outer loop
     vertex -3.841000e+001 -2.913000e+001  5.000000e+000
     vertex -4.616000e+001 -3.913000e+001  5.000000e+000
     vertex -3.841000e+001 -4.913000e+001  5.000000e+000
   endloop
 endfacet
 facet normal  0.000000e+000  0.000000e+000  1.000000e+000
   outer loop
     vertex -4.341000e+001  3.413000e+001  5.000000e+000
     vertex -4.666000e+001  2.413000e+001  5.000000e+000
     vertex -4.671498e+001  2.369479e+001  5.000000e+000
   endloop
 endfacet
 facet normal  0.000000e+000  0.000000e+000  1.000000e+000
   outer loop
     vertex -3.841000e+001 -2.913000e+001  5.000000e+000
     vertex -4.341000e+001 -2.913000e+001  5.000000e+000
     vertex -4.643831e+001 -3.804605e+001  5.000000e+000
   endloop
 endfacet
 facet normal -0.000000e+000  0.000000e+000  1.000000e+000
   outer loop
     vertex -5.341000e+001  3.413000e+001  5.000000e+000
     vertex -5.341000e+001 -2.913000e+001  5.000000e+000
     vertex -5.014620e+001 -2.391067e+001  5.000000e+000
   endloop
 endfacet
 facet normal -0.000000e+000  0.000000e+000  1.000000e+000
   outer loop
     vertex -5.341000e+001  3.413000e+001  5.000000e+000
     vertex -5.014620e+001 -2.391067e+001  5.000000e+000
     vertex -5.003711e+001 -2.348578e+001  5.000000e+000
   endloop
 endfacet
 facet normal -0.000000e+000  0.000000e+000  1.000000e+000
   outer loop
     vertex -5.341000e+001  3.413000e+001  5.000000e+000
     vertex -5.003711e+001 -2.348578e+001  5.000000e+000
     vertex -4.982578e+001 -2.310138e+001  5.000000e+000
   endloop
 endfacet
 facet normal -0.000000e+000  0.000000e+000  1.000000e+000
   outer loop
     vertex -5.341000e+001  3.413000e+001  5.000000e+000
     vertex -4.982578e+001 -2.310138e+001  5.000000e+000
     vertex -4.952549e+001 -2.278160e+001  5.000000e+000
   endloop
 endfacet
 facet normal -0.000000e+000 -0.000000e+000  1.000000e+000
   outer loop
     vertex -5.341000e+001  3.413000e+001  5.000000e+000
     vertex -4.952549e+001 -2.278160e+001  5.000000e+000
     vertex -5.014620e+001  2.391067e+001  5.000000e+000
   endloop
 endfacet
 facet normal -0.000000e+000 -0.000000e+000  1.000000e+000
   outer loop
     vertex -5.014620e+001  2.391067e+001  5.000000e+000
     vertex -4.952549e+001 -2.278160e+001  5.000000e+000
     vertex -5.003711e+001  2.348578e+001  5.000000e+000
   endloop
 endfacet
 facet normal -0.000000e+000 -0.000000e+000  1.000000e+000
   outer loop
     vertex -5.003711e+001  2.348578e+001  5.000000e+000
     vertex -4.952549e+001 -2.278160e+001  5.000000e+000
     vertex -4.982578e+001  2.310138e+001  5.000000e+000
   endloop
 endfacet
 facet normal -0.000000e+000  0.000000e+000  1.000000e+000
   outer loop
     vertex -4.982578e+001 -2.515862e+001  5.000000e+000
     vertex -5.341000e+001 -2.913000e+001  5.000000e+000
     vertex -4.952549e+001 -2.547840e+001  5.000000e+000
   endloop
 endfacet
 facet normal -0.000000e+000  0.000000e+000  1.000000e+000
   outer loop
     vertex -4.982578e+001  2.310138e+001  5.000000e+000
     vertex -4.952549e+001 -2.278160e+001  5.000000e+000
     vertex -4.952549e+001  2.278160e+001  5.000000e+000
   endloop
 endfacet
 facet normal  0.000000e+000 -0.000000e+000  1.000000e+000
   outer loop
     vertex -4.341000e+001 -2.913000e+001  5.000000e+000
     vertex -4.341000e+001  3.413000e+001  5.000000e+000
     vertex -4.666000e+001 -2.413000e+001  5.000000e+000
   endloop
 endfacet
 facet normal  0.000000e+000 -0.000000e+000  1.000000e+000
   outer loop
     vertex -4.666000e+001 -2.413000e+001  5.000000e+000
     vertex -4.341000e+001  3.413000e+001  5.000000e+000
     vertex -4.671498e+001 -2.369479e+001  5.000000e+000
   endloop
 endfacet
 facet normal  0.000000e+000 -0.000000e+000  1.000000e+000
   outer loop
     vertex -4.671498e+001 -2.369479e+001  5.000000e+000
     vertex -4.341000e+001  3.413000e+001  5.000000e+000
     vertex -4.687646e+001 -2.328693e+001  5.000000e+000
   endloop
 endfacet
 facet normal  0.000000e+000 -0.000000e+000  1.000000e+000
   outer loop
     vertex -4.687646e+001 -2.328693e+001  5.000000e+000
     vertex -4.341000e+001  3.413000e+001  5.000000e+000
     vertex -4.713430e+001 -2.293204e+001  5.000000e+000
   endloop
 endfacet
 facet normal  0.000000e+000 -0.000000e+000  1.000000e+000
   outer loop
     vertex -4.713430e+001 -2.293204e+001  5.000000e+000
     vertex -4.341000e+001  3.413000e+001  5.000000e+000
     vertex -4.671498e+001  2.369479e+001  5.000000e+000
   endloop
 endfacet
 facet normal  0.000000e+000 -0.000000e+000  1.000000e+000
   outer loop
     vertex -4.713430e+001 -2.293204e+001  5.000000e+000
     vertex -4.671498e+001  2.369479e+001  5.000000e+000
     vertex -4.687646e+001  2.328693e+001  5.000000e+000
   endloop
 endfacet
 facet normal  0.000000e+000  1.000000e+000 -0.000000e+000
   outer loop
     vertex -5.341000e+001  3.413000e+001  5.000000e+000
     vertex -5.841000e+001  3.413000e+001  0.000000e+000
     vertex -5.841000e+001  3.413000e+001  5.000000e+000
   endloop
 endfacet
 facet normal  0.000000e+000  1.000000e+000 -0.000000e+000
   outer loop
     vertex -3.841000e+001  3.413000e+001  0.000000e+000
     vertex -5.341000e+001  3.413000e+001  5.000000e+000
     vertex -4.341000e+001  3.413000e+001  5.000000e+000
   endloop
 endfacet
 facet normal  0.000000e+000  1.000000e+000 -0.000000e+000
   outer loop
     vertex -3.841000e+001  3.413000e+001  0.000000e+000
     vertex -4.341000e+001  3.413000e+001  5.000000e+000
     vertex -3.841000e+001  3.413000e+001  5.000000e+000
   endloop
 endfacet
 facet normal  0.000000e+000  1.000000e+000 -0.000000e+000
   outer loop
     vertex -3.841000e+001  3.413000e+001  0.000000e+000
     vertex -5.841000e+001  3.413000e+001  0.000000e+000
     vertex -5.341000e+001  3.413000e+001  5.000000e+000
   endloop
 endfacet
 facet normal  1.000000e+000  0.000000e+000  0.000000e+000
   outer loop
     vertex -3.841000e+001 -2.913000e+001  5.000000e+000
     vertex -3.841000e+001  3.413000e+001  5.000000e+000
     vertex -3.841000e+001  3.413000e+001  1.000000e+001
   endloop
 endfacet
 facet normal  1.000000e+000  0.000000e+000 -0.000000e+000
   outer loop
     vertex -3.841000e+001 -2.913000e+001  5.000000e+000
     vertex -3.841000e+001  3.413000e+001  1.000000e+001
     vertex -3.841000e+001 -2.913000e+001  1.000000e+001
   endloop
 endfacet
 facet normal -1.000000e+000 -0.000000e+000  0.000000e+000
   outer loop
     vertex -5.841000e+001  3.413000e+001  1.000000e+001
     vertex -5.841000e+001 -2.913000e+001  5.000000e+000
     vertex -5.841000e+001 -2.913000e+001  1.000000e+001
   endloop
 endfacet
 facet normal -1.000000e+000  0.000000e+000  0.000000e+000
   outer loop
     vertex -5.841000e+001  3.413000e+001  5.000000e+000
     vertex -5.841000e+001 -2.913000e+001  5.000000e+000
     vertex -5.841000e+001  3.413000e+001  1.000000e+001
   endloop
 endfacet
 facet normal -1.873813e-001  9.822873e-001  0.000000e+000
   outer loop
     vertex -4.771471e+001 -4.126988e+001  0.000000e+000
     vertex -4.826872e+001 -4.137556e+001  0.000000e+000
     vertex -4.826872e+001 -4.137556e+001  5.000000e+000
   endloop
 endfacet
 facet normal -1.873813e-001  9.822873e-001  0.000000e+000
   outer loop
     vertex -4.771471e+001 -4.126988e+001  0.000000e+000
     vertex -4.826872e+001 -4.137556e+001  5.000000e+000
     vertex -4.771471e+001 -4.126988e+001  5.000000e+000
   endloop
 endfacet
 facet normal -4.257793e-001  9.048271e-001  0.000000e+000
   outer loop
     vertex -4.771471e+001 -4.126988e+001  0.000000e+000
     vertex -4.771471e+001 -4.126988e+001  5.000000e+000
     vertex -4.720439e+001 -4.102974e+001  5.000000e+000
   endloop
 endfacet
 facet normal -4.257793e-001  9.048271e-001  0.000000e+000
   outer loop
     vertex -4.720439e+001 -4.102974e+001  0.000000e+000
     vertex -4.771471e+001 -4.126988e+001  0.000000e+000
     vertex -4.720439e+001 -4.102974e+001  5.000000e+000
   endloop
 endfacet
 facet normal -9.921147e-001 -1.253332e-001  0.000000e+000
   outer loop
     vertex -4.623069e+001 -3.857045e+001  0.000000e+000
     vertex -4.616000e+001 -3.913000e+001  0.000000e+000
     vertex -4.616000e+001 -3.913000e+001  5.000000e+000
   endloop
 endfacet
 facet normal -9.921147e-001 -1.253332e-001  0.000000e+000
   outer loop
     vertex -4.623069e+001 -3.857045e+001  0.000000e+000
     vertex -4.616000e+001 -3.913000e+001  5.000000e+000
     vertex -4.623069e+001 -3.857045e+001  5.000000e+000
   endloop
 endfacet
 facet normal -6.374240e-001  7.705132e-001  0.000000e+000
   outer loop
     vertex -4.676982e+001 -4.067023e+001  0.000000e+000
     vertex -4.720439e+001 -4.102974e+001  0.000000e+000
     vertex -4.720439e+001 -4.102974e+001  5.000000e+000
   endloop
 endfacet
 facet normal -9.297765e-001 -3.681246e-001  0.000000e+000
   outer loop
     vertex -4.623069e+001 -3.857045e+001  0.000000e+000
     vertex -4.623069e+001 -3.857045e+001  5.000000e+000
     vertex -4.643831e+001 -3.804605e+001  5.000000e+000
   endloop
 endfacet
 facet normal -6.374240e-001  7.705132e-001  0.000000e+000
   outer loop
     vertex -4.676982e+001 -4.067023e+001  0.000000e+000
     vertex -4.720439e+001 -4.102974e+001  5.000000e+000
     vertex -4.676982e+001 -4.067023e+001  5.000000e+000
   endloop
 endfacet
 facet normal -9.297765e-001 -3.681246e-001  0.000000e+000
   outer loop
     vertex -4.643831e+001 -3.804605e+001  0.000000e+000
     vertex -4.623069e+001 -3.857045e+001  0.000000e+000
     vertex -4.643831e+001 -3.804605e+001  5.000000e+000
   endloop
 endfacet
 facet normal -8.090170e-001  5.877853e-001  0.000000e+000
   outer loop
     vertex -4.643831e+001 -4.021395e+001  0.000000e+000
     vertex -4.676982e+001 -4.067023e+001  0.000000e+000
     vertex -4.676982e+001 -4.067023e+001  5.000000e+000
   endloop
 endfacet
 facet normal -8.090170e-001  5.877853e-001  0.000000e+000
   outer loop
     vertex -4.643831e+001 -4.021395e+001  0.000000e+000
     vertex -4.676982e+001 -4.067023e+001  5.000000e+000
     vertex -4.643831e+001 -4.021395e+001  5.000000e+000
   endloop
 endfacet
 facet normal -8.090170e-001 -5.877853e-001  0.000000e+000
   outer loop
     vertex -4.676982e+001 -3.758977e+001  0.000000e+000
     vertex -4.643831e+001 -3.804605e+001  5.000000e+000
     vertex -4.676982e+001 -3.758977e+001  5.000000e+000
   endloop
 endfacet
 facet normal -9.297765e-001  3.681246e-001  0.000000e+000
   outer loop
     vertex -4.623069e+001 -3.968955e+001  0.000000e+000
     vertex -4.643831e+001 -4.021395e+001  0.000000e+000
     vertex -4.643831e+001 -4.021395e+001  5.000000e+000
   endloop
 endfacet
 facet normal -6.374240e-001 -7.705132e-001  0.000000e+000
   outer loop
     vertex -4.676982e+001 -3.758977e+001  0.000000e+000
     vertex -4.676982e+001 -3.758977e+001  5.000000e+000
     vertex -4.720439e+001 -3.723026e+001  5.000000e+000
   endloop
 endfacet
 facet normal -8.090170e-001 -5.877853e-001  0.000000e+000
   outer loop
     vertex -4.676982e+001 -3.758977e+001  0.000000e+000
     vertex -4.643831e+001 -3.804605e+001  0.000000e+000
     vertex -4.643831e+001 -3.804605e+001  5.000000e+000
   endloop
 endfacet
 facet normal -9.297765e-001  3.681246e-001  0.000000e+000
   outer loop
     vertex -4.623069e+001 -3.968955e+001  0.000000e+000
     vertex -4.643831e+001 -4.021395e+001  5.000000e+000
     vertex -4.623069e+001 -3.968955e+001  5.000000e+000
   endloop
 endfacet
 facet normal -9.921147e-001  1.253332e-001  0.000000e+000
   outer loop
     vertex -4.616000e+001 -3.913000e+001  0.000000e+000
     vertex -4.623069e+001 -3.968955e+001  5.000000e+000
     vertex -4.616000e+001 -3.913000e+001  5.000000e+000
   endloop
 endfacet
 facet normal -9.921147e-001  1.253332e-001  0.000000e+000
   outer loop
     vertex -4.616000e+001 -3.913000e+001  0.000000e+000
     vertex -4.623069e+001 -3.968955e+001  0.000000e+000
     vertex -4.623069e+001 -3.968955e+001  5.000000e+000
   endloop
 endfacet
 facet normal -6.374240e-001 -7.705132e-001  0.000000e+000
   outer loop
     vertex -4.720439e+001 -3.723026e+001  0.000000e+000
     vertex -4.676982e+001 -3.758977e+001  0.000000e+000
     vertex -4.720439e+001 -3.723026e+001  5.000000e+000
   endloop
 endfacet
 facet normal -4.257793e-001 -9.048271e-001  0.000000e+000
   outer loop
     vertex -4.771471e+001 -3.699012e+001  0.000000e+000
     vertex -4.720439e+001 -3.723026e+001  5.000000e+000
     vertex -4.771471e+001 -3.699012e+001  5.000000e+000
   endloop
 endfacet
 facet normal -4.257793e-001 -9.048271e-001  0.000000e+000
   outer loop
     vertex -4.771471e+001 -3.699012e+001  0.000000e+000
     vertex -4.720439e+001 -3.723026e+001  0.000000e+000
     vertex -4.720439e+001 -3.723026e+001  5.000000e+000
   endloop
 endfacet
 facet normal -1.873813e-001 -9.822873e-001  0.000000e+000
   outer loop
     vertex -4.826872e+001 -3.688444e+001  0.000000e+000
     vertex -4.771471e+001 -3.699012e+001  5.000000e+000
     vertex -4.826872e+001 -3.688444e+001  5.000000e+000
   endloop
 endfacet
 facet normal -1.873813e-001 -9.822873e-001  0.000000e+000
   outer loop
     vertex -4.826872e+001 -3.688444e+001  0.000000e+000
     vertex -4.771471e+001 -3.699012e+001  0.000000e+000
     vertex -4.771471e+001 -3.699012e+001  5.000000e+000
   endloop
 endfacet
 facet normal  6.279052e-002 -9.980267e-001  0.000000e+000
   outer loop
     vertex -4.883161e+001 -3.691985e+001  0.000000e+000
     vertex -4.826872e+001 -3.688444e+001  5.000000e+000
     vertex -4.883161e+001 -3.691985e+001  5.000000e+000
   endloop
 endfacet
 facet normal  3.090170e-001 -9.510565e-001  0.000000e+000
   outer loop
     vertex -4.883161e+001 -3.691985e+001  0.000000e+000
     vertex -4.883161e+001 -3.691985e+001  5.000000e+000
     vertex -4.936800e+001 -3.709414e+001  5.000000e+000
   endloop
 endfacet
 facet normal  6.279052e-002 -9.980267e-001  0.000000e+000
   outer loop
     vertex -4.883161e+001 -3.691985e+001  0.000000e+000
     vertex -4.826872e+001 -3.688444e+001  0.000000e+000
     vertex -4.826872e+001 -3.688444e+001  5.000000e+000
   endloop
 endfacet
 facet normal  3.090170e-001 -9.510565e-001  0.000000e+000
   outer loop
     vertex -4.936800e+001 -3.709414e+001  0.000000e+000
     vertex -4.883161e+001 -3.691985e+001  0.000000e+000
     vertex -4.936800e+001 -3.709414e+001  5.000000e+000
   endloop
 endfacet
 facet normal  5.358268e-001 -8.443279e-001  0.000000e+000
   outer loop
     vertex -4.984420e+001 -3.739635e+001  0.000000e+000
     vertex -4.936800e+001 -3.709414e+001  5.000000e+000
     vertex -4.984420e+001 -3.739635e+001  5.000000e+000
   endloop
 endfacet
 facet normal  7.289686e-001 -6.845471e-001  0.000000e+000
   outer loop
     vertex -4.984420e+001 -3.739635e+001  0.000000e+000
     vertex -4.984420e+001 -3.739635e+001  5.000000e+000
     vertex -5.023029e+001 -3.780748e+001  5.000000e+000
   endloop
 endfacet
 facet normal  5.358268e-001 -8.443279e-001  0.000000e+000
   outer loop
     vertex -4.984420e+001 -3.739635e+001  0.000000e+000
     vertex -4.936800e+001 -3.709414e+001  0.000000e+000
     vertex -4.936800e+001 -3.709414e+001  5.000000e+000
   endloop
 endfacet
 facet normal  7.289686e-001 -6.845471e-001  0.000000e+000
   outer loop
     vertex -5.023029e+001 -3.780748e+001  0.000000e+000
     vertex -4.984420e+001 -3.739635e+001  0.000000e+000
     vertex -5.023029e+001 -3.780748e+001  5.000000e+000
   endloop
 endfacet
 facet normal  8.763067e-001 -4.817537e-001  0.000000e+000
   outer loop
     vertex -5.050200e+001 -3.830172e+001  0.000000e+000
     vertex -5.023029e+001 -3.780748e+001  5.000000e+000
     vertex -5.050200e+001 -3.830172e+001  5.000000e+000
   endloop
 endfacet
 facet normal  9.685832e-001 -2.486899e-001  0.000000e+000
   outer loop
     vertex -5.050200e+001 -3.830172e+001  0.000000e+000
     vertex -5.050200e+001 -3.830172e+001  5.000000e+000
     vertex -5.064226e+001 -3.884800e+001  5.000000e+000
   endloop
 endfacet
 facet normal  8.763067e-001 -4.817537e-001  0.000000e+000
   outer loop
     vertex -5.050200e+001 -3.830172e+001  0.000000e+000
     vertex -5.023029e+001 -3.780748e+001  0.000000e+000
     vertex -5.023029e+001 -3.780748e+001  5.000000e+000
   endloop
 endfacet
 facet normal  9.685832e-001 -2.486899e-001  0.000000e+000
   outer loop
     vertex -5.064226e+001 -3.884800e+001  0.000000e+000
     vertex -5.050200e+001 -3.830172e+001  0.000000e+000
     vertex -5.064226e+001 -3.884800e+001  5.000000e+000
   endloop
 endfacet
 facet normal  1.000000e+000  0.000000e+000  0.000000e+000
   outer loop
     vertex -5.064226e+001 -3.941200e+001  0.000000e+000
     vertex -5.064226e+001 -3.884800e+001  0.000000e+000
     vertex -5.064226e+001 -3.884800e+001  5.000000e+000
   endloop
 endfacet
 facet normal  1.000000e+000  0.000000e+000 -0.000000e+000
   outer loop
     vertex -5.064226e+001 -3.941200e+001  0.000000e+000
     vertex -5.064226e+001 -3.884800e+001  5.000000e+000
     vertex -5.064226e+001 -3.941200e+001  5.000000e+000
   endloop
 endfacet
 facet normal  9.685832e-001  2.486899e-001 -0.000000e+000
   outer loop
     vertex -5.050200e+001 -3.995828e+001  0.000000e+000
     vertex -5.064226e+001 -3.941200e+001  0.000000e+000
     vertex -5.064226e+001 -3.941200e+001  5.000000e+000
   endloop
 endfacet
 facet normal  9.685832e-001  2.486899e-001  0.000000e+000
   outer loop
     vertex -5.050200e+001 -3.995828e+001  0.000000e+000
     vertex -5.064226e+001 -3.941200e+001  5.000000e+000
     vertex -5.050200e+001 -3.995828e+001  5.000000e+000
   endloop
 endfacet
 facet normal  8.763067e-001  4.817537e-001 -0.000000e+000
   outer loop
     vertex -5.023029e+001 -4.045252e+001  0.000000e+000
     vertex -5.050200e+001 -3.995828e+001  0.000000e+000
     vertex -5.050200e+001 -3.995828e+001  5.000000e+000
   endloop
 endfacet
 facet normal  8.763067e-001  4.817537e-001  0.000000e+000
   outer loop
     vertex -5.023029e+001 -4.045252e+001  0.000000e+000
     vertex -5.050200e+001 -3.995828e+001  5.000000e+000
     vertex -5.023029e+001 -4.045252e+001  5.000000e+000
   endloop
 endfacet
 facet normal  7.289686e-001  6.845471e-001 -0.000000e+000
   outer loop
     vertex -4.984420e+001 -4.086365e+001  0.000000e+000
     vertex -5.023029e+001 -4.045252e+001  0.000000e+000
     vertex -5.023029e+001 -4.045252e+001  5.000000e+000
   endloop
 endfacet
 facet normal  7.289686e-001  6.845471e-001  0.000000e+000
   outer loop
     vertex -4.984420e+001 -4.086365e+001  0.000000e+000
     vertex -5.023029e+001 -4.045252e+001  5.000000e+000
     vertex -4.984420e+001 -4.086365e+001  5.000000e+000
   endloop
 endfacet
 facet normal  5.358268e-001  8.443279e-001 -0.000000e+000
   outer loop
     vertex -4.984420e+001 -4.086365e+001  0.000000e+000
     vertex -4.984420e+001 -4.086365e+001  5.000000e+000
     vertex -4.936800e+001 -4.116586e+001  5.000000e+000
   endloop
 endfacet
 facet normal  5.358268e-001  8.443279e-001  0.000000e+000
   outer loop
     vertex -4.936800e+001 -4.116586e+001  0.000000e+000
     vertex -4.984420e+001 -4.086365e+001  0.000000e+000
     vertex -4.936800e+001 -4.116586e+001  5.000000e+000
   endloop
 endfacet
 facet normal  3.090170e-001  9.510565e-001 -0.000000e+000
   outer loop
     vertex -4.883161e+001 -4.134015e+001  0.000000e+000
     vertex -4.936800e+001 -4.116586e+001  0.000000e+000
     vertex -4.936800e+001 -4.116586e+001  5.000000e+000
   endloop
 endfacet
 facet normal  3.090170e-001  9.510565e-001  0.000000e+000
   outer loop
     vertex -4.883161e+001 -4.134015e+001  0.000000e+000
     vertex -4.936800e+001 -4.116586e+001  5.000000e+000
     vertex -4.883161e+001 -4.134015e+001  5.000000e+000
   endloop
 endfacet
 facet normal  6.279052e-002  9.980267e-001 -0.000000e+000
   outer loop
     vertex -4.826872e+001 -4.137556e+001  0.000000e+000
     vertex -4.883161e+001 -4.134015e+001  0.000000e+000
     vertex -4.883161e+001 -4.134015e+001  5.000000e+000
   endloop
 endfacet
 facet normal  6.279052e-002  9.980267e-001  0.000000e+000
   outer loop
     vertex -4.826872e+001 -4.137556e+001  0.000000e+000
     vertex -4.883161e+001 -4.134015e+001  5.000000e+000
     vertex -4.826872e+001 -4.137556e+001  5.000000e+000
   endloop
 endfacet
 facet normal -1.873813e-001  9.822873e-001  0.000000e+000
   outer loop
     vertex -4.786922e+001  2.246565e+001  0.000000e+000
     vertex -4.830012e+001  2.238345e+001  0.000000e+000
     vertex -4.830012e+001  2.238345e+001  5.000000e+000
   endloop
 endfacet
 facet normal -1.873813e-001  9.822873e-001  0.000000e+000
   outer loop
     vertex -4.786922e+001  2.246565e+001  0.000000e+000
     vertex -4.830012e+001  2.238345e+001  5.000000e+000
     vertex -4.786922e+001  2.246565e+001  5.000000e+000
   endloop
 endfacet
 facet normal -4.257793e-001  9.048271e-001  0.000000e+000
   outer loop
     vertex -4.786922e+001  2.246565e+001  0.000000e+000
     vertex -4.786922e+001  2.246565e+001  5.000000e+000
     vertex -4.747230e+001  2.265243e+001  5.000000e+000
   endloop
 endfacet
 facet normal -4.257793e-001  9.048271e-001  0.000000e+000
   outer loop
     vertex -4.747230e+001  2.265243e+001  0.000000e+000
     vertex -4.786922e+001  2.246565e+001  0.000000e+000
     vertex -4.747230e+001  2.265243e+001  5.000000e+000
   endloop
 endfacet
 facet normal -9.921147e-001 -1.253332e-001  0.000000e+000
   outer loop
     vertex -4.671498e+001  2.456521e+001  0.000000e+000
     vertex -4.666000e+001  2.413000e+001  0.000000e+000
     vertex -4.666000e+001  2.413000e+001  5.000000e+000
   endloop
 endfacet
 facet normal -9.921147e-001 -1.253332e-001  0.000000e+000
   outer loop
     vertex -4.671498e+001  2.456521e+001  0.000000e+000
     vertex -4.666000e+001  2.413000e+001  5.000000e+000
     vertex -4.671498e+001  2.456521e+001  5.000000e+000
   endloop
 endfacet
 facet normal -6.374240e-001  7.705132e-001  0.000000e+000
   outer loop
     vertex -4.713430e+001  2.293204e+001  0.000000e+000
     vertex -4.747230e+001  2.265243e+001  0.000000e+000
     vertex -4.747230e+001  2.265243e+001  5.000000e+000
   endloop
 endfacet
 facet normal -9.297765e-001 -3.681246e-001  0.000000e+000
   outer loop
     vertex -4.671498e+001  2.456521e+001  0.000000e+000
     vertex -4.671498e+001  2.456521e+001  5.000000e+000
     vertex -4.687646e+001  2.497307e+001  5.000000e+000
   endloop
 endfacet
 facet normal -6.374240e-001  7.705132e-001  0.000000e+000
   outer loop
     vertex -4.713430e+001  2.293204e+001  0.000000e+000
     vertex -4.747230e+001  2.265243e+001  5.000000e+000
     vertex -4.713430e+001  2.293204e+001  5.000000e+000
   endloop
 endfacet
 facet normal -9.297765e-001 -3.681246e-001  0.000000e+000
   outer loop
     vertex -4.687646e+001  2.497307e+001  0.000000e+000
     vertex -4.671498e+001  2.456521e+001  0.000000e+000
     vertex -4.687646e+001  2.497307e+001  5.000000e+000
   endloop
 endfacet
 facet normal -8.090170e-001  5.877853e-001  0.000000e+000
   outer loop
     vertex -4.687646e+001  2.328693e+001  0.000000e+000
     vertex -4.713430e+001  2.293204e+001  0.000000e+000
     vertex -4.713430e+001  2.293204e+001  5.000000e+000
   endloop
 endfacet
 facet normal -8.090170e-001  5.877853e-001  0.000000e+000
   outer loop
     vertex -4.687646e+001  2.328693e+001  0.000000e+000
     vertex -4.713430e+001  2.293204e+001  5.000000e+000
     vertex -4.687646e+001  2.328693e+001  5.000000e+000
   endloop
 endfacet
 facet normal -8.090170e-001 -5.877853e-001  0.000000e+000
   outer loop
     vertex -4.713430e+001  2.532796e+001  0.000000e+000
     vertex -4.687646e+001  2.497307e+001  5.000000e+000
     vertex -4.713430e+001  2.532796e+001  5.000000e+000
   endloop
 endfacet
 facet normal -9.297765e-001  3.681246e-001  0.000000e+000
   outer loop
     vertex -4.671498e+001  2.369479e+001  0.000000e+000
     vertex -4.687646e+001  2.328693e+001  0.000000e+000
     vertex -4.687646e+001  2.328693e+001  5.000000e+000
   endloop
 endfacet
 facet normal -6.374240e-001 -7.705132e-001  0.000000e+000
   outer loop
     vertex -4.713430e+001  2.532796e+001  0.000000e+000
     vertex -4.713430e+001  2.532796e+001  5.000000e+000
     vertex -4.747230e+001  2.560757e+001  5.000000e+000
   endloop
 endfacet
 facet normal -8.090170e-001 -5.877853e-001  0.000000e+000
   outer loop
     vertex -4.713430e+001  2.532796e+001  0.000000e+000
     vertex -4.687646e+001  2.497307e+001  0.000000e+000
     vertex -4.687646e+001  2.497307e+001  5.000000e+000
   endloop
 endfacet
 facet normal -9.297765e-001  3.681246e-001  0.000000e+000
   outer loop
     vertex -4.671498e+001  2.369479e+001  0.000000e+000
     vertex -4.687646e+001  2.328693e+001  5.000000e+000
     vertex -4.671498e+001  2.369479e+001  5.000000e+000
   endloop
 endfacet
 facet normal -9.921147e-001  1.253332e-001  0.000000e+000
   outer loop
     vertex -4.666000e+001  2.413000e+001  0.000000e+000
     vertex -4.671498e+001  2.369479e+001  5.000000e+000
     vertex -4.666000e+001  2.413000e+001  5.000000e+000
   endloop
 endfacet
 facet normal -9.921147e-001  1.253332e-001  0.000000e+000
   outer loop
     vertex -4.666000e+001  2.413000e+001  0.000000e+000
     vertex -4.671498e+001  2.369479e+001  0.000000e+000
     vertex -4.671498e+001  2.369479e+001  5.000000e+000
   endloop
 endfacet
 facet normal -6.374240e-001 -7.705132e-001  0.000000e+000
   outer loop
     vertex -4.747230e+001  2.560757e+001  0.000000e+000
     vertex -4.713430e+001  2.532796e+001  0.000000e+000
     vertex -4.747230e+001  2.560757e+001  5.000000e+000
   endloop
 endfacet
 facet normal -4.257793e-001 -9.048271e-001  0.000000e+000
   outer loop
     vertex -4.786922e+001  2.579435e+001  0.000000e+000
     vertex -4.747230e+001  2.560757e+001  5.000000e+000
     vertex -4.786922e+001  2.579435e+001  5.000000e+000
   endloop
 endfacet
 facet normal -4.257793e-001 -9.048271e-001  0.000000e+000
   outer loop
     vertex -4.786922e+001  2.579435e+001  0.000000e+000
     vertex -4.747230e+001  2.560757e+001  0.000000e+000
     vertex -4.747230e+001  2.560757e+001  5.000000e+000
   endloop
 endfacet
 facet normal -1.873813e-001 -9.822873e-001  0.000000e+000
   outer loop
     vertex -4.830012e+001  2.587655e+001  0.000000e+000
     vertex -4.786922e+001  2.579435e+001  5.000000e+000
     vertex -4.830012e+001  2.587655e+001  5.000000e+000
   endloop
 endfacet
 facet normal -1.873813e-001 -9.822873e-001  0.000000e+000
   outer loop
     vertex -4.830012e+001  2.587655e+001  0.000000e+000
     vertex -4.786922e+001  2.579435e+001  0.000000e+000
     vertex -4.786922e+001  2.579435e+001  5.000000e+000
   endloop
 endfacet
 facet normal  6.279052e-002 -9.980267e-001  0.000000e+000
   outer loop
     vertex -4.873792e+001  2.584900e+001  0.000000e+000
     vertex -4.830012e+001  2.587655e+001  5.000000e+000
     vertex -4.873792e+001  2.584900e+001  5.000000e+000
   endloop
 endfacet
 facet normal  3.090170e-001 -9.510565e-001  0.000000e+000
   outer loop
     vertex -4.873792e+001  2.584900e+001  0.000000e+000
     vertex -4.873792e+001  2.584900e+001  5.000000e+000
     vertex -4.915511e+001  2.571345e+001  5.000000e+000
   endloop
 endfacet
 facet normal  6.279052e-002 -9.980267e-001  0.000000e+000
   outer loop
     vertex -4.873792e+001  2.584900e+001  0.000000e+000
     vertex -4.830012e+001  2.587655e+001  0.000000e+000
     vertex -4.830012e+001  2.587655e+001  5.000000e+000
   endloop
 endfacet
 facet normal  3.090170e-001 -9.510565e-001  0.000000e+000
   outer loop
     vertex -4.915511e+001  2.571345e+001  0.000000e+000
     vertex -4.873792e+001  2.584900e+001  0.000000e+000
     vertex -4.915511e+001  2.571345e+001  5.000000e+000
   endloop
 endfacet
 facet normal  5.358268e-001 -8.443279e-001  0.000000e+000
   outer loop
     vertex -4.952549e+001  2.547840e+001  0.000000e+000
     vertex -4.915511e+001  2.571345e+001  5.000000e+000
     vertex -4.952549e+001  2.547840e+001  5.000000e+000
   endloop
 endfacet
 facet normal  7.289686e-001 -6.845471e-001  0.000000e+000
   outer loop
     vertex -4.952549e+001  2.547840e+001  0.000000e+000
     vertex -4.952549e+001  2.547840e+001  5.000000e+000
     vertex -4.982578e+001  2.515862e+001  5.000000e+000
   endloop
 endfacet
 facet normal  5.358268e-001 -8.443279e-001  0.000000e+000
   outer loop
     vertex -4.952549e+001  2.547840e+001  0.000000e+000
     vertex -4.915511e+001  2.571345e+001  0.000000e+000
     vertex -4.915511e+001  2.571345e+001  5.000000e+000
   endloop
 endfacet
 facet normal  7.289686e-001 -6.845471e-001  0.000000e+000
   outer loop
     vertex -4.982578e+001  2.515862e+001  0.000000e+000
     vertex -4.952549e+001  2.547840e+001  0.000000e+000
     vertex -4.982578e+001  2.515862e+001  5.000000e+000
   endloop
 endfacet
 facet normal  8.763067e-001 -4.817537e-001  0.000000e+000
   outer loop
     vertex -5.003711e+001  2.477422e+001  0.000000e+000
     vertex -4.982578e+001  2.515862e+001  5.000000e+000
     vertex -5.003711e+001  2.477422e+001  5.000000e+000
   endloop
 endfacet
 facet normal  9.685832e-001 -2.486899e-001  0.000000e+000
   outer loop
     vertex -5.003711e+001  2.477422e+001  0.000000e+000
     vertex -5.003711e+001  2.477422e+001  5.000000e+000
     vertex -5.014620e+001  2.434933e+001  5.000000e+000
   endloop
 endfacet
 facet normal  8.763067e-001 -4.817537e-001  0.000000e+000
   outer loop
     vertex -5.003711e+001  2.477422e+001  0.000000e+000
     vertex -4.982578e+001  2.515862e+001  0.000000e+000
     vertex -4.982578e+001  2.515862e+001  5.000000e+000
   endloop
 endfacet
 facet normal  9.685832e-001 -2.486899e-001  0.000000e+000
   outer loop
     vertex -5.014620e+001  2.434933e+001  0.000000e+000
     vertex -5.003711e+001  2.477422e+001  0.000000e+000
     vertex -5.014620e+001  2.434933e+001  5.000000e+000
   endloop
 endfacet
 facet normal  1.000000e+000  0.000000e+000  0.000000e+000
   outer loop
     vertex -5.014620e+001  2.391067e+001  0.000000e+000
     vertex -5.014620e+001  2.434933e+001  0.000000e+000
     vertex -5.014620e+001  2.434933e+001  5.000000e+000
   endloop
 endfacet
 facet normal  1.000000e+000  0.000000e+000 -0.000000e+000
   outer loop
     vertex -5.014620e+001  2.391067e+001  0.000000e+000
     vertex -5.014620e+001  2.434933e+001  5.000000e+000
     vertex -5.014620e+001  2.391067e+001  5.000000e+000
   endloop
 endfacet
 facet normal  9.685832e-001  2.486899e-001 -0.000000e+000
   outer loop
     vertex -5.003711e+001  2.348578e+001  0.000000e+000
     vertex -5.014620e+001  2.391067e+001  0.000000e+000
     vertex -5.014620e+001  2.391067e+001  5.000000e+000
   endloop
 endfacet
 facet normal  9.685832e-001  2.486899e-001  0.000000e+000
   outer loop
     vertex -5.003711e+001  2.348578e+001  0.000000e+000
     vertex -5.014620e+001  2.391067e+001  5.000000e+000
     vertex -5.003711e+001  2.348578e+001  5.000000e+000
   endloop
 endfacet
 facet normal  8.763067e-001  4.817537e-001 -0.000000e+000
   outer loop
     vertex -4.982578e+001  2.310138e+001  0.000000e+000
     vertex -5.003711e+001  2.348578e+001  0.000000e+000
     vertex -5.003711e+001  2.348578e+001  5.000000e+000
   endloop
 endfacet
 facet normal  8.763067e-001  4.817537e-001  0.000000e+000
   outer loop
     vertex -4.982578e+001  2.310138e+001  0.000000e+000
     vertex -5.003711e+001  2.348578e+001  5.000000e+000
     vertex -4.982578e+001  2.310138e+001  5.000000e+000
   endloop
 endfacet
 facet normal  7.289686e-001  6.845471e-001 -0.000000e+000
   outer loop
     vertex -4.952549e+001  2.278160e+001  0.000000e+000
     vertex -4.982578e+001  2.310138e+001  0.000000e+000
     vertex -4.982578e+001  2.310138e+001  5.000000e+000
   endloop
 endfacet
 facet normal  7.289686e-001  6.845471e-001  0.000000e+000
   outer loop
     vertex -4.952549e+001  2.278160e+001  0.000000e+000
     vertex -4.982578e+001  2.310138e+001  5.000000e+000
     vertex -4.952549e+001  2.278160e+001  5.000000e+000
   endloop
 endfacet
 facet normal  5.358268e-001  8.443279e-001 -0.000000e+000
   outer loop
     vertex -4.952549e+001  2.278160e+001  0.000000e+000
     vertex -4.952549e+001  2.278160e+001  5.000000e+000
     vertex -4.915511e+001  2.254655e+001  5.000000e+000
   endloop
 endfacet
 facet normal  5.358268e-001  8.443279e-001  0.000000e+000
   outer loop
     vertex -4.915511e+001  2.254655e+001  0.000000e+000
     vertex -4.952549e+001  2.278160e+001  0.000000e+000
     vertex -4.915511e+001  2.254655e+001  5.000000e+000
   endloop
 endfacet
 facet normal  3.090170e-001  9.510565e-001 -0.000000e+000
   outer loop
     vertex -4.873792e+001  2.241100e+001  0.000000e+000
     vertex -4.915511e+001  2.254655e+001  0.000000e+000
     vertex -4.915511e+001  2.254655e+001  5.000000e+000
   endloop
 endfacet
 facet normal  3.090170e-001  9.510565e-001  0.000000e+000
   outer loop
     vertex -4.873792e+001  2.241100e+001  0.000000e+000
     vertex -4.915511e+001  2.254655e+001  5.000000e+000
     vertex -4.873792e+001  2.241100e+001  5.000000e+000
   endloop
 endfacet
 facet normal  6.279052e-002  9.980267e-001 -0.000000e+000
   outer loop
     vertex -4.830012e+001  2.238345e+001  0.000000e+000
     vertex -4.873792e+001  2.241100e+001  0.000000e+000
     vertex -4.873792e+001  2.241100e+001  5.000000e+000
   endloop
 endfacet
 facet normal  6.279052e-002  9.980267e-001  0.000000e+000
   outer loop
     vertex -4.830012e+001  2.238345e+001  0.000000e+000
     vertex -4.873792e+001  2.241100e+001  5.000000e+000
     vertex -4.830012e+001  2.238345e+001  5.000000e+000
   endloop
 endfacet
 facet normal -1.873813e-001  9.822873e-001  0.000000e+000
   outer loop
     vertex -4.786922e+001 -2.579435e+001  0.000000e+000
     vertex -4.830012e+001 -2.587655e+001  0.000000e+000
     vertex -4.830012e+001 -2.587655e+001  5.000000e+000
   endloop
 endfacet
 facet normal -1.873813e-001  9.822873e-001  0.000000e+000
   outer loop
     vertex -4.786922e+001 -2.579435e+001  0.000000e+000
     vertex -4.830012e+001 -2.587655e+001  5.000000e+000
     vertex -4.786922e+001 -2.579435e+001  5.000000e+000
   endloop
 endfacet
 facet normal -4.257793e-001  9.048271e-001  0.000000e+000
   outer loop
     vertex -4.786922e+001 -2.579435e+001  0.000000e+000
     vertex -4.786922e+001 -2.579435e+001  5.000000e+000
     vertex -4.747230e+001 -2.560757e+001  5.000000e+000
   endloop
 endfacet
 facet normal -4.257793e-001  9.048271e-001  0.000000e+000
   outer loop
     vertex -4.747230e+001 -2.560757e+001  0.000000e+000
     vertex -4.786922e+001 -2.579435e+001  0.000000e+000
     vertex -4.747230e+001 -2.560757e+001  5.000000e+000
   endloop
 endfacet
 facet normal -9.921147e-001 -1.253332e-001  0.000000e+000
   outer loop
     vertex -4.671498e+001 -2.369479e+001  0.000000e+000
     vertex -4.666000e+001 -2.413000e+001  0.000000e+000
     vertex -4.666000e+001 -2.413000e+001  5.000000e+000
   endloop
 endfacet
 facet normal -9.921147e-001 -1.253332e-001  0.000000e+000
   outer loop
     vertex -4.671498e+001 -2.369479e+001  0.000000e+000
     vertex -4.666000e+001 -2.413000e+001  5.000000e+000
     vertex -4.671498e+001 -2.369479e+001  5.000000e+000
   endloop
 endfacet
 facet normal -6.374240e-001  7.705132e-001  0.000000e+000
   outer loop
     vertex -4.713430e+001 -2.532796e+001  0.000000e+000
     vertex -4.747230e+001 -2.560757e+001  0.000000e+000
     vertex -4.747230e+001 -2.560757e+001  5.000000e+000
   endloop
 endfacet
 facet normal -9.297765e-001 -3.681246e-001  0.000000e+000
   outer loop
     vertex -4.671498e+001 -2.369479e+001  0.000000e+000
     vertex -4.671498e+001 -2.369479e+001  5.000000e+000
     vertex -4.687646e+001 -2.328693e+001  5.000000e+000
   endloop
 endfacet
 facet normal -6.374240e-001  7.705132e-001  0.000000e+000
   outer loop
     vertex -4.713430e+001 -2.532796e+001  0.000000e+000
     vertex -4.747230e+001 -2.560757e+001  5.000000e+000
     vertex -4.713430e+001 -2.532796e+001  5.000000e+000
   endloop
 endfacet
 facet normal -9.297765e-001 -3.681246e-001  0.000000e+000
   outer loop
     vertex -4.687646e+001 -2.328693e+001  0.000000e+000
     vertex -4.671498e+001 -2.369479e+001  0.000000e+000
     vertex -4.687646e+001 -2.328693e+001  5.000000e+000
   endloop
 endfacet
 facet normal -8.090170e-001  5.877853e-001  0.000000e+000
   outer loop
     vertex -4.687646e+001 -2.497307e+001  0.000000e+000
     vertex -4.713430e+001 -2.532796e+001  0.000000e+000
     vertex -4.713430e+001 -2.532796e+001  5.000000e+000
   endloop
 endfacet
 facet normal -8.090170e-001  5.877853e-001  0.000000e+000
   outer loop
     vertex -4.687646e+001 -2.497307e+001  0.000000e+000
     vertex -4.713430e+001 -2.532796e+001  5.000000e+000
     vertex -4.687646e+001 -2.497307e+001  5.000000e+000
   endloop
 endfacet
 facet normal -8.090170e-001 -5.877853e-001  0.000000e+000
   outer loop
     vertex -4.713430e+001 -2.293204e+001  0.000000e+000
     vertex -4.687646e+001 -2.328693e+001  5.000000e+000
     vertex -4.713430e+001 -2.293204e+001  5.000000e+000
   endloop
 endfacet
 facet normal -9.297765e-001  3.681246e-001  0.000000e+000
   outer loop
     vertex -4.671498e+001 -2.456521e+001  0.000000e+000
     vertex -4.687646e+001 -2.497307e+001  0.000000e+000
     vertex -4.687646e+001 -2.497307e+001  5.000000e+000
   endloop
 endfacet
 facet normal -6.374240e-001 -7.705132e-001  0.000000e+000
   outer loop
     vertex -4.713430e+001 -2.293204e+001  0.000000e+000
     vertex -4.713430e+001 -2.293204e+001  5.000000e+000
     vertex -4.747230e+001 -2.265243e+001  5.000000e+000
   endloop
 endfacet
 facet normal -8.090170e-001 -5.877853e-001  0.000000e+000
   outer loop
     vertex -4.713430e+001 -2.293204e+001  0.000000e+000
     vertex -4.687646e+001 -2.328693e+001  0.000000e+000
     vertex -4.687646e+001 -2.328693e+001  5.000000e+000
   endloop
 endfacet
 facet normal -9.297765e-001  3.681246e-001  0.000000e+000
   outer loop
     vertex -4.671498e+001 -2.456521e+001  0.000000e+000
     vertex -4.687646e+001 -2.497307e+001  5.000000e+000
     vertex -4.671498e+001 -2.456521e+001  5.000000e+000
   endloop
 endfacet
 facet normal -9.921147e-001  1.253332e-001  0.000000e+000
   outer loop
     vertex -4.666000e+001 -2.413000e+001  0.000000e+000
     vertex -4.671498e+001 -2.456521e+001  5.000000e+000
     vertex -4.666000e+001 -2.413000e+001  5.000000e+000
   endloop
 endfacet
 facet normal -9.921147e-001  1.253332e-001  0.000000e+000
   outer loop
     vertex -4.666000e+001 -2.413000e+001  0.000000e+000
     vertex -4.671498e+001 -2.456521e+001  0.000000e+000
     vertex -4.671498e+001 -2.456521e+001  5.000000e+000
   endloop
 endfacet
 facet normal -6.374240e-001 -7.705132e-001  0.000000e+000
   outer loop
     vertex -4.747230e+001 -2.265243e+001  0.000000e+000
     vertex -4.713430e+001 -2.293204e+001  0.000000e+000
     vertex -4.747230e+001 -2.265243e+001  5.000000e+000
   endloop
 endfacet
 facet normal -4.257793e-001 -9.048271e-001  0.000000e+000
   outer loop
     vertex -4.786922e+001 -2.246565e+001  0.000000e+000
     vertex -4.747230e+001 -2.265243e+001  5.000000e+000
     vertex -4.786922e+001 -2.246565e+001  5.000000e+000
   endloop
 endfacet
 facet normal -4.257793e-001 -9.048271e-001  0.000000e+000
   outer loop
     vertex -4.786922e+001 -2.246565e+001  0.000000e+000
     vertex -4.747230e+001 -2.265243e+001  0.000000e+000
     vertex -4.747230e+001 -2.265243e+001  5.000000e+000
   endloop
 endfacet
 facet normal -1.873813e-001 -9.822873e-001  0.000000e+000
   outer loop
     vertex -4.830012e+001 -2.238345e+001  0.000000e+000
     vertex -4.786922e+001 -2.246565e+001  5.000000e+000
     vertex -4.830012e+001 -2.238345e+001  5.000000e+000
   endloop
 endfacet
 facet normal -1.873813e-001 -9.822873e-001  0.000000e+000
   outer loop
     vertex -4.830012e+001 -2.238345e+001  0.000000e+000
     vertex -4.786922e+001 -2.246565e+001  0.000000e+000
     vertex -4.786922e+001 -2.246565e+001  5.000000e+000
   endloop
 endfacet
 facet normal  6.279052e-002 -9.980267e-001  0.000000e+000
   outer loop
     vertex -4.873792e+001 -2.241100e+001  0.000000e+000
     vertex -4.830012e+001 -2.238345e+001  5.000000e+000
     vertex -4.873792e+001 -2.241100e+001  5.000000e+000
   endloop
 endfacet
 facet normal  3.090170e-001 -9.510565e-001  0.000000e+000
   outer loop
     vertex -4.873792e+001 -2.241100e+001  0.000000e+000
     vertex -4.873792e+001 -2.241100e+001  5.000000e+000
     vertex -4.915511e+001 -2.254655e+001  5.000000e+000
   endloop
 endfacet
 facet normal  6.279052e-002 -9.980267e-001  0.000000e+000
   outer loop
     vertex -4.873792e+001 -2.241100e+001  0.000000e+000
     vertex -4.830012e+001 -2.238345e+001  0.000000e+000
     vertex -4.830012e+001 -2.238345e+001  5.000000e+000
   endloop
 endfacet
 facet normal  3.090170e-001 -9.510565e-001  0.000000e+000
   outer loop
     vertex -4.915511e+001 -2.254655e+001  0.000000e+000
     vertex -4.873792e+001 -2.241100e+001  0.000000e+000
     vertex -4.915511e+001 -2.254655e+001  5.000000e+000
   endloop
 endfacet
 facet normal  5.358268e-001 -8.443279e-001  0.000000e+000
   outer loop
     vertex -4.952549e+001 -2.278160e+001  0.000000e+000
     vertex -4.915511e+001 -2.254655e+001  5.000000e+000
     vertex -4.952549e+001 -2.278160e+001  5.000000e+000
   endloop
 endfacet
 facet normal  7.289686e-001 -6.845471e-001  0.000000e+000
   outer loop
     vertex -4.952549e+001 -2.278160e+001  0.000000e+000
     vertex -4.952549e+001 -2.278160e+001  5.000000e+000
     vertex -4.982578e+001 -2.310138e+001  5.000000e+000
   endloop
 endfacet
 facet normal  5.358268e-001 -8.443279e-001  0.000000e+000
   outer loop
     vertex -4.952549e+001 -2.278160e+001  0.000000e+000
     vertex -4.915511e+001 -2.254655e+001  0.000000e+000
     vertex -4.915511e+001 -2.254655e+001  5.000000e+000
   endloop
 endfacet
 facet normal  7.289686e-001 -6.845471e-001  0.000000e+000
   outer loop
     vertex -4.982578e+001 -2.310138e+001  0.000000e+000
     vertex -4.952549e+001 -2.278160e+001  0.000000e+000
     vertex -4.982578e+001 -2.310138e+001  5.000000e+000
   endloop
 endfacet
 facet normal  8.763067e-001 -4.817537e-001  0.000000e+000
   outer loop
     vertex -5.003711e+001 -2.348578e+001  0.000000e+000
     vertex -4.982578e+001 -2.310138e+001  5.000000e+000
     vertex -5.003711e+001 -2.348578e+001  5.000000e+000
   endloop
 endfacet
 facet normal  9.685832e-001 -2.486899e-001  0.000000e+000
   outer loop
     vertex -5.003711e+001 -2.348578e+001  0.000000e+000
     vertex -5.003711e+001 -2.348578e+001  5.000000e+000
     vertex -5.014620e+001 -2.391067e+001  5.000000e+000
   endloop
 endfacet
 facet normal  8.763067e-001 -4.817537e-001  0.000000e+000
   outer loop
     vertex -5.003711e+001 -2.348578e+001  0.000000e+000
     vertex -4.982578e+001 -2.310138e+001  0.000000e+000
     vertex -4.982578e+001 -2.310138e+001  5.000000e+000
   endloop
 endfacet
 facet normal  9.685832e-001 -2.486899e-001  0.000000e+000
   outer loop
     vertex -5.014620e+001 -2.391067e+001  0.000000e+000
     vertex -5.003711e+001 -2.348578e+001  0.000000e+000
     vertex -5.014620e+001 -2.391067e+001  5.000000e+000
   endloop
 endfacet
 facet normal  1.000000e+000  0.000000e+000  0.000000e+000
   outer loop
     vertex -5.014620e+001 -2.434933e+001  0.000000e+000
     vertex -5.014620e+001 -2.391067e+001  0.000000e+000
     vertex -5.014620e+001 -2.391067e+001  5.000000e+000
   endloop
 endfacet
 facet normal  1.000000e+000  0.000000e+000 -0.000000e+000
   outer loop
     vertex -5.014620e+001 -2.434933e+001  0.000000e+000
     vertex -5.014620e+001 -2.391067e+001  5.000000e+000
     vertex -5.014620e+001 -2.434933e+001  5.000000e+000
   endloop
 endfacet
 facet normal  9.685832e-001  2.486899e-001 -0.000000e+000
   outer loop
     vertex -5.003711e+001 -2.477422e+001  0.000000e+000
     vertex -5.014620e+001 -2.434933e+001  0.000000e+000
     vertex -5.014620e+001 -2.434933e+001  5.000000e+000
   endloop
 endfacet
 facet normal  9.685832e-001  2.486899e-001  0.000000e+000
   outer loop
     vertex -5.003711e+001 -2.477422e+001  0.000000e+000
     vertex -5.014620e+001 -2.434933e+001  5.000000e+000
     vertex -5.003711e+001 -2.477422e+001  5.000000e+000
   endloop
 endfacet
 facet normal  8.763067e-001  4.817537e-001 -0.000000e+000
   outer loop
     vertex -4.982578e+001 -2.515862e+001  0.000000e+000
     vertex -5.003711e+001 -2.477422e+001  0.000000e+000
     vertex -5.003711e+001 -2.477422e+001  5.000000e+000
   endloop
 endfacet
 facet normal  8.763067e-001  4.817537e-001  0.000000e+000
   outer loop
     vertex -4.982578e+001 -2.515862e+001  0.000000e+000
     vertex -5.003711e+001 -2.477422e+001  5.000000e+000
     vertex -4.982578e+001 -2.515862e+001  5.000000e+000
   endloop
 endfacet
 facet normal  7.289686e-001  6.845471e-001 -0.000000e+000
   outer loop
     vertex -4.952549e+001 -2.547840e+001  0.000000e+000
     vertex -4.982578e+001 -2.515862e+001  0.000000e+000
     vertex -4.982578e+001 -2.515862e+001  5.000000e+000
   endloop
 endfacet
 facet normal  7.289686e-001  6.845471e-001  0.000000e+000
   outer loop
     vertex -4.952549e+001 -2.547840e+001  0.000000e+000
     vertex -4.982578e+001 -2.515862e+001  5.000000e+000
     vertex -4.952549e+001 -2.547840e+001  5.000000e+000
   endloop
 endfacet
 facet normal  5.358268e-001  8.443279e-001 -0.000000e+000
   outer loop
     vertex -4.952549e+001 -2.547840e+001  0.000000e+000
     vertex -4.952549e+001 -2.547840e+001  5.000000e+000
     vertex -4.915511e+001 -2.571345e+001  5.000000e+000
   endloop
 endfacet
 facet normal  5.358268e-001  8.443279e-001  0.000000e+000
   outer loop
     vertex -4.915511e+001 -2.571345e+001  0.000000e+000
     vertex -4.952549e+001 -2.547840e+001  0.000000e+000
     vertex -4.915511e+001 -2.571345e+001  5.000000e+000
   endloop
 endfacet
 facet normal  3.090170e-001  9.510565e-001 -0.000000e+000
   outer loop
     vertex -4.873792e+001 -2.584900e+001  0.000000e+000
     vertex -4.915511e+001 -2.571345e+001  0.000000e+000
     vertex -4.915511e+001 -2.571345e+001  5.000000e+000
   endloop
 endfacet
 facet normal  3.090170e-001  9.510565e-001  0.000000e+000
   outer loop
     vertex -4.873792e+001 -2.584900e+001  0.000000e+000
     vertex -4.915511e+001 -2.571345e+001  5.000000e+000
     vertex -4.873792e+001 -2.584900e+001  5.000000e+000
   endloop
 endfacet
 facet normal  6.279052e-002  9.980267e-001 -0.000000e+000
   outer loop
     vertex -4.830012e+001 -2.587655e+001  0.000000e+000
     vertex -4.873792e+001 -2.584900e+001  0.000000e+000
     vertex -4.873792e+001 -2.584900e+001  5.000000e+000
   endloop
 endfacet
 facet normal  6.279052e-002  9.980267e-001  0.000000e+000
   outer loop
     vertex -4.830012e+001 -2.587655e+001  0.000000e+000
     vertex -4.873792e+001 -2.584900e+001  5.000000e+000
     vertex -4.830012e+001 -2.587655e+001  5.000000e+000
   endloop
 endfacet
 facet normal  0.000000e+000 -1.000000e+000  0.000000e+000
   outer loop
     vertex -5.841000e+001 -2.913000e+001  1.000000e+001
     vertex -5.841000e+001 -2.913000e+001  5.000000e+000
     vertex -5.341000e+001 -2.913000e+001  5.000000e+000
   endloop
 endfacet
 facet normal -0.000000e+000 -1.000000e+000 -0.000000e+000
   outer loop
     vertex -5.341000e+001 -2.913000e+001  1.000000e+001
     vertex -5.841000e+001 -2.913000e+001  1.000000e+001
     vertex -5.341000e+001 -2.913000e+001  5.000000e+000
   endloop
 endfacet
 facet normal  1.000000e+000 -0.000000e+000  0.000000e+000
   outer loop
     vertex -5.341000e+001 -2.913000e+001  1.000000e+001
     vertex -5.341000e+001 -2.913000e+001  5.000000e+000
     vertex -5.341000e+001  3.413000e+001  5.000000e+000
   endloop
 endfacet
 facet normal  1.000000e+000  0.000000e+000  0.000000e+000
   outer loop
     vertex -5.341000e+001  3.413000e+001  1.000000e+001
     vertex -5.341000e+001 -2.913000e+001  1.000000e+001
     vertex -5.341000e+001  3.413000e+001  5.000000e+000
   endloop
 endfacet
 facet normal -1.000000e+000  0.000000e+000  0.000000e+000
   outer loop
     vertex -4.341000e+001  3.413000e+001  5.000000e+000
     vertex -4.341000e+001 -2.913000e+001  5.000000e+000
     vertex -4.341000e+001 -2.913000e+001  1.000000e+001
   endloop
 endfacet
 facet normal -1.000000e+000  0.000000e+000  0.000000e+000
   outer loop
     vertex -4.341000e+001  3.413000e+001  5.000000e+000
     vertex -4.341000e+001 -2.913000e+001  1.000000e+001
     vertex -4.341000e+001  3.413000e+001  1.000000e+001
   endloop
 endfacet
 facet normal  0.000000e+000 -1.000000e+000  0.000000e+000
   outer loop
     vertex -4.341000e+001 -2.913000e+001  1.000000e+001
     vertex -4.341000e+001 -2.913000e+001  5.000000e+000
     vertex -3.841000e+001 -2.913000e+001  5.000000e+000
   endloop
 endfacet
 facet normal -0.000000e+000 -1.000000e+000 -0.000000e+000
   outer loop
     vertex -3.841000e+001 -2.913000e+001  1.000000e+001
     vertex -4.341000e+001 -2.913000e+001  1.000000e+001
     vertex -3.841000e+001 -2.913000e+001  5.000000e+000
   endloop
 endfacet
 facet normal  0.000000e+000  1.000000e+000 -0.000000e+000
   outer loop
     vertex -5.341000e+001  3.413000e+001  5.000000e+000
     vertex -5.841000e+001  3.413000e+001  5.000000e+000
     vertex -5.841000e+001  3.413000e+001  1.000000e+001
   endloop
 endfacet
 facet normal  0.000000e+000  1.000000e+000 -0.000000e+000
   outer loop
     vertex -5.341000e+001  3.413000e+001  5.000000e+000
     vertex -5.841000e+001  3.413000e+001  1.000000e+001
     vertex -5.341000e+001  3.413000e+001  1.000000e+001
   endloop
 endfacet
 facet normal  0.000000e+000  1.000000e+000  0.000000e+000
   outer loop
     vertex -3.841000e+001  3.413000e+001  1.000000e+001
     vertex -3.841000e+001  3.413000e+001  5.000000e+000
     vertex -4.341000e+001  3.413000e+001  5.000000e+000
   endloop
 endfacet
 facet normal -0.000000e+000  1.000000e+000  0.000000e+000
   outer loop
     vertex -4.341000e+001  3.413000e+001  1.000000e+001
     vertex -3.841000e+001  3.413000e+001  1.000000e+001
     vertex -4.341000e+001  3.413000e+001  5.000000e+000
   endloop
 endfacet
 facet normal  0.000000e+000  0.000000e+000  1.000000e+000
   outer loop
     vertex -3.841000e+001  3.413000e+001  1.000000e+001
     vertex -4.341000e+001  3.413000e+001  1.000000e+001
     vertex -4.341000e+001 -2.913000e+001  1.000000e+001
   endloop
 endfacet
 facet normal -0.000000e+000  0.000000e+000  1.000000e+000
   outer loop
     vertex -3.841000e+001  3.413000e+001  1.000000e+001
     vertex -4.341000e+001 -2.913000e+001  1.000000e+001
     vertex -3.841000e+001 -2.913000e+001  1.000000e+001
   endloop
 endfacet
 facet normal  0.000000e+000  0.000000e+000  1.000000e+000
   outer loop
     vertex -5.341000e+001  3.413000e+001  1.000000e+001
     vertex -5.841000e+001  3.413000e+001  1.000000e+001
     vertex -5.841000e+001 -2.913000e+001  1.000000e+001
   endloop
 endfacet
 facet normal -0.000000e+000  0.000000e+000  1.000000e+000
   outer loop
     vertex -5.341000e+001  3.413000e+001  1.000000e+001
     vertex -5.841000e+001 -2.913000e+001  1.000000e+001
     vertex -5.341000e+001 -2.913000e+001  1.000000e+001
   endloop
 endfacet
endsolid
