solid
 facet normal  9.983082e-001  5.814483e-002  0.000000e+000
   outer loop
     vertex  4.966192e+000  5.804646e-001  1.640000e+001
     vertex  5.000000e+000  0.000000e+000  1.640000e+001
     vertex  5.000000e+000  0.000000e+000  0.000000e+000
   endloop
 endfacet
 facet normal  9.983082e-001  5.814483e-002  0.000000e+000
   outer loop
     vertex  4.966192e+000  5.804646e-001  1.640000e+001
     vertex  5.000000e+000  0.000000e+000  0.000000e+000
     vertex  4.966192e+000  5.804646e-001  0.000000e+000
   endloop
 endfacet
 facet normal  9.848078e-001  1.736482e-001  0.000000e+000
   outer loop
     vertex  4.865224e+000  1.153079e+000  1.640000e+001
     vertex  4.966192e+000  5.804646e-001  1.640000e+001
     vertex  4.966192e+000  5.804646e-001  0.000000e+000
   endloop
 endfacet
 facet normal  9.848078e-001  1.736482e-001  0.000000e+000
   outer loop
     vertex  4.865224e+000  1.153079e+000  1.640000e+001
     vertex  4.966192e+000  5.804646e-001  0.000000e+000
     vertex  4.865224e+000  1.153079e+000  0.000000e+000
   endloop
 endfacet
 facet normal  9.579895e-001  2.868032e-001  0.000000e+000
   outer loop
     vertex  4.698463e+000  1.710101e+000  1.640000e+001
     vertex  4.865224e+000  1.153079e+000  1.640000e+001
     vertex  4.865224e+000  1.153079e+000  0.000000e+000
   endloop
 endfacet
 facet normal  9.579895e-001  2.868032e-001  0.000000e+000
   outer loop
     vertex  4.698463e+000  1.710101e+000  1.640000e+001
     vertex  4.865224e+000  1.153079e+000  0.000000e+000
     vertex  4.698463e+000  1.710101e+000  0.000000e+000
   endloop
 endfacet
 facet normal  9.182161e-001  3.960798e-001  0.000000e+000
   outer loop
     vertex  4.698463e+000  1.710101e+000  1.640000e+001
     vertex  4.698463e+000  1.710101e+000  0.000000e+000
     vertex  4.468163e+000  2.243996e+000  0.000000e+000
   endloop
 endfacet
 facet normal  9.182161e-001  3.960798e-001  0.000000e+000
   outer loop
     vertex  4.468163e+000  2.243996e+000  1.640000e+001
     vertex  4.698463e+000  1.710101e+000  1.640000e+001
     vertex  4.468163e+000  2.243996e+000  0.000000e+000
   endloop
 endfacet
 facet normal  8.660254e-001  5.000000e-001  0.000000e+000
   outer loop
     vertex  4.177439e+000  2.747545e+000  1.640000e+001
     vertex  4.468163e+000  2.243996e+000  1.640000e+001
     vertex  4.468163e+000  2.243996e+000  0.000000e+000
   endloop
 endfacet
 facet normal  8.660254e-001  5.000000e-001  0.000000e+000
   outer loop
     vertex  4.177439e+000  2.747545e+000  1.640000e+001
     vertex  4.468163e+000  2.243996e+000  0.000000e+000
     vertex  4.177439e+000  2.747545e+000  0.000000e+000
   endloop
 endfacet
 facet normal  8.021232e-001  5.971586e-001  0.000000e+000
   outer loop
     vertex  4.177439e+000  2.747545e+000  1.640000e+001
     vertex  4.177439e+000  2.747545e+000  0.000000e+000
     vertex  3.830222e+000  3.213938e+000  0.000000e+000
   endloop
 endfacet
 facet normal  8.021232e-001  5.971586e-001  0.000000e+000
   outer loop
     vertex  3.830222e+000  3.213938e+000  1.640000e+001
     vertex  4.177439e+000  2.747545e+000  1.640000e+001
     vertex  3.830222e+000  3.213938e+000  0.000000e+000
   endloop
 endfacet
 facet normal  7.273736e-001  6.862416e-001  0.000000e+000
   outer loop
     vertex  3.431208e+000  3.636868e+000  1.640000e+001
     vertex  3.830222e+000  3.213938e+000  1.640000e+001
     vertex  3.830222e+000  3.213938e+000  0.000000e+000
   endloop
 endfacet
 facet normal  7.273736e-001  6.862416e-001  0.000000e+000
   outer loop
     vertex  3.431208e+000  3.636868e+000  1.640000e+001
     vertex  3.830222e+000  3.213938e+000  0.000000e+000
     vertex  3.431208e+000  3.636868e+000  0.000000e+000
   endloop
 endfacet
 facet normal  6.427876e-001  7.660444e-001  0.000000e+000
   outer loop
     vertex  2.985793e+000  4.010616e+000  1.640000e+001
     vertex  3.431208e+000  3.636868e+000  1.640000e+001
     vertex  3.431208e+000  3.636868e+000  0.000000e+000
   endloop
 endfacet
 facet normal  6.427876e-001  7.660444e-001  0.000000e+000
   outer loop
     vertex  2.985793e+000  4.010616e+000  1.640000e+001
     vertex  3.431208e+000  3.636868e+000  0.000000e+000
     vertex  2.985793e+000  4.010616e+000  0.000000e+000
   endloop
 endfacet
 facet normal  5.495090e-001  8.354878e-001  0.000000e+000
   outer loop
     vertex  2.500000e+000  4.330127e+000  1.640000e+001
     vertex  2.985793e+000  4.010616e+000  1.640000e+001
     vertex  2.985793e+000  4.010616e+000  0.000000e+000
   endloop
 endfacet
 facet normal  5.495090e-001  8.354878e-001  0.000000e+000
   outer loop
     vertex  2.500000e+000  4.330127e+000  1.640000e+001
     vertex  2.985793e+000  4.010616e+000  0.000000e+000
     vertex  2.500000e+000  4.330127e+000  0.000000e+000
   endloop
 endfacet
 facet normal  4.487992e-001  8.936326e-001  0.000000e+000
   outer loop
     vertex  1.980399e+000  4.591081e+000  1.640000e+001
     vertex  2.500000e+000  4.330127e+000  1.640000e+001
     vertex  2.500000e+000  4.330127e+000  0.000000e+000
   endloop
 endfacet
 facet normal  4.487992e-001  8.936326e-001  0.000000e+000
   outer loop
     vertex  1.980399e+000  4.591081e+000  1.640000e+001
     vertex  2.500000e+000  4.330127e+000  0.000000e+000
     vertex  1.980399e+000  4.591081e+000  0.000000e+000
   endloop
 endfacet
 facet normal  3.420201e-001  9.396926e-001  0.000000e+000
   outer loop
     vertex  1.980399e+000  4.591081e+000  1.640000e+001
     vertex  1.980399e+000  4.591081e+000  0.000000e+000
     vertex  1.434016e+000  4.789948e+000  0.000000e+000
   endloop
 endfacet
 facet normal  3.420201e-001  9.396926e-001  0.000000e+000
   outer loop
     vertex  1.434016e+000  4.789948e+000  1.640000e+001
     vertex  1.980399e+000  4.591081e+000  1.640000e+001
     vertex  1.434016e+000  4.789948e+000  0.000000e+000
   endloop
 endfacet
 facet normal  2.306159e-001  9.730449e-001  0.000000e+000
   outer loop
     vertex  8.682409e-001  4.924039e+000  1.640000e+001
     vertex  1.434016e+000  4.789948e+000  1.640000e+001
     vertex  1.434016e+000  4.789948e+000  0.000000e+000
   endloop
 endfacet
 facet normal  2.306159e-001  9.730449e-001  0.000000e+000
   outer loop
     vertex  8.682409e-001  4.924039e+000  1.640000e+001
     vertex  1.434016e+000  4.789948e+000  0.000000e+000
     vertex  8.682409e-001  4.924039e+000  0.000000e+000
   endloop
 endfacet
 facet normal  1.160929e-001  9.932384e-001  0.000000e+000
   outer loop
     vertex  2.907241e-001  4.991541e+000  1.640000e+001
     vertex  8.682409e-001  4.924039e+000  1.640000e+001
     vertex  8.682409e-001  4.924039e+000  0.000000e+000
   endloop
 endfacet
 facet normal  1.160929e-001  9.932384e-001  0.000000e+000
   outer loop
     vertex  2.907241e-001  4.991541e+000  1.640000e+001
     vertex  8.682409e-001  4.924039e+000  0.000000e+000
     vertex  2.907241e-001  4.991541e+000  0.000000e+000
   endloop
 endfacet
 facet normal -0.000000e+000  1.000000e+000  0.000000e+000
   outer loop
     vertex -2.907241e-001  4.991541e+000  1.640000e+001
     vertex  2.907241e-001  4.991541e+000  1.640000e+001
     vertex  2.907241e-001  4.991541e+000  0.000000e+000
   endloop
 endfacet
 facet normal -1.160929e-001  9.932384e-001  0.000000e+000
   outer loop
     vertex -8.682409e-001  4.924039e+000  1.640000e+001
     vertex -2.907241e-001  4.991541e+000  1.640000e+001
     vertex -2.907241e-001  4.991541e+000  0.000000e+000
   endloop
 endfacet
 facet normal  0.000000e+000  1.000000e+000  0.000000e+000
   outer loop
     vertex -2.907241e-001  4.991541e+000  1.640000e+001
     vertex  2.907241e-001  4.991541e+000  0.000000e+000
     vertex -2.907241e-001  4.991541e+000  0.000000e+000
   endloop
 endfacet
 facet normal -2.306159e-001  9.730449e-001  0.000000e+000
   outer loop
     vertex -1.434016e+000  4.789948e+000  1.640000e+001
     vertex -8.682409e-001  4.924039e+000  1.640000e+001
     vertex -8.682409e-001  4.924039e+000  0.000000e+000
   endloop
 endfacet
 facet normal -1.160929e-001  9.932384e-001  0.000000e+000
   outer loop
     vertex -8.682409e-001  4.924039e+000  1.640000e+001
     vertex -2.907241e-001  4.991541e+000  0.000000e+000
     vertex -8.682409e-001  4.924039e+000  0.000000e+000
   endloop
 endfacet
 facet normal -3.420201e-001  9.396926e-001  0.000000e+000
   outer loop
     vertex -1.980399e+000  4.591081e+000  1.640000e+001
     vertex -1.434016e+000  4.789948e+000  1.640000e+001
     vertex -1.434016e+000  4.789948e+000  0.000000e+000
   endloop
 endfacet
 facet normal -2.306159e-001  9.730449e-001  0.000000e+000
   outer loop
     vertex -1.434016e+000  4.789948e+000  1.640000e+001
     vertex -8.682409e-001  4.924039e+000  0.000000e+000
     vertex -1.434016e+000  4.789948e+000  0.000000e+000
   endloop
 endfacet
 facet normal -3.420201e-001  9.396926e-001  0.000000e+000
   outer loop
     vertex -1.980399e+000  4.591081e+000  1.640000e+001
     vertex -1.434016e+000  4.789948e+000  0.000000e+000
     vertex -1.980399e+000  4.591081e+000  0.000000e+000
   endloop
 endfacet
 facet normal -4.487992e-001  8.936326e-001  0.000000e+000
   outer loop
     vertex -2.500000e+000  4.330127e+000  1.640000e+001
     vertex -1.980399e+000  4.591081e+000  1.640000e+001
     vertex -2.500000e+000  4.330127e+000  0.000000e+000
   endloop
 endfacet
 facet normal -5.495090e-001  8.354878e-001  0.000000e+000
   outer loop
     vertex -2.985793e+000  4.010616e+000  1.640000e+001
     vertex -2.500000e+000  4.330127e+000  1.640000e+001
     vertex -2.500000e+000  4.330127e+000  0.000000e+000
   endloop
 endfacet
 facet normal -4.487992e-001  8.936326e-001  0.000000e+000
   outer loop
     vertex -1.980399e+000  4.591081e+000  1.640000e+001
     vertex -1.980399e+000  4.591081e+000  0.000000e+000
     vertex -2.500000e+000  4.330127e+000  0.000000e+000
   endloop
 endfacet
 facet normal -6.427876e-001  7.660444e-001  0.000000e+000
   outer loop
     vertex -3.431208e+000  3.636868e+000  1.640000e+001
     vertex -2.985793e+000  4.010616e+000  1.640000e+001
     vertex -2.985793e+000  4.010616e+000  0.000000e+000
   endloop
 endfacet
 facet normal -5.495090e-001  8.354878e-001  0.000000e+000
   outer loop
     vertex -2.985793e+000  4.010616e+000  1.640000e+001
     vertex -2.500000e+000  4.330127e+000  0.000000e+000
     vertex -2.985793e+000  4.010616e+000  0.000000e+000
   endloop
 endfacet
 facet normal -7.273736e-001  6.862416e-001  0.000000e+000
   outer loop
     vertex -3.830222e+000  3.213938e+000  1.640000e+001
     vertex -3.431208e+000  3.636868e+000  1.640000e+001
     vertex -3.431208e+000  3.636868e+000  0.000000e+000
   endloop
 endfacet
 facet normal -6.427876e-001  7.660444e-001  0.000000e+000
   outer loop
     vertex -3.431208e+000  3.636868e+000  1.640000e+001
     vertex -2.985793e+000  4.010616e+000  0.000000e+000
     vertex -3.431208e+000  3.636868e+000  0.000000e+000
   endloop
 endfacet
 facet normal -8.021232e-001  5.971586e-001  0.000000e+000
   outer loop
     vertex -4.177439e+000  2.747545e+000  1.640000e+001
     vertex -3.830222e+000  3.213938e+000  1.640000e+001
     vertex -3.830222e+000  3.213938e+000  0.000000e+000
   endloop
 endfacet
 facet normal -7.273736e-001  6.862416e-001  0.000000e+000
   outer loop
     vertex -3.830222e+000  3.213938e+000  1.640000e+001
     vertex -3.431208e+000  3.636868e+000  0.000000e+000
     vertex -3.830222e+000  3.213938e+000  0.000000e+000
   endloop
 endfacet
 facet normal -8.021232e-001  5.971586e-001  0.000000e+000
   outer loop
     vertex -4.177439e+000  2.747545e+000  1.640000e+001
     vertex -3.830222e+000  3.213938e+000  0.000000e+000
     vertex -4.177439e+000  2.747545e+000  0.000000e+000
   endloop
 endfacet
 facet normal -8.660254e-001  5.000000e-001  0.000000e+000
   outer loop
     vertex -4.468163e+000  2.243996e+000  1.640000e+001
     vertex -4.177439e+000  2.747545e+000  1.640000e+001
     vertex -4.177439e+000  2.747545e+000  0.000000e+000
   endloop
 endfacet
 facet normal -8.660254e-001  5.000000e-001  0.000000e+000
   outer loop
     vertex -4.468163e+000  2.243996e+000  1.640000e+001
     vertex -4.177439e+000  2.747545e+000  0.000000e+000
     vertex -4.468163e+000  2.243996e+000  0.000000e+000
   endloop
 endfacet
 facet normal -9.182161e-001  3.960798e-001  0.000000e+000
   outer loop
     vertex -4.468163e+000  2.243996e+000  1.640000e+001
     vertex -4.468163e+000  2.243996e+000  0.000000e+000
     vertex -4.698463e+000  1.710101e+000  0.000000e+000
   endloop
 endfacet
 facet normal -9.182161e-001  3.960798e-001  0.000000e+000
   outer loop
     vertex -4.698463e+000  1.710101e+000  1.640000e+001
     vertex -4.468163e+000  2.243996e+000  1.640000e+001
     vertex -4.698463e+000  1.710101e+000  0.000000e+000
   endloop
 endfacet
 facet normal -9.579895e-001  2.868032e-001  0.000000e+000
   outer loop
     vertex -4.865224e+000  1.153079e+000  1.640000e+001
     vertex -4.698463e+000  1.710101e+000  1.640000e+001
     vertex -4.698463e+000  1.710101e+000  0.000000e+000
   endloop
 endfacet
 facet normal -9.579895e-001  2.868032e-001  0.000000e+000
   outer loop
     vertex -4.865224e+000  1.153079e+000  1.640000e+001
     vertex -4.698463e+000  1.710101e+000  0.000000e+000
     vertex -4.865224e+000  1.153079e+000  0.000000e+000
   endloop
 endfacet
 facet normal -9.848078e-001  1.736482e-001  0.000000e+000
   outer loop
     vertex -4.865224e+000  1.153079e+000  1.640000e+001
     vertex -4.865224e+000  1.153079e+000  0.000000e+000
     vertex -4.966192e+000  5.804646e-001  0.000000e+000
   endloop
 endfacet
 facet normal -9.848078e-001  1.736482e-001  0.000000e+000
   outer loop
     vertex -4.966192e+000  5.804646e-001  1.640000e+001
     vertex -4.865224e+000  1.153079e+000  1.640000e+001
     vertex -4.966192e+000  5.804646e-001  0.000000e+000
   endloop
 endfacet
 facet normal -9.983082e-001  5.814483e-002  0.000000e+000
   outer loop
     vertex -5.000000e+000 -3.828569e-015  1.640000e+001
     vertex -4.966192e+000  5.804646e-001  1.640000e+001
     vertex -4.966192e+000  5.804646e-001  0.000000e+000
   endloop
 endfacet
 facet normal -9.983082e-001  5.814483e-002  0.000000e+000
   outer loop
     vertex -5.000000e+000 -3.828569e-015  1.640000e+001
     vertex -4.966192e+000  5.804646e-001  0.000000e+000
     vertex -5.000000e+000 -3.828569e-015  0.000000e+000
   endloop
 endfacet
 facet normal -9.983082e-001 -5.814483e-002 -0.000000e+000
   outer loop
     vertex -5.000000e+000 -3.828569e-015  1.640000e+001
     vertex -5.000000e+000 -3.828569e-015  0.000000e+000
     vertex -4.966192e+000 -5.804646e-001  0.000000e+000
   endloop
 endfacet
 facet normal -9.983082e-001 -5.814483e-002  0.000000e+000
   outer loop
     vertex -4.966192e+000 -5.804646e-001  1.640000e+001
     vertex -5.000000e+000 -3.828569e-015  1.640000e+001
     vertex -4.966192e+000 -5.804646e-001  0.000000e+000
   endloop
 endfacet
 facet normal -9.848078e-001 -1.736482e-001 -0.000000e+000
   outer loop
     vertex -4.865224e+000 -1.153079e+000  1.640000e+001
     vertex -4.966192e+000 -5.804646e-001  1.640000e+001
     vertex -4.966192e+000 -5.804646e-001  0.000000e+000
   endloop
 endfacet
 facet normal -9.848078e-001 -1.736482e-001  0.000000e+000
   outer loop
     vertex -4.865224e+000 -1.153079e+000  1.640000e+001
     vertex -4.966192e+000 -5.804646e-001  0.000000e+000
     vertex -4.865224e+000 -1.153079e+000  0.000000e+000
   endloop
 endfacet
 facet normal -9.579895e-001 -2.868032e-001 -0.000000e+000
   outer loop
     vertex -4.865224e+000 -1.153079e+000  1.640000e+001
     vertex -4.865224e+000 -1.153079e+000  0.000000e+000
     vertex -4.698463e+000 -1.710101e+000  0.000000e+000
   endloop
 endfacet
 facet normal -9.579895e-001 -2.868032e-001  0.000000e+000
   outer loop
     vertex -4.698463e+000 -1.710101e+000  1.640000e+001
     vertex -4.865224e+000 -1.153079e+000  1.640000e+001
     vertex -4.698463e+000 -1.710101e+000  0.000000e+000
   endloop
 endfacet
 facet normal -9.182161e-001 -3.960798e-001 -0.000000e+000
   outer loop
     vertex -4.698463e+000 -1.710101e+000  1.640000e+001
     vertex -4.698463e+000 -1.710101e+000  0.000000e+000
     vertex -4.468163e+000 -2.243996e+000  0.000000e+000
   endloop
 endfacet
 facet normal -9.182161e-001 -3.960798e-001  0.000000e+000
   outer loop
     vertex -4.468163e+000 -2.243996e+000  1.640000e+001
     vertex -4.698463e+000 -1.710101e+000  1.640000e+001
     vertex -4.468163e+000 -2.243996e+000  0.000000e+000
   endloop
 endfacet
 facet normal -8.660254e-001 -5.000000e-001 -0.000000e+000
   outer loop
     vertex -4.177439e+000 -2.747545e+000  1.640000e+001
     vertex -4.468163e+000 -2.243996e+000  1.640000e+001
     vertex -4.468163e+000 -2.243996e+000  0.000000e+000
   endloop
 endfacet
 facet normal -8.660254e-001 -5.000000e-001  0.000000e+000
   outer loop
     vertex -4.177439e+000 -2.747545e+000  1.640000e+001
     vertex -4.468163e+000 -2.243996e+000  0.000000e+000
     vertex -4.177439e+000 -2.747545e+000  0.000000e+000
   endloop
 endfacet
 facet normal -8.021232e-001 -5.971586e-001 -0.000000e+000
   outer loop
     vertex -4.177439e+000 -2.747545e+000  1.640000e+001
     vertex -4.177439e+000 -2.747545e+000  0.000000e+000
     vertex -3.830222e+000 -3.213938e+000  0.000000e+000
   endloop
 endfacet
 facet normal -8.021232e-001 -5.971586e-001  0.000000e+000
   outer loop
     vertex -3.830222e+000 -3.213938e+000  1.640000e+001
     vertex -4.177439e+000 -2.747545e+000  1.640000e+001
     vertex -3.830222e+000 -3.213938e+000  0.000000e+000
   endloop
 endfacet
 facet normal -7.273736e-001 -6.862416e-001 -0.000000e+000
   outer loop
     vertex -3.431208e+000 -3.636868e+000  1.640000e+001
     vertex -3.830222e+000 -3.213938e+000  1.640000e+001
     vertex -3.830222e+000 -3.213938e+000  0.000000e+000
   endloop
 endfacet
 facet normal -7.273736e-001 -6.862416e-001  0.000000e+000
   outer loop
     vertex -3.431208e+000 -3.636868e+000  1.640000e+001
     vertex -3.830222e+000 -3.213938e+000  0.000000e+000
     vertex -3.431208e+000 -3.636868e+000  0.000000e+000
   endloop
 endfacet
 facet normal -6.427876e-001 -7.660444e-001 -0.000000e+000
   outer loop
     vertex -3.431208e+000 -3.636868e+000  1.640000e+001
     vertex -3.431208e+000 -3.636868e+000  0.000000e+000
     vertex -2.985793e+000 -4.010616e+000  0.000000e+000
   endloop
 endfacet
 facet normal -6.427876e-001 -7.660444e-001  0.000000e+000
   outer loop
     vertex -2.985793e+000 -4.010616e+000  1.640000e+001
     vertex -3.431208e+000 -3.636868e+000  1.640000e+001
     vertex -2.985793e+000 -4.010616e+000  0.000000e+000
   endloop
 endfacet
 facet normal -5.495090e-001 -8.354878e-001 -0.000000e+000
   outer loop
     vertex -2.985793e+000 -4.010616e+000  1.640000e+001
     vertex -2.985793e+000 -4.010616e+000  0.000000e+000
     vertex -2.500000e+000 -4.330127e+000  0.000000e+000
   endloop
 endfacet
 facet normal -5.495090e-001 -8.354878e-001  0.000000e+000
   outer loop
     vertex -2.500000e+000 -4.330127e+000  1.640000e+001
     vertex -2.985793e+000 -4.010616e+000  1.640000e+001
     vertex -2.500000e+000 -4.330127e+000  0.000000e+000
   endloop
 endfacet
 facet normal -4.487992e-001 -8.936326e-001 -0.000000e+000
   outer loop
     vertex -2.500000e+000 -4.330127e+000  1.640000e+001
     vertex -2.500000e+000 -4.330127e+000  0.000000e+000
     vertex -1.980399e+000 -4.591081e+000  0.000000e+000
   endloop
 endfacet
 facet normal -4.487992e-001 -8.936326e-001  0.000000e+000
   outer loop
     vertex -1.980399e+000 -4.591081e+000  1.640000e+001
     vertex -2.500000e+000 -4.330127e+000  1.640000e+001
     vertex -1.980399e+000 -4.591081e+000  0.000000e+000
   endloop
 endfacet
 facet normal -3.420201e-001 -9.396926e-001 -0.000000e+000
   outer loop
     vertex -1.980399e+000 -4.591081e+000  1.640000e+001
     vertex -1.980399e+000 -4.591081e+000  0.000000e+000
     vertex -1.434016e+000 -4.789948e+000  0.000000e+000
   endloop
 endfacet
 facet normal -3.420201e-001 -9.396926e-001  0.000000e+000
   outer loop
     vertex -1.434016e+000 -4.789948e+000  1.640000e+001
     vertex -1.980399e+000 -4.591081e+000  1.640000e+001
     vertex -1.434016e+000 -4.789948e+000  0.000000e+000
   endloop
 endfacet
 facet normal -2.306159e-001 -9.730449e-001 -0.000000e+000
   outer loop
     vertex -8.682409e-001 -4.924039e+000  1.640000e+001
     vertex -1.434016e+000 -4.789948e+000  1.640000e+001
     vertex -1.434016e+000 -4.789948e+000  0.000000e+000
   endloop
 endfacet
 facet normal -2.306159e-001 -9.730449e-001  0.000000e+000
   outer loop
     vertex -8.682409e-001 -4.924039e+000  1.640000e+001
     vertex -1.434016e+000 -4.789948e+000  0.000000e+000
     vertex -8.682409e-001 -4.924039e+000  0.000000e+000
   endloop
 endfacet
 facet normal -1.160929e-001 -9.932384e-001 -0.000000e+000
   outer loop
     vertex -8.682409e-001 -4.924039e+000  1.640000e+001
     vertex -8.682409e-001 -4.924039e+000  0.000000e+000
     vertex -2.907241e-001 -4.991541e+000  0.000000e+000
   endloop
 endfacet
 facet normal -1.160929e-001 -9.932384e-001  0.000000e+000
   outer loop
     vertex -2.907241e-001 -4.991541e+000  1.640000e+001
     vertex -8.682409e-001 -4.924039e+000  1.640000e+001
     vertex -2.907241e-001 -4.991541e+000  0.000000e+000
   endloop
 endfacet
 facet normal  3.055056e-015 -1.000000e+000  0.000000e+000
   outer loop
     vertex -2.907241e-001 -4.991541e+000  1.640000e+001
     vertex -2.907241e-001 -4.991541e+000  0.000000e+000
     vertex  2.907241e-001 -4.991541e+000  0.000000e+000
   endloop
 endfacet
 facet normal  3.055056e-015 -1.000000e+000  0.000000e+000
   outer loop
     vertex  2.907241e-001 -4.991541e+000  1.640000e+001
     vertex -2.907241e-001 -4.991541e+000  1.640000e+001
     vertex  2.907241e-001 -4.991541e+000  0.000000e+000
   endloop
 endfacet
 facet normal  1.160929e-001 -9.932384e-001  0.000000e+000
   outer loop
     vertex  2.907241e-001 -4.991541e+000  1.640000e+001
     vertex  2.907241e-001 -4.991541e+000  0.000000e+000
     vertex  8.682409e-001 -4.924039e+000  0.000000e+000
   endloop
 endfacet
 facet normal  1.160929e-001 -9.932384e-001  0.000000e+000
   outer loop
     vertex  8.682409e-001 -4.924039e+000  1.640000e+001
     vertex  2.907241e-001 -4.991541e+000  1.640000e+001
     vertex  8.682409e-001 -4.924039e+000  0.000000e+000
   endloop
 endfacet
 facet normal  2.306159e-001 -9.730449e-001  0.000000e+000
   outer loop
     vertex  8.682409e-001 -4.924039e+000  1.640000e+001
     vertex  8.682409e-001 -4.924039e+000  0.000000e+000
     vertex  1.434016e+000 -4.789948e+000  0.000000e+000
   endloop
 endfacet
 facet normal  2.306159e-001 -9.730449e-001  0.000000e+000
   outer loop
     vertex  1.434016e+000 -4.789948e+000  1.640000e+001
     vertex  8.682409e-001 -4.924039e+000  1.640000e+001
     vertex  1.434016e+000 -4.789948e+000  0.000000e+000
   endloop
 endfacet
 facet normal  3.420201e-001 -9.396926e-001  0.000000e+000
   outer loop
     vertex  1.434016e+000 -4.789948e+000  1.640000e+001
     vertex  1.434016e+000 -4.789948e+000  0.000000e+000
     vertex  1.980399e+000 -4.591081e+000  0.000000e+000
   endloop
 endfacet
 facet normal  3.420201e-001 -9.396926e-001  0.000000e+000
   outer loop
     vertex  1.980399e+000 -4.591081e+000  1.640000e+001
     vertex  1.434016e+000 -4.789948e+000  1.640000e+001
     vertex  1.980399e+000 -4.591081e+000  0.000000e+000
   endloop
 endfacet
 facet normal  4.487992e-001 -8.936326e-001  0.000000e+000
   outer loop
     vertex  2.500000e+000 -4.330127e+000  1.640000e+001
     vertex  1.980399e+000 -4.591081e+000  1.640000e+001
     vertex  2.500000e+000 -4.330127e+000  0.000000e+000
   endloop
 endfacet
 facet normal  4.487992e-001 -8.936326e-001  0.000000e+000
   outer loop
     vertex  1.980399e+000 -4.591081e+000  1.640000e+001
     vertex  1.980399e+000 -4.591081e+000  0.000000e+000
     vertex  2.500000e+000 -4.330127e+000  0.000000e+000
   endloop
 endfacet
 facet normal  5.495090e-001 -8.354878e-001  0.000000e+000
   outer loop
     vertex  2.985793e+000 -4.010616e+000  1.640000e+001
     vertex  2.500000e+000 -4.330127e+000  1.640000e+001
     vertex  2.985793e+000 -4.010616e+000  0.000000e+000
   endloop
 endfacet
 facet normal  5.495090e-001 -8.354878e-001  0.000000e+000
   outer loop
     vertex  2.500000e+000 -4.330127e+000  1.640000e+001
     vertex  2.500000e+000 -4.330127e+000  0.000000e+000
     vertex  2.985793e+000 -4.010616e+000  0.000000e+000
   endloop
 endfacet
 facet normal  6.427876e-001 -7.660444e-001  0.000000e+000
   outer loop
     vertex  3.431208e+000 -3.636868e+000  1.640000e+001
     vertex  2.985793e+000 -4.010616e+000  1.640000e+001
     vertex  3.431208e+000 -3.636868e+000  0.000000e+000
   endloop
 endfacet
 facet normal  6.427876e-001 -7.660444e-001  0.000000e+000
   outer loop
     vertex  2.985793e+000 -4.010616e+000  1.640000e+001
     vertex  2.985793e+000 -4.010616e+000  0.000000e+000
     vertex  3.431208e+000 -3.636868e+000  0.000000e+000
   endloop
 endfacet
 facet normal  7.273736e-001 -6.862416e-001  0.000000e+000
   outer loop
     vertex  3.830222e+000 -3.213938e+000  1.640000e+001
     vertex  3.431208e+000 -3.636868e+000  1.640000e+001
     vertex  3.830222e+000 -3.213938e+000  0.000000e+000
   endloop
 endfacet
 facet normal  7.273736e-001 -6.862416e-001  0.000000e+000
   outer loop
     vertex  3.431208e+000 -3.636868e+000  1.640000e+001
     vertex  3.431208e+000 -3.636868e+000  0.000000e+000
     vertex  3.830222e+000 -3.213938e+000  0.000000e+000
   endloop
 endfacet
 facet normal  8.021232e-001 -5.971586e-001  0.000000e+000
   outer loop
     vertex  4.177439e+000 -2.747545e+000  1.640000e+001
     vertex  3.830222e+000 -3.213938e+000  1.640000e+001
     vertex  4.177439e+000 -2.747545e+000  0.000000e+000
   endloop
 endfacet
 facet normal  8.021232e-001 -5.971586e-001  0.000000e+000
   outer loop
     vertex  3.830222e+000 -3.213938e+000  1.640000e+001
     vertex  3.830222e+000 -3.213938e+000  0.000000e+000
     vertex  4.177439e+000 -2.747545e+000  0.000000e+000
   endloop
 endfacet
 facet normal  8.660254e-001 -5.000000e-001  0.000000e+000
   outer loop
     vertex  4.468163e+000 -2.243996e+000  1.640000e+001
     vertex  4.177439e+000 -2.747545e+000  1.640000e+001
     vertex  4.177439e+000 -2.747545e+000  0.000000e+000
   endloop
 endfacet
 facet normal  8.660254e-001 -5.000000e-001  0.000000e+000
   outer loop
     vertex  4.468163e+000 -2.243996e+000  1.640000e+001
     vertex  4.177439e+000 -2.747545e+000  0.000000e+000
     vertex  4.468163e+000 -2.243996e+000  0.000000e+000
   endloop
 endfacet
 facet normal  9.182161e-001 -3.960798e-001  0.000000e+000
   outer loop
     vertex  4.698463e+000 -1.710101e+000  1.640000e+001
     vertex  4.468163e+000 -2.243996e+000  1.640000e+001
     vertex  4.698463e+000 -1.710101e+000  0.000000e+000
   endloop
 endfacet
 facet normal  9.182161e-001 -3.960798e-001  0.000000e+000
   outer loop
     vertex  4.468163e+000 -2.243996e+000  1.640000e+001
     vertex  4.468163e+000 -2.243996e+000  0.000000e+000
     vertex  4.698463e+000 -1.710101e+000  0.000000e+000
   endloop
 endfacet
 facet normal  9.579895e-001 -2.868032e-001  0.000000e+000
   outer loop
     vertex  4.865224e+000 -1.153079e+000  1.640000e+001
     vertex  4.698463e+000 -1.710101e+000  1.640000e+001
     vertex  4.865224e+000 -1.153079e+000  0.000000e+000
   endloop
 endfacet
 facet normal  9.579895e-001 -2.868032e-001  0.000000e+000
   outer loop
     vertex  4.698463e+000 -1.710101e+000  1.640000e+001
     vertex  4.698463e+000 -1.710101e+000  0.000000e+000
     vertex  4.865224e+000 -1.153079e+000  0.000000e+000
   endloop
 endfacet
 facet normal  9.848078e-001 -1.736482e-001  0.000000e+000
   outer loop
     vertex  4.966192e+000 -5.804646e-001  1.640000e+001
     vertex  4.865224e+000 -1.153079e+000  1.640000e+001
     vertex  4.966192e+000 -5.804646e-001  0.000000e+000
   endloop
 endfacet
 facet normal  9.848078e-001 -1.736482e-001  0.000000e+000
   outer loop
     vertex  4.865224e+000 -1.153079e+000  1.640000e+001
     vertex  4.865224e+000 -1.153079e+000  0.000000e+000
     vertex  4.966192e+000 -5.804646e-001  0.000000e+000
   endloop
 endfacet
 facet normal  9.983082e-001 -5.814483e-002  0.000000e+000
   outer loop
     vertex  5.000000e+000  0.000000e+000  1.640000e+001
     vertex  4.966192e+000 -5.804646e-001  1.640000e+001
     vertex  5.000000e+000  0.000000e+000  0.000000e+000
   endloop
 endfacet
 facet normal  9.983082e-001 -5.814483e-002  0.000000e+000
   outer loop
     vertex  4.966192e+000 -5.804646e-001  1.640000e+001
     vertex  4.966192e+000 -5.804646e-001  0.000000e+000
     vertex  5.000000e+000  0.000000e+000  0.000000e+000
   endloop
 endfacet
 facet normal -9.961947e-001 -8.715574e-002  0.000000e+000
   outer loop
     vertex  2.215817e+000  3.907084e-001  1.640000e+001
     vertex  2.250000e+000  0.000000e+000  0.000000e+000
     vertex  2.250000e+000  0.000000e+000  1.640000e+001
   endloop
 endfacet
 facet normal -9.961947e-001 -8.715574e-002  0.000000e+000
   outer loop
     vertex  2.215817e+000  3.907084e-001  0.000000e+000
     vertex  2.250000e+000  0.000000e+000  0.000000e+000
     vertex  2.215817e+000  3.907084e-001  1.640000e+001
   endloop
 endfacet
 facet normal -9.659258e-001 -2.588190e-001  0.000000e+000
   outer loop
     vertex  2.114308e+000  7.695453e-001  0.000000e+000
     vertex  2.215817e+000  3.907084e-001  1.640000e+001
     vertex  2.114308e+000  7.695453e-001  1.640000e+001
   endloop
 endfacet
 facet normal -9.659258e-001 -2.588190e-001  0.000000e+000
   outer loop
     vertex  2.114308e+000  7.695453e-001  0.000000e+000
     vertex  2.215817e+000  3.907084e-001  0.000000e+000
     vertex  2.215817e+000  3.907084e-001  1.640000e+001
   endloop
 endfacet
 facet normal -9.063078e-001 -4.226183e-001  0.000000e+000
   outer loop
     vertex  1.948557e+000  1.125000e+000  0.000000e+000
     vertex  2.114308e+000  7.695453e-001  1.640000e+001
     vertex  1.948557e+000  1.125000e+000  1.640000e+001
   endloop
 endfacet
 facet normal -9.063078e-001 -4.226183e-001  0.000000e+000
   outer loop
     vertex  1.948557e+000  1.125000e+000  0.000000e+000
     vertex  2.114308e+000  7.695453e-001  0.000000e+000
     vertex  2.114308e+000  7.695453e-001  1.640000e+001
   endloop
 endfacet
 facet normal -8.191520e-001 -5.735764e-001  0.000000e+000
   outer loop
     vertex  1.723600e+000  1.446272e+000  0.000000e+000
     vertex  1.948557e+000  1.125000e+000  1.640000e+001
     vertex  1.723600e+000  1.446272e+000  1.640000e+001
   endloop
 endfacet
 facet normal -8.191520e-001 -5.735764e-001  0.000000e+000
   outer loop
     vertex  1.723600e+000  1.446272e+000  0.000000e+000
     vertex  1.948557e+000  1.125000e+000  0.000000e+000
     vertex  1.948557e+000  1.125000e+000  1.640000e+001
   endloop
 endfacet
 facet normal -7.071068e-001 -7.071068e-001  0.000000e+000
   outer loop
     vertex  1.446272e+000  1.723600e+000  0.000000e+000
     vertex  1.723600e+000  1.446272e+000  1.640000e+001
     vertex  1.446272e+000  1.723600e+000  1.640000e+001
   endloop
 endfacet
 facet normal -7.071068e-001 -7.071068e-001  0.000000e+000
   outer loop
     vertex  1.446272e+000  1.723600e+000  0.000000e+000
     vertex  1.723600e+000  1.446272e+000  0.000000e+000
     vertex  1.723600e+000  1.446272e+000  1.640000e+001
   endloop
 endfacet
 facet normal -5.735764e-001 -8.191520e-001  0.000000e+000
   outer loop
     vertex  1.125000e+000  1.948557e+000  0.000000e+000
     vertex  1.446272e+000  1.723600e+000  1.640000e+001
     vertex  1.125000e+000  1.948557e+000  1.640000e+001
   endloop
 endfacet
 facet normal -5.735764e-001 -8.191520e-001  0.000000e+000
   outer loop
     vertex  1.125000e+000  1.948557e+000  0.000000e+000
     vertex  1.446272e+000  1.723600e+000  0.000000e+000
     vertex  1.446272e+000  1.723600e+000  1.640000e+001
   endloop
 endfacet
 facet normal -4.226183e-001 -9.063078e-001  0.000000e+000
   outer loop
     vertex  7.695453e-001  2.114308e+000  0.000000e+000
     vertex  1.125000e+000  1.948557e+000  0.000000e+000
     vertex  1.125000e+000  1.948557e+000  1.640000e+001
   endloop
 endfacet
 facet normal -4.226183e-001 -9.063078e-001  0.000000e+000
   outer loop
     vertex  7.695453e-001  2.114308e+000  0.000000e+000
     vertex  1.125000e+000  1.948557e+000  1.640000e+001
     vertex  7.695453e-001  2.114308e+000  1.640000e+001
   endloop
 endfacet
 facet normal -2.588190e-001 -9.659258e-001  0.000000e+000
   outer loop
     vertex  3.907084e-001  2.215817e+000  0.000000e+000
     vertex  7.695453e-001  2.114308e+000  0.000000e+000
     vertex  7.695453e-001  2.114308e+000  1.640000e+001
   endloop
 endfacet
 facet normal -2.588190e-001 -9.659258e-001  0.000000e+000
   outer loop
     vertex  3.907084e-001  2.215817e+000  0.000000e+000
     vertex  7.695453e-001  2.114308e+000  1.640000e+001
     vertex  3.907084e-001  2.215817e+000  1.640000e+001
   endloop
 endfacet
 facet normal -8.715574e-002 -9.961947e-001  0.000000e+000
   outer loop
     vertex -1.361028e-015  2.250000e+000  0.000000e+000
     vertex  3.907084e-001  2.215817e+000  0.000000e+000
     vertex  3.907084e-001  2.215817e+000  1.640000e+001
   endloop
 endfacet
 facet normal -8.715574e-002 -9.961947e-001  0.000000e+000
   outer loop
     vertex -1.361028e-015  2.250000e+000  0.000000e+000
     vertex  3.907084e-001  2.215817e+000  1.640000e+001
     vertex -1.361028e-015  2.250000e+000  1.640000e+001
   endloop
 endfacet
 facet normal  8.715574e-002 -9.961947e-001  0.000000e+000
   outer loop
     vertex -3.907084e-001  2.215817e+000  0.000000e+000
     vertex -1.361028e-015  2.250000e+000  0.000000e+000
     vertex -1.361028e-015  2.250000e+000  1.640000e+001
   endloop
 endfacet
 facet normal  8.715574e-002 -9.961947e-001  0.000000e+000
   outer loop
     vertex -3.907084e-001  2.215817e+000  0.000000e+000
     vertex -1.361028e-015  2.250000e+000  1.640000e+001
     vertex -3.907084e-001  2.215817e+000  1.640000e+001
   endloop
 endfacet
 facet normal  2.588190e-001 -9.659258e-001  0.000000e+000
   outer loop
     vertex -7.695453e-001  2.114308e+000  0.000000e+000
     vertex -3.907084e-001  2.215817e+000  0.000000e+000
     vertex -3.907084e-001  2.215817e+000  1.640000e+001
   endloop
 endfacet
 facet normal  2.588190e-001 -9.659258e-001  0.000000e+000
   outer loop
     vertex -7.695453e-001  2.114308e+000  0.000000e+000
     vertex -3.907084e-001  2.215817e+000  1.640000e+001
     vertex -7.695453e-001  2.114308e+000  1.640000e+001
   endloop
 endfacet
 facet normal  4.226183e-001 -9.063078e-001  0.000000e+000
   outer loop
     vertex -1.125000e+000  1.948557e+000  0.000000e+000
     vertex -7.695453e-001  2.114308e+000  0.000000e+000
     vertex -7.695453e-001  2.114308e+000  1.640000e+001
   endloop
 endfacet
 facet normal  4.226183e-001 -9.063078e-001  0.000000e+000
   outer loop
     vertex -1.125000e+000  1.948557e+000  0.000000e+000
     vertex -7.695453e-001  2.114308e+000  1.640000e+001
     vertex -1.125000e+000  1.948557e+000  1.640000e+001
   endloop
 endfacet
 facet normal  5.735764e-001 -8.191520e-001  0.000000e+000
   outer loop
     vertex -1.446272e+000  1.723600e+000  0.000000e+000
     vertex -1.125000e+000  1.948557e+000  0.000000e+000
     vertex -1.125000e+000  1.948557e+000  1.640000e+001
   endloop
 endfacet
 facet normal  5.735764e-001 -8.191520e-001  0.000000e+000
   outer loop
     vertex -1.446272e+000  1.723600e+000  0.000000e+000
     vertex -1.125000e+000  1.948557e+000  1.640000e+001
     vertex -1.446272e+000  1.723600e+000  1.640000e+001
   endloop
 endfacet
 facet normal  7.071068e-001 -7.071068e-001  0.000000e+000
   outer loop
     vertex -1.723600e+000  1.446272e+000  0.000000e+000
     vertex -1.446272e+000  1.723600e+000  0.000000e+000
     vertex -1.446272e+000  1.723600e+000  1.640000e+001
   endloop
 endfacet
 facet normal  7.071068e-001 -7.071068e-001  0.000000e+000
   outer loop
     vertex -1.723600e+000  1.446272e+000  0.000000e+000
     vertex -1.446272e+000  1.723600e+000  1.640000e+001
     vertex -1.723600e+000  1.446272e+000  1.640000e+001
   endloop
 endfacet
 facet normal  8.191520e-001 -5.735764e-001  0.000000e+000
   outer loop
     vertex -1.948557e+000  1.125000e+000  0.000000e+000
     vertex -1.723600e+000  1.446272e+000  0.000000e+000
     vertex -1.723600e+000  1.446272e+000  1.640000e+001
   endloop
 endfacet
 facet normal  8.191520e-001 -5.735764e-001  0.000000e+000
   outer loop
     vertex -1.948557e+000  1.125000e+000  0.000000e+000
     vertex -1.723600e+000  1.446272e+000  1.640000e+001
     vertex -1.948557e+000  1.125000e+000  1.640000e+001
   endloop
 endfacet
 facet normal  9.063078e-001 -4.226183e-001  0.000000e+000
   outer loop
     vertex -2.114308e+000  7.695453e-001  0.000000e+000
     vertex -1.948557e+000  1.125000e+000  0.000000e+000
     vertex -1.948557e+000  1.125000e+000  1.640000e+001
   endloop
 endfacet
 facet normal  9.063078e-001 -4.226183e-001  0.000000e+000
   outer loop
     vertex -2.114308e+000  7.695453e-001  0.000000e+000
     vertex -1.948557e+000  1.125000e+000  1.640000e+001
     vertex -2.114308e+000  7.695453e-001  1.640000e+001
   endloop
 endfacet
 facet normal  9.659258e-001 -2.588190e-001  0.000000e+000
   outer loop
     vertex -2.215817e+000  3.907084e-001  1.640000e+001
     vertex -2.114308e+000  7.695453e-001  0.000000e+000
     vertex -2.114308e+000  7.695453e-001  1.640000e+001
   endloop
 endfacet
 facet normal  9.659258e-001 -2.588190e-001  0.000000e+000
   outer loop
     vertex -2.215817e+000  3.907084e-001  0.000000e+000
     vertex -2.114308e+000  7.695453e-001  0.000000e+000
     vertex -2.215817e+000  3.907084e-001  1.640000e+001
   endloop
 endfacet
 facet normal  9.961947e-001 -8.715574e-002  0.000000e+000
   outer loop
     vertex -2.250000e+000 -4.720458e-015  1.640000e+001
     vertex -2.215817e+000  3.907084e-001  0.000000e+000
     vertex -2.215817e+000  3.907084e-001  1.640000e+001
   endloop
 endfacet
 facet normal  9.961947e-001 -8.715574e-002  0.000000e+000
   outer loop
     vertex -2.250000e+000 -4.720458e-015  0.000000e+000
     vertex -2.215817e+000  3.907084e-001  0.000000e+000
     vertex -2.250000e+000 -4.720458e-015  1.640000e+001
   endloop
 endfacet
 facet normal  9.961947e-001  8.715574e-002 -0.000000e+000
   outer loop
     vertex -2.215817e+000 -3.907084e-001  0.000000e+000
     vertex -2.250000e+000 -4.720458e-015  0.000000e+000
     vertex -2.250000e+000 -4.720458e-015  1.640000e+001
   endloop
 endfacet
 facet normal  9.961947e-001  8.715574e-002  0.000000e+000
   outer loop
     vertex -2.215817e+000 -3.907084e-001  0.000000e+000
     vertex -2.250000e+000 -4.720458e-015  1.640000e+001
     vertex -2.215817e+000 -3.907084e-001  1.640000e+001
   endloop
 endfacet
 facet normal  9.659258e-001  2.588190e-001 -0.000000e+000
   outer loop
     vertex -2.114308e+000 -7.695453e-001  1.640000e+001
     vertex -2.215817e+000 -3.907084e-001  0.000000e+000
     vertex -2.215817e+000 -3.907084e-001  1.640000e+001
   endloop
 endfacet
 facet normal  9.659258e-001  2.588190e-001  0.000000e+000
   outer loop
     vertex -2.114308e+000 -7.695453e-001  0.000000e+000
     vertex -2.215817e+000 -3.907084e-001  0.000000e+000
     vertex -2.114308e+000 -7.695453e-001  1.640000e+001
   endloop
 endfacet
 facet normal  9.063078e-001  4.226183e-001  0.000000e+000
   outer loop
     vertex -1.948557e+000 -1.125000e+000  0.000000e+000
     vertex -2.114308e+000 -7.695453e-001  1.640000e+001
     vertex -1.948557e+000 -1.125000e+000  1.640000e+001
   endloop
 endfacet
 facet normal  9.063078e-001  4.226183e-001 -0.000000e+000
   outer loop
     vertex -1.948557e+000 -1.125000e+000  0.000000e+000
     vertex -2.114308e+000 -7.695453e-001  0.000000e+000
     vertex -2.114308e+000 -7.695453e-001  1.640000e+001
   endloop
 endfacet
 facet normal  8.191520e-001  5.735764e-001 -0.000000e+000
   outer loop
     vertex -1.723600e+000 -1.446272e+000  1.640000e+001
     vertex -1.948557e+000 -1.125000e+000  0.000000e+000
     vertex -1.948557e+000 -1.125000e+000  1.640000e+001
   endloop
 endfacet
 facet normal  8.191520e-001  5.735764e-001  0.000000e+000
   outer loop
     vertex -1.723600e+000 -1.446272e+000  0.000000e+000
     vertex -1.948557e+000 -1.125000e+000  0.000000e+000
     vertex -1.723600e+000 -1.446272e+000  1.640000e+001
   endloop
 endfacet
 facet normal  7.071068e-001  7.071068e-001  0.000000e+000
   outer loop
     vertex -1.446272e+000 -1.723600e+000  0.000000e+000
     vertex -1.723600e+000 -1.446272e+000  1.640000e+001
     vertex -1.446272e+000 -1.723600e+000  1.640000e+001
   endloop
 endfacet
 facet normal  7.071068e-001  7.071068e-001 -0.000000e+000
   outer loop
     vertex -1.446272e+000 -1.723600e+000  0.000000e+000
     vertex -1.723600e+000 -1.446272e+000  0.000000e+000
     vertex -1.723600e+000 -1.446272e+000  1.640000e+001
   endloop
 endfacet
 facet normal  5.735764e-001  8.191520e-001  0.000000e+000
   outer loop
     vertex -1.125000e+000 -1.948557e+000  0.000000e+000
     vertex -1.446272e+000 -1.723600e+000  1.640000e+001
     vertex -1.125000e+000 -1.948557e+000  1.640000e+001
   endloop
 endfacet
 facet normal  5.735764e-001  8.191520e-001 -0.000000e+000
   outer loop
     vertex -1.125000e+000 -1.948557e+000  0.000000e+000
     vertex -1.446272e+000 -1.723600e+000  0.000000e+000
     vertex -1.446272e+000 -1.723600e+000  1.640000e+001
   endloop
 endfacet
 facet normal  4.226183e-001  9.063078e-001  0.000000e+000
   outer loop
     vertex -7.695453e-001 -2.114308e+000  0.000000e+000
     vertex -1.125000e+000 -1.948557e+000  1.640000e+001
     vertex -7.695453e-001 -2.114308e+000  1.640000e+001
   endloop
 endfacet
 facet normal  4.226183e-001  9.063078e-001 -0.000000e+000
   outer loop
     vertex -7.695453e-001 -2.114308e+000  0.000000e+000
     vertex -1.125000e+000 -1.948557e+000  0.000000e+000
     vertex -1.125000e+000 -1.948557e+000  1.640000e+001
   endloop
 endfacet
 facet normal  2.588190e-001  9.659258e-001  0.000000e+000
   outer loop
     vertex -3.907084e-001 -2.215817e+000  0.000000e+000
     vertex -7.695453e-001 -2.114308e+000  1.640000e+001
     vertex -3.907084e-001 -2.215817e+000  1.640000e+001
   endloop
 endfacet
 facet normal  2.588190e-001  9.659258e-001 -0.000000e+000
   outer loop
     vertex -3.907084e-001 -2.215817e+000  0.000000e+000
     vertex -7.695453e-001 -2.114308e+000  0.000000e+000
     vertex -7.695453e-001 -2.114308e+000  1.640000e+001
   endloop
 endfacet
 facet normal  8.715574e-002  9.961947e-001 -0.000000e+000
   outer loop
     vertex  5.581886e-015 -2.250000e+000  1.640000e+001
     vertex -3.907084e-001 -2.215817e+000  0.000000e+000
     vertex -3.907084e-001 -2.215817e+000  1.640000e+001
   endloop
 endfacet
 facet normal  8.715574e-002  9.961947e-001  0.000000e+000
   outer loop
     vertex  5.581886e-015 -2.250000e+000  0.000000e+000
     vertex -3.907084e-001 -2.215817e+000  0.000000e+000
     vertex  5.581886e-015 -2.250000e+000  1.640000e+001
   endloop
 endfacet
 facet normal -8.715574e-002  9.961947e-001  0.000000e+000
   outer loop
     vertex  3.907084e-001 -2.215817e+000  0.000000e+000
     vertex  5.581886e-015 -2.250000e+000  1.640000e+001
     vertex  3.907084e-001 -2.215817e+000  1.640000e+001
   endloop
 endfacet
 facet normal -8.715574e-002  9.961947e-001  0.000000e+000
   outer loop
     vertex  3.907084e-001 -2.215817e+000  0.000000e+000
     vertex  5.581886e-015 -2.250000e+000  0.000000e+000
     vertex  5.581886e-015 -2.250000e+000  1.640000e+001
   endloop
 endfacet
 facet normal -2.588190e-001  9.659258e-001  0.000000e+000
   outer loop
     vertex  7.695453e-001 -2.114308e+000  0.000000e+000
     vertex  3.907084e-001 -2.215817e+000  1.640000e+001
     vertex  7.695453e-001 -2.114308e+000  1.640000e+001
   endloop
 endfacet
 facet normal -2.588190e-001  9.659258e-001  0.000000e+000
   outer loop
     vertex  7.695453e-001 -2.114308e+000  0.000000e+000
     vertex  3.907084e-001 -2.215817e+000  0.000000e+000
     vertex  3.907084e-001 -2.215817e+000  1.640000e+001
   endloop
 endfacet
 facet normal -4.226183e-001  9.063078e-001  0.000000e+000
   outer loop
     vertex  1.125000e+000 -1.948557e+000  0.000000e+000
     vertex  7.695453e-001 -2.114308e+000  1.640000e+001
     vertex  1.125000e+000 -1.948557e+000  1.640000e+001
   endloop
 endfacet
 facet normal -4.226183e-001  9.063078e-001  0.000000e+000
   outer loop
     vertex  1.125000e+000 -1.948557e+000  0.000000e+000
     vertex  7.695453e-001 -2.114308e+000  0.000000e+000
     vertex  7.695453e-001 -2.114308e+000  1.640000e+001
   endloop
 endfacet
 facet normal -5.735764e-001  8.191520e-001  0.000000e+000
   outer loop
     vertex  1.446272e+000 -1.723600e+000  0.000000e+000
     vertex  1.125000e+000 -1.948557e+000  1.640000e+001
     vertex  1.446272e+000 -1.723600e+000  1.640000e+001
   endloop
 endfacet
 facet normal -5.735764e-001  8.191520e-001  0.000000e+000
   outer loop
     vertex  1.446272e+000 -1.723600e+000  0.000000e+000
     vertex  1.125000e+000 -1.948557e+000  0.000000e+000
     vertex  1.125000e+000 -1.948557e+000  1.640000e+001
   endloop
 endfacet
 facet normal -7.071068e-001  7.071068e-001  0.000000e+000
   outer loop
     vertex  1.723600e+000 -1.446272e+000  0.000000e+000
     vertex  1.446272e+000 -1.723600e+000  0.000000e+000
     vertex  1.446272e+000 -1.723600e+000  1.640000e+001
   endloop
 endfacet
 facet normal -7.071068e-001  7.071068e-001  0.000000e+000
   outer loop
     vertex  1.723600e+000 -1.446272e+000  0.000000e+000
     vertex  1.446272e+000 -1.723600e+000  1.640000e+001
     vertex  1.723600e+000 -1.446272e+000  1.640000e+001
   endloop
 endfacet
 facet normal -8.191520e-001  5.735764e-001  0.000000e+000
   outer loop
     vertex  1.948557e+000 -1.125000e+000  0.000000e+000
     vertex  1.723600e+000 -1.446272e+000  0.000000e+000
     vertex  1.723600e+000 -1.446272e+000  1.640000e+001
   endloop
 endfacet
 facet normal -8.191520e-001  5.735764e-001  0.000000e+000
   outer loop
     vertex  1.948557e+000 -1.125000e+000  0.000000e+000
     vertex  1.723600e+000 -1.446272e+000  1.640000e+001
     vertex  1.948557e+000 -1.125000e+000  1.640000e+001
   endloop
 endfacet
 facet normal -9.063078e-001  4.226183e-001  0.000000e+000
   outer loop
     vertex  2.114308e+000 -7.695453e-001  0.000000e+000
     vertex  1.948557e+000 -1.125000e+000  0.000000e+000
     vertex  1.948557e+000 -1.125000e+000  1.640000e+001
   endloop
 endfacet
 facet normal -9.063078e-001  4.226183e-001  0.000000e+000
   outer loop
     vertex  2.114308e+000 -7.695453e-001  0.000000e+000
     vertex  1.948557e+000 -1.125000e+000  1.640000e+001
     vertex  2.114308e+000 -7.695453e-001  1.640000e+001
   endloop
 endfacet
 facet normal -9.659258e-001  2.588190e-001  0.000000e+000
   outer loop
     vertex  2.215817e+000 -3.907084e-001  0.000000e+000
     vertex  2.114308e+000 -7.695453e-001  0.000000e+000
     vertex  2.114308e+000 -7.695453e-001  1.640000e+001
   endloop
 endfacet
 facet normal -9.659258e-001  2.588190e-001  0.000000e+000
   outer loop
     vertex  2.215817e+000 -3.907084e-001  0.000000e+000
     vertex  2.114308e+000 -7.695453e-001  1.640000e+001
     vertex  2.215817e+000 -3.907084e-001  1.640000e+001
   endloop
 endfacet
 facet normal -9.961947e-001  8.715574e-002  0.000000e+000
   outer loop
     vertex  2.250000e+000  0.000000e+000  0.000000e+000
     vertex  2.215817e+000 -3.907084e-001  0.000000e+000
     vertex  2.215817e+000 -3.907084e-001  1.640000e+001
   endloop
 endfacet
 facet normal -9.961947e-001  8.715574e-002  0.000000e+000
   outer loop
     vertex  2.250000e+000  0.000000e+000  0.000000e+000
     vertex  2.215817e+000 -3.907084e-001  1.640000e+001
     vertex  2.250000e+000  0.000000e+000  1.640000e+001
   endloop
 endfacet
 facet normal  0.000000e+000 -0.000000e+000 -1.000000e+000
   outer loop
     vertex  1.723600e+000 -1.446272e+000  0.000000e+000
     vertex  3.830222e+000 -3.213938e+000  0.000000e+000
     vertex  3.431208e+000 -3.636868e+000  0.000000e+000
   endloop
 endfacet
 facet normal  0.000000e+000 -0.000000e+000 -1.000000e+000
   outer loop
     vertex  1.723600e+000 -1.446272e+000  0.000000e+000
     vertex  4.177439e+000 -2.747545e+000  0.000000e+000
     vertex  3.830222e+000 -3.213938e+000  0.000000e+000
   endloop
 endfacet
 facet normal  0.000000e+000  0.000000e+000 -1.000000e+000
   outer loop
     vertex  1.446272e+000 -1.723600e+000  0.000000e+000
     vertex  1.723600e+000 -1.446272e+000  0.000000e+000
     vertex  3.431208e+000 -3.636868e+000  0.000000e+000
   endloop
 endfacet
 facet normal  0.000000e+000 -0.000000e+000 -1.000000e+000
   outer loop
     vertex  1.446272e+000 -1.723600e+000  0.000000e+000
     vertex  3.431208e+000 -3.636868e+000  0.000000e+000
     vertex  2.985793e+000 -4.010616e+000  0.000000e+000
   endloop
 endfacet
 facet normal  0.000000e+000  0.000000e+000 -1.000000e+000
   outer loop
     vertex  1.125000e+000 -1.948557e+000  0.000000e+000
     vertex  1.446272e+000 -1.723600e+000  0.000000e+000
     vertex  2.985793e+000 -4.010616e+000  0.000000e+000
   endloop
 endfacet
 facet normal  0.000000e+000 -0.000000e+000 -1.000000e+000
   outer loop
     vertex  1.125000e+000 -1.948557e+000  0.000000e+000
     vertex  2.500000e+000 -4.330127e+000  0.000000e+000
     vertex  1.980399e+000 -4.591081e+000  0.000000e+000
   endloop
 endfacet
 facet normal  0.000000e+000 -0.000000e+000 -1.000000e+000
   outer loop
     vertex  1.125000e+000 -1.948557e+000  0.000000e+000
     vertex  2.985793e+000 -4.010616e+000  0.000000e+000
     vertex  2.500000e+000 -4.330127e+000  0.000000e+000
   endloop
 endfacet
 facet normal  0.000000e+000 -0.000000e+000 -1.000000e+000
   outer loop
     vertex  1.948557e+000 -1.125000e+000  0.000000e+000
     vertex  4.468163e+000 -2.243996e+000  0.000000e+000
     vertex  4.177439e+000 -2.747545e+000  0.000000e+000
   endloop
 endfacet
 facet normal -0.000000e+000 -0.000000e+000 -1.000000e+000
   outer loop
     vertex  1.948557e+000 -1.125000e+000  0.000000e+000
     vertex  4.177439e+000 -2.747545e+000  0.000000e+000
     vertex  1.723600e+000 -1.446272e+000  0.000000e+000
   endloop
 endfacet
 facet normal  0.000000e+000  0.000000e+000 -1.000000e+000
   outer loop
     vertex  7.695453e-001 -2.114308e+000  0.000000e+000
     vertex  1.125000e+000 -1.948557e+000  0.000000e+000
     vertex  1.980399e+000 -4.591081e+000  0.000000e+000
   endloop
 endfacet
 facet normal  0.000000e+000 -0.000000e+000 -1.000000e+000
   outer loop
     vertex  7.695453e-001 -2.114308e+000  0.000000e+000
     vertex  1.980399e+000 -4.591081e+000  0.000000e+000
     vertex  1.434016e+000 -4.789948e+000  0.000000e+000
   endloop
 endfacet
 facet normal -0.000000e+000 -0.000000e+000 -1.000000e+000
   outer loop
     vertex  2.114308e+000 -7.695453e-001  0.000000e+000
     vertex  4.468163e+000 -2.243996e+000  0.000000e+000
     vertex  1.948557e+000 -1.125000e+000  0.000000e+000
   endloop
 endfacet
 facet normal  0.000000e+000 -0.000000e+000 -1.000000e+000
   outer loop
     vertex  2.114308e+000 -7.695453e-001  0.000000e+000
     vertex  4.698463e+000 -1.710101e+000  0.000000e+000
     vertex  4.468163e+000 -2.243996e+000  0.000000e+000
   endloop
 endfacet
 facet normal  0.000000e+000 -0.000000e+000 -1.000000e+000
   outer loop
     vertex  2.114308e+000 -7.695453e-001  0.000000e+000
     vertex  4.865224e+000 -1.153079e+000  0.000000e+000
     vertex  4.698463e+000 -1.710101e+000  0.000000e+000
   endloop
 endfacet
 facet normal  0.000000e+000 -0.000000e+000 -1.000000e+000
   outer loop
     vertex  3.907084e-001 -2.215817e+000  0.000000e+000
     vertex  8.682409e-001 -4.924039e+000  0.000000e+000
     vertex  2.907241e-001 -4.991541e+000  0.000000e+000
   endloop
 endfacet
 facet normal  0.000000e+000 -0.000000e+000 -1.000000e+000
   outer loop
     vertex  3.907084e-001 -2.215817e+000  0.000000e+000
     vertex  1.434016e+000 -4.789948e+000  0.000000e+000
     vertex  8.682409e-001 -4.924039e+000  0.000000e+000
   endloop
 endfacet
 facet normal  0.000000e+000  0.000000e+000 -1.000000e+000
   outer loop
     vertex  3.907084e-001 -2.215817e+000  0.000000e+000
     vertex  7.695453e-001 -2.114308e+000  0.000000e+000
     vertex  1.434016e+000 -4.789948e+000  0.000000e+000
   endloop
 endfacet
 facet normal -0.000000e+000 -0.000000e+000 -1.000000e+000
   outer loop
     vertex  2.215817e+000 -3.907084e-001  0.000000e+000
     vertex  4.865224e+000 -1.153079e+000  0.000000e+000
     vertex  2.114308e+000 -7.695453e-001  0.000000e+000
   endloop
 endfacet
 facet normal  0.000000e+000 -0.000000e+000 -1.000000e+000
   outer loop
     vertex  2.215817e+000 -3.907084e-001  0.000000e+000
     vertex  4.966192e+000 -5.804646e-001  0.000000e+000
     vertex  4.865224e+000 -1.153079e+000  0.000000e+000
   endloop
 endfacet
 facet normal  0.000000e+000 -0.000000e+000 -1.000000e+000
   outer loop
     vertex  5.581886e-015 -2.250000e+000  0.000000e+000
     vertex  2.907241e-001 -4.991541e+000  0.000000e+000
     vertex -2.907241e-001 -4.991541e+000  0.000000e+000
   endloop
 endfacet
 facet normal  0.000000e+000 -0.000000e+000 -1.000000e+000
   outer loop
     vertex  5.581886e-015 -2.250000e+000  0.000000e+000
     vertex  3.907084e-001 -2.215817e+000  0.000000e+000
     vertex  2.907241e-001 -4.991541e+000  0.000000e+000
   endloop
 endfacet
 facet normal  0.000000e+000  0.000000e+000 -1.000000e+000
   outer loop
     vertex  2.250000e+000  0.000000e+000  0.000000e+000
     vertex  4.966192e+000  5.804646e-001  0.000000e+000
     vertex  5.000000e+000  0.000000e+000  0.000000e+000
   endloop
 endfacet
 facet normal -0.000000e+000 -0.000000e+000 -1.000000e+000
   outer loop
     vertex  2.250000e+000  0.000000e+000  0.000000e+000
     vertex  4.966192e+000 -5.804646e-001  0.000000e+000
     vertex  2.215817e+000 -3.907084e-001  0.000000e+000
   endloop
 endfacet
 facet normal  0.000000e+000 -0.000000e+000 -1.000000e+000
   outer loop
     vertex  2.250000e+000  0.000000e+000  0.000000e+000
     vertex  5.000000e+000  0.000000e+000  0.000000e+000
     vertex  4.966192e+000 -5.804646e-001  0.000000e+000
   endloop
 endfacet
 facet normal  0.000000e+000 -0.000000e+000 -1.000000e+000
   outer loop
     vertex -3.907084e-001 -2.215817e+000  0.000000e+000
     vertex  5.581886e-015 -2.250000e+000  0.000000e+000
     vertex -2.907241e-001 -4.991541e+000  0.000000e+000
   endloop
 endfacet
 facet normal -0.000000e+000  0.000000e+000 -1.000000e+000
   outer loop
     vertex -3.907084e-001 -2.215817e+000  0.000000e+000
     vertex -8.682409e-001 -4.924039e+000  0.000000e+000
     vertex -1.434016e+000 -4.789948e+000  0.000000e+000
   endloop
 endfacet
 facet normal -0.000000e+000 -0.000000e+000 -1.000000e+000
   outer loop
     vertex -3.907084e-001 -2.215817e+000  0.000000e+000
     vertex -2.907241e-001 -4.991541e+000  0.000000e+000
     vertex -8.682409e-001 -4.924039e+000  0.000000e+000
   endloop
 endfacet
 facet normal  0.000000e+000  0.000000e+000 -1.000000e+000
   outer loop
     vertex  2.215817e+000  3.907084e-001  0.000000e+000
     vertex  4.865224e+000  1.153079e+000  0.000000e+000
     vertex  4.966192e+000  5.804646e-001  0.000000e+000
   endloop
 endfacet
 facet normal  0.000000e+000 -0.000000e+000 -1.000000e+000
   outer loop
     vertex  2.215817e+000  3.907084e-001  0.000000e+000
     vertex  4.966192e+000  5.804646e-001  0.000000e+000
     vertex  2.250000e+000  0.000000e+000  0.000000e+000
   endloop
 endfacet
 facet normal  0.000000e+000 -0.000000e+000 -1.000000e+000
   outer loop
     vertex -7.695453e-001 -2.114308e+000  0.000000e+000
     vertex -3.907084e-001 -2.215817e+000  0.000000e+000
     vertex -1.434016e+000 -4.789948e+000  0.000000e+000
   endloop
 endfacet
 facet normal -0.000000e+000  0.000000e+000 -1.000000e+000
   outer loop
     vertex -7.695453e-001 -2.114308e+000  0.000000e+000
     vertex -1.434016e+000 -4.789948e+000  0.000000e+000
     vertex -1.980399e+000 -4.591081e+000  0.000000e+000
   endloop
 endfacet
 facet normal  0.000000e+000  0.000000e+000 -1.000000e+000
   outer loop
     vertex  2.114308e+000  7.695453e-001  0.000000e+000
     vertex  4.698463e+000  1.710101e+000  0.000000e+000
     vertex  4.865224e+000  1.153079e+000  0.000000e+000
   endloop
 endfacet
 facet normal  0.000000e+000  0.000000e+000 -1.000000e+000
   outer loop
     vertex  2.114308e+000  7.695453e-001  0.000000e+000
     vertex  4.468163e+000  2.243996e+000  0.000000e+000
     vertex  4.698463e+000  1.710101e+000  0.000000e+000
   endloop
 endfacet
 facet normal  0.000000e+000 -0.000000e+000 -1.000000e+000
   outer loop
     vertex  2.114308e+000  7.695453e-001  0.000000e+000
     vertex  4.865224e+000  1.153079e+000  0.000000e+000
     vertex  2.215817e+000  3.907084e-001  0.000000e+000
   endloop
 endfacet
 facet normal -0.000000e+000  0.000000e+000 -1.000000e+000
   outer loop
     vertex -1.125000e+000 -1.948557e+000  0.000000e+000
     vertex -2.500000e+000 -4.330127e+000  0.000000e+000
     vertex -2.985793e+000 -4.010616e+000  0.000000e+000
   endloop
 endfacet
 facet normal -0.000000e+000  0.000000e+000 -1.000000e+000
   outer loop
     vertex -1.125000e+000 -1.948557e+000  0.000000e+000
     vertex -1.980399e+000 -4.591081e+000  0.000000e+000
     vertex -2.500000e+000 -4.330127e+000  0.000000e+000
   endloop
 endfacet
 facet normal  0.000000e+000 -0.000000e+000 -1.000000e+000
   outer loop
     vertex -1.125000e+000 -1.948557e+000  0.000000e+000
     vertex -7.695453e-001 -2.114308e+000  0.000000e+000
     vertex -1.980399e+000 -4.591081e+000  0.000000e+000
   endloop
 endfacet
 facet normal  0.000000e+000  0.000000e+000 -1.000000e+000
   outer loop
     vertex  1.948557e+000  1.125000e+000  0.000000e+000
     vertex  4.177439e+000  2.747545e+000  0.000000e+000
     vertex  4.468163e+000  2.243996e+000  0.000000e+000
   endloop
 endfacet
 facet normal  0.000000e+000 -0.000000e+000 -1.000000e+000
   outer loop
     vertex  1.948557e+000  1.125000e+000  0.000000e+000
     vertex  4.468163e+000  2.243996e+000  0.000000e+000
     vertex  2.114308e+000  7.695453e-001  0.000000e+000
   endloop
 endfacet
 facet normal  0.000000e+000 -0.000000e+000 -1.000000e+000
   outer loop
     vertex -1.446272e+000 -1.723600e+000  0.000000e+000
     vertex -1.125000e+000 -1.948557e+000  0.000000e+000
     vertex -2.985793e+000 -4.010616e+000  0.000000e+000
   endloop
 endfacet
 facet normal  0.000000e+000 -0.000000e+000 -1.000000e+000
   outer loop
     vertex  1.723600e+000  1.446272e+000  0.000000e+000
     vertex  4.177439e+000  2.747545e+000  0.000000e+000
     vertex  1.948557e+000  1.125000e+000  0.000000e+000
   endloop
 endfacet
 facet normal  0.000000e+000  0.000000e+000 -1.000000e+000
   outer loop
     vertex  1.723600e+000  1.446272e+000  0.000000e+000
     vertex  3.830222e+000  3.213938e+000  0.000000e+000
     vertex  4.177439e+000  2.747545e+000  0.000000e+000
   endloop
 endfacet
 facet normal  0.000000e+000 -0.000000e+000 -1.000000e+000
   outer loop
     vertex -3.431208e+000 -3.636868e+000  0.000000e+000
     vertex -1.446272e+000 -1.723600e+000  0.000000e+000
     vertex -2.985793e+000 -4.010616e+000  0.000000e+000
   endloop
 endfacet
 facet normal  0.000000e+000 -0.000000e+000 -1.000000e+000
   outer loop
     vertex  3.431208e+000  3.636868e+000  0.000000e+000
     vertex  3.830222e+000  3.213938e+000  0.000000e+000
     vertex  1.723600e+000  1.446272e+000  0.000000e+000
   endloop
 endfacet
 facet normal  0.000000e+000 -0.000000e+000 -1.000000e+000
   outer loop
     vertex -1.723600e+000 -1.446272e+000  0.000000e+000
     vertex -1.446272e+000 -1.723600e+000  0.000000e+000
     vertex -3.431208e+000 -3.636868e+000  0.000000e+000
   endloop
 endfacet
 facet normal  0.000000e+000 -0.000000e+000 -1.000000e+000
   outer loop
     vertex  1.446272e+000  1.723600e+000  0.000000e+000
     vertex  3.431208e+000  3.636868e+000  0.000000e+000
     vertex  1.723600e+000  1.446272e+000  0.000000e+000
   endloop
 endfacet
 facet normal  0.000000e+000 -0.000000e+000 -1.000000e+000
   outer loop
     vertex -3.830222e+000 -3.213938e+000  0.000000e+000
     vertex -1.723600e+000 -1.446272e+000  0.000000e+000
     vertex -3.431208e+000 -3.636868e+000  0.000000e+000
   endloop
 endfacet
 facet normal -0.000000e+000  0.000000e+000 -1.000000e+000
   outer loop
     vertex  2.985793e+000  4.010616e+000  0.000000e+000
     vertex  1.446272e+000  1.723600e+000  0.000000e+000
     vertex  1.125000e+000  1.948557e+000  0.000000e+000
   endloop
 endfacet
 facet normal  0.000000e+000 -0.000000e+000 -1.000000e+000
   outer loop
     vertex  2.985793e+000  4.010616e+000  0.000000e+000
     vertex  3.431208e+000  3.636868e+000  0.000000e+000
     vertex  1.446272e+000  1.723600e+000  0.000000e+000
   endloop
 endfacet
 facet normal  0.000000e+000  0.000000e+000 -1.000000e+000
   outer loop
     vertex -4.177439e+000 -2.747545e+000  0.000000e+000
     vertex -1.948557e+000 -1.125000e+000  0.000000e+000
     vertex -1.723600e+000 -1.446272e+000  0.000000e+000
   endloop
 endfacet
 facet normal  0.000000e+000 -0.000000e+000 -1.000000e+000
   outer loop
     vertex -4.177439e+000 -2.747545e+000  0.000000e+000
     vertex -1.723600e+000 -1.446272e+000  0.000000e+000
     vertex -3.830222e+000 -3.213938e+000  0.000000e+000
   endloop
 endfacet
 facet normal  0.000000e+000 -0.000000e+000 -1.000000e+000
   outer loop
     vertex  2.500000e+000  4.330127e+000  0.000000e+000
     vertex  2.985793e+000  4.010616e+000  0.000000e+000
     vertex  1.125000e+000  1.948557e+000  0.000000e+000
   endloop
 endfacet
 facet normal  0.000000e+000  0.000000e+000 -1.000000e+000
   outer loop
     vertex -4.468163e+000 -2.243996e+000  0.000000e+000
     vertex -2.114308e+000 -7.695453e-001  0.000000e+000
     vertex -1.948557e+000 -1.125000e+000  0.000000e+000
   endloop
 endfacet
 facet normal  0.000000e+000 -0.000000e+000 -1.000000e+000
   outer loop
     vertex -4.468163e+000 -2.243996e+000  0.000000e+000
     vertex -1.948557e+000 -1.125000e+000  0.000000e+000
     vertex -4.177439e+000 -2.747545e+000  0.000000e+000
   endloop
 endfacet
 facet normal  0.000000e+000 -0.000000e+000 -1.000000e+000
   outer loop
     vertex  1.980399e+000  4.591081e+000  0.000000e+000
     vertex  2.500000e+000  4.330127e+000  0.000000e+000
     vertex  1.125000e+000  1.948557e+000  0.000000e+000
   endloop
 endfacet
 facet normal -0.000000e+000  0.000000e+000 -1.000000e+000
   outer loop
     vertex  1.980399e+000  4.591081e+000  0.000000e+000
     vertex  1.125000e+000  1.948557e+000  0.000000e+000
     vertex  7.695453e-001  2.114308e+000  0.000000e+000
   endloop
 endfacet
 facet normal  0.000000e+000 -0.000000e+000 -1.000000e+000
   outer loop
     vertex -4.698463e+000 -1.710101e+000  0.000000e+000
     vertex -2.114308e+000 -7.695453e-001  0.000000e+000
     vertex -4.468163e+000 -2.243996e+000  0.000000e+000
   endloop
 endfacet
 facet normal  0.000000e+000 -0.000000e+000 -1.000000e+000
   outer loop
     vertex  1.434016e+000  4.789948e+000  0.000000e+000
     vertex  1.980399e+000  4.591081e+000  0.000000e+000
     vertex  7.695453e-001  2.114308e+000  0.000000e+000
   endloop
 endfacet
 facet normal -0.000000e+000  0.000000e+000 -1.000000e+000
   outer loop
     vertex  1.434016e+000  4.789948e+000  0.000000e+000
     vertex  7.695453e-001  2.114308e+000  0.000000e+000
     vertex  3.907084e-001  2.215817e+000  0.000000e+000
   endloop
 endfacet
 facet normal  0.000000e+000 -0.000000e+000 -1.000000e+000
   outer loop
     vertex -4.865224e+000 -1.153079e+000  0.000000e+000
     vertex -2.114308e+000 -7.695453e-001  0.000000e+000
     vertex -4.698463e+000 -1.710101e+000  0.000000e+000
   endloop
 endfacet
 facet normal  0.000000e+000  0.000000e+000 -1.000000e+000
   outer loop
     vertex -4.865224e+000 -1.153079e+000  0.000000e+000
     vertex -2.215817e+000 -3.907084e-001  0.000000e+000
     vertex -2.114308e+000 -7.695453e-001  0.000000e+000
   endloop
 endfacet
 facet normal  0.000000e+000 -0.000000e+000 -1.000000e+000
   outer loop
     vertex  8.682409e-001  4.924039e+000  0.000000e+000
     vertex  1.434016e+000  4.789948e+000  0.000000e+000
     vertex  3.907084e-001  2.215817e+000  0.000000e+000
   endloop
 endfacet
 facet normal  0.000000e+000 -0.000000e+000 -1.000000e+000
   outer loop
     vertex -4.966192e+000 -5.804646e-001  0.000000e+000
     vertex -2.215817e+000 -3.907084e-001  0.000000e+000
     vertex -4.865224e+000 -1.153079e+000  0.000000e+000
   endloop
 endfacet
 facet normal  0.000000e+000  0.000000e+000 -1.000000e+000
   outer loop
     vertex -4.966192e+000 -5.804646e-001  0.000000e+000
     vertex -2.250000e+000 -4.720458e-015  0.000000e+000
     vertex -2.215817e+000 -3.907084e-001  0.000000e+000
   endloop
 endfacet
 facet normal  0.000000e+000 -0.000000e+000 -1.000000e+000
   outer loop
     vertex  2.907241e-001  4.991541e+000  0.000000e+000
     vertex  8.682409e-001  4.924039e+000  0.000000e+000
     vertex  3.907084e-001  2.215817e+000  0.000000e+000
   endloop
 endfacet
 facet normal -0.000000e+000 -0.000000e+000 -1.000000e+000
   outer loop
     vertex  2.907241e-001  4.991541e+000  0.000000e+000
     vertex  3.907084e-001  2.215817e+000  0.000000e+000
     vertex -1.361028e-015  2.250000e+000  0.000000e+000
   endloop
 endfacet
 facet normal  0.000000e+000 -0.000000e+000 -1.000000e+000
   outer loop
     vertex -5.000000e+000 -3.828569e-015  0.000000e+000
     vertex -2.250000e+000 -4.720458e-015  0.000000e+000
     vertex -4.966192e+000 -5.804646e-001  0.000000e+000
   endloop
 endfacet
 facet normal  0.000000e+000 -0.000000e+000 -1.000000e+000
   outer loop
     vertex -2.907241e-001  4.991541e+000  0.000000e+000
     vertex  2.907241e-001  4.991541e+000  0.000000e+000
     vertex -1.361028e-015  2.250000e+000  0.000000e+000
   endloop
 endfacet
 facet normal  0.000000e+000 -0.000000e+000 -1.000000e+000
   outer loop
     vertex -2.907241e-001  4.991541e+000  0.000000e+000
     vertex -1.361028e-015  2.250000e+000  0.000000e+000
     vertex -3.907084e-001  2.215817e+000  0.000000e+000
   endloop
 endfacet
 facet normal -0.000000e+000 -0.000000e+000 -1.000000e+000
   outer loop
     vertex -4.966192e+000  5.804646e-001  0.000000e+000
     vertex -2.250000e+000 -4.720458e-015  0.000000e+000
     vertex -5.000000e+000 -3.828569e-015  0.000000e+000
   endloop
 endfacet
 facet normal  0.000000e+000 -0.000000e+000 -1.000000e+000
   outer loop
     vertex -4.966192e+000  5.804646e-001  0.000000e+000
     vertex -2.215817e+000  3.907084e-001  0.000000e+000
     vertex -2.250000e+000 -4.720458e-015  0.000000e+000
   endloop
 endfacet
 facet normal  0.000000e+000 -0.000000e+000 -1.000000e+000
   outer loop
     vertex -8.682409e-001  4.924039e+000  0.000000e+000
     vertex -2.907241e-001  4.991541e+000  0.000000e+000
     vertex -3.907084e-001  2.215817e+000  0.000000e+000
   endloop
 endfacet
 facet normal -0.000000e+000 -0.000000e+000 -1.000000e+000
   outer loop
     vertex -4.865224e+000  1.153079e+000  0.000000e+000
     vertex -2.215817e+000  3.907084e-001  0.000000e+000
     vertex -4.966192e+000  5.804646e-001  0.000000e+000
   endloop
 endfacet
 facet normal  0.000000e+000 -0.000000e+000 -1.000000e+000
   outer loop
     vertex -4.865224e+000  1.153079e+000  0.000000e+000
     vertex -2.114308e+000  7.695453e-001  0.000000e+000
     vertex -2.215817e+000  3.907084e-001  0.000000e+000
   endloop
 endfacet
 facet normal  0.000000e+000  0.000000e+000 -1.000000e+000
   outer loop
     vertex -1.434016e+000  4.789948e+000  0.000000e+000
     vertex -8.682409e-001  4.924039e+000  0.000000e+000
     vertex -3.907084e-001  2.215817e+000  0.000000e+000
   endloop
 endfacet
 facet normal  0.000000e+000 -0.000000e+000 -1.000000e+000
   outer loop
     vertex -1.434016e+000  4.789948e+000  0.000000e+000
     vertex -3.907084e-001  2.215817e+000  0.000000e+000
     vertex -7.695453e-001  2.114308e+000  0.000000e+000
   endloop
 endfacet
 facet normal -0.000000e+000 -0.000000e+000 -1.000000e+000
   outer loop
     vertex -4.698463e+000  1.710101e+000  0.000000e+000
     vertex -2.114308e+000  7.695453e-001  0.000000e+000
     vertex -4.865224e+000  1.153079e+000  0.000000e+000
   endloop
 endfacet
 facet normal  0.000000e+000  0.000000e+000 -1.000000e+000
   outer loop
     vertex -1.980399e+000  4.591081e+000  0.000000e+000
     vertex -1.434016e+000  4.789948e+000  0.000000e+000
     vertex -7.695453e-001  2.114308e+000  0.000000e+000
   endloop
 endfacet
 facet normal  0.000000e+000 -0.000000e+000 -1.000000e+000
   outer loop
     vertex -1.980399e+000  4.591081e+000  0.000000e+000
     vertex -7.695453e-001  2.114308e+000  0.000000e+000
     vertex -1.125000e+000  1.948557e+000  0.000000e+000
   endloop
 endfacet
 facet normal -0.000000e+000 -0.000000e+000 -1.000000e+000
   outer loop
     vertex -4.468163e+000  2.243996e+000  0.000000e+000
     vertex -2.114308e+000  7.695453e-001  0.000000e+000
     vertex -4.698463e+000  1.710101e+000  0.000000e+000
   endloop
 endfacet
 facet normal  0.000000e+000 -0.000000e+000 -1.000000e+000
   outer loop
     vertex -4.468163e+000  2.243996e+000  0.000000e+000
     vertex -1.948557e+000  1.125000e+000  0.000000e+000
     vertex -2.114308e+000  7.695453e-001  0.000000e+000
   endloop
 endfacet
 facet normal  0.000000e+000  0.000000e+000 -1.000000e+000
   outer loop
     vertex -2.500000e+000  4.330127e+000  0.000000e+000
     vertex -1.980399e+000  4.591081e+000  0.000000e+000
     vertex -1.125000e+000  1.948557e+000  0.000000e+000
   endloop
 endfacet
 facet normal -0.000000e+000 -0.000000e+000 -1.000000e+000
   outer loop
     vertex -4.177439e+000  2.747545e+000  0.000000e+000
     vertex -1.948557e+000  1.125000e+000  0.000000e+000
     vertex -4.468163e+000  2.243996e+000  0.000000e+000
   endloop
 endfacet
 facet normal  0.000000e+000 -0.000000e+000 -1.000000e+000
   outer loop
     vertex -4.177439e+000  2.747545e+000  0.000000e+000
     vertex -1.723600e+000  1.446272e+000  0.000000e+000
     vertex -1.948557e+000  1.125000e+000  0.000000e+000
   endloop
 endfacet
 facet normal  0.000000e+000  0.000000e+000 -1.000000e+000
   outer loop
     vertex -2.985793e+000  4.010616e+000  0.000000e+000
     vertex -2.500000e+000  4.330127e+000  0.000000e+000
     vertex -1.125000e+000  1.948557e+000  0.000000e+000
   endloop
 endfacet
 facet normal  0.000000e+000 -0.000000e+000 -1.000000e+000
   outer loop
     vertex -2.985793e+000  4.010616e+000  0.000000e+000
     vertex -1.125000e+000  1.948557e+000  0.000000e+000
     vertex -1.446272e+000  1.723600e+000  0.000000e+000
   endloop
 endfacet
 facet normal -0.000000e+000 -0.000000e+000 -1.000000e+000
   outer loop
     vertex -3.830222e+000  3.213938e+000  0.000000e+000
     vertex -1.723600e+000  1.446272e+000  0.000000e+000
     vertex -4.177439e+000  2.747545e+000  0.000000e+000
   endloop
 endfacet
 facet normal  0.000000e+000 -0.000000e+000 -1.000000e+000
   outer loop
     vertex -3.431208e+000  3.636868e+000  0.000000e+000
     vertex -1.446272e+000  1.723600e+000  0.000000e+000
     vertex -1.723600e+000  1.446272e+000  0.000000e+000
   endloop
 endfacet
 facet normal  0.000000e+000  0.000000e+000 -1.000000e+000
   outer loop
     vertex -3.431208e+000  3.636868e+000  0.000000e+000
     vertex -2.985793e+000  4.010616e+000  0.000000e+000
     vertex -1.446272e+000  1.723600e+000  0.000000e+000
   endloop
 endfacet
 facet normal -0.000000e+000 -0.000000e+000 -1.000000e+000
   outer loop
     vertex -3.431208e+000  3.636868e+000  0.000000e+000
     vertex -1.723600e+000  1.446272e+000  0.000000e+000
     vertex -3.830222e+000  3.213938e+000  0.000000e+000
   endloop
 endfacet
 facet normal  0.000000e+000 -0.000000e+000  1.000000e+000
   outer loop
     vertex  3.431208e+000 -3.636868e+000  1.640000e+001
     vertex  3.830222e+000 -3.213938e+000  1.640000e+001
     vertex  1.723600e+000 -1.446272e+000  1.640000e+001
   endloop
 endfacet
 facet normal  0.000000e+000 -0.000000e+000  1.000000e+000
   outer loop
     vertex  3.830222e+000 -3.213938e+000  1.640000e+001
     vertex  4.177439e+000 -2.747545e+000  1.640000e+001
     vertex  1.723600e+000 -1.446272e+000  1.640000e+001
   endloop
 endfacet
 facet normal  0.000000e+000  0.000000e+000  1.000000e+000
   outer loop
     vertex  3.431208e+000 -3.636868e+000  1.640000e+001
     vertex  1.723600e+000 -1.446272e+000  1.640000e+001
     vertex  1.446272e+000 -1.723600e+000  1.640000e+001
   endloop
 endfacet
 facet normal  0.000000e+000 -0.000000e+000  1.000000e+000
   outer loop
     vertex  2.985793e+000 -4.010616e+000  1.640000e+001
     vertex  3.431208e+000 -3.636868e+000  1.640000e+001
     vertex  1.446272e+000 -1.723600e+000  1.640000e+001
   endloop
 endfacet
 facet normal  0.000000e+000  0.000000e+000  1.000000e+000
   outer loop
     vertex  2.985793e+000 -4.010616e+000  1.640000e+001
     vertex  1.446272e+000 -1.723600e+000  1.640000e+001
     vertex  1.125000e+000 -1.948557e+000  1.640000e+001
   endloop
 endfacet
 facet normal  0.000000e+000 -0.000000e+000  1.000000e+000
   outer loop
     vertex  1.980399e+000 -4.591081e+000  1.640000e+001
     vertex  2.500000e+000 -4.330127e+000  1.640000e+001
     vertex  1.125000e+000 -1.948557e+000  1.640000e+001
   endloop
 endfacet
 facet normal  0.000000e+000 -0.000000e+000  1.000000e+000
   outer loop
     vertex  2.500000e+000 -4.330127e+000  1.640000e+001
     vertex  2.985793e+000 -4.010616e+000  1.640000e+001
     vertex  1.125000e+000 -1.948557e+000  1.640000e+001
   endloop
 endfacet
 facet normal  0.000000e+000 -0.000000e+000  1.000000e+000
   outer loop
     vertex  4.177439e+000 -2.747545e+000  1.640000e+001
     vertex  4.468163e+000 -2.243996e+000  1.640000e+001
     vertex  1.948557e+000 -1.125000e+000  1.640000e+001
   endloop
 endfacet
 facet normal -0.000000e+000 -0.000000e+000  1.000000e+000
   outer loop
     vertex  1.723600e+000 -1.446272e+000  1.640000e+001
     vertex  4.177439e+000 -2.747545e+000  1.640000e+001
     vertex  1.948557e+000 -1.125000e+000  1.640000e+001
   endloop
 endfacet
 facet normal  0.000000e+000  0.000000e+000  1.000000e+000
   outer loop
     vertex  1.980399e+000 -4.591081e+000  1.640000e+001
     vertex  1.125000e+000 -1.948557e+000  1.640000e+001
     vertex  7.695453e-001 -2.114308e+000  1.640000e+001
   endloop
 endfacet
 facet normal  0.000000e+000 -0.000000e+000  1.000000e+000
   outer loop
     vertex  1.434016e+000 -4.789948e+000  1.640000e+001
     vertex  1.980399e+000 -4.591081e+000  1.640000e+001
     vertex  7.695453e-001 -2.114308e+000  1.640000e+001
   endloop
 endfacet
 facet normal -0.000000e+000 -0.000000e+000  1.000000e+000
   outer loop
     vertex  1.948557e+000 -1.125000e+000  1.640000e+001
     vertex  4.468163e+000 -2.243996e+000  1.640000e+001
     vertex  2.114308e+000 -7.695453e-001  1.640000e+001
   endloop
 endfacet
 facet normal  0.000000e+000 -0.000000e+000  1.000000e+000
   outer loop
     vertex  4.468163e+000 -2.243996e+000  1.640000e+001
     vertex  4.698463e+000 -1.710101e+000  1.640000e+001
     vertex  2.114308e+000 -7.695453e-001  1.640000e+001
   endloop
 endfacet
 facet normal  0.000000e+000 -0.000000e+000  1.000000e+000
   outer loop
     vertex  4.698463e+000 -1.710101e+000  1.640000e+001
     vertex  4.865224e+000 -1.153079e+000  1.640000e+001
     vertex  2.114308e+000 -7.695453e-001  1.640000e+001
   endloop
 endfacet
 facet normal  0.000000e+000 -0.000000e+000  1.000000e+000
   outer loop
     vertex  2.907241e-001 -4.991541e+000  1.640000e+001
     vertex  8.682409e-001 -4.924039e+000  1.640000e+001
     vertex  3.907084e-001 -2.215817e+000  1.640000e+001
   endloop
 endfacet
 facet normal  0.000000e+000 -0.000000e+000  1.000000e+000
   outer loop
     vertex  8.682409e-001 -4.924039e+000  1.640000e+001
     vertex  1.434016e+000 -4.789948e+000  1.640000e+001
     vertex  3.907084e-001 -2.215817e+000  1.640000e+001
   endloop
 endfacet
 facet normal  0.000000e+000  0.000000e+000  1.000000e+000
   outer loop
     vertex  1.434016e+000 -4.789948e+000  1.640000e+001
     vertex  7.695453e-001 -2.114308e+000  1.640000e+001
     vertex  3.907084e-001 -2.215817e+000  1.640000e+001
   endloop
 endfacet
 facet normal -0.000000e+000 -0.000000e+000  1.000000e+000
   outer loop
     vertex  2.114308e+000 -7.695453e-001  1.640000e+001
     vertex  4.865224e+000 -1.153079e+000  1.640000e+001
     vertex  2.215817e+000 -3.907084e-001  1.640000e+001
   endloop
 endfacet
 facet normal  0.000000e+000 -0.000000e+000  1.000000e+000
   outer loop
     vertex  4.865224e+000 -1.153079e+000  1.640000e+001
     vertex  4.966192e+000 -5.804646e-001  1.640000e+001
     vertex  2.215817e+000 -3.907084e-001  1.640000e+001
   endloop
 endfacet
 facet normal  0.000000e+000 -0.000000e+000  1.000000e+000
   outer loop
     vertex -2.907241e-001 -4.991541e+000  1.640000e+001
     vertex  2.907241e-001 -4.991541e+000  1.640000e+001
     vertex  5.581886e-015 -2.250000e+000  1.640000e+001
   endloop
 endfacet
 facet normal  0.000000e+000 -0.000000e+000  1.000000e+000
   outer loop
     vertex  2.907241e-001 -4.991541e+000  1.640000e+001
     vertex  3.907084e-001 -2.215817e+000  1.640000e+001
     vertex  5.581886e-015 -2.250000e+000  1.640000e+001
   endloop
 endfacet
 facet normal  0.000000e+000  0.000000e+000  1.000000e+000
   outer loop
     vertex  5.000000e+000  0.000000e+000  1.640000e+001
     vertex  4.966192e+000  5.804646e-001  1.640000e+001
     vertex  2.250000e+000  0.000000e+000  1.640000e+001
   endloop
 endfacet
 facet normal -0.000000e+000 -0.000000e+000  1.000000e+000
   outer loop
     vertex  2.215817e+000 -3.907084e-001  1.640000e+001
     vertex  4.966192e+000 -5.804646e-001  1.640000e+001
     vertex  2.250000e+000  0.000000e+000  1.640000e+001
   endloop
 endfacet
 facet normal  0.000000e+000 -0.000000e+000  1.000000e+000
   outer loop
     vertex  4.966192e+000 -5.804646e-001  1.640000e+001
     vertex  5.000000e+000  0.000000e+000  1.640000e+001
     vertex  2.250000e+000  0.000000e+000  1.640000e+001
   endloop
 endfacet
 facet normal  0.000000e+000 -0.000000e+000  1.000000e+000
   outer loop
     vertex -2.907241e-001 -4.991541e+000  1.640000e+001
     vertex  5.581886e-015 -2.250000e+000  1.640000e+001
     vertex -3.907084e-001 -2.215817e+000  1.640000e+001
   endloop
 endfacet
 facet normal -0.000000e+000  0.000000e+000  1.000000e+000
   outer loop
     vertex -1.434016e+000 -4.789948e+000  1.640000e+001
     vertex -8.682409e-001 -4.924039e+000  1.640000e+001
     vertex -3.907084e-001 -2.215817e+000  1.640000e+001
   endloop
 endfacet
 facet normal -0.000000e+000 -0.000000e+000  1.000000e+000
   outer loop
     vertex -8.682409e-001 -4.924039e+000  1.640000e+001
     vertex -2.907241e-001 -4.991541e+000  1.640000e+001
     vertex -3.907084e-001 -2.215817e+000  1.640000e+001
   endloop
 endfacet
 facet normal  0.000000e+000  0.000000e+000  1.000000e+000
   outer loop
     vertex  4.966192e+000  5.804646e-001  1.640000e+001
     vertex  4.865224e+000  1.153079e+000  1.640000e+001
     vertex  2.215817e+000  3.907084e-001  1.640000e+001
   endloop
 endfacet
 facet normal  0.000000e+000 -0.000000e+000  1.000000e+000
   outer loop
     vertex  2.250000e+000  0.000000e+000  1.640000e+001
     vertex  4.966192e+000  5.804646e-001  1.640000e+001
     vertex  2.215817e+000  3.907084e-001  1.640000e+001
   endloop
 endfacet
 facet normal  0.000000e+000 -0.000000e+000  1.000000e+000
   outer loop
     vertex -1.434016e+000 -4.789948e+000  1.640000e+001
     vertex -3.907084e-001 -2.215817e+000  1.640000e+001
     vertex -7.695453e-001 -2.114308e+000  1.640000e+001
   endloop
 endfacet
 facet normal -0.000000e+000  0.000000e+000  1.000000e+000
   outer loop
     vertex -1.980399e+000 -4.591081e+000  1.640000e+001
     vertex -1.434016e+000 -4.789948e+000  1.640000e+001
     vertex -7.695453e-001 -2.114308e+000  1.640000e+001
   endloop
 endfacet
 facet normal  0.000000e+000  0.000000e+000  1.000000e+000
   outer loop
     vertex  4.865224e+000  1.153079e+000  1.640000e+001
     vertex  4.698463e+000  1.710101e+000  1.640000e+001
     vertex  2.114308e+000  7.695453e-001  1.640000e+001
   endloop
 endfacet
 facet normal  0.000000e+000  0.000000e+000  1.000000e+000
   outer loop
     vertex  4.698463e+000  1.710101e+000  1.640000e+001
     vertex  4.468163e+000  2.243996e+000  1.640000e+001
     vertex  2.114308e+000  7.695453e-001  1.640000e+001
   endloop
 endfacet
 facet normal  0.000000e+000 -0.000000e+000  1.000000e+000
   outer loop
     vertex  2.215817e+000  3.907084e-001  1.640000e+001
     vertex  4.865224e+000  1.153079e+000  1.640000e+001
     vertex  2.114308e+000  7.695453e-001  1.640000e+001
   endloop
 endfacet
 facet normal  0.000000e+000 -0.000000e+000  1.000000e+000
   outer loop
     vertex -1.980399e+000 -4.591081e+000  1.640000e+001
     vertex -7.695453e-001 -2.114308e+000  1.640000e+001
     vertex -1.125000e+000 -1.948557e+000  1.640000e+001
   endloop
 endfacet
 facet normal -0.000000e+000  0.000000e+000  1.000000e+000
   outer loop
     vertex -2.985793e+000 -4.010616e+000  1.640000e+001
     vertex -2.500000e+000 -4.330127e+000  1.640000e+001
     vertex -1.125000e+000 -1.948557e+000  1.640000e+001
   endloop
 endfacet
 facet normal -0.000000e+000  0.000000e+000  1.000000e+000
   outer loop
     vertex -2.500000e+000 -4.330127e+000  1.640000e+001
     vertex -1.980399e+000 -4.591081e+000  1.640000e+001
     vertex -1.125000e+000 -1.948557e+000  1.640000e+001
   endloop
 endfacet
 facet normal  0.000000e+000  0.000000e+000  1.000000e+000
   outer loop
     vertex  4.468163e+000  2.243996e+000  1.640000e+001
     vertex  4.177439e+000  2.747545e+000  1.640000e+001
     vertex  1.948557e+000  1.125000e+000  1.640000e+001
   endloop
 endfacet
 facet normal  0.000000e+000 -0.000000e+000  1.000000e+000
   outer loop
     vertex  2.114308e+000  7.695453e-001  1.640000e+001
     vertex  4.468163e+000  2.243996e+000  1.640000e+001
     vertex  1.948557e+000  1.125000e+000  1.640000e+001
   endloop
 endfacet
 facet normal  0.000000e+000 -0.000000e+000  1.000000e+000
   outer loop
     vertex -2.985793e+000 -4.010616e+000  1.640000e+001
     vertex -1.125000e+000 -1.948557e+000  1.640000e+001
     vertex -1.446272e+000 -1.723600e+000  1.640000e+001
   endloop
 endfacet
 facet normal  0.000000e+000  0.000000e+000  1.000000e+000
   outer loop
     vertex  4.177439e+000  2.747545e+000  1.640000e+001
     vertex  3.830222e+000  3.213938e+000  1.640000e+001
     vertex  1.723600e+000  1.446272e+000  1.640000e+001
   endloop
 endfacet
 facet normal  0.000000e+000 -0.000000e+000  1.000000e+000
   outer loop
     vertex  1.948557e+000  1.125000e+000  1.640000e+001
     vertex  4.177439e+000  2.747545e+000  1.640000e+001
     vertex  1.723600e+000  1.446272e+000  1.640000e+001
   endloop
 endfacet
 facet normal  0.000000e+000 -0.000000e+000  1.000000e+000
   outer loop
     vertex -2.985793e+000 -4.010616e+000  1.640000e+001
     vertex -1.446272e+000 -1.723600e+000  1.640000e+001
     vertex -3.431208e+000 -3.636868e+000  1.640000e+001
   endloop
 endfacet
 facet normal  0.000000e+000 -0.000000e+000  1.000000e+000
   outer loop
     vertex  1.723600e+000  1.446272e+000  1.640000e+001
     vertex  3.830222e+000  3.213938e+000  1.640000e+001
     vertex  3.431208e+000  3.636868e+000  1.640000e+001
   endloop
 endfacet
 facet normal  0.000000e+000 -0.000000e+000  1.000000e+000
   outer loop
     vertex -3.431208e+000 -3.636868e+000  1.640000e+001
     vertex -1.446272e+000 -1.723600e+000  1.640000e+001
     vertex -1.723600e+000 -1.446272e+000  1.640000e+001
   endloop
 endfacet
 facet normal  0.000000e+000 -0.000000e+000  1.000000e+000
   outer loop
     vertex  1.723600e+000  1.446272e+000  1.640000e+001
     vertex  3.431208e+000  3.636868e+000  1.640000e+001
     vertex  1.446272e+000  1.723600e+000  1.640000e+001
   endloop
 endfacet
 facet normal  0.000000e+000 -0.000000e+000  1.000000e+000
   outer loop
     vertex -3.431208e+000 -3.636868e+000  1.640000e+001
     vertex -1.723600e+000 -1.446272e+000  1.640000e+001
     vertex -3.830222e+000 -3.213938e+000  1.640000e+001
   endloop
 endfacet
 facet normal -0.000000e+000  0.000000e+000  1.000000e+000
   outer loop
     vertex  1.125000e+000  1.948557e+000  1.640000e+001
     vertex  1.446272e+000  1.723600e+000  1.640000e+001
     vertex  2.985793e+000  4.010616e+000  1.640000e+001
   endloop
 endfacet
 facet normal  0.000000e+000 -0.000000e+000  1.000000e+000
   outer loop
     vertex  1.446272e+000  1.723600e+000  1.640000e+001
     vertex  3.431208e+000  3.636868e+000  1.640000e+001
     vertex  2.985793e+000  4.010616e+000  1.640000e+001
   endloop
 endfacet
 facet normal  0.000000e+000  0.000000e+000  1.000000e+000
   outer loop
     vertex -1.723600e+000 -1.446272e+000  1.640000e+001
     vertex -1.948557e+000 -1.125000e+000  1.640000e+001
     vertex -4.177439e+000 -2.747545e+000  1.640000e+001
   endloop
 endfacet
 facet normal  0.000000e+000 -0.000000e+000  1.000000e+000
   outer loop
     vertex -3.830222e+000 -3.213938e+000  1.640000e+001
     vertex -1.723600e+000 -1.446272e+000  1.640000e+001
     vertex -4.177439e+000 -2.747545e+000  1.640000e+001
   endloop
 endfacet
 facet normal  0.000000e+000 -0.000000e+000  1.000000e+000
   outer loop
     vertex  1.125000e+000  1.948557e+000  1.640000e+001
     vertex  2.985793e+000  4.010616e+000  1.640000e+001
     vertex  2.500000e+000  4.330127e+000  1.640000e+001
   endloop
 endfacet
 facet normal  0.000000e+000  0.000000e+000  1.000000e+000
   outer loop
     vertex -1.948557e+000 -1.125000e+000  1.640000e+001
     vertex -2.114308e+000 -7.695453e-001  1.640000e+001
     vertex -4.468163e+000 -2.243996e+000  1.640000e+001
   endloop
 endfacet
 facet normal  0.000000e+000 -0.000000e+000  1.000000e+000
   outer loop
     vertex -4.177439e+000 -2.747545e+000  1.640000e+001
     vertex -1.948557e+000 -1.125000e+000  1.640000e+001
     vertex -4.468163e+000 -2.243996e+000  1.640000e+001
   endloop
 endfacet
 facet normal  0.000000e+000 -0.000000e+000  1.000000e+000
   outer loop
     vertex  1.125000e+000  1.948557e+000  1.640000e+001
     vertex  2.500000e+000  4.330127e+000  1.640000e+001
     vertex  1.980399e+000  4.591081e+000  1.640000e+001
   endloop
 endfacet
 facet normal -0.000000e+000  0.000000e+000  1.000000e+000
   outer loop
     vertex  7.695453e-001  2.114308e+000  1.640000e+001
     vertex  1.125000e+000  1.948557e+000  1.640000e+001
     vertex  1.980399e+000  4.591081e+000  1.640000e+001
   endloop
 endfacet
 facet normal  0.000000e+000 -0.000000e+000  1.000000e+000
   outer loop
     vertex -4.468163e+000 -2.243996e+000  1.640000e+001
     vertex -2.114308e+000 -7.695453e-001  1.640000e+001
     vertex -4.698463e+000 -1.710101e+000  1.640000e+001
   endloop
 endfacet
 facet normal  0.000000e+000 -0.000000e+000  1.000000e+000
   outer loop
     vertex  7.695453e-001  2.114308e+000  1.640000e+001
     vertex  1.980399e+000  4.591081e+000  1.640000e+001
     vertex  1.434016e+000  4.789948e+000  1.640000e+001
   endloop
 endfacet
 facet normal -0.000000e+000  0.000000e+000  1.000000e+000
   outer loop
     vertex  3.907084e-001  2.215817e+000  1.640000e+001
     vertex  7.695453e-001  2.114308e+000  1.640000e+001
     vertex  1.434016e+000  4.789948e+000  1.640000e+001
   endloop
 endfacet
 facet normal  0.000000e+000 -0.000000e+000  1.000000e+000
   outer loop
     vertex -4.698463e+000 -1.710101e+000  1.640000e+001
     vertex -2.114308e+000 -7.695453e-001  1.640000e+001
     vertex -4.865224e+000 -1.153079e+000  1.640000e+001
   endloop
 endfacet
 facet normal  0.000000e+000  0.000000e+000  1.000000e+000
   outer loop
     vertex -2.114308e+000 -7.695453e-001  1.640000e+001
     vertex -2.215817e+000 -3.907084e-001  1.640000e+001
     vertex -4.865224e+000 -1.153079e+000  1.640000e+001
   endloop
 endfacet
 facet normal  0.000000e+000 -0.000000e+000  1.000000e+000
   outer loop
     vertex  3.907084e-001  2.215817e+000  1.640000e+001
     vertex  1.434016e+000  4.789948e+000  1.640000e+001
     vertex  8.682409e-001  4.924039e+000  1.640000e+001
   endloop
 endfacet
 facet normal  0.000000e+000 -0.000000e+000  1.000000e+000
   outer loop
     vertex -4.865224e+000 -1.153079e+000  1.640000e+001
     vertex -2.215817e+000 -3.907084e-001  1.640000e+001
     vertex -4.966192e+000 -5.804646e-001  1.640000e+001
   endloop
 endfacet
 facet normal  0.000000e+000  0.000000e+000  1.000000e+000
   outer loop
     vertex -2.215817e+000 -3.907084e-001  1.640000e+001
     vertex -2.250000e+000 -4.720458e-015  1.640000e+001
     vertex -4.966192e+000 -5.804646e-001  1.640000e+001
   endloop
 endfacet
 facet normal  0.000000e+000 -0.000000e+000  1.000000e+000
   outer loop
     vertex  3.907084e-001  2.215817e+000  1.640000e+001
     vertex  8.682409e-001  4.924039e+000  1.640000e+001
     vertex  2.907241e-001  4.991541e+000  1.640000e+001
   endloop
 endfacet
 facet normal -0.000000e+000 -0.000000e+000  1.000000e+000
   outer loop
     vertex -1.361028e-015  2.250000e+000  1.640000e+001
     vertex  3.907084e-001  2.215817e+000  1.640000e+001
     vertex  2.907241e-001  4.991541e+000  1.640000e+001
   endloop
 endfacet
 facet normal  0.000000e+000 -0.000000e+000  1.000000e+000
   outer loop
     vertex -4.966192e+000 -5.804646e-001  1.640000e+001
     vertex -2.250000e+000 -4.720458e-015  1.640000e+001
     vertex -5.000000e+000 -3.828569e-015  1.640000e+001
   endloop
 endfacet
 facet normal  0.000000e+000 -0.000000e+000  1.000000e+000
   outer loop
     vertex -1.361028e-015  2.250000e+000  1.640000e+001
     vertex  2.907241e-001  4.991541e+000  1.640000e+001
     vertex -2.907241e-001  4.991541e+000  1.640000e+001
   endloop
 endfacet
 facet normal  0.000000e+000 -0.000000e+000  1.000000e+000
   outer loop
     vertex -3.907084e-001  2.215817e+000  1.640000e+001
     vertex -1.361028e-015  2.250000e+000  1.640000e+001
     vertex -2.907241e-001  4.991541e+000  1.640000e+001
   endloop
 endfacet
 facet normal -0.000000e+000 -0.000000e+000  1.000000e+000
   outer loop
     vertex -5.000000e+000 -3.828569e-015  1.640000e+001
     vertex -2.250000e+000 -4.720458e-015  1.640000e+001
     vertex -4.966192e+000  5.804646e-001  1.640000e+001
   endloop
 endfacet
 facet normal  0.000000e+000 -0.000000e+000  1.000000e+000
   outer loop
     vertex -2.250000e+000 -4.720458e-015  1.640000e+001
     vertex -2.215817e+000  3.907084e-001  1.640000e+001
     vertex -4.966192e+000  5.804646e-001  1.640000e+001
   endloop
 endfacet
 facet normal  0.000000e+000 -0.000000e+000  1.000000e+000
   outer loop
     vertex -3.907084e-001  2.215817e+000  1.640000e+001
     vertex -2.907241e-001  4.991541e+000  1.640000e+001
     vertex -8.682409e-001  4.924039e+000  1.640000e+001
   endloop
 endfacet
 facet normal -0.000000e+000 -0.000000e+000  1.000000e+000
   outer loop
     vertex -4.966192e+000  5.804646e-001  1.640000e+001
     vertex -2.215817e+000  3.907084e-001  1.640000e+001
     vertex -4.865224e+000  1.153079e+000  1.640000e+001
   endloop
 endfacet
 facet normal  0.000000e+000 -0.000000e+000  1.000000e+000
   outer loop
     vertex -2.215817e+000  3.907084e-001  1.640000e+001
     vertex -2.114308e+000  7.695453e-001  1.640000e+001
     vertex -4.865224e+000  1.153079e+000  1.640000e+001
   endloop
 endfacet
 facet normal  0.000000e+000  0.000000e+000  1.000000e+000
   outer loop
     vertex -3.907084e-001  2.215817e+000  1.640000e+001
     vertex -8.682409e-001  4.924039e+000  1.640000e+001
     vertex -1.434016e+000  4.789948e+000  1.640000e+001
   endloop
 endfacet
 facet normal  0.000000e+000 -0.000000e+000  1.000000e+000
   outer loop
     vertex -7.695453e-001  2.114308e+000  1.640000e+001
     vertex -3.907084e-001  2.215817e+000  1.640000e+001
     vertex -1.434016e+000  4.789948e+000  1.640000e+001
   endloop
 endfacet
 facet normal -0.000000e+000 -0.000000e+000  1.000000e+000
   outer loop
     vertex -4.865224e+000  1.153079e+000  1.640000e+001
     vertex -2.114308e+000  7.695453e-001  1.640000e+001
     vertex -4.698463e+000  1.710101e+000  1.640000e+001
   endloop
 endfacet
 facet normal  0.000000e+000  0.000000e+000  1.000000e+000
   outer loop
     vertex -7.695453e-001  2.114308e+000  1.640000e+001
     vertex -1.434016e+000  4.789948e+000  1.640000e+001
     vertex -1.980399e+000  4.591081e+000  1.640000e+001
   endloop
 endfacet
 facet normal  0.000000e+000 -0.000000e+000  1.000000e+000
   outer loop
     vertex -1.125000e+000  1.948557e+000  1.640000e+001
     vertex -7.695453e-001  2.114308e+000  1.640000e+001
     vertex -1.980399e+000  4.591081e+000  1.640000e+001
   endloop
 endfacet
 facet normal -0.000000e+000 -0.000000e+000  1.000000e+000
   outer loop
     vertex -4.698463e+000  1.710101e+000  1.640000e+001
     vertex -2.114308e+000  7.695453e-001  1.640000e+001
     vertex -4.468163e+000  2.243996e+000  1.640000e+001
   endloop
 endfacet
 facet normal  0.000000e+000 -0.000000e+000  1.000000e+000
   outer loop
     vertex -2.114308e+000  7.695453e-001  1.640000e+001
     vertex -1.948557e+000  1.125000e+000  1.640000e+001
     vertex -4.468163e+000  2.243996e+000  1.640000e+001
   endloop
 endfacet
 facet normal  0.000000e+000  0.000000e+000  1.000000e+000
   outer loop
     vertex -1.125000e+000  1.948557e+000  1.640000e+001
     vertex -1.980399e+000  4.591081e+000  1.640000e+001
     vertex -2.500000e+000  4.330127e+000  1.640000e+001
   endloop
 endfacet
 facet normal -0.000000e+000 -0.000000e+000  1.000000e+000
   outer loop
     vertex -4.468163e+000  2.243996e+000  1.640000e+001
     vertex -1.948557e+000  1.125000e+000  1.640000e+001
     vertex -4.177439e+000  2.747545e+000  1.640000e+001
   endloop
 endfacet
 facet normal  0.000000e+000 -0.000000e+000  1.000000e+000
   outer loop
     vertex -1.948557e+000  1.125000e+000  1.640000e+001
     vertex -1.723600e+000  1.446272e+000  1.640000e+001
     vertex -4.177439e+000  2.747545e+000  1.640000e+001
   endloop
 endfacet
 facet normal  0.000000e+000  0.000000e+000  1.000000e+000
   outer loop
     vertex -1.125000e+000  1.948557e+000  1.640000e+001
     vertex -2.500000e+000  4.330127e+000  1.640000e+001
     vertex -2.985793e+000  4.010616e+000  1.640000e+001
   endloop
 endfacet
 facet normal  0.000000e+000 -0.000000e+000  1.000000e+000
   outer loop
     vertex -1.446272e+000  1.723600e+000  1.640000e+001
     vertex -1.125000e+000  1.948557e+000  1.640000e+001
     vertex -2.985793e+000  4.010616e+000  1.640000e+001
   endloop
 endfacet
 facet normal -0.000000e+000 -0.000000e+000  1.000000e+000
   outer loop
     vertex -4.177439e+000  2.747545e+000  1.640000e+001
     vertex -1.723600e+000  1.446272e+000  1.640000e+001
     vertex -3.830222e+000  3.213938e+000  1.640000e+001
   endloop
 endfacet
 facet normal  0.000000e+000 -0.000000e+000  1.000000e+000
   outer loop
     vertex -1.723600e+000  1.446272e+000  1.640000e+001
     vertex -1.446272e+000  1.723600e+000  1.640000e+001
     vertex -3.431208e+000  3.636868e+000  1.640000e+001
   endloop
 endfacet
 facet normal  0.000000e+000  0.000000e+000  1.000000e+000
   outer loop
     vertex -1.446272e+000  1.723600e+000  1.640000e+001
     vertex -2.985793e+000  4.010616e+000  1.640000e+001
     vertex -3.431208e+000  3.636868e+000  1.640000e+001
   endloop
 endfacet
 facet normal -0.000000e+000 -0.000000e+000  1.000000e+000
   outer loop
     vertex -3.830222e+000  3.213938e+000  1.640000e+001
     vertex -1.723600e+000  1.446272e+000  1.640000e+001
     vertex -3.431208e+000  3.636868e+000  1.640000e+001
   endloop
 endfacet
endsolid
