solid
 facet normal  1.000000e+000  0.000000e+000  0.000000e+000
   outer loop
     vertex  1.750000e+001  0.000000e+000  0.000000e+000
     vertex  1.750000e+001  2.200000e+001  0.000000e+000
     vertex  1.750000e+001  2.200000e+001  2.000000e+001
   endloop
 endfacet
 facet normal  1.000000e+000  0.000000e+000 -0.000000e+000
   outer loop
     vertex  1.750000e+001  0.000000e+000  0.000000e+000
     vertex  1.750000e+001  2.200000e+001  2.000000e+001
     vertex  1.750000e+001  0.000000e+000  2.000000e+001
   endloop
 endfacet
 facet normal  0.000000e+000  1.000000e+000  0.000000e+000
   outer loop
     vertex -1.212500e+001  2.200000e+001  1.194856e+001
     vertex -1.259099e+001  2.200000e+001  1.159099e+001
     vertex -1.750000e+001  2.200000e+001  2.000000e+001
   endloop
 endfacet
 facet normal -0.000000e+000  1.000000e+000 -0.000000e+000
   outer loop
     vertex -1.294856e+001  2.200000e+001  1.112500e+001
     vertex -1.750000e+001  2.200000e+001  2.000000e+001
     vertex -1.259099e+001  2.200000e+001  1.159099e+001
   endloop
 endfacet
 facet normal  0.000000e+000  1.000000e+000  0.000000e+000
   outer loop
     vertex -1.158234e+001  2.200000e+001  1.217333e+001
     vertex -1.212500e+001  2.200000e+001  1.194856e+001
     vertex -1.750000e+001  2.200000e+001  2.000000e+001
   endloop
 endfacet
 facet normal -0.000000e+000  1.000000e+000 -0.000000e+000
   outer loop
     vertex -1.317333e+001  2.200000e+001  1.058234e+001
     vertex -1.750000e+001  2.200000e+001  2.000000e+001
     vertex -1.294856e+001  2.200000e+001  1.112500e+001
   endloop
 endfacet
 facet normal  0.000000e+000  1.000000e+000  0.000000e+000
   outer loop
     vertex -1.100000e+001  2.200000e+001  1.225000e+001
     vertex -1.158234e+001  2.200000e+001  1.217333e+001
     vertex -1.750000e+001  2.200000e+001  2.000000e+001
   endloop
 endfacet
 facet normal -0.000000e+000  1.000000e+000 -0.000000e+000
   outer loop
     vertex -1.325000e+001  2.200000e+001  1.000000e+001
     vertex -1.750000e+001  2.200000e+001  2.000000e+001
     vertex -1.317333e+001  2.200000e+001  1.058234e+001
   endloop
 endfacet
 facet normal  0.000000e+000  1.000000e+000  0.000000e+000
   outer loop
     vertex -1.041766e+001  2.200000e+001  1.217333e+001
     vertex -1.100000e+001  2.200000e+001  1.225000e+001
     vertex -1.750000e+001  2.200000e+001  2.000000e+001
   endloop
 endfacet
 facet normal  0.000000e+000  1.000000e+000  0.000000e+000
   outer loop
     vertex -9.875000e+000  2.200000e+001  1.194856e+001
     vertex -1.041766e+001  2.200000e+001  1.217333e+001
     vertex -1.750000e+001  2.200000e+001  2.000000e+001
   endloop
 endfacet
 facet normal  0.000000e+000  1.000000e+000  0.000000e+000
   outer loop
     vertex -1.750000e+001  2.200000e+001  0.000000e+000
     vertex -1.100000e+001  2.200000e+001  7.750000e+000
     vertex -1.041766e+001  2.200000e+001  7.826667e+000
   endloop
 endfacet
 facet normal  0.000000e+000  1.000000e+000  0.000000e+000
   outer loop
     vertex -1.750000e+001  2.200000e+001  0.000000e+000
     vertex -1.041766e+001  2.200000e+001  7.826667e+000
     vertex -9.875000e+000  2.200000e+001  8.051443e+000
   endloop
 endfacet
 facet normal -0.000000e+000  1.000000e+000  0.000000e+000
   outer loop
     vertex -1.750000e+001  2.200000e+001  0.000000e+000
     vertex -1.325000e+001  2.200000e+001  1.000000e+001
     vertex -1.317333e+001  2.200000e+001  9.417657e+000
   endloop
 endfacet
 facet normal -0.000000e+000  1.000000e+000  0.000000e+000
   outer loop
     vertex -1.750000e+001  2.200000e+001  0.000000e+000
     vertex -1.317333e+001  2.200000e+001  9.417657e+000
     vertex -1.294856e+001  2.200000e+001  8.875000e+000
   endloop
 endfacet
 facet normal -0.000000e+000  1.000000e+000  0.000000e+000
   outer loop
     vertex -1.750000e+001  2.200000e+001  0.000000e+000
     vertex -1.294856e+001  2.200000e+001  8.875000e+000
     vertex -1.259099e+001  2.200000e+001  8.409010e+000
   endloop
 endfacet
 facet normal -0.000000e+000  1.000000e+000  0.000000e+000
   outer loop
     vertex -1.750000e+001  2.200000e+001  0.000000e+000
     vertex -1.259099e+001  2.200000e+001  8.409010e+000
     vertex -1.212500e+001  2.200000e+001  8.051443e+000
   endloop
 endfacet
 facet normal -0.000000e+000  1.000000e+000  0.000000e+000
   outer loop
     vertex -1.750000e+001  2.200000e+001  0.000000e+000
     vertex -1.212500e+001  2.200000e+001  8.051443e+000
     vertex -1.158234e+001  2.200000e+001  7.826667e+000
   endloop
 endfacet
 facet normal -0.000000e+000  1.000000e+000  0.000000e+000
   outer loop
     vertex -1.750000e+001  2.200000e+001  0.000000e+000
     vertex -1.158234e+001  2.200000e+001  7.826667e+000
     vertex -1.100000e+001  2.200000e+001  7.750000e+000
   endloop
 endfacet
 facet normal -0.000000e+000  1.000000e+000  0.000000e+000
   outer loop
     vertex -1.750000e+001  2.200000e+001  0.000000e+000
     vertex -1.750000e+001  2.200000e+001  2.000000e+001
     vertex -1.325000e+001  2.200000e+001  1.000000e+001
   endloop
 endfacet
 facet normal  0.000000e+000  1.000000e+000 -0.000000e+000
   outer loop
     vertex  1.041766e+001  2.200000e+001  1.217333e+001
     vertex  9.875000e+000  2.200000e+001  1.194856e+001
     vertex  1.750000e+001  2.200000e+001  2.000000e+001
   endloop
 endfacet
 facet normal  0.000000e+000  1.000000e+000 -0.000000e+000
   outer loop
     vertex  1.100000e+001  2.200000e+001  1.225000e+001
     vertex  1.041766e+001  2.200000e+001  1.217333e+001
     vertex  1.750000e+001  2.200000e+001  2.000000e+001
   endloop
 endfacet
 facet normal  0.000000e+000  1.000000e+000 -0.000000e+000
   outer loop
     vertex  1.158234e+001  2.200000e+001  1.217333e+001
     vertex  1.100000e+001  2.200000e+001  1.225000e+001
     vertex  1.750000e+001  2.200000e+001  2.000000e+001
   endloop
 endfacet
 facet normal  0.000000e+000  1.000000e+000 -0.000000e+000
   outer loop
     vertex  1.212500e+001  2.200000e+001  1.194856e+001
     vertex  1.158234e+001  2.200000e+001  1.217333e+001
     vertex  1.750000e+001  2.200000e+001  2.000000e+001
   endloop
 endfacet
 facet normal  0.000000e+000  1.000000e+000 -0.000000e+000
   outer loop
     vertex  1.259099e+001  2.200000e+001  1.159099e+001
     vertex  1.212500e+001  2.200000e+001  1.194856e+001
     vertex  1.750000e+001  2.200000e+001  2.000000e+001
   endloop
 endfacet
 facet normal  0.000000e+000  1.000000e+000 -0.000000e+000
   outer loop
     vertex  1.294856e+001  2.200000e+001  1.112500e+001
     vertex  1.259099e+001  2.200000e+001  1.159099e+001
     vertex  1.750000e+001  2.200000e+001  2.000000e+001
   endloop
 endfacet
 facet normal  0.000000e+000  1.000000e+000 -0.000000e+000
   outer loop
     vertex  1.317333e+001  2.200000e+001  1.058234e+001
     vertex  1.294856e+001  2.200000e+001  1.112500e+001
     vertex  1.750000e+001  2.200000e+001  2.000000e+001
   endloop
 endfacet
 facet normal  0.000000e+000  1.000000e+000 -0.000000e+000
   outer loop
     vertex  1.325000e+001  2.200000e+001  1.000000e+001
     vertex  1.317333e+001  2.200000e+001  1.058234e+001
     vertex  1.750000e+001  2.200000e+001  2.000000e+001
   endloop
 endfacet
 facet normal  0.000000e+000  1.000000e+000 -0.000000e+000
   outer loop
     vertex  1.750000e+001  2.200000e+001  0.000000e+000
     vertex  1.100000e+001  2.200000e+001  7.750000e+000
     vertex  1.158234e+001  2.200000e+001  7.826667e+000
   endloop
 endfacet
 facet normal  0.000000e+000  1.000000e+000 -0.000000e+000
   outer loop
     vertex  1.750000e+001  2.200000e+001  0.000000e+000
     vertex  1.158234e+001  2.200000e+001  7.826667e+000
     vertex  1.212500e+001  2.200000e+001  8.051443e+000
   endloop
 endfacet
 facet normal  0.000000e+000  1.000000e+000 -0.000000e+000
   outer loop
     vertex  1.750000e+001  2.200000e+001  0.000000e+000
     vertex  1.212500e+001  2.200000e+001  8.051443e+000
     vertex  1.259099e+001  2.200000e+001  8.409010e+000
   endloop
 endfacet
 facet normal  0.000000e+000  1.000000e+000 -0.000000e+000
   outer loop
     vertex  1.750000e+001  2.200000e+001  0.000000e+000
     vertex  1.259099e+001  2.200000e+001  8.409010e+000
     vertex  1.294856e+001  2.200000e+001  8.875000e+000
   endloop
 endfacet
 facet normal  0.000000e+000  1.000000e+000 -0.000000e+000
   outer loop
     vertex  1.750000e+001  2.200000e+001  0.000000e+000
     vertex  1.294856e+001  2.200000e+001  8.875000e+000
     vertex  1.317333e+001  2.200000e+001  9.417657e+000
   endloop
 endfacet
 facet normal  0.000000e+000  1.000000e+000 -0.000000e+000
   outer loop
     vertex  1.750000e+001  2.200000e+001  0.000000e+000
     vertex  1.317333e+001  2.200000e+001  9.417657e+000
     vertex  1.325000e+001  2.200000e+001  1.000000e+001
   endloop
 endfacet
 facet normal -0.000000e+000  1.000000e+000 -0.000000e+000
   outer loop
     vertex  1.750000e+001  2.200000e+001  0.000000e+000
     vertex  9.875000e+000  2.200000e+001  8.051443e+000
     vertex  1.041766e+001  2.200000e+001  7.826667e+000
   endloop
 endfacet
 facet normal -0.000000e+000  1.000000e+000 -0.000000e+000
   outer loop
     vertex  1.750000e+001  2.200000e+001  0.000000e+000
     vertex  1.041766e+001  2.200000e+001  7.826667e+000
     vertex  1.100000e+001  2.200000e+001  7.750000e+000
   endloop
 endfacet
 facet normal  0.000000e+000  1.000000e+000 -0.000000e+000
   outer loop
     vertex  1.750000e+001  2.200000e+001  0.000000e+000
     vertex  1.325000e+001  2.200000e+001  1.000000e+001
     vertex  1.750000e+001  2.200000e+001  2.000000e+001
   endloop
 endfacet
 facet normal -0.000000e+000  1.000000e+000  0.000000e+000
   outer loop
     vertex  0.000000e+000  2.200000e+001  1.000000e+001
     vertex  1.750000e+001  2.200000e+001  2.000000e+001
     vertex  9.875000e+000  2.200000e+001  1.194856e+001
   endloop
 endfacet
 facet normal -0.000000e+000  1.000000e+000  0.000000e+000
   outer loop
     vertex  0.000000e+000  2.200000e+001  1.000000e+001
     vertex  9.875000e+000  2.200000e+001  1.194856e+001
     vertex  9.409010e+000  2.200000e+001  1.159099e+001
   endloop
 endfacet
 facet normal -0.000000e+000  1.000000e+000  0.000000e+000
   outer loop
     vertex  0.000000e+000  2.200000e+001  1.000000e+001
     vertex  9.409010e+000  2.200000e+001  1.159099e+001
     vertex  9.051443e+000  2.200000e+001  1.112500e+001
   endloop
 endfacet
 facet normal -0.000000e+000  1.000000e+000  0.000000e+000
   outer loop
     vertex  0.000000e+000  2.200000e+001  1.000000e+001
     vertex  9.051443e+000  2.200000e+001  1.112500e+001
     vertex  8.826667e+000  2.200000e+001  1.058234e+001
   endloop
 endfacet
 facet normal -0.000000e+000  1.000000e+000  0.000000e+000
   outer loop
     vertex  0.000000e+000  2.200000e+001  1.000000e+001
     vertex  8.826667e+000  2.200000e+001  1.058234e+001
     vertex  8.750000e+000  2.200000e+001  1.000000e+001
   endloop
 endfacet
 facet normal  0.000000e+000  1.000000e+000  0.000000e+000
   outer loop
     vertex  0.000000e+000  2.200000e+001  1.000000e+001
     vertex  8.750000e+000  2.200000e+001  1.000000e+001
     vertex  8.826667e+000  2.200000e+001  9.417657e+000
   endloop
 endfacet
 facet normal  0.000000e+000  1.000000e+000  0.000000e+000
   outer loop
     vertex  0.000000e+000  2.200000e+001  1.000000e+001
     vertex  8.826667e+000  2.200000e+001  9.417657e+000
     vertex  9.051443e+000  2.200000e+001  8.875000e+000
   endloop
 endfacet
 facet normal  0.000000e+000  1.000000e+000  0.000000e+000
   outer loop
     vertex  0.000000e+000  2.200000e+001  1.000000e+001
     vertex  9.051443e+000  2.200000e+001  8.875000e+000
     vertex  9.409010e+000  2.200000e+001  8.409010e+000
   endloop
 endfacet
 facet normal  0.000000e+000  1.000000e+000  0.000000e+000
   outer loop
     vertex  0.000000e+000  2.200000e+001  1.000000e+001
     vertex  9.409010e+000  2.200000e+001  8.409010e+000
     vertex  9.875000e+000  2.200000e+001  8.051443e+000
   endloop
 endfacet
 facet normal  0.000000e+000  1.000000e+000 -0.000000e+000
   outer loop
     vertex  0.000000e+000  2.200000e+001  1.000000e+001
     vertex -9.875000e+000  2.200000e+001  8.051443e+000
     vertex -9.409010e+000  2.200000e+001  8.409010e+000
   endloop
 endfacet
 facet normal  0.000000e+000  1.000000e+000 -0.000000e+000
   outer loop
     vertex  0.000000e+000  2.200000e+001  1.000000e+001
     vertex -9.409010e+000  2.200000e+001  8.409010e+000
     vertex -9.051443e+000  2.200000e+001  8.875000e+000
   endloop
 endfacet
 facet normal  0.000000e+000  1.000000e+000 -0.000000e+000
   outer loop
     vertex  0.000000e+000  2.200000e+001  1.000000e+001
     vertex -9.051443e+000  2.200000e+001  8.875000e+000
     vertex -8.826667e+000  2.200000e+001  9.417657e+000
   endloop
 endfacet
 facet normal  0.000000e+000  1.000000e+000 -0.000000e+000
   outer loop
     vertex  0.000000e+000  2.200000e+001  1.000000e+001
     vertex -8.826667e+000  2.200000e+001  9.417657e+000
     vertex -8.750000e+000  2.200000e+001  1.000000e+001
   endloop
 endfacet
 facet normal  0.000000e+000  1.000000e+000  0.000000e+000
   outer loop
     vertex  0.000000e+000  2.200000e+001  1.000000e+001
     vertex -8.750000e+000  2.200000e+001  1.000000e+001
     vertex -8.826667e+000  2.200000e+001  1.058234e+001
   endloop
 endfacet
 facet normal  0.000000e+000  1.000000e+000  0.000000e+000
   outer loop
     vertex  0.000000e+000  2.200000e+001  1.000000e+001
     vertex -8.826667e+000  2.200000e+001  1.058234e+001
     vertex -9.051443e+000  2.200000e+001  1.112500e+001
   endloop
 endfacet
 facet normal  0.000000e+000  1.000000e+000  0.000000e+000
   outer loop
     vertex  0.000000e+000  2.200000e+001  1.000000e+001
     vertex -9.051443e+000  2.200000e+001  1.112500e+001
     vertex -9.409010e+000  2.200000e+001  1.159099e+001
   endloop
 endfacet
 facet normal  0.000000e+000  1.000000e+000  0.000000e+000
   outer loop
     vertex  0.000000e+000  2.200000e+001  1.000000e+001
     vertex -9.409010e+000  2.200000e+001  1.159099e+001
     vertex -9.875000e+000  2.200000e+001  1.194856e+001
   endloop
 endfacet
 facet normal  0.000000e+000  1.000000e+000  0.000000e+000
   outer loop
     vertex  0.000000e+000  2.200000e+001  1.000000e+001
     vertex  1.750000e+001  2.200000e+001  0.000000e+000
     vertex -1.750000e+001  2.200000e+001  0.000000e+000
   endloop
 endfacet
 facet normal  0.000000e+000  1.000000e+000 -0.000000e+000
   outer loop
     vertex  0.000000e+000  2.200000e+001  1.000000e+001
     vertex -1.750000e+001  2.200000e+001  2.000000e+001
     vertex  1.750000e+001  2.200000e+001  2.000000e+001
   endloop
 endfacet
 facet normal  0.000000e+000  1.000000e+000  0.000000e+000
   outer loop
     vertex  0.000000e+000  2.200000e+001  1.000000e+001
     vertex -9.875000e+000  2.200000e+001  1.194856e+001
     vertex -1.750000e+001  2.200000e+001  2.000000e+001
   endloop
 endfacet
 facet normal  0.000000e+000  1.000000e+000  0.000000e+000
   outer loop
     vertex  0.000000e+000  2.200000e+001  1.000000e+001
     vertex  9.875000e+000  2.200000e+001  8.051443e+000
     vertex  1.750000e+001  2.200000e+001  0.000000e+000
   endloop
 endfacet
 facet normal  0.000000e+000  1.000000e+000 -0.000000e+000
   outer loop
     vertex  0.000000e+000  2.200000e+001  1.000000e+001
     vertex -1.750000e+001  2.200000e+001  0.000000e+000
     vertex -9.875000e+000  2.200000e+001  8.051443e+000
   endloop
 endfacet
 facet normal  8.519043e-016 -1.000000e+000  3.312761e-018
   outer loop
     vertex  8.767742e+000  2.283063e-015  1.028200e+001
     vertex  8.908003e+000  2.404361e-015  1.082828e+001
     vertex  6.050000e+000  0.000000e+000  2.000000e+001
   endloop
 endfacet
 facet normal -2.943732e-016 -1.000000e+000 -1.337915e-016
   outer loop
     vertex  1.220561e+001  2.642273e-015  1.189974e+001
     vertex  1.264018e+001  2.562446e-015  1.154023e+001
     vertex  1.750000e+001  0.000000e+000  2.000000e+001
   endloop
 endfacet
 facet normal -4.034899e-016 -1.000000e+000 -7.110800e-017
   outer loop
     vertex  1.297169e+001  2.461130e-015  1.108395e+001
     vertex  1.750000e+001  0.000000e+000  2.000000e+001
     vertex  1.264018e+001  2.562446e-015  1.154023e+001
   endloop
 endfacet
 facet normal -1.973000e-016 -1.000000e+000 -1.972392e-016
   outer loop
     vertex  1.169529e+001  2.695594e-015  1.213988e+001
     vertex  1.220561e+001  2.642273e-015  1.189974e+001
     vertex  1.750000e+001  0.000000e+000  2.000000e+001
   endloop
 endfacet
 facet normal -5.510868e-016 -1.000000e+000  3.853899e-018
   outer loop
     vertex  1.317931e+001  2.344692e-015  1.055955e+001
     vertex  1.750000e+001  0.000000e+000  2.000000e+001
     vertex  1.297169e+001  2.461130e-015  1.108395e+001
   endloop
 endfacet
 facet normal -0.000000e+000 -1.000000e+000 -3.506456e-016
   outer loop
     vertex  1.114128e+001  2.719061e-015  1.224556e+001
     vertex  1.750000e+001  0.000000e+000  2.000000e+001
     vertex  6.050000e+000  0.000000e+000  2.000000e+001
   endloop
 endfacet
 facet normal -9.446914e-017 -1.000000e+000 -2.731800e-016
   outer loop
     vertex  1.114128e+001  2.719061e-015  1.224556e+001
     vertex  1.169529e+001  2.695594e-015  1.213988e+001
     vertex  1.750000e+001  0.000000e+000  2.000000e+001
   endloop
 endfacet
 facet normal  4.962096e-032 -1.000000e+000  2.220446e-016
   outer loop
     vertex  1.750000e+001  0.000000e+000  0.000000e+000
     vertex  1.169529e+001  1.745298e-015  7.860123e+000
     vertex  1.114128e+001  1.721832e-015  7.754440e+000
   endloop
 endfacet
 facet normal  1.094600e-031 -1.000000e+000  2.220446e-016
   outer loop
     vertex  1.750000e+001  0.000000e+000  0.000000e+000
     vertex  1.220561e+001  1.798620e-015  8.100262e+000
     vertex  1.169529e+001  1.745298e-015  7.860123e+000
   endloop
 endfacet
 facet normal  1.636341e-031 -1.000000e+000  2.220446e-016
   outer loop
     vertex  1.750000e+001  0.000000e+000  0.000000e+000
     vertex  1.264018e+001  1.878446e-015  8.459769e+000
     vertex  1.220561e+001  1.798620e-015  8.100262e+000
   endloop
 endfacet
 facet normal -4.319756e-031 -1.000000e+000  2.220446e-016
   outer loop
     vertex  1.750000e+001  0.000000e+000  0.000000e+000
     vertex  1.297169e+001  1.979762e-015  8.916054e+000
     vertex  1.264018e+001  1.878446e-015  8.459769e+000
   endloop
 endfacet
 facet normal -8.054880e-016 -1.000000e+000  1.202878e-016
   outer loop
     vertex  1.325000e+001  2.220446e-015  1.000000e+001
     vertex  1.750000e+001  0.000000e+000  2.000000e+001
     vertex  1.317931e+001  2.344692e-015  1.055955e+001
   endloop
 endfacet
 facet normal  3.733558e-031 -1.000000e+000  2.220446e-016
   outer loop
     vertex  1.750000e+001  0.000000e+000  0.000000e+000
     vertex  1.317931e+001  2.096200e-015  9.440448e+000
     vertex  1.297169e+001  1.979762e-015  8.916054e+000
   endloop
 endfacet
 facet normal -7.032040e-031 -1.000000e+000  2.220446e-016
   outer loop
     vertex  1.750000e+001  0.000000e+000  0.000000e+000
     vertex  1.325000e+001  2.220446e-015  1.000000e+001
     vertex  1.317931e+001  2.096200e-015  9.440448e+000
   endloop
 endfacet
 facet normal -5.224579e-016 -1.000000e+000  0.000000e+000
   outer loop
     vertex  1.750000e+001  0.000000e+000  0.000000e+000
     vertex  1.750000e+001  0.000000e+000  2.000000e+001
     vertex  1.325000e+001  2.220446e-015  1.000000e+001
   endloop
 endfacet
 facet normal  3.460132e-017 -1.000000e+000 -3.279277e-016
   outer loop
     vertex  1.057839e+001  2.711197e-015  1.221015e+001
     vertex  1.114128e+001  2.719061e-015  1.224556e+001
     vertex  6.050000e+000  0.000000e+000  2.000000e+001
   endloop
 endfacet
 facet normal  1.415292e-030 -1.000000e+000  2.220446e-016
   outer loop
     vertex  6.050000e+000  0.000000e+000  0.000000e+000
     vertex  8.767742e+000  2.157830e-015  9.718000e+000
     vertex  8.767742e+000  2.283063e-015  1.028200e+001
   endloop
 endfacet
 facet normal -5.540326e-031 -1.000000e+000  2.220446e-016
   outer loop
     vertex  6.050000e+000  0.000000e+000  0.000000e+000
     vertex  8.908003e+000  2.036531e-015  9.171720e+000
     vertex  8.767742e+000  2.157830e-015  9.718000e+000
   endloop
 endfacet
 facet normal -3.535620e-031 -1.000000e+000  2.220446e-016
   outer loop
     vertex  6.050000e+000  0.000000e+000  0.000000e+000
     vertex  9.179712e+000  1.926788e-015  8.677483e+000
     vertex  8.908003e+000  2.036531e-015  9.171720e+000
   endloop
 endfacet
 facet normal  4.891058e-031 -1.000000e+000  2.220446e-016
   outer loop
     vertex  6.050000e+000  0.000000e+000  0.000000e+000
     vertex  9.565796e+000  1.835497e-015  8.266345e+000
     vertex  9.179712e+000  1.926788e-015  8.677483e+000
   endloop
 endfacet
 facet normal -1.578059e-031 -1.000000e+000  2.220446e-016
   outer loop
     vertex  6.050000e+000  0.000000e+000  0.000000e+000
     vertex  1.004200e+001  1.768394e-015  7.964139e+000
     vertex  9.565796e+000  1.835497e-015  8.266345e+000
   endloop
 endfacet
 facet normal -7.939941e-032 -1.000000e+000  2.220446e-016
   outer loop
     vertex  6.050000e+000  0.000000e+000  0.000000e+000
     vertex  1.057839e+001  1.729695e-015  7.789854e+000
     vertex  1.004200e+001  1.768394e-015  7.964139e+000
   endloop
 endfacet
 facet normal -1.627127e-032 -1.000000e+000  2.220446e-016
   outer loop
     vertex  6.050000e+000  0.000000e+000  0.000000e+000
     vertex  1.114128e+001  1.721832e-015  7.754440e+000
     vertex  1.057839e+001  1.729695e-015  7.789854e+000
   endloop
 endfacet
 facet normal  0.000000e+000 -1.000000e+000  2.220446e-016
   outer loop
     vertex  6.050000e+000  0.000000e+000  0.000000e+000
     vertex  1.750000e+001  0.000000e+000  0.000000e+000
     vertex  1.114128e+001  1.721832e-015  7.754440e+000
   endloop
 endfacet
 facet normal  8.400586e-016 -1.000000e+000  0.000000e+000
   outer loop
     vertex  6.050000e+000  0.000000e+000  0.000000e+000
     vertex  8.767742e+000  2.283063e-015  1.028200e+001
     vertex  6.050000e+000  0.000000e+000  2.000000e+001
   endloop
 endfacet
 facet normal  1.558038e-016 -1.000000e+000 -2.574703e-016
   outer loop
     vertex  1.004200e+001  2.672498e-015  1.203586e+001
     vertex  1.057839e+001  2.711197e-015  1.221015e+001
     vertex  6.050000e+000  0.000000e+000  2.000000e+001
   endloop
 endfacet
 facet normal  2.684702e-016 -1.000000e+000 -2.009967e-016
   outer loop
     vertex  9.565796e+000  2.605395e-015  1.173365e+001
     vertex  1.004200e+001  2.672498e-015  1.203586e+001
     vertex  6.050000e+000  0.000000e+000  2.000000e+001
   endloop
 endfacet
 facet normal  3.937516e-016 -1.000000e+000 -1.477127e-016
   outer loop
     vertex  9.179712e+000  2.514104e-015  1.132252e+001
     vertex  9.565796e+000  2.605395e-015  1.173365e+001
     vertex  6.050000e+000  0.000000e+000  2.000000e+001
   endloop
 endfacet
 facet normal  5.621241e-016 -1.000000e+000 -8.698574e-017
   outer loop
     vertex  8.908003e+000  2.404361e-015  1.082828e+001
     vertex  9.179712e+000  2.514104e-015  1.132252e+001
     vertex  6.050000e+000  0.000000e+000  2.000000e+001
   endloop
 endfacet
 facet normal -0.000000e+000  0.000000e+000 -1.000000e+000
   outer loop
     vertex -6.050000e+000  3.704557e-016  0.000000e+000
     vertex -1.750000e+001  0.000000e+000  0.000000e+000
     vertex -5.975514e+000  9.464285e-001  0.000000e+000
   endloop
 endfacet
 facet normal -0.000000e+000  0.000000e+000 -1.000000e+000
   outer loop
     vertex -5.975514e+000  9.464285e-001  0.000000e+000
     vertex -1.750000e+001  0.000000e+000  0.000000e+000
     vertex -5.753892e+000  1.869553e+000  0.000000e+000
   endloop
 endfacet
 facet normal -0.000000e+000  0.000000e+000 -1.000000e+000
   outer loop
     vertex -5.753892e+000  1.869553e+000  0.000000e+000
     vertex -1.750000e+001  0.000000e+000  0.000000e+000
     vertex -5.390589e+000  2.746643e+000  0.000000e+000
   endloop
 endfacet
 facet normal -0.000000e+000  0.000000e+000 -1.000000e+000
   outer loop
     vertex -5.390589e+000  2.746643e+000  0.000000e+000
     vertex -1.750000e+001  0.000000e+000  0.000000e+000
     vertex -4.894553e+000  3.556101e+000  0.000000e+000
   endloop
 endfacet
 facet normal  0.000000e+000  0.000000e+000 -1.000000e+000
   outer loop
     vertex  6.050000e+000  0.000000e+000  0.000000e+000
     vertex  5.975514e+000  9.464285e-001  0.000000e+000
     vertex  1.750000e+001  0.000000e+000  0.000000e+000
   endloop
 endfacet
 facet normal  0.000000e+000  0.000000e+000 -1.000000e+000
   outer loop
     vertex  5.975514e+000  9.464285e-001  0.000000e+000
     vertex  5.753892e+000  1.869553e+000  0.000000e+000
     vertex  1.750000e+001  0.000000e+000  0.000000e+000
   endloop
 endfacet
 facet normal  0.000000e+000  0.000000e+000 -1.000000e+000
   outer loop
     vertex  5.753892e+000  1.869553e+000  0.000000e+000
     vertex  5.390589e+000  2.746643e+000  0.000000e+000
     vertex  1.750000e+001  0.000000e+000  0.000000e+000
   endloop
 endfacet
 facet normal  0.000000e+000  0.000000e+000 -1.000000e+000
   outer loop
     vertex  5.390589e+000  2.746643e+000  0.000000e+000
     vertex  4.894553e+000  3.556101e+000  0.000000e+000
     vertex  1.750000e+001  0.000000e+000  0.000000e+000
   endloop
 endfacet
 facet normal  0.000000e+000  0.000000e+000 -1.000000e+000
   outer loop
     vertex  4.894553e+000  3.556101e+000  0.000000e+000
     vertex  4.277996e+000  4.277996e+000  0.000000e+000
     vertex  1.750000e+001  2.200000e+001  0.000000e+000
   endloop
 endfacet
 facet normal  0.000000e+000  0.000000e+000 -1.000000e+000
   outer loop
     vertex  4.277996e+000  4.277996e+000  0.000000e+000
     vertex  3.556101e+000  4.894553e+000  0.000000e+000
     vertex  1.750000e+001  2.200000e+001  0.000000e+000
   endloop
 endfacet
 facet normal  0.000000e+000  0.000000e+000 -1.000000e+000
   outer loop
     vertex  1.750000e+001  0.000000e+000  0.000000e+000
     vertex  4.894553e+000  3.556101e+000  0.000000e+000
     vertex  1.750000e+001  2.200000e+001  0.000000e+000
   endloop
 endfacet
 facet normal  0.000000e+000 -0.000000e+000 -1.000000e+000
   outer loop
     vertex -1.750000e+001  2.200000e+001  0.000000e+000
     vertex  1.750000e+001  2.200000e+001  0.000000e+000
     vertex  0.000000e+000  1.100000e+001  0.000000e+000
   endloop
 endfacet
 facet normal  0.000000e+000  0.000000e+000 -1.000000e+000
   outer loop
     vertex  3.556101e+000  4.894553e+000  0.000000e+000
     vertex  2.746643e+000  5.390589e+000  0.000000e+000
     vertex  0.000000e+000  1.100000e+001  0.000000e+000
   endloop
 endfacet
 facet normal  0.000000e+000  0.000000e+000 -1.000000e+000
   outer loop
     vertex  2.746643e+000  5.390589e+000  0.000000e+000
     vertex  1.869553e+000  5.753892e+000  0.000000e+000
     vertex  0.000000e+000  1.100000e+001  0.000000e+000
   endloop
 endfacet
 facet normal  0.000000e+000  0.000000e+000 -1.000000e+000
   outer loop
     vertex  1.869553e+000  5.753892e+000  0.000000e+000
     vertex  9.464285e-001  5.975514e+000  0.000000e+000
     vertex  0.000000e+000  1.100000e+001  0.000000e+000
   endloop
 endfacet
 facet normal  0.000000e+000  0.000000e+000 -1.000000e+000
   outer loop
     vertex  9.464285e-001  5.975514e+000  0.000000e+000
     vertex  1.246078e-014  6.050000e+000  0.000000e+000
     vertex  0.000000e+000  1.100000e+001  0.000000e+000
   endloop
 endfacet
 facet normal -0.000000e+000  0.000000e+000 -1.000000e+000
   outer loop
     vertex -3.556101e+000  4.894553e+000  0.000000e+000
     vertex -4.277996e+000  4.277996e+000  0.000000e+000
     vertex -1.750000e+001  2.200000e+001  0.000000e+000
   endloop
 endfacet
 facet normal -0.000000e+000  0.000000e+000 -1.000000e+000
   outer loop
     vertex  1.246078e-014  6.050000e+000  0.000000e+000
     vertex -9.464285e-001  5.975514e+000  0.000000e+000
     vertex  0.000000e+000  1.100000e+001  0.000000e+000
   endloop
 endfacet
 facet normal -0.000000e+000  0.000000e+000 -1.000000e+000
   outer loop
     vertex -4.277996e+000  4.277996e+000  0.000000e+000
     vertex -4.894553e+000  3.556101e+000  0.000000e+000
     vertex -1.750000e+001  2.200000e+001  0.000000e+000
   endloop
 endfacet
 facet normal -0.000000e+000  0.000000e+000 -1.000000e+000
   outer loop
     vertex -9.464285e-001  5.975514e+000  0.000000e+000
     vertex -1.869553e+000  5.753892e+000  0.000000e+000
     vertex  0.000000e+000  1.100000e+001  0.000000e+000
   endloop
 endfacet
 facet normal -0.000000e+000  0.000000e+000 -1.000000e+000
   outer loop
     vertex -1.869553e+000  5.753892e+000  0.000000e+000
     vertex -2.746643e+000  5.390589e+000  0.000000e+000
     vertex  0.000000e+000  1.100000e+001  0.000000e+000
   endloop
 endfacet
 facet normal -0.000000e+000  0.000000e+000 -1.000000e+000
   outer loop
     vertex -2.746643e+000  5.390589e+000  0.000000e+000
     vertex -3.556101e+000  4.894553e+000  0.000000e+000
     vertex  0.000000e+000  1.100000e+001  0.000000e+000
   endloop
 endfacet
 facet normal -0.000000e+000  0.000000e+000 -1.000000e+000
   outer loop
     vertex -4.894553e+000  3.556101e+000  0.000000e+000
     vertex -1.750000e+001  0.000000e+000  0.000000e+000
     vertex -1.750000e+001  2.200000e+001  0.000000e+000
   endloop
 endfacet
 facet normal  0.000000e+000  0.000000e+000 -1.000000e+000
   outer loop
     vertex -3.556101e+000  4.894553e+000  0.000000e+000
     vertex -1.750000e+001  2.200000e+001  0.000000e+000
     vertex  0.000000e+000  1.100000e+001  0.000000e+000
   endloop
 endfacet
 facet normal -0.000000e+000  0.000000e+000 -1.000000e+000
   outer loop
     vertex  1.750000e+001  2.200000e+001  0.000000e+000
     vertex  3.556101e+000  4.894553e+000  0.000000e+000
     vertex  0.000000e+000  1.100000e+001  0.000000e+000
   endloop
 endfacet
 facet normal -0.000000e+000  0.000000e+000  1.000000e+000
   outer loop
     vertex -5.975514e+000  9.464285e-001  2.000000e+001
     vertex -1.750000e+001  0.000000e+000  2.000000e+001
     vertex -6.050000e+000  3.704557e-016  2.000000e+001
   endloop
 endfacet
 facet normal -0.000000e+000  0.000000e+000  1.000000e+000
   outer loop
     vertex -5.753892e+000  1.869553e+000  2.000000e+001
     vertex -1.750000e+001  0.000000e+000  2.000000e+001
     vertex -5.975514e+000  9.464285e-001  2.000000e+001
   endloop
 endfacet
 facet normal -0.000000e+000  0.000000e+000  1.000000e+000
   outer loop
     vertex -5.390589e+000  2.746643e+000  2.000000e+001
     vertex -1.750000e+001  0.000000e+000  2.000000e+001
     vertex -5.753892e+000  1.869553e+000  2.000000e+001
   endloop
 endfacet
 facet normal -0.000000e+000  0.000000e+000  1.000000e+000
   outer loop
     vertex -4.894553e+000  3.556101e+000  2.000000e+001
     vertex -1.750000e+001  0.000000e+000  2.000000e+001
     vertex -5.390589e+000  2.746643e+000  2.000000e+001
   endloop
 endfacet
 facet normal  0.000000e+000  0.000000e+000  1.000000e+000
   outer loop
     vertex  1.750000e+001  0.000000e+000  2.000000e+001
     vertex  5.975514e+000  9.464285e-001  2.000000e+001
     vertex  6.050000e+000  0.000000e+000  2.000000e+001
   endloop
 endfacet
 facet normal  0.000000e+000  0.000000e+000  1.000000e+000
   outer loop
     vertex  1.750000e+001  0.000000e+000  2.000000e+001
     vertex  5.753892e+000  1.869553e+000  2.000000e+001
     vertex  5.975514e+000  9.464285e-001  2.000000e+001
   endloop
 endfacet
 facet normal  0.000000e+000  0.000000e+000  1.000000e+000
   outer loop
     vertex  1.750000e+001  0.000000e+000  2.000000e+001
     vertex  5.390589e+000  2.746643e+000  2.000000e+001
     vertex  5.753892e+000  1.869553e+000  2.000000e+001
   endloop
 endfacet
 facet normal  0.000000e+000  0.000000e+000  1.000000e+000
   outer loop
     vertex  1.750000e+001  0.000000e+000  2.000000e+001
     vertex  4.894553e+000  3.556101e+000  2.000000e+001
     vertex  5.390589e+000  2.746643e+000  2.000000e+001
   endloop
 endfacet
 facet normal  0.000000e+000  0.000000e+000  1.000000e+000
   outer loop
     vertex  1.750000e+001  2.200000e+001  2.000000e+001
     vertex  4.277996e+000  4.277996e+000  2.000000e+001
     vertex  4.894553e+000  3.556101e+000  2.000000e+001
   endloop
 endfacet
 facet normal  0.000000e+000  0.000000e+000  1.000000e+000
   outer loop
     vertex  1.750000e+001  2.200000e+001  2.000000e+001
     vertex  3.556101e+000  4.894553e+000  2.000000e+001
     vertex  4.277996e+000  4.277996e+000  2.000000e+001
   endloop
 endfacet
 facet normal  0.000000e+000  0.000000e+000  1.000000e+000
   outer loop
     vertex  1.750000e+001  2.200000e+001  2.000000e+001
     vertex  4.894553e+000  3.556101e+000  2.000000e+001
     vertex  1.750000e+001  0.000000e+000  2.000000e+001
   endloop
 endfacet
 facet normal  0.000000e+000 -0.000000e+000  1.000000e+000
   outer loop
     vertex  0.000000e+000  1.100000e+001  2.000000e+001
     vertex  1.750000e+001  2.200000e+001  2.000000e+001
     vertex -1.750000e+001  2.200000e+001  2.000000e+001
   endloop
 endfacet
 facet normal  0.000000e+000  0.000000e+000  1.000000e+000
   outer loop
     vertex  0.000000e+000  1.100000e+001  2.000000e+001
     vertex  2.746643e+000  5.390589e+000  2.000000e+001
     vertex  3.556101e+000  4.894553e+000  2.000000e+001
   endloop
 endfacet
 facet normal  0.000000e+000  0.000000e+000  1.000000e+000
   outer loop
     vertex  0.000000e+000  1.100000e+001  2.000000e+001
     vertex  1.869553e+000  5.753892e+000  2.000000e+001
     vertex  2.746643e+000  5.390589e+000  2.000000e+001
   endloop
 endfacet
 facet normal  0.000000e+000  0.000000e+000  1.000000e+000
   outer loop
     vertex  0.000000e+000  1.100000e+001  2.000000e+001
     vertex  9.464285e-001  5.975514e+000  2.000000e+001
     vertex  1.869553e+000  5.753892e+000  2.000000e+001
   endloop
 endfacet
 facet normal  0.000000e+000  0.000000e+000  1.000000e+000
   outer loop
     vertex  0.000000e+000  1.100000e+001  2.000000e+001
     vertex  1.246078e-014  6.050000e+000  2.000000e+001
     vertex  9.464285e-001  5.975514e+000  2.000000e+001
   endloop
 endfacet
 facet normal -0.000000e+000  0.000000e+000  1.000000e+000
   outer loop
     vertex -1.750000e+001  2.200000e+001  2.000000e+001
     vertex -4.277996e+000  4.277996e+000  2.000000e+001
     vertex -3.556101e+000  4.894553e+000  2.000000e+001
   endloop
 endfacet
 facet normal -0.000000e+000  0.000000e+000  1.000000e+000
   outer loop
     vertex  0.000000e+000  1.100000e+001  2.000000e+001
     vertex -9.464285e-001  5.975514e+000  2.000000e+001
     vertex  1.246078e-014  6.050000e+000  2.000000e+001
   endloop
 endfacet
 facet normal -0.000000e+000  0.000000e+000  1.000000e+000
   outer loop
     vertex -1.750000e+001  2.200000e+001  2.000000e+001
     vertex -4.894553e+000  3.556101e+000  2.000000e+001
     vertex -4.277996e+000  4.277996e+000  2.000000e+001
   endloop
 endfacet
 facet normal -0.000000e+000  0.000000e+000  1.000000e+000
   outer loop
     vertex  0.000000e+000  1.100000e+001  2.000000e+001
     vertex -1.869553e+000  5.753892e+000  2.000000e+001
     vertex -9.464285e-001  5.975514e+000  2.000000e+001
   endloop
 endfacet
 facet normal -0.000000e+000  0.000000e+000  1.000000e+000
   outer loop
     vertex  0.000000e+000  1.100000e+001  2.000000e+001
     vertex -2.746643e+000  5.390589e+000  2.000000e+001
     vertex -1.869553e+000  5.753892e+000  2.000000e+001
   endloop
 endfacet
 facet normal -0.000000e+000  0.000000e+000  1.000000e+000
   outer loop
     vertex  0.000000e+000  1.100000e+001  2.000000e+001
     vertex -3.556101e+000  4.894553e+000  2.000000e+001
     vertex -2.746643e+000  5.390589e+000  2.000000e+001
   endloop
 endfacet
 facet normal -0.000000e+000  0.000000e+000  1.000000e+000
   outer loop
     vertex -1.750000e+001  2.200000e+001  2.000000e+001
     vertex -1.750000e+001  0.000000e+000  2.000000e+001
     vertex -4.894553e+000  3.556101e+000  2.000000e+001
   endloop
 endfacet
 facet normal  0.000000e+000  0.000000e+000  1.000000e+000
   outer loop
     vertex  0.000000e+000  1.100000e+001  2.000000e+001
     vertex -1.750000e+001  2.200000e+001  2.000000e+001
     vertex -3.556101e+000  4.894553e+000  2.000000e+001
   endloop
 endfacet
 facet normal -0.000000e+000  0.000000e+000  1.000000e+000
   outer loop
     vertex  0.000000e+000  1.100000e+001  2.000000e+001
     vertex  3.556101e+000  4.894553e+000  2.000000e+001
     vertex  1.750000e+001  2.200000e+001  2.000000e+001
   endloop
 endfacet
 facet normal -9.921147e-001 -6.071906e-017 -1.253332e-001
   outer loop
     vertex  1.325000e+001  2.200000e+001  1.000000e+001
     vertex  1.325000e+001  2.220446e-015  1.000000e+001
     vertex  1.317931e+001  2.344692e-015  1.055955e+001
   endloop
 endfacet
 facet normal -9.914449e-001 -1.342310e-004 -1.305262e-001
   outer loop
     vertex  1.317333e+001  2.200000e+001  1.058234e+001
     vertex  1.325000e+001  2.200000e+001  1.000000e+001
     vertex  1.317931e+001  2.344692e-015  1.055955e+001
   endloop
 endfacet
 facet normal -9.238795e-001 -2.573278e-004 -3.826834e-001
   outer loop
     vertex  1.294856e+001  2.200000e+001  1.112500e+001
     vertex  1.317333e+001  2.200000e+001  1.058234e+001
     vertex  1.297169e+001  2.461130e-015  1.108395e+001
   endloop
 endfacet
 facet normal -9.297765e-001  1.286657e-004 -3.681245e-001
   outer loop
     vertex  1.317333e+001  2.200000e+001  1.058234e+001
     vertex  1.317931e+001  2.344692e-015  1.055955e+001
     vertex  1.297169e+001  2.461130e-015  1.108395e+001
   endloop
 endfacet
 facet normal -7.933533e-001 -3.692770e-004 -6.087614e-001
   outer loop
     vertex  1.259099e+001  2.200000e+001  1.159099e+001
     vertex  1.294856e+001  2.200000e+001  1.112500e+001
     vertex  1.264018e+001  2.562446e-015  1.154023e+001
   endloop
 endfacet
 facet normal -8.090170e-001  2.461903e-004 -5.877852e-001
   outer loop
     vertex  1.294856e+001  2.200000e+001  1.112500e+001
     vertex  1.297169e+001  2.461130e-015  1.108395e+001
     vertex  1.264018e+001  2.562446e-015  1.154023e+001
   endloop
 endfacet
 facet normal -6.087614e-001 -4.700663e-004 -7.933533e-001
   outer loop
     vertex  1.212500e+001  2.200000e+001  1.194856e+001
     vertex  1.259099e+001  2.200000e+001  1.159099e+001
     vertex  1.220561e+001  2.642273e-015  1.189974e+001
   endloop
 endfacet
 facet normal -6.374240e-001  3.525610e-004 -7.705132e-001
   outer loop
     vertex  1.259099e+001  2.200000e+001  1.159099e+001
     vertex  1.264018e+001  2.562446e-015  1.154023e+001
     vertex  1.220561e+001  2.642273e-015  1.189974e+001
   endloop
 endfacet
 facet normal -3.826834e-001 -5.596846e-004 -9.238794e-001
   outer loop
     vertex  1.158234e+001  2.200000e+001  1.217333e+001
     vertex  1.212500e+001  2.200000e+001  1.194856e+001
     vertex  1.169529e+001  2.695594e-015  1.213988e+001
   endloop
 endfacet
 facet normal -4.257792e-001  4.477661e-004 -9.048270e-001
   outer loop
     vertex  1.212500e+001  2.200000e+001  1.194856e+001
     vertex  1.220561e+001  2.642273e-015  1.189974e+001
     vertex  1.169529e+001  2.695594e-015  1.213988e+001
   endloop
 endfacet
 facet normal -1.305262e-001 -6.381221e-004 -9.914447e-001
   outer loop
     vertex  1.100000e+001  2.200000e+001  1.225000e+001
     vertex  1.158234e+001  2.200000e+001  1.217333e+001
     vertex  1.114128e+001  2.719061e-015  1.224556e+001
   endloop
 endfacet
 facet normal -1.873813e-001  5.317952e-004 -9.822871e-001
   outer loop
     vertex  1.158234e+001  2.200000e+001  1.217333e+001
     vertex  1.169529e+001  2.695594e-015  1.213988e+001
     vertex  1.114128e+001  2.719061e-015  1.224556e+001
   endloop
 endfacet
 facet normal  1.305262e-001 -7.053702e-004 -9.914446e-001
   outer loop
     vertex  1.041766e+001  2.200000e+001  1.217333e+001
     vertex  1.100000e+001  2.200000e+001  1.225000e+001
     vertex  1.057839e+001  2.711197e-015  1.221015e+001
   endloop
 endfacet
 facet normal  6.279051e-002  6.046390e-004 -9.980265e-001
   outer loop
     vertex  1.100000e+001  2.200000e+001  1.225000e+001
     vertex  1.114128e+001  2.719061e-015  1.224556e+001
     vertex  1.057839e+001  2.711197e-015  1.221015e+001
   endloop
 endfacet
 facet normal  3.826833e-001 -7.614216e-004 -9.238793e-001
   outer loop
     vertex  9.875000e+000  2.200000e+001  1.194856e+001
     vertex  1.041766e+001  2.200000e+001  1.217333e+001
     vertex  1.004200e+001  2.672498e-015  1.203586e+001
   endloop
 endfacet
 facet normal  3.090169e-001  6.662896e-004 -9.510563e-001
   outer loop
     vertex  1.041766e+001  2.200000e+001  1.217333e+001
     vertex  1.057839e+001  2.711197e-015  1.221015e+001
     vertex  1.004200e+001  2.672498e-015  1.203586e+001
   endloop
 endfacet
 facet normal  6.087612e-001 -8.062701e-004 -7.933531e-001
   outer loop
     vertex  9.409010e+000  2.200000e+001  1.159099e+001
     vertex  9.875000e+000  2.200000e+001  1.194856e+001
     vertex  9.565796e+000  2.605395e-015  1.173365e+001
   endloop
 endfacet
 facet normal  5.358267e-001  7.167403e-004 -8.443277e-001
   outer loop
     vertex  9.875000e+000  2.200000e+001  1.194856e+001
     vertex  1.004200e+001  2.672498e-015  1.203586e+001
     vertex  9.565796e+000  2.605395e-015  1.173365e+001
   endloop
 endfacet
 facet normal  7.933531e-001 -8.399108e-004 -6.087612e-001
   outer loop
     vertex  9.051443e+000  2.200000e+001  1.112500e+001
     vertex  9.409010e+000  2.200000e+001  1.159099e+001
     vertex  9.179712e+000  2.514104e-015  1.132252e+001
   endloop
 endfacet
 facet normal  7.289684e-001  7.559854e-004 -6.845469e-001
   outer loop
     vertex  9.409010e+000  2.200000e+001  1.159099e+001
     vertex  9.565796e+000  2.605395e-015  1.173365e+001
     vertex  9.179712e+000  2.514104e-015  1.132252e+001
   endloop
 endfacet
 facet normal  9.238792e-001 -8.623399e-004 -3.826833e-001
   outer loop
     vertex  8.826667e+000  2.200000e+001  1.058234e+001
     vertex  9.051443e+000  2.200000e+001  1.112500e+001
     vertex  8.908003e+000  2.404361e-015  1.082828e+001
   endloop
 endfacet
 facet normal  8.763064e-001  7.840207e-004 -4.817535e-001
   outer loop
     vertex  9.051443e+000  2.200000e+001  1.112500e+001
     vertex  9.179712e+000  2.514104e-015  1.132252e+001
     vertex  8.908003e+000  2.404361e-015  1.082828e+001
   endloop
 endfacet
 facet normal  9.914445e-001 -8.735551e-004 -1.305261e-001
   outer loop
     vertex  8.750000e+000  2.200000e+001  1.000000e+001
     vertex  8.826667e+000  2.200000e+001  1.058234e+001
     vertex  8.767742e+000  2.283063e-015  1.028200e+001
   endloop
 endfacet
 facet normal  9.685829e-001  8.008431e-004 -2.486898e-001
   outer loop
     vertex  8.826667e+000  2.200000e+001  1.058234e+001
     vertex  8.908003e+000  2.404361e-015  1.082828e+001
     vertex  8.767742e+000  2.283063e-015  1.028200e+001
   endloop
 endfacet
 facet normal  9.999997e-001  8.064507e-004  3.149391e-015
   outer loop
     vertex  8.750000e+000  2.200000e+001  1.000000e+001
     vertex  8.767742e+000  2.283063e-015  1.028200e+001
     vertex  8.767742e+000  2.157830e-015  9.718000e+000
   endloop
 endfacet
 facet normal  9.914445e-001 -8.735551e-004  1.305261e-001
   outer loop
     vertex  8.826667e+000  2.200000e+001  9.417657e+000
     vertex  8.750000e+000  2.200000e+001  1.000000e+001
     vertex  8.767742e+000  2.157830e-015  9.718000e+000
   endloop
 endfacet
 facet normal  9.685829e-001  8.008431e-004  2.486898e-001
   outer loop
     vertex  8.826667e+000  2.200000e+001  9.417657e+000
     vertex  8.767742e+000  2.157830e-015  9.718000e+000
     vertex  8.908003e+000  2.036531e-015  9.171720e+000
   endloop
 endfacet
 facet normal  9.238792e-001 -8.623399e-004  3.826833e-001
   outer loop
     vertex  9.051443e+000  2.200000e+001  8.875000e+000
     vertex  8.826667e+000  2.200000e+001  9.417657e+000
     vertex  8.908003e+000  2.036531e-015  9.171720e+000
   endloop
 endfacet
 facet normal  8.763064e-001  7.840207e-004  4.817535e-001
   outer loop
     vertex  9.051443e+000  2.200000e+001  8.875000e+000
     vertex  8.908003e+000  2.036531e-015  9.171720e+000
     vertex  9.179712e+000  1.926788e-015  8.677483e+000
   endloop
 endfacet
 facet normal  7.933531e-001 -8.399108e-004  6.087612e-001
   outer loop
     vertex  9.409010e+000  2.200000e+001  8.409010e+000
     vertex  9.051443e+000  2.200000e+001  8.875000e+000
     vertex  9.179712e+000  1.926788e-015  8.677483e+000
   endloop
 endfacet
 facet normal  7.289684e-001  7.559854e-004  6.845469e-001
   outer loop
     vertex  9.409010e+000  2.200000e+001  8.409010e+000
     vertex  9.179712e+000  1.926788e-015  8.677483e+000
     vertex  9.565796e+000  1.835497e-015  8.266345e+000
   endloop
 endfacet
 facet normal  6.087612e-001 -8.062701e-004  7.933531e-001
   outer loop
     vertex  9.875000e+000  2.200000e+001  8.051443e+000
     vertex  9.409010e+000  2.200000e+001  8.409010e+000
     vertex  9.565796e+000  1.835497e-015  8.266345e+000
   endloop
 endfacet
 facet normal  5.358267e-001  7.167403e-004  8.443277e-001
   outer loop
     vertex  9.875000e+000  2.200000e+001  8.051443e+000
     vertex  9.565796e+000  1.835497e-015  8.266345e+000
     vertex  1.004200e+001  1.768394e-015  7.964139e+000
   endloop
 endfacet
 facet normal  3.826833e-001 -7.614216e-004  9.238793e-001
   outer loop
     vertex  1.041766e+001  2.200000e+001  7.826667e+000
     vertex  9.875000e+000  2.200000e+001  8.051443e+000
     vertex  1.004200e+001  1.768394e-015  7.964139e+000
   endloop
 endfacet
 facet normal  3.090169e-001  6.662896e-004  9.510563e-001
   outer loop
     vertex  1.041766e+001  2.200000e+001  7.826667e+000
     vertex  1.004200e+001  1.768394e-015  7.964139e+000
     vertex  1.057839e+001  1.729695e-015  7.789854e+000
   endloop
 endfacet
 facet normal  1.305262e-001 -7.053702e-004  9.914446e-001
   outer loop
     vertex  1.100000e+001  2.200000e+001  7.750000e+000
     vertex  1.041766e+001  2.200000e+001  7.826667e+000
     vertex  1.057839e+001  1.729695e-015  7.789854e+000
   endloop
 endfacet
 facet normal -1.305262e-001 -6.381221e-004  9.914447e-001
   outer loop
     vertex  1.158234e+001  2.200000e+001  7.826667e+000
     vertex  1.100000e+001  2.200000e+001  7.750000e+000
     vertex  1.114128e+001  1.721832e-015  7.754440e+000
   endloop
 endfacet
 facet normal  6.279051e-002  6.046390e-004  9.980265e-001
   outer loop
     vertex  1.100000e+001  2.200000e+001  7.750000e+000
     vertex  1.057839e+001  1.729695e-015  7.789854e+000
     vertex  1.114128e+001  1.721832e-015  7.754440e+000
   endloop
 endfacet
 facet normal -3.826834e-001 -5.596846e-004  9.238794e-001
   outer loop
     vertex  1.212500e+001  2.200000e+001  8.051443e+000
     vertex  1.158234e+001  2.200000e+001  7.826667e+000
     vertex  1.169529e+001  1.745298e-015  7.860123e+000
   endloop
 endfacet
 facet normal -1.873813e-001  5.317952e-004  9.822871e-001
   outer loop
     vertex  1.158234e+001  2.200000e+001  7.826667e+000
     vertex  1.114128e+001  1.721832e-015  7.754440e+000
     vertex  1.169529e+001  1.745298e-015  7.860123e+000
   endloop
 endfacet
 facet normal -6.087614e-001 -4.700663e-004  7.933533e-001
   outer loop
     vertex  1.259099e+001  2.200000e+001  8.409010e+000
     vertex  1.212500e+001  2.200000e+001  8.051443e+000
     vertex  1.220561e+001  1.798620e-015  8.100262e+000
   endloop
 endfacet
 facet normal -4.257792e-001  4.477661e-004  9.048270e-001
   outer loop
     vertex  1.212500e+001  2.200000e+001  8.051443e+000
     vertex  1.169529e+001  1.745298e-015  7.860123e+000
     vertex  1.220561e+001  1.798620e-015  8.100262e+000
   endloop
 endfacet
 facet normal -6.374240e-001  3.525610e-004  7.705132e-001
   outer loop
     vertex  1.259099e+001  2.200000e+001  8.409010e+000
     vertex  1.220561e+001  1.798620e-015  8.100262e+000
     vertex  1.264018e+001  1.878446e-015  8.459769e+000
   endloop
 endfacet
 facet normal -7.933533e-001 -3.692770e-004  6.087614e-001
   outer loop
     vertex  1.259099e+001  2.200000e+001  8.409010e+000
     vertex  1.264018e+001  1.878446e-015  8.459769e+000
     vertex  1.294856e+001  2.200000e+001  8.875000e+000
   endloop
 endfacet
 facet normal -8.090170e-001  2.461903e-004  5.877852e-001
   outer loop
     vertex  1.294856e+001  2.200000e+001  8.875000e+000
     vertex  1.264018e+001  1.878446e-015  8.459769e+000
     vertex  1.297169e+001  1.979762e-015  8.916054e+000
   endloop
 endfacet
 facet normal -9.238795e-001 -2.573278e-004  3.826834e-001
   outer loop
     vertex  1.294856e+001  2.200000e+001  8.875000e+000
     vertex  1.297169e+001  1.979762e-015  8.916054e+000
     vertex  1.317333e+001  2.200000e+001  9.417657e+000
   endloop
 endfacet
 facet normal -9.297765e-001  1.286657e-004  3.681245e-001
   outer loop
     vertex  1.317333e+001  2.200000e+001  9.417657e+000
     vertex  1.297169e+001  1.979762e-015  8.916054e+000
     vertex  1.317931e+001  2.096200e-015  9.440448e+000
   endloop
 endfacet
 facet normal -9.914449e-001 -1.342310e-004  1.305262e-001
   outer loop
     vertex  1.317333e+001  2.200000e+001  9.417657e+000
     vertex  1.317931e+001  2.096200e-015  9.440448e+000
     vertex  1.325000e+001  2.200000e+001  1.000000e+001
   endloop
 endfacet
 facet normal -9.921147e-001  6.095584e-017  1.253332e-001
   outer loop
     vertex  1.325000e+001  2.200000e+001  1.000000e+001
     vertex  1.317931e+001  2.096200e-015  9.440448e+000
     vertex  1.325000e+001  2.220446e-015  1.000000e+001
   endloop
 endfacet
 facet normal -9.921147e-001 -6.071906e-017 -1.253332e-001
   outer loop
     vertex -8.750000e+000  2.200000e+001  1.000000e+001
     vertex -8.750000e+000  2.220446e-015  1.000000e+001
     vertex -8.820688e+000  2.344692e-015  1.055955e+001
   endloop
 endfacet
 facet normal -9.914449e-001 -1.342310e-004 -1.305262e-001
   outer loop
     vertex -8.826667e+000  2.200000e+001  1.058234e+001
     vertex -8.750000e+000  2.200000e+001  1.000000e+001
     vertex -8.820688e+000  2.344692e-015  1.055955e+001
   endloop
 endfacet
 facet normal -9.238795e-001 -2.573278e-004 -3.826834e-001
   outer loop
     vertex -9.051443e+000  2.200000e+001  1.112500e+001
     vertex -8.826667e+000  2.200000e+001  1.058234e+001
     vertex -9.028310e+000  2.461130e-015  1.108395e+001
   endloop
 endfacet
 facet normal -9.297765e-001  1.286657e-004 -3.681245e-001
   outer loop
     vertex -8.826667e+000  2.200000e+001  1.058234e+001
     vertex -8.820688e+000  2.344692e-015  1.055955e+001
     vertex -9.028310e+000  2.461130e-015  1.108395e+001
   endloop
 endfacet
 facet normal -7.933533e-001 -3.692770e-004 -6.087614e-001
   outer loop
     vertex -9.409010e+000  2.200000e+001  1.159099e+001
     vertex -9.051443e+000  2.200000e+001  1.112500e+001
     vertex -9.359821e+000  2.562446e-015  1.154023e+001
   endloop
 endfacet
 facet normal -8.090170e-001  2.461903e-004 -5.877852e-001
   outer loop
     vertex -9.051443e+000  2.200000e+001  1.112500e+001
     vertex -9.028310e+000  2.461130e-015  1.108395e+001
     vertex -9.359821e+000  2.562446e-015  1.154023e+001
   endloop
 endfacet
 facet normal -6.087614e-001 -4.700663e-004 -7.933533e-001
   outer loop
     vertex -9.875000e+000  2.200000e+001  1.194856e+001
     vertex -9.409010e+000  2.200000e+001  1.159099e+001
     vertex -9.794390e+000  2.642273e-015  1.189974e+001
   endloop
 endfacet
 facet normal -6.374240e-001  3.525610e-004 -7.705132e-001
   outer loop
     vertex -9.409010e+000  2.200000e+001  1.159099e+001
     vertex -9.359821e+000  2.562446e-015  1.154023e+001
     vertex -9.794390e+000  2.642273e-015  1.189974e+001
   endloop
 endfacet
 facet normal -3.826834e-001 -5.596846e-004 -9.238794e-001
   outer loop
     vertex -1.041766e+001  2.200000e+001  1.217333e+001
     vertex -9.875000e+000  2.200000e+001  1.194856e+001
     vertex -1.030471e+001  2.695594e-015  1.213988e+001
   endloop
 endfacet
 facet normal -4.257792e-001  4.477661e-004 -9.048270e-001
   outer loop
     vertex -9.875000e+000  2.200000e+001  1.194856e+001
     vertex -9.794390e+000  2.642273e-015  1.189974e+001
     vertex -1.030471e+001  2.695594e-015  1.213988e+001
   endloop
 endfacet
 facet normal -1.305262e-001 -6.381221e-004 -9.914447e-001
   outer loop
     vertex -1.100000e+001  2.200000e+001  1.225000e+001
     vertex -1.041766e+001  2.200000e+001  1.217333e+001
     vertex -1.085872e+001  2.719061e-015  1.224556e+001
   endloop
 endfacet
 facet normal -1.873813e-001  5.317952e-004 -9.822871e-001
   outer loop
     vertex -1.041766e+001  2.200000e+001  1.217333e+001
     vertex -1.030471e+001  2.695594e-015  1.213988e+001
     vertex -1.085872e+001  2.719061e-015  1.224556e+001
   endloop
 endfacet
 facet normal  1.305262e-001 -7.053702e-004 -9.914446e-001
   outer loop
     vertex -1.158234e+001  2.200000e+001  1.217333e+001
     vertex -1.100000e+001  2.200000e+001  1.225000e+001
     vertex -1.142161e+001  2.711197e-015  1.221015e+001
   endloop
 endfacet
 facet normal  6.279051e-002  6.046390e-004 -9.980265e-001
   outer loop
     vertex -1.100000e+001  2.200000e+001  1.225000e+001
     vertex -1.085872e+001  2.719061e-015  1.224556e+001
     vertex -1.142161e+001  2.711197e-015  1.221015e+001
   endloop
 endfacet
 facet normal  3.826833e-001 -7.614216e-004 -9.238793e-001
   outer loop
     vertex -1.212500e+001  2.200000e+001  1.194856e+001
     vertex -1.158234e+001  2.200000e+001  1.217333e+001
     vertex -1.195800e+001  2.672498e-015  1.203586e+001
   endloop
 endfacet
 facet normal  3.090169e-001  6.662896e-004 -9.510563e-001
   outer loop
     vertex -1.158234e+001  2.200000e+001  1.217333e+001
     vertex -1.142161e+001  2.711197e-015  1.221015e+001
     vertex -1.195800e+001  2.672498e-015  1.203586e+001
   endloop
 endfacet
 facet normal  6.087612e-001 -8.062701e-004 -7.933531e-001
   outer loop
     vertex -1.259099e+001  2.200000e+001  1.159099e+001
     vertex -1.212500e+001  2.200000e+001  1.194856e+001
     vertex -1.243420e+001  2.605395e-015  1.173365e+001
   endloop
 endfacet
 facet normal  5.358267e-001  7.167403e-004 -8.443277e-001
   outer loop
     vertex -1.212500e+001  2.200000e+001  1.194856e+001
     vertex -1.195800e+001  2.672498e-015  1.203586e+001
     vertex -1.243420e+001  2.605395e-015  1.173365e+001
   endloop
 endfacet
 facet normal  7.933531e-001 -8.399108e-004 -6.087612e-001
   outer loop
     vertex -1.294856e+001  2.200000e+001  1.112500e+001
     vertex -1.259099e+001  2.200000e+001  1.159099e+001
     vertex -1.282029e+001  2.514104e-015  1.132252e+001
   endloop
 endfacet
 facet normal  7.289684e-001  7.559854e-004 -6.845469e-001
   outer loop
     vertex -1.259099e+001  2.200000e+001  1.159099e+001
     vertex -1.243420e+001  2.605395e-015  1.173365e+001
     vertex -1.282029e+001  2.514104e-015  1.132252e+001
   endloop
 endfacet
 facet normal  9.238792e-001 -8.623399e-004 -3.826833e-001
   outer loop
     vertex -1.317333e+001  2.200000e+001  1.058234e+001
     vertex -1.294856e+001  2.200000e+001  1.112500e+001
     vertex -1.309200e+001  2.404361e-015  1.082828e+001
   endloop
 endfacet
 facet normal  8.763064e-001  7.840207e-004 -4.817535e-001
   outer loop
     vertex -1.294856e+001  2.200000e+001  1.112500e+001
     vertex -1.282029e+001  2.514104e-015  1.132252e+001
     vertex -1.309200e+001  2.404361e-015  1.082828e+001
   endloop
 endfacet
 facet normal  9.914445e-001 -8.735551e-004 -1.305261e-001
   outer loop
     vertex -1.325000e+001  2.200000e+001  1.000000e+001
     vertex -1.317333e+001  2.200000e+001  1.058234e+001
     vertex -1.323226e+001  2.283063e-015  1.028200e+001
   endloop
 endfacet
 facet normal  9.685829e-001  8.008431e-004 -2.486898e-001
   outer loop
     vertex -1.317333e+001  2.200000e+001  1.058234e+001
     vertex -1.309200e+001  2.404361e-015  1.082828e+001
     vertex -1.323226e+001  2.283063e-015  1.028200e+001
   endloop
 endfacet
 facet normal  9.999997e-001  8.064507e-004  3.149391e-015
   outer loop
     vertex -1.325000e+001  2.200000e+001  1.000000e+001
     vertex -1.323226e+001  2.283063e-015  1.028200e+001
     vertex -1.323226e+001  2.157830e-015  9.718000e+000
   endloop
 endfacet
 facet normal  9.914445e-001 -8.735551e-004  1.305261e-001
   outer loop
     vertex -1.317333e+001  2.200000e+001  9.417657e+000
     vertex -1.325000e+001  2.200000e+001  1.000000e+001
     vertex -1.323226e+001  2.157830e-015  9.718000e+000
   endloop
 endfacet
 facet normal  9.685829e-001  8.008431e-004  2.486898e-001
   outer loop
     vertex -1.317333e+001  2.200000e+001  9.417657e+000
     vertex -1.323226e+001  2.157830e-015  9.718000e+000
     vertex -1.309200e+001  2.036531e-015  9.171720e+000
   endloop
 endfacet
 facet normal  9.238792e-001 -8.623399e-004  3.826833e-001
   outer loop
     vertex -1.294856e+001  2.200000e+001  8.875000e+000
     vertex -1.317333e+001  2.200000e+001  9.417657e+000
     vertex -1.309200e+001  2.036531e-015  9.171720e+000
   endloop
 endfacet
 facet normal  8.763064e-001  7.840207e-004  4.817535e-001
   outer loop
     vertex -1.294856e+001  2.200000e+001  8.875000e+000
     vertex -1.309200e+001  2.036531e-015  9.171720e+000
     vertex -1.282029e+001  1.926788e-015  8.677483e+000
   endloop
 endfacet
 facet normal  7.933531e-001 -8.399108e-004  6.087612e-001
   outer loop
     vertex -1.259099e+001  2.200000e+001  8.409010e+000
     vertex -1.294856e+001  2.200000e+001  8.875000e+000
     vertex -1.282029e+001  1.926788e-015  8.677483e+000
   endloop
 endfacet
 facet normal  7.289684e-001  7.559854e-004  6.845469e-001
   outer loop
     vertex -1.259099e+001  2.200000e+001  8.409010e+000
     vertex -1.282029e+001  1.926788e-015  8.677483e+000
     vertex -1.243420e+001  1.835497e-015  8.266345e+000
   endloop
 endfacet
 facet normal  6.087612e-001 -8.062701e-004  7.933531e-001
   outer loop
     vertex -1.212500e+001  2.200000e+001  8.051443e+000
     vertex -1.259099e+001  2.200000e+001  8.409010e+000
     vertex -1.243420e+001  1.835497e-015  8.266345e+000
   endloop
 endfacet
 facet normal  5.358267e-001  7.167403e-004  8.443277e-001
   outer loop
     vertex -1.212500e+001  2.200000e+001  8.051443e+000
     vertex -1.243420e+001  1.835497e-015  8.266345e+000
     vertex -1.195800e+001  1.768394e-015  7.964139e+000
   endloop
 endfacet
 facet normal  3.826833e-001 -7.614216e-004  9.238793e-001
   outer loop
     vertex -1.158234e+001  2.200000e+001  7.826667e+000
     vertex -1.212500e+001  2.200000e+001  8.051443e+000
     vertex -1.195800e+001  1.768394e-015  7.964139e+000
   endloop
 endfacet
 facet normal  3.090169e-001  6.662896e-004  9.510563e-001
   outer loop
     vertex -1.158234e+001  2.200000e+001  7.826667e+000
     vertex -1.195800e+001  1.768394e-015  7.964139e+000
     vertex -1.142161e+001  1.729695e-015  7.789854e+000
   endloop
 endfacet
 facet normal  1.305262e-001 -7.053702e-004  9.914446e-001
   outer loop
     vertex -1.100000e+001  2.200000e+001  7.750000e+000
     vertex -1.158234e+001  2.200000e+001  7.826667e+000
     vertex -1.142161e+001  1.729695e-015  7.789854e+000
   endloop
 endfacet
 facet normal -1.305262e-001 -6.381221e-004  9.914447e-001
   outer loop
     vertex -1.041766e+001  2.200000e+001  7.826667e+000
     vertex -1.100000e+001  2.200000e+001  7.750000e+000
     vertex -1.085872e+001  1.721832e-015  7.754440e+000
   endloop
 endfacet
 facet normal  6.279051e-002  6.046390e-004  9.980265e-001
   outer loop
     vertex -1.100000e+001  2.200000e+001  7.750000e+000
     vertex -1.142161e+001  1.729695e-015  7.789854e+000
     vertex -1.085872e+001  1.721832e-015  7.754440e+000
   endloop
 endfacet
 facet normal -3.826834e-001 -5.596846e-004  9.238794e-001
   outer loop
     vertex -9.875000e+000  2.200000e+001  8.051443e+000
     vertex -1.041766e+001  2.200000e+001  7.826667e+000
     vertex -1.030471e+001  1.745298e-015  7.860123e+000
   endloop
 endfacet
 facet normal -1.873813e-001  5.317952e-004  9.822871e-001
   outer loop
     vertex -1.041766e+001  2.200000e+001  7.826667e+000
     vertex -1.085872e+001  1.721832e-015  7.754440e+000
     vertex -1.030471e+001  1.745298e-015  7.860123e+000
   endloop
 endfacet
 facet normal -6.087614e-001 -4.700663e-004  7.933533e-001
   outer loop
     vertex -9.409010e+000  2.200000e+001  8.409010e+000
     vertex -9.875000e+000  2.200000e+001  8.051443e+000
     vertex -9.794390e+000  1.798620e-015  8.100262e+000
   endloop
 endfacet
 facet normal -4.257792e-001  4.477661e-004  9.048270e-001
   outer loop
     vertex -9.875000e+000  2.200000e+001  8.051443e+000
     vertex -1.030471e+001  1.745298e-015  7.860123e+000
     vertex -9.794390e+000  1.798620e-015  8.100262e+000
   endloop
 endfacet
 facet normal -6.374240e-001  3.525610e-004  7.705132e-001
   outer loop
     vertex -9.409010e+000  2.200000e+001  8.409010e+000
     vertex -9.794390e+000  1.798620e-015  8.100262e+000
     vertex -9.359821e+000  1.878446e-015  8.459769e+000
   endloop
 endfacet
 facet normal -7.933533e-001 -3.692770e-004  6.087614e-001
   outer loop
     vertex -9.409010e+000  2.200000e+001  8.409010e+000
     vertex -9.359821e+000  1.878446e-015  8.459769e+000
     vertex -9.051443e+000  2.200000e+001  8.875000e+000
   endloop
 endfacet
 facet normal -8.090170e-001  2.461903e-004  5.877852e-001
   outer loop
     vertex -9.051443e+000  2.200000e+001  8.875000e+000
     vertex -9.359821e+000  1.878446e-015  8.459769e+000
     vertex -9.028310e+000  1.979762e-015  8.916054e+000
   endloop
 endfacet
 facet normal -9.238795e-001 -2.573278e-004  3.826834e-001
   outer loop
     vertex -9.051443e+000  2.200000e+001  8.875000e+000
     vertex -9.028310e+000  1.979762e-015  8.916054e+000
     vertex -8.826667e+000  2.200000e+001  9.417657e+000
   endloop
 endfacet
 facet normal -9.297765e-001  1.286657e-004  3.681245e-001
   outer loop
     vertex -8.826667e+000  2.200000e+001  9.417657e+000
     vertex -9.028310e+000  1.979762e-015  8.916054e+000
     vertex -8.820688e+000  2.096200e-015  9.440448e+000
   endloop
 endfacet
 facet normal -9.914449e-001 -1.342310e-004  1.305262e-001
   outer loop
     vertex -8.826667e+000  2.200000e+001  9.417657e+000
     vertex -8.820688e+000  2.096200e-015  9.440448e+000
     vertex -8.750000e+000  2.200000e+001  1.000000e+001
   endloop
 endfacet
 facet normal -9.921147e-001  6.095584e-017  1.253332e-001
   outer loop
     vertex -8.750000e+000  2.200000e+001  1.000000e+001
     vertex -8.820688e+000  2.096200e-015  9.440448e+000
     vertex -8.750000e+000  2.220446e-015  1.000000e+001
   endloop
 endfacet
 facet normal -1.000000e+000  0.000000e+000  0.000000e+000
   outer loop
     vertex -1.750000e+001  2.200000e+001  0.000000e+000
     vertex -1.750000e+001  0.000000e+000  0.000000e+000
     vertex -1.750000e+001  0.000000e+000  2.000000e+001
   endloop
 endfacet
 facet normal -1.000000e+000  0.000000e+000  0.000000e+000
   outer loop
     vertex -1.750000e+001  2.200000e+001  0.000000e+000
     vertex -1.750000e+001  0.000000e+000  2.000000e+001
     vertex -1.750000e+001  2.200000e+001  2.000000e+001
   endloop
 endfacet
 facet normal -7.845910e-002 -9.969173e-001  0.000000e+000
   outer loop
     vertex  1.246078e-014  6.050000e+000  0.000000e+000
     vertex  9.464285e-001  5.975514e+000  2.000000e+001
     vertex  1.246078e-014  6.050000e+000  2.000000e+001
   endloop
 endfacet
 facet normal  7.845910e-002 -9.969173e-001  0.000000e+000
   outer loop
     vertex  1.246078e-014  6.050000e+000  0.000000e+000
     vertex  1.246078e-014  6.050000e+000  2.000000e+001
     vertex -9.464285e-001  5.975514e+000  2.000000e+001
   endloop
 endfacet
 facet normal -7.845910e-002 -9.969173e-001  0.000000e+000
   outer loop
     vertex  1.246078e-014  6.050000e+000  0.000000e+000
     vertex  9.464285e-001  5.975514e+000  0.000000e+000
     vertex  9.464285e-001  5.975514e+000  2.000000e+001
   endloop
 endfacet
 facet normal  7.845910e-002 -9.969173e-001  0.000000e+000
   outer loop
     vertex -9.464285e-001  5.975514e+000  0.000000e+000
     vertex  1.246078e-014  6.050000e+000  0.000000e+000
     vertex -9.464285e-001  5.975514e+000  2.000000e+001
   endloop
 endfacet
 facet normal  2.334454e-001 -9.723699e-001  0.000000e+000
   outer loop
     vertex -1.869553e+000  5.753892e+000  0.000000e+000
     vertex -9.464285e-001  5.975514e+000  2.000000e+001
     vertex -1.869553e+000  5.753892e+000  2.000000e+001
   endloop
 endfacet
 facet normal -9.969173e-001 -7.845910e-002  0.000000e+000
   outer loop
     vertex  5.975514e+000  9.464285e-001  0.000000e+000
     vertex  6.050000e+000  0.000000e+000  0.000000e+000
     vertex  6.050000e+000  0.000000e+000  2.000000e+001
   endloop
 endfacet
 facet normal  3.826834e-001 -9.238795e-001  0.000000e+000
   outer loop
     vertex -1.869553e+000  5.753892e+000  0.000000e+000
     vertex -1.869553e+000  5.753892e+000  2.000000e+001
     vertex -2.746643e+000  5.390589e+000  2.000000e+001
   endloop
 endfacet
 facet normal -9.969173e-001 -7.845910e-002  0.000000e+000
   outer loop
     vertex  5.975514e+000  9.464285e-001  0.000000e+000
     vertex  6.050000e+000  0.000000e+000  2.000000e+001
     vertex  5.975514e+000  9.464285e-001  2.000000e+001
   endloop
 endfacet
 facet normal  2.334454e-001 -9.723699e-001  0.000000e+000
   outer loop
     vertex -1.869553e+000  5.753892e+000  0.000000e+000
     vertex -9.464285e-001  5.975514e+000  0.000000e+000
     vertex -9.464285e-001  5.975514e+000  2.000000e+001
   endloop
 endfacet
 facet normal  5.224986e-001 -8.526402e-001  0.000000e+000
   outer loop
     vertex -2.746643e+000  5.390589e+000  0.000000e+000
     vertex -2.746643e+000  5.390589e+000  2.000000e+001
     vertex -3.556101e+000  4.894553e+000  2.000000e+001
   endloop
 endfacet
 facet normal -9.723699e-001 -2.334454e-001  0.000000e+000
   outer loop
     vertex  5.753892e+000  1.869553e+000  0.000000e+000
     vertex  5.975514e+000  9.464285e-001  2.000000e+001
     vertex  5.753892e+000  1.869553e+000  2.000000e+001
   endloop
 endfacet
 facet normal -9.238795e-001 -3.826834e-001  0.000000e+000
   outer loop
     vertex  5.753892e+000  1.869553e+000  0.000000e+000
     vertex  5.753892e+000  1.869553e+000  2.000000e+001
     vertex  5.390589e+000  2.746643e+000  2.000000e+001
   endloop
 endfacet
 facet normal  3.826834e-001 -9.238795e-001  0.000000e+000
   outer loop
     vertex -2.746643e+000  5.390589e+000  0.000000e+000
     vertex -1.869553e+000  5.753892e+000  0.000000e+000
     vertex -2.746643e+000  5.390589e+000  2.000000e+001
   endloop
 endfacet
 facet normal -9.723699e-001 -2.334454e-001  0.000000e+000
   outer loop
     vertex  5.753892e+000  1.869553e+000  0.000000e+000
     vertex  5.975514e+000  9.464285e-001  0.000000e+000
     vertex  5.975514e+000  9.464285e-001  2.000000e+001
   endloop
 endfacet
 facet normal  5.224986e-001 -8.526402e-001  0.000000e+000
   outer loop
     vertex -3.556101e+000  4.894553e+000  0.000000e+000
     vertex -2.746643e+000  5.390589e+000  0.000000e+000
     vertex -3.556101e+000  4.894553e+000  2.000000e+001
   endloop
 endfacet
 facet normal -9.238795e-001 -3.826834e-001  0.000000e+000
   outer loop
     vertex  5.390589e+000  2.746643e+000  0.000000e+000
     vertex  5.753892e+000  1.869553e+000  0.000000e+000
     vertex  5.390589e+000  2.746643e+000  2.000000e+001
   endloop
 endfacet
 facet normal  6.494480e-001 -7.604060e-001  0.000000e+000
   outer loop
     vertex -3.556101e+000  4.894553e+000  0.000000e+000
     vertex -3.556101e+000  4.894553e+000  2.000000e+001
     vertex -4.277996e+000  4.277996e+000  2.000000e+001
   endloop
 endfacet
 facet normal  6.494480e-001 -7.604060e-001  0.000000e+000
   outer loop
     vertex -4.277996e+000  4.277996e+000  0.000000e+000
     vertex -3.556101e+000  4.894553e+000  0.000000e+000
     vertex -4.277996e+000  4.277996e+000  2.000000e+001
   endloop
 endfacet
 facet normal -8.526402e-001 -5.224986e-001  0.000000e+000
   outer loop
     vertex  4.894553e+000  3.556101e+000  0.000000e+000
     vertex  5.390589e+000  2.746643e+000  2.000000e+001
     vertex  4.894553e+000  3.556101e+000  2.000000e+001
   endloop
 endfacet
 facet normal -7.604060e-001 -6.494480e-001  0.000000e+000
   outer loop
     vertex  4.894553e+000  3.556101e+000  0.000000e+000
     vertex  4.894553e+000  3.556101e+000  2.000000e+001
     vertex  4.277996e+000  4.277996e+000  2.000000e+001
   endloop
 endfacet
 facet normal -8.526402e-001 -5.224986e-001  0.000000e+000
   outer loop
     vertex  4.894553e+000  3.556101e+000  0.000000e+000
     vertex  5.390589e+000  2.746643e+000  0.000000e+000
     vertex  5.390589e+000  2.746643e+000  2.000000e+001
   endloop
 endfacet
 facet normal  7.604060e-001 -6.494480e-001  0.000000e+000
   outer loop
     vertex -4.894553e+000  3.556101e+000  0.000000e+000
     vertex -4.277996e+000  4.277996e+000  0.000000e+000
     vertex -4.277996e+000  4.277996e+000  2.000000e+001
   endloop
 endfacet
 facet normal  7.604060e-001 -6.494480e-001  0.000000e+000
   outer loop
     vertex -4.894553e+000  3.556101e+000  0.000000e+000
     vertex -4.277996e+000  4.277996e+000  2.000000e+001
     vertex -4.894553e+000  3.556101e+000  2.000000e+001
   endloop
 endfacet
 facet normal -7.604060e-001 -6.494480e-001  0.000000e+000
   outer loop
     vertex  4.277996e+000  4.277996e+000  0.000000e+000
     vertex  4.894553e+000  3.556101e+000  0.000000e+000
     vertex  4.277996e+000  4.277996e+000  2.000000e+001
   endloop
 endfacet
 facet normal  8.526402e-001 -5.224986e-001  0.000000e+000
   outer loop
     vertex -5.390589e+000  2.746643e+000  0.000000e+000
     vertex -4.894553e+000  3.556101e+000  0.000000e+000
     vertex -4.894553e+000  3.556101e+000  2.000000e+001
   endloop
 endfacet
 facet normal -6.494480e-001 -7.604060e-001  0.000000e+000
   outer loop
     vertex  3.556101e+000  4.894553e+000  0.000000e+000
     vertex  4.277996e+000  4.277996e+000  2.000000e+001
     vertex  3.556101e+000  4.894553e+000  2.000000e+001
   endloop
 endfacet
 facet normal -5.224986e-001 -8.526402e-001  0.000000e+000
   outer loop
     vertex  3.556101e+000  4.894553e+000  0.000000e+000
     vertex  3.556101e+000  4.894553e+000  2.000000e+001
     vertex  2.746643e+000  5.390589e+000  2.000000e+001
   endloop
 endfacet
 facet normal  8.526402e-001 -5.224986e-001  0.000000e+000
   outer loop
     vertex -5.390589e+000  2.746643e+000  0.000000e+000
     vertex -4.894553e+000  3.556101e+000  2.000000e+001
     vertex -5.390589e+000  2.746643e+000  2.000000e+001
   endloop
 endfacet
 facet normal -6.494480e-001 -7.604060e-001  0.000000e+000
   outer loop
     vertex  3.556101e+000  4.894553e+000  0.000000e+000
     vertex  4.277996e+000  4.277996e+000  0.000000e+000
     vertex  4.277996e+000  4.277996e+000  2.000000e+001
   endloop
 endfacet
 facet normal  9.238795e-001 -3.826834e-001  0.000000e+000
   outer loop
     vertex -5.390589e+000  2.746643e+000  0.000000e+000
     vertex -5.390589e+000  2.746643e+000  2.000000e+001
     vertex -5.753892e+000  1.869553e+000  2.000000e+001
   endloop
 endfacet
 facet normal  9.238795e-001 -3.826834e-001  0.000000e+000
   outer loop
     vertex -5.753892e+000  1.869553e+000  0.000000e+000
     vertex -5.390589e+000  2.746643e+000  0.000000e+000
     vertex -5.753892e+000  1.869553e+000  2.000000e+001
   endloop
 endfacet
 facet normal -3.826834e-001 -9.238795e-001  0.000000e+000
   outer loop
     vertex  2.746643e+000  5.390589e+000  0.000000e+000
     vertex  2.746643e+000  5.390589e+000  2.000000e+001
     vertex  1.869553e+000  5.753892e+000  2.000000e+001
   endloop
 endfacet
 facet normal -5.224986e-001 -8.526402e-001  0.000000e+000
   outer loop
     vertex  2.746643e+000  5.390589e+000  0.000000e+000
     vertex  3.556101e+000  4.894553e+000  0.000000e+000
     vertex  2.746643e+000  5.390589e+000  2.000000e+001
   endloop
 endfacet
 facet normal  9.723699e-001 -2.334454e-001  0.000000e+000
   outer loop
     vertex -5.975514e+000  9.464285e-001  0.000000e+000
     vertex -5.753892e+000  1.869553e+000  0.000000e+000
     vertex -5.753892e+000  1.869553e+000  2.000000e+001
   endloop
 endfacet
 facet normal -2.334454e-001 -9.723699e-001  0.000000e+000
   outer loop
     vertex  1.869553e+000  5.753892e+000  0.000000e+000
     vertex  1.869553e+000  5.753892e+000  2.000000e+001
     vertex  9.464285e-001  5.975514e+000  2.000000e+001
   endloop
 endfacet
 facet normal -3.826834e-001 -9.238795e-001  0.000000e+000
   outer loop
     vertex  1.869553e+000  5.753892e+000  0.000000e+000
     vertex  2.746643e+000  5.390589e+000  0.000000e+000
     vertex  1.869553e+000  5.753892e+000  2.000000e+001
   endloop
 endfacet
 facet normal  9.723699e-001 -2.334454e-001  0.000000e+000
   outer loop
     vertex -5.975514e+000  9.464285e-001  0.000000e+000
     vertex -5.753892e+000  1.869553e+000  2.000000e+001
     vertex -5.975514e+000  9.464285e-001  2.000000e+001
   endloop
 endfacet
 facet normal  9.969173e-001 -7.845910e-002  0.000000e+000
   outer loop
     vertex -5.975514e+000  9.464285e-001  0.000000e+000
     vertex -5.975514e+000  9.464285e-001  2.000000e+001
     vertex -6.050000e+000  3.704557e-016  2.000000e+001
   endloop
 endfacet
 facet normal  9.969173e-001 -7.845910e-002  0.000000e+000
   outer loop
     vertex -6.050000e+000  3.704557e-016  0.000000e+000
     vertex -5.975514e+000  9.464285e-001  0.000000e+000
     vertex -6.050000e+000  3.704557e-016  2.000000e+001
   endloop
 endfacet
 facet normal -2.334454e-001 -9.723699e-001  0.000000e+000
   outer loop
     vertex  9.464285e-001  5.975514e+000  0.000000e+000
     vertex  1.869553e+000  5.753892e+000  0.000000e+000
     vertex  9.464285e-001  5.975514e+000  2.000000e+001
   endloop
 endfacet
 facet normal -1.027034e-015 -1.000000e+000  9.230007e-017
   outer loop
     vertex -6.050000e+000  3.704557e-016  2.000000e+001
     vertex -8.820688e+000  2.344692e-015  1.055955e+001
     vertex -8.750000e+000  2.220446e-015  1.000000e+001
   endloop
 endfacet
 facet normal  3.461763e-016 -1.000000e+000 -1.030366e-016
   outer loop
     vertex -1.243420e+001  2.605395e-015  1.173365e+001
     vertex -1.750000e+001  0.000000e+000  2.000000e+001
     vertex -1.282029e+001  2.514104e-015  1.132252e+001
   endloop
 endfacet
 facet normal  2.454688e-016 -1.000000e+000 -1.647524e-016
   outer loop
     vertex -1.750000e+001  0.000000e+000  2.000000e+001
     vertex -1.243420e+001  2.605395e-015  1.173365e+001
     vertex -1.195800e+001  2.672498e-015  1.203586e+001
   endloop
 endfacet
 facet normal  4.699258e-016 -1.000000e+000 -3.629929e-017
   outer loop
     vertex -1.282029e+001  2.514104e-015  1.132252e+001
     vertex -1.750000e+001  0.000000e+000  2.000000e+001
     vertex -1.309200e+001  2.404361e-015  1.082828e+001
   endloop
 endfacet
 facet normal  3.235421e-017 -1.000000e+000 -3.227963e-016
   outer loop
     vertex -6.050000e+000  3.704557e-016  2.000000e+001
     vertex -1.750000e+001  0.000000e+000  2.000000e+001
     vertex -1.142161e+001  2.711197e-015  1.221015e+001
   endloop
 endfacet
 facet normal  1.477682e-016 -1.000000e+000 -2.327392e-016
   outer loop
     vertex -1.750000e+001  0.000000e+000  2.000000e+001
     vertex -1.195800e+001  2.672498e-015  1.203586e+001
     vertex -1.142161e+001  2.711197e-015  1.221015e+001
   endloop
 endfacet
 facet normal  6.566550e-016 -1.000000e+000  5.344426e-017
   outer loop
     vertex -1.309200e+001  2.404361e-015  1.082828e+001
     vertex -1.750000e+001  0.000000e+000  2.000000e+001
     vertex -1.323226e+001  2.283063e-015  1.028200e+001
   endloop
 endfacet
 facet normal  3.436575e-017 -1.000000e+000 -3.241833e-016
   outer loop
     vertex -6.050000e+000  3.704557e-016  2.000000e+001
     vertex -1.142161e+001  2.711197e-015  1.221015e+001
     vertex -1.085872e+001  2.719061e-015  1.224556e+001
   endloop
 endfacet
 facet normal  9.832066e-031 -1.000000e+000  2.220446e-016
   outer loop
     vertex -1.323226e+001  2.157830e-015  9.718000e+000
     vertex -1.323226e+001  2.283063e-015  1.028200e+001
     vertex -1.750000e+001  0.000000e+000  0.000000e+000
   endloop
 endfacet
 facet normal -4.270530e-031 -1.000000e+000  2.220446e-016
   outer loop
     vertex -1.309200e+001  2.036531e-015  9.171720e+000
     vertex -1.323226e+001  2.157830e-015  9.718000e+000
     vertex -1.750000e+001  0.000000e+000  0.000000e+000
   endloop
 endfacet
 facet normal -2.955716e-031 -1.000000e+000  2.220446e-016
   outer loop
     vertex -1.282029e+001  1.926788e-015  8.677483e+000
     vertex -1.309200e+001  2.036531e-015  9.171720e+000
     vertex -1.750000e+001  0.000000e+000  0.000000e+000
   endloop
 endfacet
 facet normal  4.300093e-031 -1.000000e+000  2.220446e-016
   outer loop
     vertex -1.243420e+001  1.835497e-015  8.266345e+000
     vertex -1.282029e+001  1.926788e-015  8.677483e+000
     vertex -1.750000e+001  0.000000e+000  0.000000e+000
   endloop
 endfacet
 facet normal -1.262500e-031 -1.000000e+000  2.220446e-016
   outer loop
     vertex -1.195800e+001  1.768394e-015  7.964139e+000
     vertex -1.243420e+001  1.835497e-015  8.266345e+000
     vertex -1.750000e+001  0.000000e+000  0.000000e+000
   endloop
 endfacet
 facet normal -7.530435e-032 -1.000000e+000  2.220446e-016
   outer loop
     vertex -1.142161e+001  1.729695e-015  7.789854e+000
     vertex -1.195800e+001  1.768394e-015  7.964139e+000
     vertex -1.750000e+001  0.000000e+000  0.000000e+000
   endloop
 endfacet
 facet normal  5.349580e-016 -1.000000e+000  0.000000e+000
   outer loop
     vertex -1.323226e+001  2.283063e-015  1.028200e+001
     vertex -1.750000e+001  0.000000e+000  2.000000e+001
     vertex -1.750000e+001  0.000000e+000  0.000000e+000
   endloop
 endfacet
 facet normal -8.954099e-017 -1.000000e+000 -2.473457e-016
   outer loop
     vertex -6.050000e+000  3.704557e-016  2.000000e+001
     vertex -1.085872e+001  2.719061e-015  1.224556e+001
     vertex -1.030471e+001  2.695594e-015  1.213988e+001
   endloop
 endfacet
 facet normal -3.127671e-018 -1.000000e+000  1.723317e-016
   outer loop
     vertex -1.085872e+001  1.721832e-015  7.754440e+000
     vertex -1.142161e+001  1.729695e-015  7.789854e+000
     vertex -6.050000e+000  3.704557e-016  0.000000e+000
   endloop
 endfacet
 facet normal  8.149240e-018 -1.000000e+000  1.793248e-016
   outer loop
     vertex -1.030471e+001  1.745298e-015  7.860123e+000
     vertex -1.085872e+001  1.721832e-015  7.754440e+000
     vertex -6.050000e+000  3.704557e-016  0.000000e+000
   endloop
 endfacet
 facet normal  1.767583e-017 -1.000000e+000  1.844816e-016
   outer loop
     vertex -9.794390e+000  1.798620e-015  8.100262e+000
     vertex -1.030471e+001  1.745298e-015  7.860123e+000
     vertex -6.050000e+000  3.704557e-016  0.000000e+000
   endloop
 endfacet
 facet normal  2.736833e-017 -1.000000e+000  1.889620e-016
   outer loop
     vertex -9.359821e+000  1.878446e-015  8.459769e+000
     vertex -9.794390e+000  1.798620e-015  8.100262e+000
     vertex -6.050000e+000  3.704557e-016  0.000000e+000
   endloop
 endfacet
 facet normal  3.917594e-017 -1.000000e+000  1.935816e-016
   outer loop
     vertex -9.028310e+000  1.979762e-015  8.916054e+000
     vertex -9.359821e+000  1.878446e-015  8.459769e+000
     vertex -6.050000e+000  3.704557e-016  0.000000e+000
   endloop
 endfacet
 facet normal  5.691940e-017 -1.000000e+000  1.995086e-016
   outer loop
     vertex -8.820688e+000  2.096200e-015  9.440448e+000
     vertex -9.028310e+000  1.979762e-015  8.916054e+000
     vertex -6.050000e+000  3.704557e-016  0.000000e+000
   endloop
 endfacet
 facet normal  9.347166e-017 -1.000000e+000  2.102364e-016
   outer loop
     vertex -8.750000e+000  2.220446e-015  1.000000e+001
     vertex -8.820688e+000  2.096200e-015  9.440448e+000
     vertex -6.050000e+000  3.704557e-016  0.000000e+000
   endloop
 endfacet
 facet normal -6.851816e-016 -1.000000e+000  0.000000e+000
   outer loop
     vertex -6.050000e+000  3.704557e-016  2.000000e+001
     vertex -8.750000e+000  2.220446e-015  1.000000e+001
     vertex -6.050000e+000  3.704557e-016  0.000000e+000
   endloop
 endfacet
 facet normal  3.235421e-017 -1.000000e+000  1.967987e-016
   outer loop
     vertex -1.142161e+001  1.729695e-015  7.789854e+000
     vertex -1.750000e+001  0.000000e+000  0.000000e+000
     vertex -6.050000e+000  3.704557e-016  0.000000e+000
   endloop
 endfacet
 facet normal -1.942158e-016 -1.000000e+000 -1.906849e-016
   outer loop
     vertex -6.050000e+000  3.704557e-016  2.000000e+001
     vertex -1.030471e+001  2.695594e-015  1.213988e+001
     vertex -9.794390e+000  2.642273e-015  1.189974e+001
   endloop
 endfacet
 facet normal -3.007136e-016 -1.000000e+000 -1.414557e-016
   outer loop
     vertex -6.050000e+000  3.704557e-016  2.000000e+001
     vertex -9.794390e+000  2.642273e-015  1.189974e+001
     vertex -9.359821e+000  2.562446e-015  1.154023e+001
   endloop
 endfacet
 facet normal -4.304515e-016 -1.000000e+000 -9.069671e-017
   outer loop
     vertex -6.050000e+000  3.704557e-016  2.000000e+001
     vertex -9.359821e+000  2.562446e-015  1.154023e+001
     vertex -9.028310e+000  2.461130e-015  1.108395e+001
   endloop
 endfacet
 facet normal -6.254103e-016 -1.000000e+000 -2.557285e-017
   outer loop
     vertex -6.050000e+000  3.704557e-016  2.000000e+001
     vertex -9.028310e+000  2.461130e-015  1.108395e+001
     vertex -8.820688e+000  2.344692e-015  1.055955e+001
   endloop
 endfacet
endsolid
