solid
 facet normal  1.000000e+000  0.000000e+000  0.000000e+000
   outer loop
     vertex  1.250000e+001 -6.500000e+000  0.000000e+000
     vertex  1.250000e+001  6.500000e+000  0.000000e+000
     vertex  1.250000e+001  6.500000e+000  2.000000e+001
   endloop
 endfacet
 facet normal  1.000000e+000  0.000000e+000 -0.000000e+000
   outer loop
     vertex  1.250000e+001 -6.500000e+000  0.000000e+000
     vertex  1.250000e+001  6.500000e+000  2.000000e+001
     vertex  1.250000e+001 -6.500000e+000  2.000000e+001
   endloop
 endfacet
 facet normal  0.000000e+000  1.000000e+000 -0.000000e+000
   outer loop
     vertex -3.752777e+000  6.500000e+000  7.600000e+000
     vertex -1.250000e+001  6.500000e+000  2.000000e+001
     vertex -3.752777e+000  6.500000e+000  2.000000e+001
   endloop
 endfacet
 facet normal  0.000000e+000  1.000000e+000 -0.000000e+000
   outer loop
     vertex -3.752777e+000  6.500000e+000  7.600000e+000
     vertex -1.250000e+001  6.500000e+000  0.000000e+000
     vertex -1.250000e+001  6.500000e+000  2.000000e+001
   endloop
 endfacet
 facet normal  0.000000e+000  1.000000e+000  0.000000e+000
   outer loop
     vertex  3.752777e+000  6.500000e+000  7.600000e+000
     vertex  3.752777e+000  6.500000e+000  2.000000e+001
     vertex  1.250000e+001  6.500000e+000  2.000000e+001
   endloop
 endfacet
 facet normal  0.000000e+000  1.000000e+000 -0.000000e+000
   outer loop
     vertex  3.752777e+000  6.500000e+000  7.600000e+000
     vertex -1.250000e+001  6.500000e+000  0.000000e+000
     vertex -3.752777e+000  6.500000e+000  7.600000e+000
   endloop
 endfacet
 facet normal  0.000000e+000  1.000000e+000 -0.000000e+000
   outer loop
     vertex  1.250000e+001  6.500000e+000  0.000000e+000
     vertex -1.250000e+001  6.500000e+000  0.000000e+000
     vertex  3.752777e+000  6.500000e+000  7.600000e+000
   endloop
 endfacet
 facet normal  0.000000e+000  1.000000e+000 -0.000000e+000
   outer loop
     vertex  1.250000e+001  6.500000e+000  0.000000e+000
     vertex  3.752777e+000  6.500000e+000  7.600000e+000
     vertex  1.250000e+001  6.500000e+000  2.000000e+001
   endloop
 endfacet
 facet normal  0.000000e+000 -1.000000e+000  0.000000e+000
   outer loop
     vertex  3.752777e+000 -6.500000e+000  7.600000e+000
     vertex  1.250000e+001 -6.500000e+000  2.000000e+001
     vertex  3.752777e+000 -6.500000e+000  2.000000e+001
   endloop
 endfacet
 facet normal  0.000000e+000 -1.000000e+000  0.000000e+000
   outer loop
     vertex  3.752777e+000 -6.500000e+000  7.600000e+000
     vertex  1.250000e+001 -6.500000e+000  0.000000e+000
     vertex  1.250000e+001 -6.500000e+000  2.000000e+001
   endloop
 endfacet
 facet normal  0.000000e+000 -1.000000e+000  0.000000e+000
   outer loop
     vertex -3.752777e+000 -6.500000e+000  7.600000e+000
     vertex -3.752777e+000 -6.500000e+000  2.000000e+001
     vertex -1.250000e+001 -6.500000e+000  2.000000e+001
   endloop
 endfacet
 facet normal  0.000000e+000 -1.000000e+000  0.000000e+000
   outer loop
     vertex -3.752777e+000 -6.500000e+000  7.600000e+000
     vertex  1.250000e+001 -6.500000e+000  0.000000e+000
     vertex  3.752777e+000 -6.500000e+000  7.600000e+000
   endloop
 endfacet
 facet normal  0.000000e+000 -1.000000e+000  0.000000e+000
   outer loop
     vertex -1.250000e+001 -6.500000e+000  0.000000e+000
     vertex  1.250000e+001 -6.500000e+000  0.000000e+000
     vertex -3.752777e+000 -6.500000e+000  7.600000e+000
   endloop
 endfacet
 facet normal  0.000000e+000 -1.000000e+000  0.000000e+000
   outer loop
     vertex -1.250000e+001 -6.500000e+000  0.000000e+000
     vertex -3.752777e+000 -6.500000e+000  7.600000e+000
     vertex -1.250000e+001 -6.500000e+000  2.000000e+001
   endloop
 endfacet
 facet normal  0.000000e+000  0.000000e+000 -1.000000e+000
   outer loop
     vertex -4.054360e+000  1.952477e+000  0.000000e+000
     vertex -1.250000e+001  6.500000e+000  0.000000e+000
     vertex -3.718074e+000  2.534940e+000  0.000000e+000
   endloop
 endfacet
 facet normal  0.000000e+000  0.000000e+000 -1.000000e+000
   outer loop
     vertex -1.250000e+001 -6.500000e+000  0.000000e+000
     vertex -3.298733e+000 -3.060777e+000  0.000000e+000
     vertex -2.805704e+000 -3.518242e+000  0.000000e+000
   endloop
 endfacet
 facet normal  0.000000e+000  0.000000e+000 -1.000000e+000
   outer loop
     vertex -3.362854e-001 -4.487417e+000  0.000000e+000
     vertex  3.362854e-001 -4.487417e+000  0.000000e+000
     vertex  1.250000e+001 -6.500000e+000  0.000000e+000
   endloop
 endfacet
 facet normal  0.000000e+000  0.000000e+000 -1.000000e+000
   outer loop
     vertex  3.362854e-001 -4.487417e+000  0.000000e+000
     vertex  1.001344e+000 -4.387176e+000  0.000000e+000
     vertex  1.250000e+001 -6.500000e+000  0.000000e+000
   endloop
 endfacet
 facet normal  0.000000e+000  0.000000e+000 -1.000000e+000
   outer loop
     vertex  1.001344e+000 -4.387176e+000  0.000000e+000
     vertex  1.644035e+000 -4.188932e+000  0.000000e+000
     vertex  1.250000e+001 -6.500000e+000  0.000000e+000
   endloop
 endfacet
 facet normal -0.000000e+000  0.000000e+000 -1.000000e+000
   outer loop
     vertex -3.298733e+000 -3.060777e+000  0.000000e+000
     vertex -1.250000e+001 -6.500000e+000  0.000000e+000
     vertex -3.718074e+000 -2.534940e+000  0.000000e+000
   endloop
 endfacet
 facet normal  0.000000e+000  0.000000e+000 -1.000000e+000
   outer loop
     vertex  1.644035e+000 -4.188932e+000  0.000000e+000
     vertex  2.250000e+000 -3.897114e+000  0.000000e+000
     vertex  1.250000e+001 -6.500000e+000  0.000000e+000
   endloop
 endfacet
 facet normal  0.000000e+000  0.000000e+000 -1.000000e+000
   outer loop
     vertex  2.250000e+000 -3.897114e+000  0.000000e+000
     vertex  2.805704e+000 -3.518242e+000  0.000000e+000
     vertex  1.250000e+001 -6.500000e+000  0.000000e+000
   endloop
 endfacet
 facet normal  0.000000e+000  0.000000e+000 -1.000000e+000
   outer loop
     vertex  2.805704e+000 -3.518242e+000  0.000000e+000
     vertex  3.298733e+000 -3.060777e+000  0.000000e+000
     vertex  1.250000e+001 -6.500000e+000  0.000000e+000
   endloop
 endfacet
 facet normal  0.000000e+000  0.000000e+000 -1.000000e+000
   outer loop
     vertex  3.298733e+000 -3.060777e+000  0.000000e+000
     vertex  3.718074e+000 -2.534940e+000  0.000000e+000
     vertex  1.250000e+001 -6.500000e+000  0.000000e+000
   endloop
 endfacet
 facet normal  0.000000e+000  0.000000e+000 -1.000000e+000
   outer loop
     vertex  3.718074e+000 -2.534940e+000  0.000000e+000
     vertex  4.054360e+000 -1.952477e+000  0.000000e+000
     vertex  1.250000e+001 -6.500000e+000  0.000000e+000
   endloop
 endfacet
 facet normal  0.000000e+000  0.000000e+000 -1.000000e+000
   outer loop
     vertex -1.250000e+001 -6.500000e+000  0.000000e+000
     vertex -2.805704e+000 -3.518242e+000  0.000000e+000
     vertex -2.250000e+000 -3.897114e+000  0.000000e+000
   endloop
 endfacet
 facet normal  0.000000e+000  0.000000e+000 -1.000000e+000
   outer loop
     vertex  4.054360e+000 -1.952477e+000  0.000000e+000
     vertex  4.300078e+000 -1.326398e+000  0.000000e+000
     vertex  1.250000e+001 -6.500000e+000  0.000000e+000
   endloop
 endfacet
 facet normal  0.000000e+000  0.000000e+000 -1.000000e+000
   outer loop
     vertex  4.300078e+000 -1.326398e+000  0.000000e+000
     vertex  4.449739e+000 -6.706902e-001  0.000000e+000
     vertex  1.250000e+001 -6.500000e+000  0.000000e+000
   endloop
 endfacet
 facet normal  0.000000e+000  0.000000e+000 -1.000000e+000
   outer loop
     vertex  4.449739e+000 -6.706902e-001  0.000000e+000
     vertex  4.500000e+000  0.000000e+000  0.000000e+000
     vertex  1.250000e+001 -6.500000e+000  0.000000e+000
   endloop
 endfacet
 facet normal  0.000000e+000  0.000000e+000 -1.000000e+000
   outer loop
     vertex -3.718074e+000  2.534940e+000  0.000000e+000
     vertex -1.250000e+001  6.500000e+000  0.000000e+000
     vertex -3.298733e+000  3.060777e+000  0.000000e+000
   endloop
 endfacet
 facet normal -0.000000e+000  0.000000e+000 -1.000000e+000
   outer loop
     vertex -3.718074e+000 -2.534940e+000  0.000000e+000
     vertex -1.250000e+001 -6.500000e+000  0.000000e+000
     vertex -4.054360e+000 -1.952477e+000  0.000000e+000
   endloop
 endfacet
 facet normal  0.000000e+000  0.000000e+000 -1.000000e+000
   outer loop
     vertex -1.250000e+001 -6.500000e+000  0.000000e+000
     vertex -3.362854e-001 -4.487417e+000  0.000000e+000
     vertex  1.250000e+001 -6.500000e+000  0.000000e+000
   endloop
 endfacet
 facet normal  0.000000e+000  0.000000e+000 -1.000000e+000
   outer loop
     vertex -3.298733e+000  3.060777e+000  0.000000e+000
     vertex -1.250000e+001  6.500000e+000  0.000000e+000
     vertex -2.805704e+000  3.518242e+000  0.000000e+000
   endloop
 endfacet
 facet normal  0.000000e+000  0.000000e+000 -1.000000e+000
   outer loop
     vertex -1.250000e+001 -6.500000e+000  0.000000e+000
     vertex -2.250000e+000 -3.897114e+000  0.000000e+000
     vertex -1.644035e+000 -4.188932e+000  0.000000e+000
   endloop
 endfacet
 facet normal -0.000000e+000  0.000000e+000 -1.000000e+000
   outer loop
     vertex -4.054360e+000 -1.952477e+000  0.000000e+000
     vertex -1.250000e+001 -6.500000e+000  0.000000e+000
     vertex -4.300078e+000 -1.326398e+000  0.000000e+000
   endloop
 endfacet
 facet normal  0.000000e+000  0.000000e+000 -1.000000e+000
   outer loop
     vertex -1.250000e+001 -6.500000e+000  0.000000e+000
     vertex -1.644035e+000 -4.188932e+000  0.000000e+000
     vertex -1.001344e+000 -4.387176e+000  0.000000e+000
   endloop
 endfacet
 facet normal  0.000000e+000  0.000000e+000 -1.000000e+000
   outer loop
     vertex -2.805704e+000  3.518242e+000  0.000000e+000
     vertex -1.250000e+001  6.500000e+000  0.000000e+000
     vertex -2.250000e+000  3.897114e+000  0.000000e+000
   endloop
 endfacet
 facet normal  0.000000e+000  0.000000e+000 -1.000000e+000
   outer loop
     vertex  4.500000e+000  0.000000e+000  0.000000e+000
     vertex  4.449739e+000  6.706902e-001  0.000000e+000
     vertex  1.250000e+001  6.500000e+000  0.000000e+000
   endloop
 endfacet
 facet normal  0.000000e+000  0.000000e+000 -1.000000e+000
   outer loop
     vertex  4.449739e+000  6.706902e-001  0.000000e+000
     vertex  4.300078e+000  1.326398e+000  0.000000e+000
     vertex  1.250000e+001  6.500000e+000  0.000000e+000
   endloop
 endfacet
 facet normal  0.000000e+000  0.000000e+000 -1.000000e+000
   outer loop
     vertex -2.250000e+000  3.897114e+000  0.000000e+000
     vertex -1.250000e+001  6.500000e+000  0.000000e+000
     vertex -1.644035e+000  4.188932e+000  0.000000e+000
   endloop
 endfacet
 facet normal -0.000000e+000  0.000000e+000 -1.000000e+000
   outer loop
     vertex -4.300078e+000 -1.326398e+000  0.000000e+000
     vertex -1.250000e+001 -6.500000e+000  0.000000e+000
     vertex -4.449739e+000 -6.706902e-001  0.000000e+000
   endloop
 endfacet
 facet normal  0.000000e+000  0.000000e+000 -1.000000e+000
   outer loop
     vertex  4.300078e+000  1.326398e+000  0.000000e+000
     vertex  4.054360e+000  1.952477e+000  0.000000e+000
     vertex  1.250000e+001  6.500000e+000  0.000000e+000
   endloop
 endfacet
 facet normal  0.000000e+000  0.000000e+000 -1.000000e+000
   outer loop
     vertex  4.054360e+000  1.952477e+000  0.000000e+000
     vertex  3.718074e+000  2.534940e+000  0.000000e+000
     vertex  1.250000e+001  6.500000e+000  0.000000e+000
   endloop
 endfacet
 facet normal  0.000000e+000  0.000000e+000 -1.000000e+000
   outer loop
     vertex  3.718074e+000  2.534940e+000  0.000000e+000
     vertex  3.298733e+000  3.060777e+000  0.000000e+000
     vertex  1.250000e+001  6.500000e+000  0.000000e+000
   endloop
 endfacet
 facet normal  0.000000e+000  0.000000e+000 -1.000000e+000
   outer loop
     vertex  3.298733e+000  3.060777e+000  0.000000e+000
     vertex  2.805704e+000  3.518242e+000  0.000000e+000
     vertex  1.250000e+001  6.500000e+000  0.000000e+000
   endloop
 endfacet
 facet normal  0.000000e+000  0.000000e+000 -1.000000e+000
   outer loop
     vertex  2.805704e+000  3.518242e+000  0.000000e+000
     vertex  2.250000e+000  3.897114e+000  0.000000e+000
     vertex  1.250000e+001  6.500000e+000  0.000000e+000
   endloop
 endfacet
 facet normal  0.000000e+000  0.000000e+000 -1.000000e+000
   outer loop
     vertex  2.250000e+000  3.897114e+000  0.000000e+000
     vertex  1.644035e+000  4.188932e+000  0.000000e+000
     vertex  1.250000e+001  6.500000e+000  0.000000e+000
   endloop
 endfacet
 facet normal  0.000000e+000  0.000000e+000 -1.000000e+000
   outer loop
     vertex  1.644035e+000  4.188932e+000  0.000000e+000
     vertex  1.001344e+000  4.387176e+000  0.000000e+000
     vertex  1.250000e+001  6.500000e+000  0.000000e+000
   endloop
 endfacet
 facet normal  0.000000e+000  0.000000e+000 -1.000000e+000
   outer loop
     vertex -1.250000e+001 -6.500000e+000  0.000000e+000
     vertex -1.001344e+000 -4.387176e+000  0.000000e+000
     vertex -3.362854e-001 -4.487417e+000  0.000000e+000
   endloop
 endfacet
 facet normal  0.000000e+000  0.000000e+000 -1.000000e+000
   outer loop
     vertex -1.250000e+001 -6.500000e+000  0.000000e+000
     vertex -1.250000e+001  6.500000e+000  0.000000e+000
     vertex -4.500000e+000 -1.143932e-014  0.000000e+000
   endloop
 endfacet
 facet normal  0.000000e+000  0.000000e+000 -1.000000e+000
   outer loop
     vertex  1.250000e+001 -6.500000e+000  0.000000e+000
     vertex  4.500000e+000  0.000000e+000  0.000000e+000
     vertex  1.250000e+001  6.500000e+000  0.000000e+000
   endloop
 endfacet
 facet normal  0.000000e+000  0.000000e+000 -1.000000e+000
   outer loop
     vertex -3.362854e-001  4.487417e+000  0.000000e+000
     vertex -1.250000e+001  6.500000e+000  0.000000e+000
     vertex  1.250000e+001  6.500000e+000  0.000000e+000
   endloop
 endfacet
 facet normal -0.000000e+000  0.000000e+000 -1.000000e+000
   outer loop
     vertex -4.449739e+000 -6.706902e-001  0.000000e+000
     vertex -1.250000e+001 -6.500000e+000  0.000000e+000
     vertex -4.500000e+000 -1.143932e-014  0.000000e+000
   endloop
 endfacet
 facet normal -0.000000e+000  0.000000e+000 -1.000000e+000
   outer loop
     vertex  3.362854e-001  4.487417e+000  0.000000e+000
     vertex -3.362854e-001  4.487417e+000  0.000000e+000
     vertex  1.250000e+001  6.500000e+000  0.000000e+000
   endloop
 endfacet
 facet normal  0.000000e+000  0.000000e+000 -1.000000e+000
   outer loop
     vertex  1.001344e+000  4.387176e+000  0.000000e+000
     vertex  3.362854e-001  4.487417e+000  0.000000e+000
     vertex  1.250000e+001  6.500000e+000  0.000000e+000
   endloop
 endfacet
 facet normal  0.000000e+000  0.000000e+000 -1.000000e+000
   outer loop
     vertex -1.001344e+000  4.387176e+000  0.000000e+000
     vertex -1.250000e+001  6.500000e+000  0.000000e+000
     vertex -3.362854e-001  4.487417e+000  0.000000e+000
   endloop
 endfacet
 facet normal  0.000000e+000  0.000000e+000 -1.000000e+000
   outer loop
     vertex -1.644035e+000  4.188932e+000  0.000000e+000
     vertex -1.250000e+001  6.500000e+000  0.000000e+000
     vertex -1.001344e+000  4.387176e+000  0.000000e+000
   endloop
 endfacet
 facet normal  0.000000e+000  0.000000e+000 -1.000000e+000
   outer loop
     vertex -4.500000e+000 -1.143932e-014  0.000000e+000
     vertex -1.250000e+001  6.500000e+000  0.000000e+000
     vertex -4.449739e+000  6.706902e-001  0.000000e+000
   endloop
 endfacet
 facet normal  0.000000e+000  0.000000e+000 -1.000000e+000
   outer loop
     vertex -4.449739e+000  6.706902e-001  0.000000e+000
     vertex -1.250000e+001  6.500000e+000  0.000000e+000
     vertex -4.300078e+000  1.326398e+000  0.000000e+000
   endloop
 endfacet
 facet normal  0.000000e+000  0.000000e+000 -1.000000e+000
   outer loop
     vertex -4.300078e+000  1.326398e+000  0.000000e+000
     vertex -1.250000e+001  6.500000e+000  0.000000e+000
     vertex -4.054360e+000  1.952477e+000  0.000000e+000
   endloop
 endfacet
 facet normal  0.000000e+000 -0.000000e+000  1.000000e+000
   outer loop
     vertex  8.126388e+000  0.000000e+000  2.000000e+001
     vertex  1.250000e+001  6.500000e+000  2.000000e+001
     vertex  3.752777e+000  6.500000e+000  2.000000e+001
   endloop
 endfacet
 facet normal -0.000000e+000  0.000000e+000  1.000000e+000
   outer loop
     vertex  8.126388e+000  0.000000e+000  2.000000e+001
     vertex  1.250000e+001 -6.500000e+000  2.000000e+001
     vertex  1.250000e+001  6.500000e+000  2.000000e+001
   endloop
 endfacet
 facet normal -0.000000e+000  0.000000e+000  1.000000e+000
   outer loop
     vertex  8.126388e+000  0.000000e+000  2.000000e+001
     vertex  3.752777e+000 -6.500000e+000  2.000000e+001
     vertex  1.250000e+001 -6.500000e+000  2.000000e+001
   endloop
 endfacet
 facet normal  0.000000e+000  0.000000e+000  1.000000e+000
   outer loop
     vertex  8.126388e+000  0.000000e+000  2.000000e+001
     vertex  7.505554e+000  0.000000e+000  2.000000e+001
     vertex  3.752777e+000 -6.500000e+000  2.000000e+001
   endloop
 endfacet
 facet normal  0.000000e+000  0.000000e+000  1.000000e+000
   outer loop
     vertex  8.126388e+000  0.000000e+000  2.000000e+001
     vertex  3.752777e+000  6.500000e+000  2.000000e+001
     vertex  7.505554e+000  0.000000e+000  2.000000e+001
   endloop
 endfacet
 facet normal -8.660254e-001 -5.000000e-001  0.000000e+000
   outer loop
     vertex  3.752777e+000  6.500000e+000  7.600000e+000
     vertex  7.505554e+000  0.000000e+000  7.600000e+000
     vertex  7.505554e+000  0.000000e+000  2.000000e+001
   endloop
 endfacet
 facet normal -8.660254e-001 -5.000000e-001  0.000000e+000
   outer loop
     vertex  3.752777e+000  6.500000e+000  7.600000e+000
     vertex  7.505554e+000  0.000000e+000  2.000000e+001
     vertex  3.752777e+000  6.500000e+000  2.000000e+001
   endloop
 endfacet
 facet normal  4.397404e-015 -8.251237e-015  1.000000e+000
   outer loop
     vertex  7.039551e-001  4.444598e+000  7.600000e+000
     vertex  3.752777e+000  6.500000e+000  7.600000e+000
     vertex -1.102182e-015  4.500000e+000  7.600000e+000
   endloop
 endfacet
 facet normal -1.340746e-015 -5.553552e-016  1.000000e+000
   outer loop
     vertex  4.279754e+000  1.390576e+000  7.600000e+000
     vertex  7.505554e+000  0.000000e+000  7.600000e+000
     vertex  4.009529e+000  2.042957e+000  7.600000e+000
   endloop
 endfacet
 facet normal  5.461400e-016  1.045530e-015  1.000000e+000
   outer loop
     vertex -3.752777e+000 -6.500000e+000  7.600000e+000
     vertex -1.774601e+000 -4.135310e+000  7.600000e+000
     vertex -2.380338e+000 -3.818899e+000  7.600000e+000
   endloop
 endfacet
 facet normal -8.351268e-016  9.243578e-016  1.000000e+000
   outer loop
     vertex  3.752777e+000 -6.500000e+000  7.600000e+000
     vertex  3.261568e+000 -3.100351e+000  7.600000e+000
     vertex  2.754477e+000 -3.558491e+000  7.600000e+000
   endloop
 endfacet
 facet normal -1.088702e-015  8.877192e-016  1.000000e+000
   outer loop
     vertex  3.261568e+000 -3.100351e+000  7.600000e+000
     vertex  3.752777e+000 -6.500000e+000  7.600000e+000
     vertex  3.693435e+000 -2.570707e+000  7.600000e+000
   endloop
 endfacet
 facet normal  7.072037e-016  9.630821e-016  1.000000e+000
   outer loop
     vertex -3.752777e+000 -6.500000e+000  7.600000e+000
     vertex -2.380338e+000 -3.818899e+000  7.600000e+000
     vertex -2.931176e+000 -3.414412e+000  7.600000e+000
   endloop
 endfacet
 facet normal -6.504992e-016  9.870174e-016  1.000000e+000
   outer loop
     vertex  3.752777e+000 -6.500000e+000  7.600000e+000
     vertex  2.754477e+000 -3.558491e+000  7.600000e+000
     vertex  2.183859e+000 -3.934560e+000  7.600000e+000
   endloop
 endfacet
 facet normal -1.530514e-015  8.836427e-016  1.000000e+000
   outer loop
     vertex  3.752777e+000 -6.500000e+000  7.600000e+000
     vertex  7.505554e+000  0.000000e+000  7.600000e+000
     vertex  4.040120e+000 -1.981774e+000  7.600000e+000
   endloop
 endfacet
 facet normal -1.497530e-015  8.815450e-016  1.000000e+000
   outer loop
     vertex  3.693435e+000 -2.570707e+000  7.600000e+000
     vertex  3.752777e+000 -6.500000e+000  7.600000e+000
     vertex  4.040120e+000 -1.981774e+000  7.600000e+000
   endloop
 endfacet
 facet normal  9.092762e-016  9.092762e-016  1.000000e+000
   outer loop
     vertex -3.752777e+000 -6.500000e+000  7.600000e+000
     vertex -2.931176e+000 -3.414412e+000  7.600000e+000
     vertex -3.414412e+000 -2.931176e+000  7.600000e+000
   endloop
 endfacet
 facet normal -4.967177e-016  1.081064e-015  1.000000e+000
   outer loop
     vertex  3.752777e+000 -6.500000e+000  7.600000e+000
     vertex  2.183859e+000 -3.934560e+000  7.600000e+000
     vertex  1.562874e+000 -4.219885e+000  7.600000e+000
   endloop
 endfacet
 facet normal -1.328706e-015  5.307502e-016  1.000000e+000
   outer loop
     vertex  4.040120e+000 -1.981774e+000  7.600000e+000
     vertex  7.505554e+000  0.000000e+000  7.600000e+000
     vertex  4.293627e+000 -1.347134e+000  7.600000e+000
   endloop
 endfacet
 facet normal  1.200647e-015  8.816509e-016  1.000000e+000
   outer loop
     vertex -3.752777e+000 -6.500000e+000  7.600000e+000
     vertex -3.414412e+000 -2.931176e+000  7.600000e+000
     vertex -3.818899e+000 -2.380338e+000  7.600000e+000
   endloop
 endfacet
 facet normal -3.497268e-016  1.222239e-015  1.000000e+000
   outer loop
     vertex  3.752777e+000 -6.500000e+000  7.600000e+000
     vertex  1.562874e+000 -4.219885e+000  7.600000e+000
     vertex  9.058433e-001 -4.407885e+000  7.600000e+000
   endloop
 endfacet
 facet normal -1.225362e-015  2.843507e-016  1.000000e+000
   outer loop
     vertex  4.293627e+000 -1.347134e+000  7.600000e+000
     vertex  7.505554e+000  0.000000e+000  7.600000e+000
     vertex  4.448107e+000 -6.814250e-001  7.600000e+000
   endloop
 endfacet
 facet normal -1.843283e-016  1.447312e-015  1.000000e+000
   outer loop
     vertex  3.752777e+000 -6.500000e+000  7.600000e+000
     vertex  9.058433e-001 -4.407885e+000  7.600000e+000
     vertex  2.279213e-001 -4.494224e+000  7.600000e+000
   endloop
 endfacet
 facet normal  0.000000e+000 -5.213653e-015  1.000000e+000
   outer loop
     vertex  4.448107e+000 -6.814250e-001  7.600000e+000
     vertex  7.505554e+000  0.000000e+000  7.600000e+000
     vertex  4.500000e+000  0.000000e+000  7.600000e+000
   endloop
 endfacet
 facet normal  1.536398e-015  8.870399e-016  1.000000e+000
   outer loop
     vertex -3.752777e+000 -6.500000e+000  7.600000e+000
     vertex -3.818899e+000 -2.380338e+000  7.600000e+000
     vertex -7.505554e+000  0.000000e+000  7.600000e+000
   endloop
 endfacet
 facet normal  1.454083e-015  7.595509e-016  1.000000e+000
   outer loop
     vertex -3.818899e+000 -2.380338e+000  7.600000e+000
     vertex -4.135310e+000 -1.774601e+000  7.600000e+000
     vertex -7.505554e+000  0.000000e+000  7.600000e+000
   endloop
 endfacet
 facet normal  1.285508e-015  4.394000e-016  1.000000e+000
   outer loop
     vertex -4.135310e+000 -1.774601e+000  7.600000e+000
     vertex -4.356347e+000 -1.127936e+000  7.600000e+000
     vertex -7.505554e+000  0.000000e+000  7.600000e+000
   endloop
 endfacet
 facet normal  1.205517e-015  2.160660e-016  1.000000e+000
   outer loop
     vertex -4.356347e+000 -1.127936e+000  7.600000e+000
     vertex -4.476912e+000 -4.552574e-001  7.600000e+000
     vertex -7.505554e+000  0.000000e+000  7.600000e+000
   endloop
 endfacet
 facet normal  1.177524e-015  2.983945e-017  1.000000e+000
   outer loop
     vertex -4.476912e+000 -4.552574e-001  7.600000e+000
     vertex -4.494224e+000  2.279213e-001  7.600000e+000
     vertex -7.505554e+000  0.000000e+000  7.600000e+000
   endloop
 endfacet
 facet normal  1.191266e-015 -1.517185e-016  1.000000e+000
   outer loop
     vertex -4.494224e+000  2.279213e-001  7.600000e+000
     vertex -4.407885e+000  9.058433e-001  7.600000e+000
     vertex -7.505554e+000  0.000000e+000  7.600000e+000
   endloop
 endfacet
 facet normal -6.153059e-016 -1.004088e-015  1.000000e+000
   outer loop
     vertex  2.042957e+000  4.009529e+000  7.600000e+000
     vertex  2.645034e+000  3.640576e+000  7.600000e+000
     vertex  3.752777e+000  6.500000e+000  7.600000e+000
   endloop
 endfacet
 facet normal  1.251628e-015 -3.581360e-016  1.000000e+000
   outer loop
     vertex -4.407885e+000  9.058433e-001  7.600000e+000
     vertex -4.219885e+000  1.562874e+000  7.600000e+000
     vertex -7.505554e+000  0.000000e+000  7.600000e+000
   endloop
 endfacet
 facet normal -7.973417e-016 -9.335672e-016  1.000000e+000
   outer loop
     vertex  2.645034e+000  3.640576e+000  7.600000e+000
     vertex  3.181981e+000  3.181981e+000  7.600000e+000
     vertex  3.752777e+000  6.500000e+000  7.600000e+000
   endloop
 endfacet
 facet normal  1.383685e-015 -6.357635e-016  1.000000e+000
   outer loop
     vertex -4.219885e+000  1.562874e+000  7.600000e+000
     vertex -3.934560e+000  2.183859e+000  7.600000e+000
     vertex -7.505554e+000  0.000000e+000  7.600000e+000
   endloop
 endfacet
 facet normal -1.043488e-015 -8.912229e-016  1.000000e+000
   outer loop
     vertex  3.181981e+000  3.181981e+000  7.600000e+000
     vertex  3.640576e+000  2.645034e+000  7.600000e+000
     vertex  3.752777e+000  6.500000e+000  7.600000e+000
   endloop
 endfacet
 facet normal -1.435715e-015 -8.798070e-016  1.000000e+000
   outer loop
     vertex  3.640576e+000  2.645034e+000  7.600000e+000
     vertex  4.009529e+000  2.042957e+000  7.600000e+000
     vertex  3.752777e+000  6.500000e+000  7.600000e+000
   endloop
 endfacet
 facet normal -1.533641e-015 -8.854482e-016  1.000000e+000
   outer loop
     vertex  4.009529e+000  2.042957e+000  7.600000e+000
     vertex  7.505554e+000  0.000000e+000  7.600000e+000
     vertex  3.752777e+000  6.500000e+000  7.600000e+000
   endloop
 endfacet
 facet normal  1.537877e-015 -8.878935e-016  1.000000e+000
   outer loop
     vertex -7.505554e+000  0.000000e+000  7.600000e+000
     vertex -3.934560e+000  2.183859e+000  7.600000e+000
     vertex -3.752777e+000  6.500000e+000  7.600000e+000
   endloop
 endfacet
 facet normal  0.000000e+000 -0.000000e+000  1.000000e+000
   outer loop
     vertex -1.102182e-015  4.500000e+000  7.600000e+000
     vertex  3.752777e+000  6.500000e+000  7.600000e+000
     vertex -3.752777e+000  6.500000e+000  7.600000e+000
   endloop
 endfacet
 facet normal -0.000000e+000  5.046790e-015  1.000000e+000
   outer loop
     vertex  4.500000e+000  0.000000e+000  7.600000e+000
     vertex  7.505554e+000  0.000000e+000  7.600000e+000
     vertex  4.444598e+000  7.039551e-001  7.600000e+000
   endloop
 endfacet
 facet normal  1.334206e-015 -8.793155e-016  1.000000e+000
   outer loop
     vertex -3.934560e+000  2.183859e+000  7.600000e+000
     vertex -3.558491e+000  2.754477e+000  7.600000e+000
     vertex -3.752777e+000  6.500000e+000  7.600000e+000
   endloop
 endfacet
 facet normal  9.928655e-016 -8.970213e-016  1.000000e+000
   outer loop
     vertex -3.558491e+000  2.754477e+000  7.600000e+000
     vertex -3.100351e+000  3.261568e+000  7.600000e+000
     vertex -3.752777e+000  6.500000e+000  7.600000e+000
   endloop
 endfacet
 facet normal  7.683123e-016 -9.422606e-016  1.000000e+000
   outer loop
     vertex -3.100351e+000  3.261568e+000  7.600000e+000
     vertex -2.570707e+000  3.693435e+000  7.600000e+000
     vertex -3.752777e+000  6.500000e+000  7.600000e+000
   endloop
 endfacet
 facet normal -4.600562e-016 -1.110674e-015  1.000000e+000
   outer loop
     vertex  2.042957e+000  4.009529e+000  7.600000e+000
     vertex  3.752777e+000  6.500000e+000  7.600000e+000
     vertex  1.390576e+000  4.279754e+000  7.600000e+000
   endloop
 endfacet
 facet normal  5.971209e-016 -1.014363e-015  1.000000e+000
   outer loop
     vertex -2.570707e+000  3.693435e+000  7.600000e+000
     vertex -1.981774e+000  4.040120e+000  7.600000e+000
     vertex -3.752777e+000  6.500000e+000  7.600000e+000
   endloop
 endfacet
 facet normal  4.480554e-016 -1.121683e-015  1.000000e+000
   outer loop
     vertex -1.981774e+000  4.040120e+000  7.600000e+000
     vertex -1.347134e+000  4.293627e+000  7.600000e+000
     vertex -3.752777e+000  6.500000e+000  7.600000e+000
   endloop
 endfacet
 facet normal  2.982056e-016 -1.285067e-015  1.000000e+000
   outer loop
     vertex -1.347134e+000  4.293627e+000  7.600000e+000
     vertex -6.814250e-001  4.448107e+000  7.600000e+000
     vertex -3.752777e+000  6.500000e+000  7.600000e+000
   endloop
 endfacet
 facet normal -4.561805e-015 -8.559718e-015  1.000000e+000
   outer loop
     vertex -6.814250e-001  4.448107e+000  7.600000e+000
     vertex -1.102182e-015  4.500000e+000  7.600000e+000
     vertex -3.752777e+000  6.500000e+000  7.600000e+000
   endloop
 endfacet
 facet normal -1.228483e-015 -2.949327e-016  1.000000e+000
   outer loop
     vertex  4.444598e+000  7.039551e-001  7.600000e+000
     vertex  7.505554e+000  0.000000e+000  7.600000e+000
     vertex  4.279754e+000  1.390576e+000  7.600000e+000
   endloop
 endfacet
 facet normal  4.273552e-017  1.686428e-015  1.000000e+000
   outer loop
     vertex  2.279213e-001 -4.494224e+000  7.600000e+000
     vertex -4.552574e-001 -4.476912e+000  7.600000e+000
     vertex -3.752777e+000 -6.500000e+000  7.600000e+000
   endloop
 endfacet
 facet normal  2.435848e-016  1.359055e-015  1.000000e+000
   outer loop
     vertex -4.552574e-001 -4.476912e+000  7.600000e+000
     vertex -1.127936e+000 -4.356347e+000  7.600000e+000
     vertex -3.752777e+000 -6.500000e+000  7.600000e+000
   endloop
 endfacet
 facet normal -3.059996e-016 -1.274580e-015  1.000000e+000
   outer loop
     vertex  1.390576e+000  4.279754e+000  7.600000e+000
     vertex  3.752777e+000  6.500000e+000  7.600000e+000
     vertex  7.039551e-001  4.444598e+000  7.600000e+000
   endloop
 endfacet
 facet normal  0.000000e+000  1.771242e-015  1.000000e+000
   outer loop
     vertex  3.752777e+000 -6.500000e+000  7.600000e+000
     vertex  2.279213e-001 -4.494224e+000  7.600000e+000
     vertex -3.752777e+000 -6.500000e+000  7.600000e+000
   endloop
 endfacet
 facet normal  3.993471e-016  1.168329e-015  1.000000e+000
   outer loop
     vertex -3.752777e+000 -6.500000e+000  7.600000e+000
     vertex -1.127936e+000 -4.356347e+000  7.600000e+000
     vertex -1.774601e+000 -4.135310e+000  7.600000e+000
   endloop
 endfacet
 facet normal  8.660254e-001 -5.000000e-001  0.000000e+000
   outer loop
     vertex -7.505554e+000  0.000000e+000  7.600000e+000
     vertex -3.752777e+000  6.500000e+000  7.600000e+000
     vertex -3.752777e+000  6.500000e+000  2.000000e+001
   endloop
 endfacet
 facet normal  8.660254e-001 -5.000000e-001  0.000000e+000
   outer loop
     vertex -7.505554e+000  0.000000e+000  7.600000e+000
     vertex -3.752777e+000  6.500000e+000  2.000000e+001
     vertex -7.505554e+000  0.000000e+000  2.000000e+001
   endloop
 endfacet
 facet normal  0.000000e+000 -0.000000e+000  1.000000e+000
   outer loop
     vertex -8.126388e+000 -1.776357e-015  2.000000e+001
     vertex -3.752777e+000  6.500000e+000  2.000000e+001
     vertex -1.250000e+001  6.500000e+000  2.000000e+001
   endloop
 endfacet
 facet normal  0.000000e+000  0.000000e+000  1.000000e+000
   outer loop
     vertex -8.126388e+000 -1.776357e-015  2.000000e+001
     vertex -7.505554e+000  0.000000e+000  2.000000e+001
     vertex -3.752777e+000  6.500000e+000  2.000000e+001
   endloop
 endfacet
 facet normal -0.000000e+000 -0.000000e+000  1.000000e+000
   outer loop
     vertex -8.126388e+000 -1.776357e-015  2.000000e+001
     vertex -3.752777e+000 -6.500000e+000  2.000000e+001
     vertex -7.505554e+000  0.000000e+000  2.000000e+001
   endloop
 endfacet
 facet normal -0.000000e+000  0.000000e+000  1.000000e+000
   outer loop
     vertex -8.126388e+000 -1.776357e-015  2.000000e+001
     vertex -1.250000e+001 -6.500000e+000  2.000000e+001
     vertex -3.752777e+000 -6.500000e+000  2.000000e+001
   endloop
 endfacet
 facet normal  0.000000e+000  0.000000e+000  1.000000e+000
   outer loop
     vertex -8.126388e+000 -1.776357e-015  2.000000e+001
     vertex -1.250000e+001  6.500000e+000  2.000000e+001
     vertex -1.250000e+001 -6.500000e+000  2.000000e+001
   endloop
 endfacet
 facet normal -1.000000e+000  0.000000e+000  0.000000e+000
   outer loop
     vertex -1.250000e+001  6.500000e+000  0.000000e+000
     vertex -1.250000e+001 -6.500000e+000  0.000000e+000
     vertex -1.250000e+001 -6.500000e+000  2.000000e+001
   endloop
 endfacet
 facet normal -1.000000e+000  0.000000e+000  0.000000e+000
   outer loop
     vertex -1.250000e+001  6.500000e+000  0.000000e+000
     vertex -1.250000e+001 -6.500000e+000  2.000000e+001
     vertex -1.250000e+001  6.500000e+000  2.000000e+001
   endloop
 endfacet
 facet normal  8.660254e-001  5.000000e-001 -0.000000e+000
   outer loop
     vertex -3.752777e+000 -6.500000e+000  7.600000e+000
     vertex -7.505554e+000  0.000000e+000  7.600000e+000
     vertex -7.505554e+000  0.000000e+000  2.000000e+001
   endloop
 endfacet
 facet normal  8.660254e-001  5.000000e-001  0.000000e+000
   outer loop
     vertex -3.752777e+000 -6.500000e+000  7.600000e+000
     vertex -7.505554e+000  0.000000e+000  2.000000e+001
     vertex -3.752777e+000 -6.500000e+000  2.000000e+001
   endloop
 endfacet
 facet normal -8.660254e-001  5.000000e-001  0.000000e+000
   outer loop
     vertex  7.505554e+000  0.000000e+000  7.600000e+000
     vertex  3.752777e+000 -6.500000e+000  7.600000e+000
     vertex  3.752777e+000 -6.500000e+000  2.000000e+001
   endloop
 endfacet
 facet normal -8.660254e-001  5.000000e-001  0.000000e+000
   outer loop
     vertex  7.505554e+000  0.000000e+000  7.600000e+000
     vertex  3.752777e+000 -6.500000e+000  2.000000e+001
     vertex  7.505554e+000  0.000000e+000  2.000000e+001
   endloop
 endfacet
 facet normal -9.972038e-001 -7.473009e-002  0.000000e+000
   outer loop
     vertex  4.449739e+000  6.706902e-001  0.000000e+000
     vertex  4.500000e+000  0.000000e+000  0.000000e+000
     vertex  4.500000e+000  0.000000e+000  7.600000e+000
   endloop
 endfacet
 facet normal -9.969173e-001 -7.845909e-002 -3.309741e-004
   outer loop
     vertex  4.449739e+000  6.706902e-001  0.000000e+000
     vertex  4.500000e+000  0.000000e+000  7.600000e+000
     vertex  4.444598e+000  7.039551e-001  7.600000e+000
   endloop
 endfacet
 facet normal -9.723697e-001 -2.334453e-001 -6.289034e-004
   outer loop
     vertex  4.300078e+000  1.326398e+000  0.000000e+000
     vertex  4.444598e+000  7.039551e-001  7.600000e+000
     vertex  4.279754e+000  1.390576e+000  7.600000e+000
   endloop
 endfacet
 facet normal -9.749279e-001 -2.225209e-001  3.144540e-004
   outer loop
     vertex  4.300078e+000  1.326398e+000  0.000000e+000
     vertex  4.449739e+000  6.706902e-001  0.000000e+000
     vertex  4.444598e+000  7.039551e-001  7.600000e+000
   endloop
 endfacet
 facet normal -9.238792e-001 -3.826833e-001 -8.937714e-004
   outer loop
     vertex  4.054360e+000  1.952477e+000  0.000000e+000
     vertex  4.279754e+000  1.390576e+000  7.600000e+000
     vertex  4.009529e+000  2.042957e+000  7.600000e+000
   endloop
 endfacet
 facet normal -9.308736e-001 -3.653410e-001  5.958547e-004
   outer loop
     vertex  4.054360e+000  1.952477e+000  0.000000e+000
     vertex  4.300078e+000  1.326398e+000  0.000000e+000
     vertex  4.279754e+000  1.390576e+000  7.600000e+000
   endloop
 endfacet
 facet normal -8.660251e-001 -4.999998e-001  8.441864e-004
   outer loop
     vertex  3.718074e+000  2.534940e+000  0.000000e+000
     vertex  4.054360e+000  1.952477e+000  0.000000e+000
     vertex  4.009529e+000  2.042957e+000  7.600000e+000
   endloop
 endfacet
 facet normal -8.526396e-001 -5.224982e-001 -1.125563e-003
   outer loop
     vertex  3.718074e+000  2.534940e+000  0.000000e+000
     vertex  4.009529e+000  2.042957e+000  7.600000e+000
     vertex  3.640576e+000  2.645034e+000  7.600000e+000
   endloop
 endfacet
 facet normal -7.818310e-001 -6.234895e-001  1.059435e-003
   outer loop
     vertex  3.298733e+000  3.060777e+000  0.000000e+000
     vertex  3.718074e+000  2.534940e+000  0.000000e+000
     vertex  3.640576e+000  2.645034e+000  7.600000e+000
   endloop
 endfacet
 facet normal -7.604053e-001 -6.494475e-001 -1.324266e-003
   outer loop
     vertex  3.298733e+000  3.060777e+000  0.000000e+000
     vertex  3.640576e+000  2.645034e+000  7.600000e+000
     vertex  3.181981e+000  3.181981e+000  7.600000e+000
   endloop
 endfacet
 facet normal -6.801722e-001 -7.330513e-001  1.241589e-003
   outer loop
     vertex  2.805704e+000  3.518242e+000  0.000000e+000
     vertex  3.298733e+000  3.060777e+000  0.000000e+000
     vertex  3.181981e+000  3.181981e+000  7.600000e+000
   endloop
 endfacet
 facet normal -6.494473e-001 -7.604051e-001 -1.489868e-003
   outer loop
     vertex  2.805704e+000  3.518242e+000  0.000000e+000
     vertex  3.181981e+000  3.181981e+000  7.600000e+000
     vertex  2.645034e+000  3.640576e+000  7.600000e+000
   endloop
 endfacet
 facet normal -5.633195e-001 -8.262380e-001  1.390638e-003
   outer loop
     vertex  2.250000e+000  3.897114e+000  0.000000e+000
     vertex  2.805704e+000  3.518242e+000  0.000000e+000
     vertex  2.645034e+000  3.640576e+000  7.600000e+000
   endloop
 endfacet
 facet normal -5.224979e-001 -8.526390e-001 -1.622361e-003
   outer loop
     vertex  2.250000e+000  3.897114e+000  0.000000e+000
     vertex  2.645034e+000  3.640576e+000  7.600000e+000
     vertex  2.042957e+000  4.009529e+000  7.600000e+000
   endloop
 endfacet
 facet normal -4.338832e-001 -9.009678e-001  1.506573e-003
   outer loop
     vertex  1.644035e+000  4.188932e+000  0.000000e+000
     vertex  2.250000e+000  3.897114e+000  0.000000e+000
     vertex  2.042957e+000  4.009529e+000  7.600000e+000
   endloop
 endfacet
 facet normal -3.826829e-001 -9.238782e-001 -1.721737e-003
   outer loop
     vertex  1.644035e+000  4.188932e+000  0.000000e+000
     vertex  2.042957e+000  4.009529e+000  7.600000e+000
     vertex  1.390576e+000  4.279754e+000  7.600000e+000
   endloop
 endfacet
 facet normal -2.947548e-001 -9.555716e-001  1.589389e-003
   outer loop
     vertex  1.001344e+000  4.387176e+000  0.000000e+000
     vertex  1.644035e+000  4.188932e+000  0.000000e+000
     vertex  1.390576e+000  4.279754e+000  7.600000e+000
   endloop
 endfacet
 facet normal -2.334450e-001 -9.723684e-001 -1.787991e-003
   outer loop
     vertex  1.001344e+000  4.387176e+000  0.000000e+000
     vertex  1.390576e+000  4.279754e+000  7.600000e+000
     vertex  7.039551e-001  4.444598e+000  7.600000e+000
   endloop
 endfacet
 facet normal -1.490421e-001 -9.888295e-001  1.639080e-003
   outer loop
     vertex  3.362854e-001  4.487417e+000  0.000000e+000
     vertex  1.001344e+000  4.387176e+000  0.000000e+000
     vertex  7.039551e-001  4.444598e+000  7.600000e+000
   endloop
 endfacet
 facet normal -7.845897e-002 -9.969157e-001 -1.821119e-003
   outer loop
     vertex  3.362854e-001  4.487417e+000  0.000000e+000
     vertex  7.039551e-001  4.444598e+000  7.600000e+000
     vertex -1.102182e-015  4.500000e+000  7.600000e+000
   endloop
 endfacet
 facet normal  1.320570e-015 -9.999986e-001  1.655644e-003
   outer loop
     vertex -3.362854e-001  4.487417e+000  0.000000e+000
     vertex  3.362854e-001  4.487417e+000  0.000000e+000
     vertex -1.102182e-015  4.500000e+000  7.600000e+000
   endloop
 endfacet
 facet normal  7.593300e-002 -9.971115e-001 -1.709026e-003
   outer loop
     vertex -6.814250e-001  4.448107e+000  7.600000e+000
     vertex -3.362854e-001  4.487417e+000  0.000000e+000
     vertex -1.102182e-015  4.500000e+000  7.600000e+000
   endloop
 endfacet
 facet normal  1.490421e-001 -9.888295e-001  1.653920e-003
   outer loop
     vertex -1.001344e+000  4.387176e+000  0.000000e+000
     vertex -3.362854e-001  4.487417e+000  0.000000e+000
     vertex -6.814250e-001  4.448107e+000  7.600000e+000
   endloop
 endfacet
 facet normal  2.260477e-001 -9.741147e-001 -1.705578e-003
   outer loop
     vertex -1.347134e+000  4.293627e+000  7.600000e+000
     vertex -1.001344e+000  4.387176e+000  0.000000e+000
     vertex -6.814250e-001  4.448107e+000  7.600000e+000
   endloop
 endfacet
 facet normal  2.947548e-001 -9.555715e-001  1.648750e-003
   outer loop
     vertex -1.644035e+000  4.188932e+000  0.000000e+000
     vertex -1.001344e+000  4.387176e+000  0.000000e+000
     vertex -1.347134e+000  4.293627e+000  7.600000e+000
   endloop
 endfacet
 facet normal  3.709491e-001 -9.286517e-001 -1.698684e-003
   outer loop
     vertex -1.981774e+000  4.040120e+000  7.600000e+000
     vertex -1.644035e+000  4.188932e+000  0.000000e+000
     vertex -1.347134e+000  4.293627e+000  7.600000e+000
   endloop
 endfacet
 facet normal  4.338832e-001 -9.009677e-001  1.640131e-003
   outer loop
     vertex -2.250000e+000  3.897114e+000  0.000000e+000
     vertex -1.644035e+000  4.188932e+000  0.000000e+000
     vertex -1.981774e+000  4.040120e+000  7.600000e+000
   endloop
 endfacet
 facet normal  5.072951e-001 -8.617708e-001 -1.688342e-003
   outer loop
     vertex -2.570707e+000  3.693435e+000  7.600000e+000
     vertex -2.250000e+000  3.897114e+000  0.000000e+000
     vertex -1.981774e+000  4.040120e+000  7.600000e+000
   endloop
 endfacet
 facet normal  5.633193e-001 -8.262377e-001  1.628066e-003
   outer loop
     vertex -2.805704e+000  3.518242e+000  0.000000e+000
     vertex -2.250000e+000  3.897114e+000  0.000000e+000
     vertex -2.570707e+000  3.693435e+000  7.600000e+000
   endloop
 endfacet
 facet normal  6.319412e-001 -7.750146e-001 -1.674553e-003
   outer loop
     vertex -3.100351e+000  3.261568e+000  7.600000e+000
     vertex -2.805704e+000  3.518242e+000  0.000000e+000
     vertex -2.570707e+000  3.693435e+000  7.600000e+000
   endloop
 endfacet
 facet normal  6.801719e-001 -7.330509e-001  1.612554e-003
   outer loop
     vertex -3.298733e+000  3.060777e+000  0.000000e+000
     vertex -2.805704e+000  3.518242e+000  0.000000e+000
     vertex -3.100351e+000  3.261568e+000  7.600000e+000
   endloop
 endfacet
 facet normal  7.420126e-001 -6.703839e-001 -1.657317e-003
   outer loop
     vertex -3.558491e+000  2.754477e+000  7.600000e+000
     vertex -3.298733e+000  3.060777e+000  0.000000e+000
     vertex -3.100351e+000  3.261568e+000  7.600000e+000
   endloop
 endfacet
 facet normal  7.818305e-001 -6.234890e-001  1.593594e-003
   outer loop
     vertex -3.718074e+000  2.534940e+000  0.000000e+000
     vertex -3.298733e+000  3.060777e+000  0.000000e+000
     vertex -3.558491e+000  2.754477e+000  7.600000e+000
   endloop
 endfacet
 facet normal  8.349707e-001 -5.502920e-001 -1.636635e-003
   outer loop
     vertex -3.934560e+000  2.183859e+000  7.600000e+000
     vertex -3.718074e+000  2.534940e+000  0.000000e+000
     vertex -3.558491e+000  2.754477e+000  7.600000e+000
   endloop
 endfacet
 facet normal  8.660243e-001 -4.999994e-001  1.571188e-003
   outer loop
     vertex -4.054360e+000  1.952477e+000  0.000000e+000
     vertex -3.718074e+000  2.534940e+000  0.000000e+000
     vertex -3.934560e+000  2.183859e+000  7.600000e+000
   endloop
 endfacet
 facet normal  9.086716e-001 -4.175084e-001 -1.612505e-003
   outer loop
     vertex -4.219885e+000  1.562874e+000  7.600000e+000
     vertex -4.054360e+000  1.952477e+000  0.000000e+000
     vertex -3.934560e+000  2.183859e+000  7.600000e+000
   endloop
 endfacet
 facet normal  9.308726e-001 -3.653406e-001  1.545335e-003
   outer loop
     vertex -4.300078e+000  1.326398e+000  0.000000e+000
     vertex -4.054360e+000  1.952477e+000  0.000000e+000
     vertex -4.219885e+000  1.562874e+000  7.600000e+000
   endloop
 endfacet
 facet normal  9.614155e-001 -2.750958e-001 -1.584928e-003
   outer loop
     vertex -4.407885e+000  9.058433e-001  7.600000e+000
     vertex -4.300078e+000  1.326398e+000  0.000000e+000
     vertex -4.219885e+000  1.562874e+000  7.600000e+000
   endloop
 endfacet
 facet normal  9.749268e-001 -2.225207e-001  1.516035e-003
   outer loop
     vertex -4.449739e+000  6.706902e-001  0.000000e+000
     vertex -4.300078e+000  1.326398e+000  0.000000e+000
     vertex -4.407885e+000  9.058433e-001  7.600000e+000
   endloop
 endfacet
 facet normal  9.919860e-001 -1.263384e-001 -1.553905e-003
   outer loop
     vertex -4.494224e+000  2.279213e-001  7.600000e+000
     vertex -4.449739e+000  6.706902e-001  0.000000e+000
     vertex -4.407885e+000  9.058433e-001  7.600000e+000
   endloop
 endfacet
 facet normal  9.972027e-001 -7.473001e-002  1.483289e-003
   outer loop
     vertex -4.500000e+000 -1.143932e-014  0.000000e+000
     vertex -4.449739e+000  6.706902e-001  0.000000e+000
     vertex -4.494224e+000  2.279213e-001  7.600000e+000
   endloop
 endfacet
 facet normal  9.996779e-001  2.533269e-002 -1.519436e-003
   outer loop
     vertex -4.476912e+000 -4.552574e-001  7.600000e+000
     vertex -4.500000e+000 -1.143932e-014  0.000000e+000
     vertex -4.494224e+000  2.279213e-001  7.600000e+000
   endloop
 endfacet
 facet normal  9.972028e-001  7.473002e-002  1.447097e-003
   outer loop
     vertex -4.449739e+000 -6.706902e-001  0.000000e+000
     vertex -4.500000e+000 -1.143932e-014  0.000000e+000
     vertex -4.476912e+000 -4.552574e-001  7.600000e+000
   endloop
 endfacet
 facet normal  9.843139e-001  1.764196e-001 -1.481521e-003
   outer loop
     vertex -4.356347e+000 -1.127936e+000  7.600000e+000
     vertex -4.449739e+000 -6.706902e-001  0.000000e+000
     vertex -4.476912e+000 -4.552574e-001  7.600000e+000
   endloop
 endfacet
 facet normal  9.749269e-001  2.225207e-001  1.407458e-003
   outer loop
     vertex -4.300078e+000 -1.326398e+000  0.000000e+000
     vertex -4.449739e+000 -6.706902e-001  0.000000e+000
     vertex -4.356347e+000 -1.127936e+000  7.600000e+000
   endloop
 endfacet
 facet normal  9.462484e-001  3.234377e-001 -1.440159e-003
   outer loop
     vertex -4.135310e+000 -1.774601e+000  7.600000e+000
     vertex -4.300078e+000 -1.326398e+000  0.000000e+000
     vertex -4.356347e+000 -1.127936e+000  7.600000e+000
   endloop
 endfacet
 facet normal  9.308729e-001  3.653407e-001  1.364374e-003
   outer loop
     vertex -4.054360e+000 -1.952477e+000  0.000000e+000
     vertex -4.300078e+000 -1.326398e+000  0.000000e+000
     vertex -4.135310e+000 -1.774601e+000  7.600000e+000
   endloop
 endfacet
 facet normal  8.863592e-001  4.629962e-001 -1.395352e-003
   outer loop
     vertex -3.818899e+000 -2.380338e+000  7.600000e+000
     vertex -4.054360e+000 -1.952477e+000  0.000000e+000
     vertex -4.135310e+000 -1.774601e+000  7.600000e+000
   endloop
 endfacet
 facet normal  8.660247e-001  4.999996e-001  1.317844e-003
   outer loop
     vertex -3.718074e+000 -2.534940e+000  0.000000e+000
     vertex -4.054360e+000 -1.952477e+000  0.000000e+000
     vertex -3.818899e+000 -2.380338e+000  7.600000e+000
   endloop
 endfacet
 facet normal  8.060275e-001  5.918765e-001 -1.347099e-003
   outer loop
     vertex -3.414412e+000 -2.931176e+000  7.600000e+000
     vertex -3.718074e+000 -2.534940e+000  0.000000e+000
     vertex -3.818899e+000 -2.380338e+000  7.600000e+000
   endloop
 endfacet
 facet normal  7.818309e-001  6.234893e-001  1.267869e-003
   outer loop
     vertex -3.298733e+000 -3.060777e+000  0.000000e+000
     vertex -3.718074e+000 -2.534940e+000  0.000000e+000
     vertex -3.414412e+000 -2.931176e+000  7.600000e+000
   endloop
 endfacet
 facet normal  7.071062e-001  7.071062e-001 -1.295402e-003
   outer loop
     vertex -2.931176e+000 -3.414412e+000  7.600000e+000
     vertex -3.298733e+000 -3.060777e+000  0.000000e+000
     vertex -3.414412e+000 -2.931176e+000  7.600000e+000
   endloop
 endfacet
 facet normal  6.801722e-001  7.330513e-001  1.214448e-003
   outer loop
     vertex -2.805704e+000 -3.518242e+000  0.000000e+000
     vertex -3.298733e+000 -3.060777e+000  0.000000e+000
     vertex -2.931176e+000 -3.414412e+000  7.600000e+000
   endloop
 endfacet
 facet normal  5.918766e-001  8.060276e-001 -1.240259e-003
   outer loop
     vertex -2.380338e+000 -3.818899e+000  7.600000e+000
     vertex -2.805704e+000 -3.518242e+000  0.000000e+000
     vertex -2.931176e+000 -3.414412e+000  7.600000e+000
   endloop
 endfacet
 facet normal  5.633197e-001  8.262382e-001  1.157583e-003
   outer loop
     vertex -2.250000e+000 -3.897114e+000  0.000000e+000
     vertex -2.805704e+000 -3.518242e+000  0.000000e+000
     vertex -2.380338e+000 -3.818899e+000  7.600000e+000
   endloop
 endfacet
 facet normal  4.629963e-001  8.863594e-001 -1.181672e-003
   outer loop
     vertex -1.774601e+000 -4.135310e+000  7.600000e+000
     vertex -2.250000e+000 -3.897114e+000  0.000000e+000
     vertex -2.380338e+000 -3.818899e+000  7.600000e+000
   endloop
 endfacet
 facet normal  4.338835e-001  9.009683e-001  1.097274e-003
   outer loop
     vertex -1.644035e+000 -4.188932e+000  0.000000e+000
     vertex -2.250000e+000 -3.897114e+000  0.000000e+000
     vertex -1.774601e+000 -4.135310e+000  7.600000e+000
   endloop
 endfacet
 facet normal  3.234378e-001  9.462488e-001 -1.119640e-003
   outer loop
     vertex -1.127936e+000 -4.356347e+000  7.600000e+000
     vertex -1.644035e+000 -4.188932e+000  0.000000e+000
     vertex -1.774601e+000 -4.135310e+000  7.600000e+000
   endloop
 endfacet
 facet normal  2.947550e-001  9.555723e-001  1.033521e-003
   outer loop
     vertex -1.001344e+000 -4.387176e+000  0.000000e+000
     vertex -1.644035e+000 -4.188932e+000  0.000000e+000
     vertex -1.127936e+000 -4.356347e+000  7.600000e+000
   endloop
 endfacet
 facet normal  1.764197e-001  9.843145e-001 -1.054165e-003
   outer loop
     vertex -4.552574e-001 -4.476912e+000  7.600000e+000
     vertex -1.001344e+000 -4.387176e+000  0.000000e+000
     vertex -1.127936e+000 -4.356347e+000  7.600000e+000
   endloop
 endfacet
 facet normal  1.490422e-001  9.888304e-001  9.663235e-004
   outer loop
     vertex -3.362854e-001 -4.487417e+000  0.000000e+000
     vertex -1.001344e+000 -4.387176e+000  0.000000e+000
     vertex -4.552574e-001 -4.476912e+000  7.600000e+000
   endloop
 endfacet
 facet normal  2.533270e-002  9.996786e-001 -9.852464e-004
   outer loop
     vertex  2.279213e-001 -4.494224e+000  7.600000e+000
     vertex -3.362854e-001 -4.487417e+000  0.000000e+000
     vertex -4.552574e-001 -4.476912e+000  7.600000e+000
   endloop
 endfacet
 facet normal -1.320572e-015  9.999996e-001  8.956831e-004
   outer loop
     vertex  3.362854e-001 -4.487417e+000  0.000000e+000
     vertex -3.362854e-001 -4.487417e+000  0.000000e+000
     vertex  2.279213e-001 -4.494224e+000  7.600000e+000
   endloop
 endfacet
 facet normal -1.263385e-001  9.919868e-001 -9.128845e-004
   outer loop
     vertex  9.058433e-001 -4.407885e+000  7.600000e+000
     vertex  3.362854e-001 -4.487417e+000  0.000000e+000
     vertex  2.279213e-001 -4.494224e+000  7.600000e+000
   endloop
 endfacet
 facet normal -1.490422e-001  9.888305e-001  8.215999e-004
   outer loop
     vertex  1.001344e+000 -4.387176e+000  0.000000e+000
     vertex  3.362854e-001 -4.487417e+000  0.000000e+000
     vertex  9.058433e-001 -4.407885e+000  7.600000e+000
   endloop
 endfacet
 facet normal -2.750960e-001  9.614164e-001 -8.370801e-004
   outer loop
     vertex  1.562874e+000 -4.219885e+000  7.600000e+000
     vertex  1.001344e+000 -4.387176e+000  0.000000e+000
     vertex  9.058433e-001 -4.407885e+000  7.600000e+000
   endloop
 endfacet
 facet normal -2.947551e-001  9.555725e-001  7.440743e-004
   outer loop
     vertex  1.644035e+000 -4.188932e+000  0.000000e+000
     vertex  1.001344e+000 -4.387176e+000  0.000000e+000
     vertex  1.562874e+000 -4.219885e+000  7.600000e+000
   endloop
 endfacet
 facet normal -4.175089e-001  9.086725e-001 -7.578334e-004
   outer loop
     vertex  2.183859e+000 -3.934560e+000  7.600000e+000
     vertex  1.644035e+000 -4.188932e+000  0.000000e+000
     vertex  1.562874e+000 -4.219885e+000  7.600000e+000
   endloop
 endfacet
 facet normal -4.338836e-001  9.009687e-001  6.631067e-004
   outer loop
     vertex  2.250000e+000 -3.897114e+000  0.000000e+000
     vertex  1.644035e+000 -4.188932e+000  0.000000e+000
     vertex  2.183859e+000 -3.934560e+000  7.600000e+000
   endloop
 endfacet
 facet normal -5.502926e-001  8.349716e-001 -6.751450e-004
   outer loop
     vertex  2.754477e+000 -3.558491e+000  7.600000e+000
     vertex  2.250000e+000 -3.897114e+000  0.000000e+000
     vertex  2.183859e+000 -3.934560e+000  7.600000e+000
   endloop
 endfacet
 facet normal -5.633200e-001  8.262386e-001  5.786976e-004
   outer loop
     vertex  2.805704e+000 -3.518242e+000  0.000000e+000
     vertex  2.250000e+000 -3.897114e+000  0.000000e+000
     vertex  2.754477e+000 -3.558491e+000  7.600000e+000
   endloop
 endfacet
 facet normal -6.703847e-001  7.420135e-001 -5.890153e-004
   outer loop
     vertex  3.261568e+000 -3.100351e+000  7.600000e+000
     vertex  2.805704e+000 -3.518242e+000  0.000000e+000
     vertex  2.754477e+000 -3.558491e+000  7.600000e+000
   endloop
 endfacet
 facet normal -6.801727e-001  7.330518e-001  4.908474e-004
   outer loop
     vertex  3.298733e+000 -3.060777e+000  0.000000e+000
     vertex  2.805704e+000 -3.518242e+000  0.000000e+000
     vertex  3.261568e+000 -3.100351e+000  7.600000e+000
   endloop
 endfacet
 facet normal -7.750156e-001  6.319420e-001 -4.994448e-004
   outer loop
     vertex  3.693435e+000 -2.570707e+000  7.600000e+000
     vertex  3.298733e+000 -3.060777e+000  0.000000e+000
     vertex  3.261568e+000 -3.100351e+000  7.600000e+000
   endloop
 endfacet
 facet normal -7.818314e-001  6.234898e-001  3.995568e-004
   outer loop
     vertex  3.718074e+000 -2.534940e+000  0.000000e+000
     vertex  3.298733e+000 -3.060777e+000  0.000000e+000
     vertex  3.693435e+000 -2.570707e+000  7.600000e+000
   endloop
 endfacet
 facet normal -8.617719e-001  5.072957e-001 -4.064341e-004
   outer loop
     vertex  4.040120e+000 -1.981774e+000  7.600000e+000
     vertex  3.718074e+000 -2.534940e+000  0.000000e+000
     vertex  3.693435e+000 -2.570707e+000  7.600000e+000
   endloop
 endfacet
 facet normal -8.660254e-001  5.000000e-001  3.048261e-004
   outer loop
     vertex  4.054360e+000 -1.952477e+000  0.000000e+000
     vertex  3.718074e+000 -2.534940e+000  0.000000e+000
     vertex  4.040120e+000 -1.981774e+000  7.600000e+000
   endloop
 endfacet
 facet normal -9.286530e-001  3.709496e-001 -3.099837e-004
   outer loop
     vertex  4.293627e+000 -1.347134e+000  7.600000e+000
     vertex  4.054360e+000 -1.952477e+000  0.000000e+000
     vertex  4.040120e+000 -1.981774e+000  7.600000e+000
   endloop
 endfacet
 facet normal -9.308737e-001  3.653410e-001  2.066561e-004
   outer loop
     vertex  4.300078e+000 -1.326398e+000  0.000000e+000
     vertex  4.054360e+000 -1.952477e+000  0.000000e+000
     vertex  4.293627e+000 -1.347134e+000  7.600000e+000
   endloop
 endfacet
 facet normal -9.741161e-001  2.260481e-001 -2.100942e-004
   outer loop
     vertex  4.448107e+000 -6.814250e-001  7.600000e+000
     vertex  4.300078e+000 -1.326398e+000  0.000000e+000
     vertex  4.293627e+000 -1.347134e+000  7.600000e+000
   endloop
 endfacet
 facet normal -9.749279e-001  2.225209e-001  1.050472e-004
   outer loop
     vertex  4.449739e+000 -6.706902e-001  0.000000e+000
     vertex  4.300078e+000 -1.326398e+000  0.000000e+000
     vertex  4.448107e+000 -6.814250e-001  7.600000e+000
   endloop
 endfacet
 facet normal -9.971129e-001  7.593311e-002 -1.067661e-004
   outer loop
     vertex  4.500000e+000  0.000000e+000  7.600000e+000
     vertex  4.449739e+000 -6.706902e-001  0.000000e+000
     vertex  4.448107e+000 -6.814250e-001  7.600000e+000
   endloop
 endfacet
 facet normal -9.972038e-001  7.473009e-002  0.000000e+000
   outer loop
     vertex  4.500000e+000  0.000000e+000  0.000000e+000
     vertex  4.449739e+000 -6.706902e-001  0.000000e+000
     vertex  4.500000e+000  0.000000e+000  7.600000e+000
   endloop
 endfacet
endsolid
