solid
 facet normal  1.000000e+000  0.000000e+000  0.000000e+000
   outer loop
     vertex  1.250000e+001 -6.500000e+000  0.000000e+000
     vertex  1.250000e+001  6.500000e+000  0.000000e+000
     vertex  1.250000e+001  6.500000e+000  2.000000e+001
   endloop
 endfacet
 facet normal  1.000000e+000  0.000000e+000 -0.000000e+000
   outer loop
     vertex  1.250000e+001 -6.500000e+000  0.000000e+000
     vertex  1.250000e+001  6.500000e+000  2.000000e+001
     vertex  1.250000e+001 -6.500000e+000  2.000000e+001
   endloop
 endfacet
 facet normal  0.000000e+000  1.000000e+000 -0.000000e+000
   outer loop
     vertex -3.752777e+000  6.500000e+000  7.600000e+000
     vertex -1.250000e+001  6.500000e+000  2.000000e+001
     vertex -3.752777e+000  6.500000e+000  2.000000e+001
   endloop
 endfacet
 facet normal  0.000000e+000  1.000000e+000 -0.000000e+000
   outer loop
     vertex -3.752777e+000  6.500000e+000  7.600000e+000
     vertex -1.250000e+001  6.500000e+000  0.000000e+000
     vertex -1.250000e+001  6.500000e+000  2.000000e+001
   endloop
 endfacet
 facet normal  0.000000e+000  1.000000e+000  0.000000e+000
   outer loop
     vertex  3.752777e+000  6.500000e+000  7.600000e+000
     vertex  3.752777e+000  6.500000e+000  2.000000e+001
     vertex  1.250000e+001  6.500000e+000  2.000000e+001
   endloop
 endfacet
 facet normal  0.000000e+000  1.000000e+000 -0.000000e+000
   outer loop
     vertex  3.752777e+000  6.500000e+000  7.600000e+000
     vertex -1.250000e+001  6.500000e+000  0.000000e+000
     vertex -3.752777e+000  6.500000e+000  7.600000e+000
   endloop
 endfacet
 facet normal  0.000000e+000  1.000000e+000 -0.000000e+000
   outer loop
     vertex  1.250000e+001  6.500000e+000  0.000000e+000
     vertex -1.250000e+001  6.500000e+000  0.000000e+000
     vertex  3.752777e+000  6.500000e+000  7.600000e+000
   endloop
 endfacet
 facet normal  0.000000e+000  1.000000e+000 -0.000000e+000
   outer loop
     vertex  1.250000e+001  6.500000e+000  0.000000e+000
     vertex  3.752777e+000  6.500000e+000  7.600000e+000
     vertex  1.250000e+001  6.500000e+000  2.000000e+001
   endloop
 endfacet
 facet normal  0.000000e+000 -1.000000e+000  0.000000e+000
   outer loop
     vertex  3.752777e+000 -6.500000e+000  7.600000e+000
     vertex  1.250000e+001 -6.500000e+000  2.000000e+001
     vertex  3.752777e+000 -6.500000e+000  2.000000e+001
   endloop
 endfacet
 facet normal  0.000000e+000 -1.000000e+000  0.000000e+000
   outer loop
     vertex  3.752777e+000 -6.500000e+000  7.600000e+000
     vertex  1.250000e+001 -6.500000e+000  0.000000e+000
     vertex  1.250000e+001 -6.500000e+000  2.000000e+001
   endloop
 endfacet
 facet normal  0.000000e+000 -1.000000e+000  0.000000e+000
   outer loop
     vertex -3.752777e+000 -6.500000e+000  7.600000e+000
     vertex -3.752777e+000 -6.500000e+000  2.000000e+001
     vertex -1.250000e+001 -6.500000e+000  2.000000e+001
   endloop
 endfacet
 facet normal  0.000000e+000 -1.000000e+000  0.000000e+000
   outer loop
     vertex -3.752777e+000 -6.500000e+000  7.600000e+000
     vertex  1.250000e+001 -6.500000e+000  0.000000e+000
     vertex  3.752777e+000 -6.500000e+000  7.600000e+000
   endloop
 endfacet
 facet normal  0.000000e+000 -1.000000e+000  0.000000e+000
   outer loop
     vertex -1.250000e+001 -6.500000e+000  0.000000e+000
     vertex  1.250000e+001 -6.500000e+000  0.000000e+000
     vertex -3.752777e+000 -6.500000e+000  7.600000e+000
   endloop
 endfacet
 facet normal  0.000000e+000 -1.000000e+000  0.000000e+000
   outer loop
     vertex -1.250000e+001 -6.500000e+000  0.000000e+000
     vertex -3.752777e+000 -6.500000e+000  7.600000e+000
     vertex -1.250000e+001 -6.500000e+000  2.000000e+001
   endloop
 endfacet
 facet normal  0.000000e+000  0.000000e+000 -1.000000e+000
   outer loop
     vertex -4.387176e+000  1.001344e+000  0.000000e+000
     vertex -1.250000e+001  6.500000e+000  0.000000e+000
     vertex -4.300078e+000  1.326398e+000  0.000000e+000
   endloop
 endfacet
 facet normal -0.000000e+000  0.000000e+000 -1.000000e+000
   outer loop
     vertex -3.060777e+000 -3.298733e+000  0.000000e+000
     vertex -1.250000e+001 -6.500000e+000  0.000000e+000
     vertex -3.298733e+000 -3.060777e+000  0.000000e+000
   endloop
 endfacet
 facet normal -0.000000e+000  0.000000e+000 -1.000000e+000
   outer loop
     vertex -3.298733e+000 -3.060777e+000  0.000000e+000
     vertex -1.250000e+001 -6.500000e+000  0.000000e+000
     vertex -3.518242e+000 -2.805704e+000  0.000000e+000
   endloop
 endfacet
 facet normal  0.000000e+000  0.000000e+000 -1.000000e+000
   outer loop
     vertex -4.300078e+000  1.326398e+000  0.000000e+000
     vertex -1.250000e+001  6.500000e+000  0.000000e+000
     vertex -4.188932e+000  1.644035e+000  0.000000e+000
   endloop
 endfacet
 facet normal  0.000000e+000  0.000000e+000 -1.000000e+000
   outer loop
     vertex -1.250000e+001 -6.500000e+000  0.000000e+000
     vertex -3.060777e+000 -3.298733e+000  0.000000e+000
     vertex -2.805704e+000 -3.518242e+000  0.000000e+000
   endloop
 endfacet
 facet normal -0.000000e+000  0.000000e+000 -1.000000e+000
   outer loop
     vertex -3.518242e+000 -2.805704e+000  0.000000e+000
     vertex -1.250000e+001 -6.500000e+000  0.000000e+000
     vertex -3.718074e+000 -2.534940e+000  0.000000e+000
   endloop
 endfacet
 facet normal  0.000000e+000  0.000000e+000 -1.000000e+000
   outer loop
     vertex -1.250000e+001 -6.500000e+000  0.000000e+000
     vertex -2.805704e+000 -3.518242e+000  0.000000e+000
     vertex -2.534940e+000 -3.718074e+000  0.000000e+000
   endloop
 endfacet
 facet normal  0.000000e+000  0.000000e+000 -1.000000e+000
   outer loop
     vertex -4.188932e+000  1.644035e+000  0.000000e+000
     vertex -1.250000e+001  6.500000e+000  0.000000e+000
     vertex -4.054360e+000  1.952477e+000  0.000000e+000
   endloop
 endfacet
 facet normal  0.000000e+000  0.000000e+000 -1.000000e+000
   outer loop
     vertex -4.054360e+000  1.952477e+000  0.000000e+000
     vertex -1.250000e+001  6.500000e+000  0.000000e+000
     vertex -3.897114e+000  2.250000e+000  0.000000e+000
   endloop
 endfacet
 facet normal -0.000000e+000  0.000000e+000 -1.000000e+000
   outer loop
     vertex -3.718074e+000 -2.534940e+000  0.000000e+000
     vertex -1.250000e+001 -6.500000e+000  0.000000e+000
     vertex -3.897114e+000 -2.250000e+000  0.000000e+000
   endloop
 endfacet
 facet normal  0.000000e+000  0.000000e+000 -1.000000e+000
   outer loop
     vertex -1.250000e+001 -6.500000e+000  0.000000e+000
     vertex -2.534940e+000 -3.718074e+000  0.000000e+000
     vertex -2.250000e+000 -3.897114e+000  0.000000e+000
   endloop
 endfacet
 facet normal -0.000000e+000  0.000000e+000 -1.000000e+000
   outer loop
     vertex -3.897114e+000 -2.250000e+000  0.000000e+000
     vertex -1.250000e+001 -6.500000e+000  0.000000e+000
     vertex -4.054360e+000 -1.952477e+000  0.000000e+000
   endloop
 endfacet
 facet normal  0.000000e+000  0.000000e+000 -1.000000e+000
   outer loop
     vertex -1.250000e+001 -6.500000e+000  0.000000e+000
     vertex -2.250000e+000 -3.897114e+000  0.000000e+000
     vertex -1.952477e+000 -4.054360e+000  0.000000e+000
   endloop
 endfacet
 facet normal  0.000000e+000  0.000000e+000 -1.000000e+000
   outer loop
     vertex -3.897114e+000  2.250000e+000  0.000000e+000
     vertex -1.250000e+001  6.500000e+000  0.000000e+000
     vertex -3.718074e+000  2.534940e+000  0.000000e+000
   endloop
 endfacet
 facet normal  0.000000e+000  0.000000e+000 -1.000000e+000
   outer loop
     vertex -3.718074e+000  2.534940e+000  0.000000e+000
     vertex -1.250000e+001  6.500000e+000  0.000000e+000
     vertex -3.518242e+000  2.805704e+000  0.000000e+000
   endloop
 endfacet
 facet normal -0.000000e+000  0.000000e+000 -1.000000e+000
   outer loop
     vertex -4.054360e+000 -1.952477e+000  0.000000e+000
     vertex -1.250000e+001 -6.500000e+000  0.000000e+000
     vertex -4.188932e+000 -1.644035e+000  0.000000e+000
   endloop
 endfacet
 facet normal  0.000000e+000  0.000000e+000 -1.000000e+000
   outer loop
     vertex -1.250000e+001 -6.500000e+000  0.000000e+000
     vertex -1.952477e+000 -4.054360e+000  0.000000e+000
     vertex -1.644035e+000 -4.188932e+000  0.000000e+000
   endloop
 endfacet
 facet normal  0.000000e+000  0.000000e+000 -1.000000e+000
   outer loop
     vertex -1.250000e+001 -6.500000e+000  0.000000e+000
     vertex  7.166969e-015 -4.500000e+000  0.000000e+000
     vertex  1.250000e+001 -6.500000e+000  0.000000e+000
   endloop
 endfacet
 facet normal  0.000000e+000  0.000000e+000 -1.000000e+000
   outer loop
     vertex  7.166969e-015 -4.500000e+000  0.000000e+000
     vertex  3.362854e-001 -4.487417e+000  0.000000e+000
     vertex  1.250000e+001 -6.500000e+000  0.000000e+000
   endloop
 endfacet
 facet normal  0.000000e+000  0.000000e+000 -1.000000e+000
   outer loop
     vertex  3.362854e-001 -4.487417e+000  0.000000e+000
     vertex  6.706902e-001 -4.449739e+000  0.000000e+000
     vertex  1.250000e+001 -6.500000e+000  0.000000e+000
   endloop
 endfacet
 facet normal  0.000000e+000  0.000000e+000 -1.000000e+000
   outer loop
     vertex  6.706902e-001 -4.449739e+000  0.000000e+000
     vertex  1.001344e+000 -4.387176e+000  0.000000e+000
     vertex  1.250000e+001 -6.500000e+000  0.000000e+000
   endloop
 endfacet
 facet normal -0.000000e+000  0.000000e+000 -1.000000e+000
   outer loop
     vertex -4.188932e+000 -1.644035e+000  0.000000e+000
     vertex -1.250000e+001 -6.500000e+000  0.000000e+000
     vertex -4.300078e+000 -1.326398e+000  0.000000e+000
   endloop
 endfacet
 facet normal  0.000000e+000  0.000000e+000 -1.000000e+000
   outer loop
     vertex  1.001344e+000 -4.387176e+000  0.000000e+000
     vertex  1.326398e+000 -4.300078e+000  0.000000e+000
     vertex  1.250000e+001 -6.500000e+000  0.000000e+000
   endloop
 endfacet
 facet normal  0.000000e+000  0.000000e+000 -1.000000e+000
   outer loop
     vertex -3.518242e+000  2.805704e+000  0.000000e+000
     vertex -1.250000e+001  6.500000e+000  0.000000e+000
     vertex -3.298733e+000  3.060777e+000  0.000000e+000
   endloop
 endfacet
 facet normal  0.000000e+000  0.000000e+000 -1.000000e+000
   outer loop
     vertex  1.326398e+000 -4.300078e+000  0.000000e+000
     vertex  1.644035e+000 -4.188932e+000  0.000000e+000
     vertex  1.250000e+001 -6.500000e+000  0.000000e+000
   endloop
 endfacet
 facet normal  0.000000e+000  0.000000e+000 -1.000000e+000
   outer loop
     vertex  1.644035e+000 -4.188932e+000  0.000000e+000
     vertex  1.952477e+000 -4.054360e+000  0.000000e+000
     vertex  1.250000e+001 -6.500000e+000  0.000000e+000
   endloop
 endfacet
 facet normal  0.000000e+000  0.000000e+000 -1.000000e+000
   outer loop
     vertex -1.250000e+001 -6.500000e+000  0.000000e+000
     vertex -1.644035e+000 -4.188932e+000  0.000000e+000
     vertex -1.326398e+000 -4.300078e+000  0.000000e+000
   endloop
 endfacet
 facet normal  0.000000e+000  0.000000e+000 -1.000000e+000
   outer loop
     vertex  1.952477e+000 -4.054360e+000  0.000000e+000
     vertex  2.250000e+000 -3.897114e+000  0.000000e+000
     vertex  1.250000e+001 -6.500000e+000  0.000000e+000
   endloop
 endfacet
 facet normal  0.000000e+000  0.000000e+000 -1.000000e+000
   outer loop
     vertex  2.250000e+000 -3.897114e+000  0.000000e+000
     vertex  2.534940e+000 -3.718074e+000  0.000000e+000
     vertex  1.250000e+001 -6.500000e+000  0.000000e+000
   endloop
 endfacet
 facet normal  0.000000e+000  0.000000e+000 -1.000000e+000
   outer loop
     vertex  2.534940e+000 -3.718074e+000  0.000000e+000
     vertex  2.805704e+000 -3.518242e+000  0.000000e+000
     vertex  1.250000e+001 -6.500000e+000  0.000000e+000
   endloop
 endfacet
 facet normal  0.000000e+000  0.000000e+000 -1.000000e+000
   outer loop
     vertex  2.805704e+000 -3.518242e+000  0.000000e+000
     vertex  3.060777e+000 -3.298733e+000  0.000000e+000
     vertex  1.250000e+001 -6.500000e+000  0.000000e+000
   endloop
 endfacet
 facet normal  0.000000e+000  0.000000e+000 -1.000000e+000
   outer loop
     vertex  3.060777e+000 -3.298733e+000  0.000000e+000
     vertex  3.298733e+000 -3.060777e+000  0.000000e+000
     vertex  1.250000e+001 -6.500000e+000  0.000000e+000
   endloop
 endfacet
 facet normal  0.000000e+000  0.000000e+000 -1.000000e+000
   outer loop
     vertex  3.298733e+000 -3.060777e+000  0.000000e+000
     vertex  3.518242e+000 -2.805704e+000  0.000000e+000
     vertex  1.250000e+001 -6.500000e+000  0.000000e+000
   endloop
 endfacet
 facet normal  0.000000e+000  0.000000e+000 -1.000000e+000
   outer loop
     vertex -3.298733e+000  3.060777e+000  0.000000e+000
     vertex -1.250000e+001  6.500000e+000  0.000000e+000
     vertex -3.060777e+000  3.298733e+000  0.000000e+000
   endloop
 endfacet
 facet normal  0.000000e+000  0.000000e+000 -1.000000e+000
   outer loop
     vertex  3.518242e+000 -2.805704e+000  0.000000e+000
     vertex  3.718074e+000 -2.534940e+000  0.000000e+000
     vertex  1.250000e+001 -6.500000e+000  0.000000e+000
   endloop
 endfacet
 facet normal  0.000000e+000  0.000000e+000 -1.000000e+000
   outer loop
     vertex  3.718074e+000 -2.534940e+000  0.000000e+000
     vertex  3.897114e+000 -2.250000e+000  0.000000e+000
     vertex  1.250000e+001 -6.500000e+000  0.000000e+000
   endloop
 endfacet
 facet normal  0.000000e+000  0.000000e+000 -1.000000e+000
   outer loop
     vertex  3.897114e+000 -2.250000e+000  0.000000e+000
     vertex  4.054360e+000 -1.952477e+000  0.000000e+000
     vertex  1.250000e+001 -6.500000e+000  0.000000e+000
   endloop
 endfacet
 facet normal  0.000000e+000  0.000000e+000 -1.000000e+000
   outer loop
     vertex  4.054360e+000 -1.952477e+000  0.000000e+000
     vertex  4.188932e+000 -1.644035e+000  0.000000e+000
     vertex  1.250000e+001 -6.500000e+000  0.000000e+000
   endloop
 endfacet
 facet normal -0.000000e+000  0.000000e+000 -1.000000e+000
   outer loop
     vertex -4.300078e+000 -1.326398e+000  0.000000e+000
     vertex -1.250000e+001 -6.500000e+000  0.000000e+000
     vertex -4.387176e+000 -1.001344e+000  0.000000e+000
   endloop
 endfacet
 facet normal  0.000000e+000  0.000000e+000 -1.000000e+000
   outer loop
     vertex  4.188932e+000 -1.644035e+000  0.000000e+000
     vertex  4.300078e+000 -1.326398e+000  0.000000e+000
     vertex  1.250000e+001 -6.500000e+000  0.000000e+000
   endloop
 endfacet
 facet normal  0.000000e+000  0.000000e+000 -1.000000e+000
   outer loop
     vertex  4.300078e+000 -1.326398e+000  0.000000e+000
     vertex  4.387176e+000 -1.001344e+000  0.000000e+000
     vertex  1.250000e+001 -6.500000e+000  0.000000e+000
   endloop
 endfacet
 facet normal  0.000000e+000  0.000000e+000 -1.000000e+000
   outer loop
     vertex  4.387176e+000 -1.001344e+000  0.000000e+000
     vertex  4.449739e+000 -6.706902e-001  0.000000e+000
     vertex  1.250000e+001 -6.500000e+000  0.000000e+000
   endloop
 endfacet
 facet normal  0.000000e+000  0.000000e+000 -1.000000e+000
   outer loop
     vertex  4.449739e+000 -6.706902e-001  0.000000e+000
     vertex  4.487417e+000 -3.362854e-001  0.000000e+000
     vertex  1.250000e+001 -6.500000e+000  0.000000e+000
   endloop
 endfacet
 facet normal  0.000000e+000  0.000000e+000 -1.000000e+000
   outer loop
     vertex  4.487417e+000 -3.362854e-001  0.000000e+000
     vertex  4.500000e+000  0.000000e+000  0.000000e+000
     vertex  1.250000e+001 -6.500000e+000  0.000000e+000
   endloop
 endfacet
 facet normal  0.000000e+000  0.000000e+000 -1.000000e+000
   outer loop
     vertex -1.250000e+001 -6.500000e+000  0.000000e+000
     vertex -1.326398e+000 -4.300078e+000  0.000000e+000
     vertex -1.001344e+000 -4.387176e+000  0.000000e+000
   endloop
 endfacet
 facet normal  0.000000e+000  0.000000e+000 -1.000000e+000
   outer loop
     vertex -3.060777e+000  3.298733e+000  0.000000e+000
     vertex -1.250000e+001  6.500000e+000  0.000000e+000
     vertex -2.805704e+000  3.518242e+000  0.000000e+000
   endloop
 endfacet
 facet normal -0.000000e+000  0.000000e+000 -1.000000e+000
   outer loop
     vertex -4.387176e+000 -1.001344e+000  0.000000e+000
     vertex -1.250000e+001 -6.500000e+000  0.000000e+000
     vertex -4.449739e+000 -6.706902e-001  0.000000e+000
   endloop
 endfacet
 facet normal  0.000000e+000  0.000000e+000 -1.000000e+000
   outer loop
     vertex -1.250000e+001 -6.500000e+000  0.000000e+000
     vertex -1.001344e+000 -4.387176e+000  0.000000e+000
     vertex -6.706902e-001 -4.449739e+000  0.000000e+000
   endloop
 endfacet
 facet normal  0.000000e+000  0.000000e+000 -1.000000e+000
   outer loop
     vertex -2.805704e+000  3.518242e+000  0.000000e+000
     vertex -1.250000e+001  6.500000e+000  0.000000e+000
     vertex -2.534940e+000  3.718074e+000  0.000000e+000
   endloop
 endfacet
 facet normal -0.000000e+000  0.000000e+000 -1.000000e+000
   outer loop
     vertex -4.449739e+000 -6.706902e-001  0.000000e+000
     vertex -1.250000e+001 -6.500000e+000  0.000000e+000
     vertex -4.487417e+000 -3.362854e-001  0.000000e+000
   endloop
 endfacet
 facet normal  0.000000e+000  0.000000e+000 -1.000000e+000
   outer loop
     vertex -2.534940e+000  3.718074e+000  0.000000e+000
     vertex -1.250000e+001  6.500000e+000  0.000000e+000
     vertex -2.250000e+000  3.897114e+000  0.000000e+000
   endloop
 endfacet
 facet normal  0.000000e+000  0.000000e+000 -1.000000e+000
   outer loop
     vertex -1.250000e+001 -6.500000e+000  0.000000e+000
     vertex -6.706902e-001 -4.449739e+000  0.000000e+000
     vertex -3.362854e-001 -4.487417e+000  0.000000e+000
   endloop
 endfacet
 facet normal  0.000000e+000  0.000000e+000 -1.000000e+000
   outer loop
     vertex -2.250000e+000  3.897114e+000  0.000000e+000
     vertex -1.250000e+001  6.500000e+000  0.000000e+000
     vertex -1.952477e+000  4.054360e+000  0.000000e+000
   endloop
 endfacet
 facet normal  0.000000e+000  0.000000e+000 -1.000000e+000
   outer loop
     vertex -1.250000e+001 -6.500000e+000  0.000000e+000
     vertex -1.250000e+001  6.500000e+000  0.000000e+000
     vertex -4.500000e+000 -1.143932e-014  0.000000e+000
   endloop
 endfacet
 facet normal -0.000000e+000  0.000000e+000 -1.000000e+000
   outer loop
     vertex -4.487417e+000 -3.362854e-001  0.000000e+000
     vertex -1.250000e+001 -6.500000e+000  0.000000e+000
     vertex -4.500000e+000 -1.143932e-014  0.000000e+000
   endloop
 endfacet
 facet normal  0.000000e+000  0.000000e+000 -1.000000e+000
   outer loop
     vertex -1.250000e+001 -6.500000e+000  0.000000e+000
     vertex -3.362854e-001 -4.487417e+000  0.000000e+000
     vertex  7.166969e-015 -4.500000e+000  0.000000e+000
   endloop
 endfacet
 facet normal  0.000000e+000  0.000000e+000 -1.000000e+000
   outer loop
     vertex -1.952477e+000  4.054360e+000  0.000000e+000
     vertex -1.250000e+001  6.500000e+000  0.000000e+000
     vertex -1.644035e+000  4.188932e+000  0.000000e+000
   endloop
 endfacet
 facet normal  0.000000e+000  0.000000e+000 -1.000000e+000
   outer loop
     vertex  4.500000e+000  0.000000e+000  0.000000e+000
     vertex  4.487417e+000  3.362854e-001  0.000000e+000
     vertex  1.250000e+001  6.500000e+000  0.000000e+000
   endloop
 endfacet
 facet normal  0.000000e+000  0.000000e+000 -1.000000e+000
   outer loop
     vertex  4.487417e+000  3.362854e-001  0.000000e+000
     vertex  4.449739e+000  6.706902e-001  0.000000e+000
     vertex  1.250000e+001  6.500000e+000  0.000000e+000
   endloop
 endfacet
 facet normal  0.000000e+000  0.000000e+000 -1.000000e+000
   outer loop
     vertex  4.449739e+000  6.706902e-001  0.000000e+000
     vertex  4.387176e+000  1.001344e+000  0.000000e+000
     vertex  1.250000e+001  6.500000e+000  0.000000e+000
   endloop
 endfacet
 facet normal  0.000000e+000  0.000000e+000 -1.000000e+000
   outer loop
     vertex  4.387176e+000  1.001344e+000  0.000000e+000
     vertex  4.300078e+000  1.326398e+000  0.000000e+000
     vertex  1.250000e+001  6.500000e+000  0.000000e+000
   endloop
 endfacet
 facet normal  0.000000e+000  0.000000e+000 -1.000000e+000
   outer loop
     vertex  4.300078e+000  1.326398e+000  0.000000e+000
     vertex  4.188932e+000  1.644035e+000  0.000000e+000
     vertex  1.250000e+001  6.500000e+000  0.000000e+000
   endloop
 endfacet
 facet normal  0.000000e+000  0.000000e+000 -1.000000e+000
   outer loop
     vertex  4.188932e+000  1.644035e+000  0.000000e+000
     vertex  4.054360e+000  1.952477e+000  0.000000e+000
     vertex  1.250000e+001  6.500000e+000  0.000000e+000
   endloop
 endfacet
 facet normal  0.000000e+000  0.000000e+000 -1.000000e+000
   outer loop
     vertex  4.054360e+000  1.952477e+000  0.000000e+000
     vertex  3.897114e+000  2.250000e+000  0.000000e+000
     vertex  1.250000e+001  6.500000e+000  0.000000e+000
   endloop
 endfacet
 facet normal  0.000000e+000  0.000000e+000 -1.000000e+000
   outer loop
     vertex -4.500000e+000 -1.143932e-014  0.000000e+000
     vertex -1.250000e+001  6.500000e+000  0.000000e+000
     vertex -4.487417e+000  3.362854e-001  0.000000e+000
   endloop
 endfacet
 facet normal  0.000000e+000  0.000000e+000 -1.000000e+000
   outer loop
     vertex  3.897114e+000  2.250000e+000  0.000000e+000
     vertex  3.718074e+000  2.534940e+000  0.000000e+000
     vertex  1.250000e+001  6.500000e+000  0.000000e+000
   endloop
 endfacet
 facet normal  0.000000e+000  0.000000e+000 -1.000000e+000
   outer loop
     vertex  3.718074e+000  2.534940e+000  0.000000e+000
     vertex  3.518242e+000  2.805704e+000  0.000000e+000
     vertex  1.250000e+001  6.500000e+000  0.000000e+000
   endloop
 endfacet
 facet normal  0.000000e+000  0.000000e+000 -1.000000e+000
   outer loop
     vertex  3.518242e+000  2.805704e+000  0.000000e+000
     vertex  3.298733e+000  3.060777e+000  0.000000e+000
     vertex  1.250000e+001  6.500000e+000  0.000000e+000
   endloop
 endfacet
 facet normal  0.000000e+000  0.000000e+000 -1.000000e+000
   outer loop
     vertex  3.298733e+000  3.060777e+000  0.000000e+000
     vertex  3.060777e+000  3.298733e+000  0.000000e+000
     vertex  1.250000e+001  6.500000e+000  0.000000e+000
   endloop
 endfacet
 facet normal  0.000000e+000  0.000000e+000 -1.000000e+000
   outer loop
     vertex -1.644035e+000  4.188932e+000  0.000000e+000
     vertex -1.250000e+001  6.500000e+000  0.000000e+000
     vertex -1.326398e+000  4.300078e+000  0.000000e+000
   endloop
 endfacet
 facet normal  0.000000e+000  0.000000e+000 -1.000000e+000
   outer loop
     vertex  3.060777e+000  3.298733e+000  0.000000e+000
     vertex  2.805704e+000  3.518242e+000  0.000000e+000
     vertex  1.250000e+001  6.500000e+000  0.000000e+000
   endloop
 endfacet
 facet normal  0.000000e+000  0.000000e+000 -1.000000e+000
   outer loop
     vertex  2.805704e+000  3.518242e+000  0.000000e+000
     vertex  2.534940e+000  3.718074e+000  0.000000e+000
     vertex  1.250000e+001  6.500000e+000  0.000000e+000
   endloop
 endfacet
 facet normal  0.000000e+000  0.000000e+000 -1.000000e+000
   outer loop
     vertex  2.534940e+000  3.718074e+000  0.000000e+000
     vertex  2.250000e+000  3.897114e+000  0.000000e+000
     vertex  1.250000e+001  6.500000e+000  0.000000e+000
   endloop
 endfacet
 facet normal  0.000000e+000  0.000000e+000 -1.000000e+000
   outer loop
     vertex  2.250000e+000  3.897114e+000  0.000000e+000
     vertex  1.952477e+000  4.054360e+000  0.000000e+000
     vertex  1.250000e+001  6.500000e+000  0.000000e+000
   endloop
 endfacet
 facet normal  0.000000e+000  0.000000e+000 -1.000000e+000
   outer loop
     vertex -4.487417e+000  3.362854e-001  0.000000e+000
     vertex -1.250000e+001  6.500000e+000  0.000000e+000
     vertex -4.449739e+000  6.706902e-001  0.000000e+000
   endloop
 endfacet
 facet normal  0.000000e+000  0.000000e+000 -1.000000e+000
   outer loop
     vertex  1.952477e+000  4.054360e+000  0.000000e+000
     vertex  1.644035e+000  4.188932e+000  0.000000e+000
     vertex  1.250000e+001  6.500000e+000  0.000000e+000
   endloop
 endfacet
 facet normal  0.000000e+000  0.000000e+000 -1.000000e+000
   outer loop
     vertex  1.644035e+000  4.188932e+000  0.000000e+000
     vertex  1.326398e+000  4.300078e+000  0.000000e+000
     vertex  1.250000e+001  6.500000e+000  0.000000e+000
   endloop
 endfacet
 facet normal  0.000000e+000  0.000000e+000 -1.000000e+000
   outer loop
     vertex  1.326398e+000  4.300078e+000  0.000000e+000
     vertex  1.001344e+000  4.387176e+000  0.000000e+000
     vertex  1.250000e+001  6.500000e+000  0.000000e+000
   endloop
 endfacet
 facet normal  0.000000e+000  0.000000e+000 -1.000000e+000
   outer loop
     vertex  1.250000e+001 -6.500000e+000  0.000000e+000
     vertex  4.500000e+000  0.000000e+000  0.000000e+000
     vertex  1.250000e+001  6.500000e+000  0.000000e+000
   endloop
 endfacet
 facet normal  0.000000e+000  0.000000e+000 -1.000000e+000
   outer loop
     vertex -5.719659e-015  4.500000e+000  0.000000e+000
     vertex -1.250000e+001  6.500000e+000  0.000000e+000
     vertex  1.250000e+001  6.500000e+000  0.000000e+000
   endloop
 endfacet
 facet normal  0.000000e+000  0.000000e+000 -1.000000e+000
   outer loop
     vertex  3.362854e-001  4.487417e+000  0.000000e+000
     vertex -5.719659e-015  4.500000e+000  0.000000e+000
     vertex  1.250000e+001  6.500000e+000  0.000000e+000
   endloop
 endfacet
 facet normal  0.000000e+000  0.000000e+000 -1.000000e+000
   outer loop
     vertex  6.706902e-001  4.449739e+000  0.000000e+000
     vertex  3.362854e-001  4.487417e+000  0.000000e+000
     vertex  1.250000e+001  6.500000e+000  0.000000e+000
   endloop
 endfacet
 facet normal  0.000000e+000  0.000000e+000 -1.000000e+000
   outer loop
     vertex -1.326398e+000  4.300078e+000  0.000000e+000
     vertex -1.250000e+001  6.500000e+000  0.000000e+000
     vertex -1.001344e+000  4.387176e+000  0.000000e+000
   endloop
 endfacet
 facet normal  0.000000e+000  0.000000e+000 -1.000000e+000
   outer loop
     vertex  1.001344e+000  4.387176e+000  0.000000e+000
     vertex  6.706902e-001  4.449739e+000  0.000000e+000
     vertex  1.250000e+001  6.500000e+000  0.000000e+000
   endloop
 endfacet
 facet normal  0.000000e+000  0.000000e+000 -1.000000e+000
   outer loop
     vertex -3.362854e-001  4.487417e+000  0.000000e+000
     vertex -1.250000e+001  6.500000e+000  0.000000e+000
     vertex -5.719659e-015  4.500000e+000  0.000000e+000
   endloop
 endfacet
 facet normal  0.000000e+000  0.000000e+000 -1.000000e+000
   outer loop
     vertex -6.706902e-001  4.449739e+000  0.000000e+000
     vertex -1.250000e+001  6.500000e+000  0.000000e+000
     vertex -3.362854e-001  4.487417e+000  0.000000e+000
   endloop
 endfacet
 facet normal  0.000000e+000  0.000000e+000 -1.000000e+000
   outer loop
     vertex -1.001344e+000  4.387176e+000  0.000000e+000
     vertex -1.250000e+001  6.500000e+000  0.000000e+000
     vertex -6.706902e-001  4.449739e+000  0.000000e+000
   endloop
 endfacet
 facet normal  0.000000e+000  0.000000e+000 -1.000000e+000
   outer loop
     vertex -4.449739e+000  6.706902e-001  0.000000e+000
     vertex -1.250000e+001  6.500000e+000  0.000000e+000
     vertex -4.387176e+000  1.001344e+000  0.000000e+000
   endloop
 endfacet
 facet normal -0.000000e+000  0.000000e+000  1.000000e+000
   outer loop
     vertex  7.505554e+000  0.000000e+000  2.000000e+001
     vertex  3.752777e+000 -6.500000e+000  2.000000e+001
     vertex  1.250000e+001 -6.500000e+000  2.000000e+001
   endloop
 endfacet
 facet normal  0.000000e+000  0.000000e+000  1.000000e+000
   outer loop
     vertex  1.250000e+001  6.500000e+000  2.000000e+001
     vertex  3.752777e+000  6.500000e+000  2.000000e+001
     vertex  7.505554e+000  0.000000e+000  2.000000e+001
   endloop
 endfacet
 facet normal  0.000000e+000  0.000000e+000  1.000000e+000
   outer loop
     vertex  1.250000e+001  6.500000e+000  2.000000e+001
     vertex  7.505554e+000  0.000000e+000  2.000000e+001
     vertex  1.250000e+001 -6.500000e+000  2.000000e+001
   endloop
 endfacet
 facet normal -8.660254e-001 -5.000000e-001  0.000000e+000
   outer loop
     vertex  3.752777e+000  6.500000e+000  7.600000e+000
     vertex  7.505554e+000  0.000000e+000  7.600000e+000
     vertex  7.505554e+000  0.000000e+000  2.000000e+001
   endloop
 endfacet
 facet normal -8.660254e-001 -5.000000e-001  0.000000e+000
   outer loop
     vertex  3.752777e+000  6.500000e+000  7.600000e+000
     vertex  7.505554e+000  0.000000e+000  2.000000e+001
     vertex  3.752777e+000  6.500000e+000  2.000000e+001
   endloop
 endfacet
 facet normal  5.106325e-016  1.075233e-015  1.000000e+000
   outer loop
     vertex -3.752777e+000 -6.500000e+000  7.600000e+000
     vertex -1.774601e+000 -4.135310e+000  7.600000e+000
     vertex -2.083485e+000 -3.988620e+000  7.600000e+000
   endloop
 endfacet
 facet normal -1.510563e-015 -8.459560e-016  1.000000e+000
   outer loop
     vertex  4.009529e+000  2.042957e+000  7.600000e+000
     vertex  7.505554e+000  0.000000e+000  7.600000e+000
     vertex  3.836881e+000  2.351244e+000  7.600000e+000
   endloop
 endfacet
 facet normal  5.860765e-016  1.025086e-015  1.000000e+000
   outer loop
     vertex -3.752777e+000 -6.500000e+000  7.600000e+000
     vertex -2.083485e+000 -3.988620e+000  7.600000e+000
     vertex -2.380338e+000 -3.818899e+000  7.600000e+000
   endloop
 endfacet
 facet normal -8.930681e-016  9.159859e-016  1.000000e+000
   outer loop
     vertex  3.752777e+000 -6.500000e+000  7.600000e+000
     vertex  3.261568e+000 -3.100351e+000  7.600000e+000
     vertex  3.016732e+000 -3.339061e+000  7.600000e+000
   endloop
 endfacet
 facet normal -1.019330e-015  8.977426e-016  1.000000e+000
   outer loop
     vertex  3.261568e+000 -3.100351e+000  7.600000e+000
     vertex  3.752777e+000 -6.500000e+000  7.600000e+000
     vertex  3.487570e+000 -2.843739e+000  7.600000e+000
   endloop
 endfacet
 facet normal -7.870623e-016  9.406701e-016  1.000000e+000
   outer loop
     vertex  3.752777e+000 -6.500000e+000  7.600000e+000
     vertex  3.016732e+000 -3.339061e+000  7.600000e+000
     vertex  2.754477e+000 -3.558491e+000  7.600000e+000
   endloop
 endfacet
 facet normal  6.664894e-016  9.839234e-016  1.000000e+000
   outer loop
     vertex -3.752777e+000 -6.500000e+000  7.600000e+000
     vertex -2.380338e+000 -3.818899e+000  7.600000e+000
     vertex -2.663447e+000 -3.627127e+000  7.600000e+000
   endloop
 endfacet
 facet normal -1.175613e-015  8.864067e-016  1.000000e+000
   outer loop
     vertex  3.487570e+000 -2.843739e+000  7.600000e+000
     vertex  3.752777e+000 -6.500000e+000  7.600000e+000
     vertex  3.693435e+000 -2.570707e+000  7.600000e+000
   endloop
 endfacet
 facet normal  7.550607e-016  9.503392e-016  1.000000e+000
   outer loop
     vertex -3.752777e+000 -6.500000e+000  7.600000e+000
     vertex -2.663447e+000 -3.627127e+000  7.600000e+000
     vertex -2.931176e+000 -3.414412e+000  7.600000e+000
   endloop
 endfacet
 facet normal -6.949295e-016  9.719384e-016  1.000000e+000
   outer loop
     vertex  3.752777e+000 -6.500000e+000  7.600000e+000
     vertex  2.754477e+000 -3.558491e+000  7.600000e+000
     vertex  2.476317e+000 -3.757373e+000  7.600000e+000
   endloop
 endfacet
 facet normal -1.378006e-015  8.833501e-016  1.000000e+000
   outer loop
     vertex  3.693435e+000 -2.570707e+000  7.600000e+000
     vertex  3.752777e+000 -6.500000e+000  7.600000e+000
     vertex  3.877974e+000 -2.282831e+000  7.600000e+000
   endloop
 endfacet
 facet normal -1.538247e-015  8.881072e-016  1.000000e+000
   outer loop
     vertex  3.752777e+000 -6.500000e+000  7.600000e+000
     vertex  7.505554e+000  0.000000e+000  7.600000e+000
     vertex  3.877974e+000 -2.282831e+000  7.600000e+000
   endloop
 endfacet
 facet normal -6.121834e-016  1.010450e-015  1.000000e+000
   outer loop
     vertex  3.752777e+000 -6.500000e+000  7.600000e+000
     vertex  2.476317e+000 -3.757373e+000  7.600000e+000
     vertex  2.183859e+000 -3.934560e+000  7.600000e+000
   endloop
 endfacet
 facet normal  8.558488e-016  9.235023e-016  1.000000e+000
   outer loop
     vertex -3.752777e+000 -6.500000e+000  7.600000e+000
     vertex -2.931176e+000 -3.414412e+000  7.600000e+000
     vertex -3.181981e+000 -3.181981e+000  7.600000e+000
   endloop
 endfacet
 facet normal -1.481489e-015  7.979146e-016  1.000000e+000
   outer loop
     vertex  3.877974e+000 -2.282831e+000  7.600000e+000
     vertex  7.505554e+000  0.000000e+000  7.600000e+000
     vertex  4.040120e+000 -1.981774e+000  7.600000e+000
   endloop
 endfacet
 facet normal -5.354044e-016  1.057405e-015  1.000000e+000
   outer loop
     vertex  3.752777e+000 -6.500000e+000  7.600000e+000
     vertex  2.183859e+000 -3.934560e+000  7.600000e+000
     vertex  1.878790e+000 -4.089028e+000  7.600000e+000
   endloop
 endfacet
 facet normal  9.744821e-016  9.030939e-016  1.000000e+000
   outer loop
     vertex -3.752777e+000 -6.500000e+000  7.600000e+000
     vertex -3.181981e+000 -3.181981e+000  7.600000e+000
     vertex -3.414412e+000 -2.931176e+000  7.600000e+000
   endloop
 endfacet
 facet normal -1.374307e-015  6.104905e-016  1.000000e+000
   outer loop
     vertex  4.040120e+000 -1.981774e+000  7.600000e+000
     vertex  7.505554e+000  0.000000e+000  7.600000e+000
     vertex  4.178938e+000 -1.669273e+000  7.600000e+000
   endloop
 endfacet
 facet normal -4.617159e-016  1.114681e-015  1.000000e+000
   outer loop
     vertex  3.752777e+000 -6.500000e+000  7.600000e+000
     vertex  1.878790e+000 -4.089028e+000  7.600000e+000
     vertex  1.562874e+000 -4.219885e+000  7.600000e+000
   endloop
 endfacet
 facet normal  1.119368e-015  8.893571e-016  1.000000e+000
   outer loop
     vertex -3.752777e+000 -6.500000e+000  7.600000e+000
     vertex -3.414412e+000 -2.931176e+000  7.600000e+000
     vertex -3.627127e+000 -2.663447e+000  7.600000e+000
   endloop
 endfacet
 facet normal -1.300256e-015  4.629177e-016  1.000000e+000
   outer loop
     vertex  4.178938e+000 -1.669273e+000  7.600000e+000
     vertex  7.505554e+000  0.000000e+000  7.600000e+000
     vertex  4.293627e+000 -1.347134e+000  7.600000e+000
   endloop
 endfacet
 facet normal  1.304011e-015  8.833099e-016  1.000000e+000
   outer loop
     vertex -3.752777e+000 -6.500000e+000  7.600000e+000
     vertex -3.627127e+000 -2.663447e+000  7.600000e+000
     vertex -3.818899e+000 -2.380338e+000  7.600000e+000
   endloop
 endfacet
 facet normal -3.883872e-016  1.185108e-015  1.000000e+000
   outer loop
     vertex  3.752777e+000 -6.500000e+000  7.600000e+000
     vertex  1.562874e+000 -4.219885e+000  7.600000e+000
     vertex  1.237933e+000 -4.326375e+000  7.600000e+000
   endloop
 endfacet
 facet normal -1.248819e-015  3.402782e-016  1.000000e+000
   outer loop
     vertex  4.293627e+000 -1.347134e+000  7.600000e+000
     vertex  7.505554e+000  0.000000e+000  7.600000e+000
     vertex  4.383523e+000 -1.017216e+000  7.600000e+000
   endloop
 endfacet
 facet normal  1.527566e-015  8.733612e-016  1.000000e+000
   outer loop
     vertex -3.818899e+000 -2.380338e+000  7.600000e+000
     vertex -3.988620e+000 -2.083485e+000  7.600000e+000
     vertex -7.505554e+000  0.000000e+000  7.600000e+000
   endloop
 endfacet
 facet normal  1.405636e-015  6.675418e-016  1.000000e+000
   outer loop
     vertex -3.988620e+000 -2.083485e+000  7.600000e+000
     vertex -4.135310e+000 -1.774601e+000  7.600000e+000
     vertex -7.505554e+000  0.000000e+000  7.600000e+000
   endloop
 endfacet
 facet normal  1.322030e-015  5.087610e-016  1.000000e+000
   outer loop
     vertex -4.135310e+000 -1.774601e+000  7.600000e+000
     vertex -4.258122e+000 -1.455471e+000  7.600000e+000
     vertex -7.505554e+000  0.000000e+000  7.600000e+000
   endloop
 endfacet
 facet normal -3.124442e-016  1.272973e-015  1.000000e+000
   outer loop
     vertex  3.752777e+000 -6.500000e+000  7.600000e+000
     vertex  1.237933e+000 -4.326375e+000  7.600000e+000
     vertex  9.058433e-001 -4.407885e+000  7.600000e+000
   endloop
 endfacet
 facet normal  1.263885e-015  3.790284e-016  1.000000e+000
   outer loop
     vertex -4.258122e+000 -1.455471e+000  7.600000e+000
     vertex -4.356347e+000 -1.127936e+000  7.600000e+000
     vertex -7.505554e+000  0.000000e+000  7.600000e+000
   endloop
 endfacet
 facet normal  1.224028e-015  2.677476e-016  1.000000e+000
   outer loop
     vertex -4.356347e+000 -1.127936e+000  7.600000e+000
     vertex -4.429418e+000 -7.938889e-001  7.600000e+000
     vertex -7.505554e+000  0.000000e+000  7.600000e+000
   endloop
 endfacet
 facet normal  1.198302e-015  1.680664e-016  1.000000e+000
   outer loop
     vertex -4.429418e+000 -7.938889e-001  7.600000e+000
     vertex -4.476912e+000 -4.552574e-001  7.600000e+000
     vertex -7.505554e+000  0.000000e+000  7.600000e+000
   endloop
 endfacet
 facet normal  1.184330e-015  7.511420e-017  1.000000e+000
   outer loop
     vertex -4.476912e+000 -4.552574e-001  7.600000e+000
     vertex -4.498556e+000 -1.139972e-001  7.600000e+000
     vertex -7.505554e+000  0.000000e+000  7.600000e+000
   endloop
 endfacet
 facet normal  1.180915e-015 -1.496029e-017  1.000000e+000
   outer loop
     vertex -4.498556e+000 -1.139972e-001  7.600000e+000
     vertex -4.494224e+000  2.279213e-001  7.600000e+000
     vertex -7.505554e+000  0.000000e+000  7.600000e+000
   endloop
 endfacet
 facet normal  1.187775e-015 -1.056017e-016  1.000000e+000
   outer loop
     vertex -4.494224e+000  2.279213e-001  7.600000e+000
     vertex -4.463942e+000  5.685237e-001  7.600000e+000
     vertex -7.505554e+000  0.000000e+000  7.600000e+000
   endloop
 endfacet
 facet normal  1.205482e-015 -2.003334e-016  1.000000e+000
   outer loop
     vertex -4.463942e+000  5.685237e-001  7.600000e+000
     vertex -4.407885e+000  9.058433e-001  7.600000e+000
     vertex -7.505554e+000  0.000000e+000  7.600000e+000
   endloop
 endfacet
 facet normal -1.214029e-015  2.335015e-016  1.000000e+000
   outer loop
     vertex  4.383523e+000 -1.017216e+000  7.600000e+000
     vertex  7.505554e+000  0.000000e+000  7.600000e+000
     vertex  4.448107e+000 -6.814250e-001  7.600000e+000
   endloop
 endfacet
 facet normal  1.235583e-015 -3.032669e-016  1.000000e+000
   outer loop
     vertex -4.407885e+000  9.058433e-001  7.600000e+000
     vertex -4.326375e+000  1.237933e+000  7.600000e+000
     vertex -7.505554e+000  0.000000e+000  7.600000e+000
   endloop
 endfacet
 facet normal  1.280959e-015 -4.197998e-016  1.000000e+000
   outer loop
     vertex -4.326375e+000  1.237933e+000  7.600000e+000
     vertex -4.219885e+000  1.562874e+000  7.600000e+000
     vertex -7.505554e+000  0.000000e+000  7.600000e+000
   endloop
 endfacet
 facet normal  1.346589e-015 -5.577755e-016  1.000000e+000
   outer loop
     vertex -4.219885e+000  1.562874e+000  7.600000e+000
     vertex -4.089028e+000  1.878790e+000  7.600000e+000
     vertex -7.505554e+000  0.000000e+000  7.600000e+000
   endloop
 endfacet
 facet normal  1.441133e-015 -7.297008e-016  1.000000e+000
   outer loop
     vertex -4.089028e+000  1.878790e+000  7.600000e+000
     vertex -3.934560e+000  2.183859e+000  7.600000e+000
     vertex -7.505554e+000  0.000000e+000  7.600000e+000
   endloop
 endfacet
 facet normal -2.301579e-016  1.384947e-015  1.000000e+000
   outer loop
     vertex  3.752777e+000 -6.500000e+000  7.600000e+000
     vertex  9.058433e-001 -4.407885e+000  7.600000e+000
     vertex  5.685237e-001 -4.463942e+000  7.600000e+000
   endloop
 endfacet
 facet normal  1.536398e-015  8.870399e-016  1.000000e+000
   outer loop
     vertex -3.752777e+000 -6.500000e+000  7.600000e+000
     vertex -3.818899e+000 -2.380338e+000  7.600000e+000
     vertex -7.505554e+000  0.000000e+000  7.600000e+000
   endloop
 endfacet
 facet normal  1.537877e-015 -8.878935e-016  1.000000e+000
   outer loop
     vertex -7.505554e+000  0.000000e+000  7.600000e+000
     vertex -3.934560e+000  2.183859e+000  7.600000e+000
     vertex -3.752777e+000  6.500000e+000  7.600000e+000
   endloop
 endfacet
 facet normal -1.192418e-015  1.365390e-016  1.000000e+000
   outer loop
     vertex  4.448107e+000 -6.814250e-001  7.600000e+000
     vertex  7.505554e+000  0.000000e+000  7.600000e+000
     vertex  4.487008e+000 -3.416990e-001  7.600000e+000
   endloop
 endfacet
 facet normal  0.000000e+000 -0.000000e+000  1.000000e+000
   outer loop
     vertex -1.102182e-015  4.500000e+000  7.600000e+000
     vertex  3.752777e+000  6.500000e+000  7.600000e+000
     vertex -3.752777e+000  6.500000e+000  7.600000e+000
   endloop
 endfacet
 facet normal  1.460123e-015 -8.846188e-016  1.000000e+000
   outer loop
     vertex -3.934560e+000  2.183859e+000  7.600000e+000
     vertex -3.757373e+000  2.476317e+000  7.600000e+000
     vertex -3.752777e+000  6.500000e+000  7.600000e+000
   endloop
 endfacet
 facet normal  1.236884e-015 -8.843637e-016  1.000000e+000
   outer loop
     vertex -3.757373e+000  2.476317e+000  7.600000e+000
     vertex -3.558491e+000  2.754477e+000  7.600000e+000
     vertex -3.752777e+000  6.500000e+000  7.600000e+000
   endloop
 endfacet
 facet normal -1.537185e-015 -8.874942e-016  1.000000e+000
   outer loop
     vertex  3.836881e+000  2.351244e+000  7.600000e+000
     vertex  7.505554e+000  0.000000e+000  7.600000e+000
     vertex  3.752777e+000  6.500000e+000  7.600000e+000
   endloop
 endfacet
 facet normal -1.361965e-016  1.531896e-015  1.000000e+000
   outer loop
     vertex  3.752777e+000 -6.500000e+000  7.600000e+000
     vertex  5.685237e-001 -4.463942e+000  7.600000e+000
     vertex  2.279213e-001 -4.494224e+000  7.600000e+000
   endloop
 endfacet
 facet normal  1.067465e-015 -8.931518e-016  1.000000e+000
   outer loop
     vertex -3.558491e+000  2.754477e+000  7.600000e+000
     vertex -3.339061e+000  3.016732e+000  7.600000e+000
     vertex -3.752777e+000  6.500000e+000  7.600000e+000
   endloop
 endfacet
 facet normal -4.995332e-016 -1.083571e-015  1.000000e+000
   outer loop
     vertex  1.722075e+000  4.157458e+000  7.600000e+000
     vertex  2.042957e+000  4.009529e+000  7.600000e+000
     vertex  3.752777e+000  6.500000e+000  7.600000e+000
   endloop
 endfacet
 facet normal  9.325117e-016 -9.091804e-016  1.000000e+000
   outer loop
     vertex -3.339061e+000  3.016732e+000  7.600000e+000
     vertex -3.100351e+000  3.261568e+000  7.600000e+000
     vertex -3.752777e+000  6.500000e+000  7.600000e+000
   endloop
 endfacet
 facet normal -5.770320e-016 -1.030365e-015  1.000000e+000
   outer loop
     vertex  2.042957e+000  4.009529e+000  7.600000e+000
     vertex  2.351244e+000  3.836881e+000  7.600000e+000
     vertex  3.752777e+000  6.500000e+000  7.600000e+000
   endloop
 endfacet
 facet normal  8.205904e-016 -9.317284e-016  1.000000e+000
   outer loop
     vertex -3.100351e+000  3.261568e+000  7.600000e+000
     vertex -2.843739e+000  3.487570e+000  7.600000e+000
     vertex -3.752777e+000  6.500000e+000  7.600000e+000
   endloop
 endfacet
 facet normal -6.594765e-016 -9.869763e-016  1.000000e+000
   outer loop
     vertex  2.351244e+000  3.836881e+000  7.600000e+000
     vertex  2.645034e+000  3.640576e+000  7.600000e+000
     vertex  3.752777e+000  6.500000e+000  7.600000e+000
   endloop
 endfacet
 facet normal  7.244041e-016 -9.607539e-016  1.000000e+000
   outer loop
     vertex -2.843739e+000  3.487570e+000  7.600000e+000
     vertex -2.570707e+000  3.693435e+000  7.600000e+000
     vertex -3.752777e+000  6.500000e+000  7.600000e+000
   endloop
 endfacet
 facet normal -7.503243e-016 -9.517818e-016  1.000000e+000
   outer loop
     vertex  2.645034e+000  3.640576e+000  7.600000e+000
     vertex  2.922516e+000  3.421827e+000  7.600000e+000
     vertex  3.752777e+000  6.500000e+000  7.600000e+000
   endloop
 endfacet
 facet normal  6.389489e-016 -9.967459e-016  1.000000e+000
   outer loop
     vertex -2.570707e+000  3.693435e+000  7.600000e+000
     vertex -2.282831e+000  3.877974e+000  7.600000e+000
     vertex -3.752777e+000  6.500000e+000  7.600000e+000
   endloop
 endfacet
 facet normal -8.539748e-016 -9.238247e-016  1.000000e+000
   outer loop
     vertex  2.922516e+000  3.421827e+000  7.600000e+000
     vertex  3.181981e+000  3.181981e+000  7.600000e+000
     vertex  3.752777e+000  6.500000e+000  7.600000e+000
   endloop
 endfacet
 facet normal  5.605185e-016 -1.040715e-015  1.000000e+000
   outer loop
     vertex -2.282831e+000  3.877974e+000  7.600000e+000
     vertex -1.981774e+000  4.040120e+000  7.600000e+000
     vertex -3.752777e+000  6.500000e+000  7.600000e+000
   endloop
 endfacet
 facet normal -9.765725e-016 -9.027343e-016  1.000000e+000
   outer loop
     vertex  3.181981e+000  3.181981e+000  7.600000e+000
     vertex  3.421827e+000  2.922516e+000  7.600000e+000
     vertex  3.752777e+000  6.500000e+000  7.600000e+000
   endloop
 endfacet
 facet normal  4.861028e-016 -1.094291e-015  1.000000e+000
   outer loop
     vertex -1.981774e+000  4.040120e+000  7.600000e+000
     vertex -1.669273e+000  4.178938e+000  7.600000e+000
     vertex -3.752777e+000  6.500000e+000  7.600000e+000
   endloop
 endfacet
 facet normal -1.127412e-015 -8.887802e-016  1.000000e+000
   outer loop
     vertex  3.421827e+000  2.922516e+000  7.600000e+000
     vertex  3.640576e+000  2.645034e+000  7.600000e+000
     vertex  3.752777e+000  6.500000e+000  7.600000e+000
   endloop
 endfacet
 facet normal  0.000000e+000 -1.039720e-014  1.000000e+000
   outer loop
     vertex  4.487008e+000 -3.416990e-001  7.600000e+000
     vertex  7.505554e+000  0.000000e+000  7.600000e+000
     vertex  4.500000e+000  0.000000e+000  7.600000e+000
   endloop
 endfacet
 facet normal  4.129640e-016 -1.159944e-015  1.000000e+000
   outer loop
     vertex -1.669273e+000  4.178938e+000  7.600000e+000
     vertex -1.347134e+000  4.293627e+000  7.600000e+000
     vertex -3.752777e+000  6.500000e+000  7.600000e+000
   endloop
 endfacet
 facet normal -1.321691e-015 -8.831257e-016  1.000000e+000
   outer loop
     vertex  3.640576e+000  2.645034e+000  7.600000e+000
     vertex  3.836881e+000  2.351244e+000  7.600000e+000
     vertex  3.752777e+000  6.500000e+000  7.600000e+000
   endloop
 endfacet
 facet normal  3.382565e-016 -1.241399e-015  1.000000e+000
   outer loop
     vertex -1.347134e+000  4.293627e+000  7.600000e+000
     vertex -1.017216e+000  4.383523e+000  7.600000e+000
     vertex -3.752777e+000  6.500000e+000  7.600000e+000
   endloop
 endfacet
 facet normal  2.585744e-016 -1.344388e-015  1.000000e+000
   outer loop
     vertex -1.017216e+000  4.383523e+000  7.600000e+000
     vertex -6.814250e-001  4.448107e+000  7.600000e+000
     vertex -3.752777e+000  6.500000e+000  7.600000e+000
   endloop
 endfacet
 facet normal  1.692504e-016 -1.478092e-015  1.000000e+000
   outer loop
     vertex -6.814250e-001  4.448107e+000  7.600000e+000
     vertex -3.416990e-001  4.487008e+000  7.600000e+000
     vertex -3.752777e+000  6.500000e+000  7.600000e+000
   endloop
 endfacet
 facet normal -9.704830e-015 -1.821003e-014  1.000000e+000
   outer loop
     vertex -3.416990e-001  4.487008e+000  7.600000e+000
     vertex -1.102182e-015  4.500000e+000  7.600000e+000
     vertex -3.752777e+000  6.500000e+000  7.600000e+000
   endloop
 endfacet
 facet normal -2.195011e-017  1.732668e-015  1.000000e+000
   outer loop
     vertex  3.752777e+000 -6.500000e+000  7.600000e+000
     vertex  2.279213e-001 -4.494224e+000  7.600000e+000
     vertex -1.139972e-001 -4.498556e+000  7.600000e+000
   endloop
 endfacet
 facet normal -4.239293e-016 -1.149111e-015  1.000000e+000
   outer loop
     vertex  1.722075e+000  4.157458e+000  7.600000e+000
     vertex  3.752777e+000  6.500000e+000  7.600000e+000
     vertex  1.390576e+000  4.279754e+000  7.600000e+000
   endloop
 endfacet
 facet normal -0.000000e+000  1.006247e-014  1.000000e+000
   outer loop
     vertex  4.500000e+000  0.000000e+000  7.600000e+000
     vertex  7.505554e+000  0.000000e+000  7.600000e+000
     vertex  4.486128e+000  3.530659e-001  7.600000e+000
   endloop
 endfacet
 facet normal -1.193132e-015 -1.412164e-016  1.000000e+000
   outer loop
     vertex  4.486128e+000  3.530659e-001  7.600000e+000
     vertex  7.505554e+000  0.000000e+000  7.600000e+000
     vertex  4.444598e+000  7.039551e-001  7.600000e+000
   endloop
 endfacet
 facet normal -3.471278e-016 -1.230822e-015  1.000000e+000
   outer loop
     vertex  1.390576e+000  4.279754e+000  7.600000e+000
     vertex  3.752777e+000  6.500000e+000  7.600000e+000
     vertex  1.050504e+000  4.375665e+000  7.600000e+000
   endloop
 endfacet
 facet normal -1.216295e-015 -2.419361e-016  1.000000e+000
   outer loop
     vertex  4.444598e+000  7.039551e-001  7.600000e+000
     vertex  7.505554e+000  0.000000e+000  7.600000e+000
     vertex  4.375665e+000  1.050504e+000  7.600000e+000
   endloop
 endfacet
 facet normal -2.654840e-016 -1.334678e-015  1.000000e+000
   outer loop
     vertex  1.050504e+000  4.375665e+000  7.600000e+000
     vertex  3.752777e+000  6.500000e+000  7.600000e+000
     vertex  7.039551e-001  4.444598e+000  7.600000e+000
   endloop
 endfacet
 facet normal -1.253774e-015 -3.536008e-016  1.000000e+000
   outer loop
     vertex  4.375665e+000  1.050504e+000  7.600000e+000
     vertex  7.505554e+000  0.000000e+000  7.600000e+000
     vertex  4.279754e+000  1.390576e+000  7.600000e+000
   endloop
 endfacet
 facet normal -1.740261e-016 -1.470339e-015  1.000000e+000
   outer loop
     vertex  7.039551e-001  4.444598e+000  7.600000e+000
     vertex  3.752777e+000  6.500000e+000  7.600000e+000
     vertex  3.530659e-001  4.486128e+000  7.600000e+000
   endloop
 endfacet
 facet normal  1.009418e-016  1.591555e-015  1.000000e+000
   outer loop
     vertex -1.139972e-001 -4.498556e+000  7.600000e+000
     vertex -4.552574e-001 -4.476912e+000  7.600000e+000
     vertex -3.752777e+000 -6.500000e+000  7.600000e+000
   endloop
 endfacet
 facet normal  2.004691e-016  1.429331e-015  1.000000e+000
   outer loop
     vertex -4.552574e-001 -4.476912e+000  7.600000e+000
     vertex -7.938889e-001 -4.429418e+000  7.600000e+000
     vertex -3.752777e+000 -6.500000e+000  7.600000e+000
   endloop
 endfacet
 facet normal  2.859395e-016  1.307193e-015  1.000000e+000
   outer loop
     vertex -7.938889e-001 -4.429418e+000  7.600000e+000
     vertex -1.127936e+000 -4.356347e+000  7.600000e+000
     vertex -3.752777e+000 -6.500000e+000  7.600000e+000
   endloop
 endfacet
 facet normal  3.635259e-016  1.212191e-015  1.000000e+000
   outer loop
     vertex -1.127936e+000 -4.356347e+000  7.600000e+000
     vertex -1.455471e+000 -4.258122e+000  7.600000e+000
     vertex -3.752777e+000 -6.500000e+000  7.600000e+000
   endloop
 endfacet
 facet normal  9.371561e-015 -1.758469e-014  1.000000e+000
   outer loop
     vertex  3.530659e-001  4.486128e+000  7.600000e+000
     vertex  3.752777e+000  6.500000e+000  7.600000e+000
     vertex -1.102182e-015  4.500000e+000  7.600000e+000
   endloop
 endfacet
 facet normal  0.000000e+000  1.775075e-015  1.000000e+000
   outer loop
     vertex  3.752777e+000 -6.500000e+000  7.600000e+000
     vertex -1.139972e-001 -4.498556e+000  7.600000e+000
     vertex -3.752777e+000 -6.500000e+000  7.600000e+000
   endloop
 endfacet
 facet normal -1.309617e-015 -4.831432e-016  1.000000e+000
   outer loop
     vertex  4.279754e+000  1.390576e+000  7.600000e+000
     vertex  7.505554e+000  0.000000e+000  7.600000e+000
     vertex  4.157458e+000  1.722075e+000  7.600000e+000
   endloop
 endfacet
 facet normal  4.373708e-016  1.136520e-015  1.000000e+000
   outer loop
     vertex -3.752777e+000 -6.500000e+000  7.600000e+000
     vertex -1.455471e+000 -4.258122e+000  7.600000e+000
     vertex -1.774601e+000 -4.135310e+000  7.600000e+000
   endloop
 endfacet
 facet normal -1.390926e-015 -6.412255e-016  1.000000e+000
   outer loop
     vertex  4.157458e+000  1.722075e+000  7.600000e+000
     vertex  7.505554e+000  0.000000e+000  7.600000e+000
     vertex  4.009529e+000  2.042957e+000  7.600000e+000
   endloop
 endfacet
 facet normal  8.660254e-001 -5.000000e-001  0.000000e+000
   outer loop
     vertex -7.505554e+000  0.000000e+000  7.600000e+000
     vertex -3.752777e+000  6.500000e+000  7.600000e+000
     vertex -3.752777e+000  6.500000e+000  2.000000e+001
   endloop
 endfacet
 facet normal  8.660254e-001 -5.000000e-001  0.000000e+000
   outer loop
     vertex -7.505554e+000  0.000000e+000  7.600000e+000
     vertex -3.752777e+000  6.500000e+000  2.000000e+001
     vertex -7.505554e+000  0.000000e+000  2.000000e+001
   endloop
 endfacet
 facet normal -0.000000e+000  0.000000e+000  1.000000e+000
   outer loop
     vertex -7.505554e+000  0.000000e+000  2.000000e+001
     vertex -1.250000e+001 -6.500000e+000  2.000000e+001
     vertex -3.752777e+000 -6.500000e+000  2.000000e+001
   endloop
 endfacet
 facet normal -0.000000e+000  0.000000e+000  1.000000e+000
   outer loop
     vertex -1.250000e+001  6.500000e+000  2.000000e+001
     vertex -1.250000e+001 -6.500000e+000  2.000000e+001
     vertex -7.505554e+000  0.000000e+000  2.000000e+001
   endloop
 endfacet
 facet normal  0.000000e+000  0.000000e+000  1.000000e+000
   outer loop
     vertex -3.752777e+000  6.500000e+000  2.000000e+001
     vertex -1.250000e+001  6.500000e+000  2.000000e+001
     vertex -7.505554e+000  0.000000e+000  2.000000e+001
   endloop
 endfacet
 facet normal -1.000000e+000  0.000000e+000  0.000000e+000
   outer loop
     vertex -1.250000e+001  6.500000e+000  0.000000e+000
     vertex -1.250000e+001 -6.500000e+000  0.000000e+000
     vertex -1.250000e+001 -6.500000e+000  2.000000e+001
   endloop
 endfacet
 facet normal -1.000000e+000  0.000000e+000  0.000000e+000
   outer loop
     vertex -1.250000e+001  6.500000e+000  0.000000e+000
     vertex -1.250000e+001 -6.500000e+000  2.000000e+001
     vertex -1.250000e+001  6.500000e+000  2.000000e+001
   endloop
 endfacet
 facet normal  8.660254e-001  5.000000e-001 -0.000000e+000
   outer loop
     vertex -3.752777e+000 -6.500000e+000  7.600000e+000
     vertex -7.505554e+000  0.000000e+000  7.600000e+000
     vertex -7.505554e+000  0.000000e+000  2.000000e+001
   endloop
 endfacet
 facet normal  8.660254e-001  5.000000e-001  0.000000e+000
   outer loop
     vertex -3.752777e+000 -6.500000e+000  7.600000e+000
     vertex -7.505554e+000  0.000000e+000  2.000000e+001
     vertex -3.752777e+000 -6.500000e+000  2.000000e+001
   endloop
 endfacet
 facet normal -8.660254e-001  5.000000e-001  0.000000e+000
   outer loop
     vertex  7.505554e+000  0.000000e+000  7.600000e+000
     vertex  3.752777e+000 -6.500000e+000  7.600000e+000
     vertex  3.752777e+000 -6.500000e+000  2.000000e+001
   endloop
 endfacet
 facet normal -8.660254e-001  5.000000e-001  0.000000e+000
   outer loop
     vertex  7.505554e+000  0.000000e+000  7.600000e+000
     vertex  3.752777e+000 -6.500000e+000  2.000000e+001
     vertex  7.505554e+000  0.000000e+000  2.000000e+001
   endloop
 endfacet
 facet normal -9.993007e-001 -3.739119e-002  0.000000e+000
   outer loop
     vertex  4.487417e+000  3.362854e-001  0.000000e+000
     vertex  4.500000e+000  0.000000e+000  0.000000e+000
     vertex  4.500000e+000  0.000000e+000  7.600000e+000
   endloop
 endfacet
 facet normal -9.992290e-001 -3.925982e-002 -8.280157e-005
   outer loop
     vertex  4.487417e+000  3.362854e-001  0.000000e+000
     vertex  4.500000e+000  0.000000e+000  7.600000e+000
     vertex  4.486128e+000  3.530659e-001  7.600000e+000
   endloop
 endfacet
 facet normal -9.930684e-001 -1.175374e-001 -1.573263e-004
   outer loop
     vertex  4.449739e+000  6.706902e-001  0.000000e+000
     vertex  4.486128e+000  3.530659e-001  7.600000e+000
     vertex  4.444598e+000  7.039551e-001  7.600000e+000
   endloop
 endfacet
 facet normal -9.937122e-001 -1.119645e-001  7.866328e-005
   outer loop
     vertex  4.449739e+000  6.706902e-001  0.000000e+000
     vertex  4.487417e+000  3.362854e-001  0.000000e+000
     vertex  4.486128e+000  3.530659e-001  7.600000e+000
   endloop
 endfacet
 facet normal -9.807853e-001 -1.950903e-001 -2.235731e-004
   outer loop
     vertex  4.387176e+000  1.001344e+000  0.000000e+000
     vertex  4.444598e+000  7.039551e-001  7.600000e+000
     vertex  4.375665e+000  1.050504e+000  7.600000e+000
   endloop
 endfacet
 facet normal -9.825665e-001 -1.859116e-001  1.490492e-004
   outer loop
     vertex  4.387176e+000  1.001344e+000  0.000000e+000
     vertex  4.449739e+000  6.706902e-001  0.000000e+000
     vertex  4.444598e+000  7.039551e-001  7.600000e+000
   endloop
 endfacet
 facet normal -9.624552e-001 -2.714404e-001 -2.815411e-004
   outer loop
     vertex  4.300078e+000  1.326398e+000  0.000000e+000
     vertex  4.375665e+000  1.050504e+000  7.600000e+000
     vertex  4.279754e+000  1.390576e+000  7.600000e+000
   endloop
 endfacet
 facet normal -9.659258e-001 -2.588190e-001  2.111567e-004
   outer loop
     vertex  4.300078e+000  1.326398e+000  0.000000e+000
     vertex  4.387176e+000  1.001344e+000  0.000000e+000
     vertex  4.375665e+000  1.050504e+000  7.600000e+000
   endloop
 endfacet
 facet normal -9.381913e-001 -3.461170e-001 -3.312294e-004
   outer loop
     vertex  4.188932e+000  1.644035e+000  0.000000e+000
     vertex  4.279754e+000  1.390576e+000  7.600000e+000
     vertex  4.157458e+000  1.722075e+000  7.600000e+000
   endloop
 endfacet
 facet normal -9.438833e-001 -3.302791e-001  2.649849e-004
   outer loop
     vertex  4.188932e+000  1.644035e+000  0.000000e+000
     vertex  4.300078e+000  1.326398e+000  0.000000e+000
     vertex  4.279754e+000  1.390576e+000  7.600000e+000
   endloop
 endfacet
 facet normal -9.081431e-001 -4.186597e-001 -3.726374e-004
   outer loop
     vertex  4.054360e+000  1.952477e+000  0.000000e+000
     vertex  4.157458e+000  1.722075e+000  7.600000e+000
     vertex  4.009529e+000  2.042957e+000  7.600000e+000
   endloop
 endfacet
 facet normal -9.165622e-001 -3.998920e-001  3.105332e-004
   outer loop
     vertex  4.054360e+000  1.952477e+000  0.000000e+000
     vertex  4.188932e+000  1.644035e+000  0.000000e+000
     vertex  4.157458e+000  1.722075e+000  7.600000e+000
   endloop
 endfacet
 facet normal -8.724959e-001 -4.886212e-001 -4.057646e-004
   outer loop
     vertex  3.897114e+000  2.250000e+000  0.000000e+000
     vertex  4.009529e+000  2.042957e+000  7.600000e+000
     vertex  3.836881e+000  2.351244e+000  7.600000e+000
   endloop
 endfacet
 facet normal -8.841153e-001 -4.672686e-001  3.478008e-004
   outer loop
     vertex  3.897114e+000  2.250000e+000  0.000000e+000
     vertex  4.054360e+000  1.952477e+000  0.000000e+000
     vertex  4.009529e+000  2.042957e+000  7.600000e+000
   endloop
 endfacet
 facet normal -8.467241e-001 -5.320320e-001  3.767873e-004
   outer loop
     vertex  3.718074e+000  2.534940e+000  0.000000e+000
     vertex  3.897114e+000  2.250000e+000  0.000000e+000
     vertex  3.836881e+000  2.351244e+000  7.600000e+000
   endloop
 endfacet
 facet normal -8.314695e-001 -5.555702e-001 -4.306103e-004
   outer loop
     vertex  3.718074e+000  2.534940e+000  0.000000e+000
     vertex  3.836881e+000  2.351244e+000  7.600000e+000
     vertex  3.640576e+000  2.645034e+000  7.600000e+000
   endloop
 endfacet
 facet normal -8.045977e-001 -5.938201e-001  3.974922e-004
   outer loop
     vertex  3.518242e+000  2.805704e+000  0.000000e+000
     vertex  3.718074e+000  2.534940e+000  0.000000e+000
     vertex  3.640576e+000  2.645034e+000  7.600000e+000
   endloop
 endfacet
 facet normal -7.853169e-001 -6.190939e-001 -4.471743e-004
   outer loop
     vertex  3.518242e+000  2.805704e+000  0.000000e+000
     vertex  3.640576e+000  2.645034e+000  7.600000e+000
     vertex  3.421827e+000  2.922516e+000  7.600000e+000
   endloop
 endfacet
 facet normal -7.579717e-001 -6.522874e-001  4.099153e-004
   outer loop
     vertex  3.298733e+000  3.060777e+000  0.000000e+000
     vertex  3.518242e+000  2.805704e+000  0.000000e+000
     vertex  3.421827e+000  2.922516e+000  7.600000e+000
   endloop
 endfacet
 facet normal -7.343224e-001 -6.788007e-001 -4.554564e-004
   outer loop
     vertex  3.298733e+000  3.060777e+000  0.000000e+000
     vertex  3.421827e+000  2.922516e+000  7.600000e+000
     vertex  3.181981e+000  3.181981e+000  7.600000e+000
   endloop
 endfacet
 facet normal -7.071067e-001 -7.071067e-001  4.140563e-004
   outer loop
     vertex  3.060777e+000  3.298733e+000  0.000000e+000
     vertex  3.298733e+000  3.060777e+000  0.000000e+000
     vertex  3.181981e+000  3.181981e+000  7.600000e+000
   endloop
 endfacet
 facet normal -6.788007e-001 -7.343224e-001 -4.554564e-004
   outer loop
     vertex  3.060777e+000  3.298733e+000  0.000000e+000
     vertex  3.181981e+000  3.181981e+000  7.600000e+000
     vertex  2.922516e+000  3.421827e+000  7.600000e+000
   endloop
 endfacet
 facet normal -6.522874e-001 -7.579717e-001  4.099153e-004
   outer loop
     vertex  2.805704e+000  3.518242e+000  0.000000e+000
     vertex  3.060777e+000  3.298733e+000  0.000000e+000
     vertex  2.922516e+000  3.421827e+000  7.600000e+000
   endloop
 endfacet
 facet normal -6.190939e-001 -7.853169e-001 -4.471743e-004
   outer loop
     vertex  2.805704e+000  3.518242e+000  0.000000e+000
     vertex  2.922516e+000  3.421827e+000  7.600000e+000
     vertex  2.645034e+000  3.640576e+000  7.600000e+000
   endloop
 endfacet
 facet normal -5.938201e-001 -8.045977e-001  3.974922e-004
   outer loop
     vertex  2.534940e+000  3.718074e+000  0.000000e+000
     vertex  2.805704e+000  3.518242e+000  0.000000e+000
     vertex  2.645034e+000  3.640576e+000  7.600000e+000
   endloop
 endfacet
 facet normal -5.555702e-001 -8.314695e-001 -4.306103e-004
   outer loop
     vertex  2.534940e+000  3.718074e+000  0.000000e+000
     vertex  2.645034e+000  3.640576e+000  7.600000e+000
     vertex  2.351244e+000  3.836881e+000  7.600000e+000
   endloop
 endfacet
 facet normal -5.320320e-001 -8.467241e-001  3.767873e-004
   outer loop
     vertex  2.250000e+000  3.897114e+000  0.000000e+000
     vertex  2.534940e+000  3.718074e+000  0.000000e+000
     vertex  2.351244e+000  3.836881e+000  7.600000e+000
   endloop
 endfacet
 facet normal -4.886212e-001 -8.724959e-001 -4.057646e-004
   outer loop
     vertex  2.250000e+000  3.897114e+000  0.000000e+000
     vertex  2.351244e+000  3.836881e+000  7.600000e+000
     vertex  2.042957e+000  4.009529e+000  7.600000e+000
   endloop
 endfacet
 facet normal -4.672686e-001 -8.841153e-001  3.478008e-004
   outer loop
     vertex  1.952477e+000  4.054360e+000  0.000000e+000
     vertex  2.250000e+000  3.897114e+000  0.000000e+000
     vertex  2.042957e+000  4.009529e+000  7.600000e+000
   endloop
 endfacet
 facet normal -4.186597e-001 -9.081431e-001 -3.726374e-004
   outer loop
     vertex  1.952477e+000  4.054360e+000  0.000000e+000
     vertex  2.042957e+000  4.009529e+000  7.600000e+000
     vertex  1.722075e+000  4.157458e+000  7.600000e+000
   endloop
 endfacet
 facet normal -3.998920e-001 -9.165622e-001  3.105332e-004
   outer loop
     vertex  1.644035e+000  4.188932e+000  0.000000e+000
     vertex  1.952477e+000  4.054360e+000  0.000000e+000
     vertex  1.722075e+000  4.157458e+000  7.600000e+000
   endloop
 endfacet
 facet normal -3.461170e-001 -9.381913e-001 -3.312294e-004
   outer loop
     vertex  1.644035e+000  4.188932e+000  0.000000e+000
     vertex  1.722075e+000  4.157458e+000  7.600000e+000
     vertex  1.390576e+000  4.279754e+000  7.600000e+000
   endloop
 endfacet
 facet normal -3.302791e-001 -9.438833e-001  2.649849e-004
   outer loop
     vertex  1.326398e+000  4.300078e+000  0.000000e+000
     vertex  1.644035e+000  4.188932e+000  0.000000e+000
     vertex  1.390576e+000  4.279754e+000  7.600000e+000
   endloop
 endfacet
 facet normal -2.714404e-001 -9.624552e-001 -2.815411e-004
   outer loop
     vertex  1.326398e+000  4.300078e+000  0.000000e+000
     vertex  1.390576e+000  4.279754e+000  7.600000e+000
     vertex  1.050504e+000  4.375665e+000  7.600000e+000
   endloop
 endfacet
 facet normal -2.588190e-001 -9.659258e-001  2.111567e-004
   outer loop
     vertex  1.001344e+000  4.387176e+000  0.000000e+000
     vertex  1.326398e+000  4.300078e+000  0.000000e+000
     vertex  1.050504e+000  4.375665e+000  7.600000e+000
   endloop
 endfacet
 facet normal -1.950903e-001 -9.807853e-001 -2.235731e-004
   outer loop
     vertex  1.001344e+000  4.387176e+000  0.000000e+000
     vertex  1.050504e+000  4.375665e+000  7.600000e+000
     vertex  7.039551e-001  4.444598e+000  7.600000e+000
   endloop
 endfacet
 facet normal -1.859116e-001 -9.825665e-001  1.490492e-004
   outer loop
     vertex  6.706902e-001  4.449739e+000  0.000000e+000
     vertex  1.001344e+000  4.387176e+000  0.000000e+000
     vertex  7.039551e-001  4.444598e+000  7.600000e+000
   endloop
 endfacet
 facet normal -1.175374e-001 -9.930684e-001 -1.573263e-004
   outer loop
     vertex  6.706902e-001  4.449739e+000  0.000000e+000
     vertex  7.039551e-001  4.444598e+000  7.600000e+000
     vertex  3.530659e-001  4.486128e+000  7.600000e+000
   endloop
 endfacet
 facet normal -3.925982e-002 -9.992290e-001 -8.280157e-005
   outer loop
     vertex  3.362854e-001  4.487417e+000  0.000000e+000
     vertex  3.530659e-001  4.486128e+000  7.600000e+000
     vertex -1.102182e-015  4.500000e+000  7.600000e+000
   endloop
 endfacet
 facet normal -1.119645e-001 -9.937122e-001  7.866328e-005
   outer loop
     vertex  3.362854e-001  4.487417e+000  0.000000e+000
     vertex  6.706902e-001  4.449739e+000  0.000000e+000
     vertex  3.530659e-001  4.486128e+000  7.600000e+000
   endloop
 endfacet
 facet normal -3.739119e-002 -9.993007e-001  2.272216e-017
   outer loop
     vertex -5.719659e-015  4.500000e+000  0.000000e+000
     vertex  3.362854e-001  4.487417e+000  0.000000e+000
     vertex -1.102182e-015  4.500000e+000  7.600000e+000
   endloop
 endfacet
 facet normal  3.799399e-002 -9.992780e-001 -2.671020e-005
   outer loop
     vertex -3.362854e-001  4.487417e+000  0.000000e+000
     vertex -1.102182e-015  4.500000e+000  7.600000e+000
     vertex -3.416990e-001  4.487008e+000  7.600000e+000
   endloop
 endfacet
 facet normal  3.739119e-002 -9.993007e-001 -2.271749e-017
   outer loop
     vertex -3.362854e-001  4.487417e+000  0.000000e+000
     vertex -5.719659e-015  4.500000e+000  0.000000e+000
     vertex -1.102182e-015  4.500000e+000  7.600000e+000
   endloop
 endfacet
 facet normal  1.137626e-001 -9.935080e-001 -5.255916e-005
   outer loop
     vertex -6.706902e-001  4.449739e+000  0.000000e+000
     vertex -3.416990e-001  4.487008e+000  7.600000e+000
     vertex -6.814250e-001  4.448107e+000  7.600000e+000
   endloop
 endfacet
 facet normal  1.119645e-001 -9.937122e-001  2.627958e-005
   outer loop
     vertex -6.706902e-001  4.449739e+000  0.000000e+000
     vertex -3.362854e-001  4.487417e+000  0.000000e+000
     vertex -3.416990e-001  4.487008e+000  7.600000e+000
   endloop
 endfacet
 facet normal  1.888743e-001 -9.820013e-001 -7.754685e-005
   outer loop
     vertex -1.001344e+000  4.387176e+000  0.000000e+000
     vertex -6.814250e-001  4.448107e+000  7.600000e+000
     vertex -1.017216e+000  4.383523e+000  7.600000e+000
   endloop
 endfacet
 facet normal  1.859116e-001 -9.825665e-001  5.169791e-005
   outer loop
     vertex -1.001344e+000  4.387176e+000  0.000000e+000
     vertex -6.706902e-001  4.449739e+000  0.000000e+000
     vertex -6.814250e-001  4.448107e+000  7.600000e+000
   endloop
 endfacet
 facet normal  2.628954e-001 -9.648243e-001 -1.016732e-004
   outer loop
     vertex -1.326398e+000  4.300078e+000  0.000000e+000
     vertex -1.017216e+000  4.383523e+000  7.600000e+000
     vertex -1.347134e+000  4.293627e+000  7.600000e+000
   endloop
 endfacet
 facet normal  2.588190e-001 -9.659258e-001  7.625495e-005
   outer loop
     vertex -1.326398e+000  4.300078e+000  0.000000e+000
     vertex -1.001344e+000  4.387176e+000  0.000000e+000
     vertex -1.017216e+000  4.383523e+000  7.600000e+000
   endloop
 endfacet
 facet normal  3.353985e-001 -9.420763e-001 -1.249383e-004
   outer loop
     vertex -1.644035e+000  4.188932e+000  0.000000e+000
     vertex -1.347134e+000  4.293627e+000  7.600000e+000
     vertex -1.669273e+000  4.178938e+000  7.600000e+000
   endloop
 endfacet
 facet normal  3.302791e-001 -9.438833e-001  9.995066e-005
   outer loop
     vertex -1.644035e+000  4.188932e+000  0.000000e+000
     vertex -1.326398e+000  4.300078e+000  0.000000e+000
     vertex -1.347134e+000  4.293627e+000  7.600000e+000
   endloop
 endfacet
 facet normal  4.059650e-001 -9.138886e-001 -1.473419e-004
   outer loop
     vertex -1.952477e+000  4.054360e+000  0.000000e+000
     vertex -1.669273e+000  4.178938e+000  7.600000e+000
     vertex -1.981774e+000  4.040120e+000  7.600000e+000
   endloop
 endfacet
 facet normal  3.998920e-001 -9.165622e-001  1.227850e-004
   outer loop
     vertex -1.952477e+000  4.054360e+000  0.000000e+000
     vertex -1.644035e+000  4.188932e+000  0.000000e+000
     vertex -1.669273e+000  4.178938e+000  7.600000e+000
   endloop
 endfacet
 facet normal  4.741873e-001 -8.804240e-001 -1.688841e-004
   outer loop
     vertex -2.250000e+000  3.897114e+000  0.000000e+000
     vertex -1.981774e+000  4.040120e+000  7.600000e+000
     vertex -2.282831e+000  3.877974e+000  7.600000e+000
   endloop
 endfacet
 facet normal  4.672686e-001 -8.841154e-001  1.447579e-004
   outer loop
     vertex -2.250000e+000  3.897114e+000  0.000000e+000
     vertex -1.952477e+000  4.054360e+000  0.000000e+000
     vertex -1.981774e+000  4.040120e+000  7.600000e+000
   endloop
 endfacet
 facet normal  5.396717e-001 -8.418756e-001 -1.895649e-004
   outer loop
     vertex -2.534940e+000  3.718074e+000  0.000000e+000
     vertex -2.282831e+000  3.877974e+000  7.600000e+000
     vertex -2.570707e+000  3.693435e+000  7.600000e+000
   endloop
 endfacet
 facet normal  5.320321e-001 -8.467242e-001  1.658695e-004
   outer loop
     vertex -2.534940e+000  3.718074e+000  0.000000e+000
     vertex -2.250000e+000  3.897114e+000  0.000000e+000
     vertex -2.282831e+000  3.877974e+000  7.600000e+000
   endloop
 endfacet
 facet normal  6.020398e-001 -7.984660e-001 -2.093842e-004
   outer loop
     vertex -2.805704e+000  3.518242e+000  0.000000e+000
     vertex -2.570707e+000  3.693435e+000  7.600000e+000
     vertex -2.843739e+000  3.487570e+000  7.600000e+000
   endloop
 endfacet
 facet normal  5.938202e-001 -8.045978e-001  1.861195e-004
   outer loop
     vertex -2.805704e+000  3.518242e+000  0.000000e+000
     vertex -2.534940e+000  3.718074e+000  0.000000e+000
     vertex -2.570707e+000  3.693435e+000  7.600000e+000
   endloop
 endfacet
 facet normal  6.609317e-001 -7.504460e-001 -2.283421e-004
   outer loop
     vertex -3.060777e+000  3.298733e+000  0.000000e+000
     vertex -2.843739e+000  3.487570e+000  7.600000e+000
     vertex -3.100351e+000  3.261568e+000  7.600000e+000
   endloop
 endfacet
 facet normal  6.522874e-001 -7.579717e-001  2.055081e-004
   outer loop
     vertex -3.060777e+000  3.298733e+000  0.000000e+000
     vertex -2.805704e+000  3.518242e+000  0.000000e+000
     vertex -2.843739e+000  3.487570e+000  7.600000e+000
   endloop
 endfacet
 facet normal  7.160072e-001 -6.980928e-001 -2.464384e-004
   outer loop
     vertex -3.298733e+000  3.060777e+000  0.000000e+000
     vertex -3.100351e+000  3.261568e+000  7.600000e+000
     vertex -3.339061e+000  3.016732e+000  7.600000e+000
   endloop
 endfacet
 facet normal  7.071068e-001 -7.071068e-001  2.240352e-004
   outer loop
     vertex -3.298733e+000  3.060777e+000  0.000000e+000
     vertex -3.060777e+000  3.298733e+000  0.000000e+000
     vertex -3.100351e+000  3.261568e+000  7.600000e+000
   endloop
 endfacet
 facet normal  7.579717e-001 -6.522874e-001  2.417007e-004
   outer loop
     vertex -3.518242e+000  2.805704e+000  0.000000e+000
     vertex -3.298733e+000  3.060777e+000  0.000000e+000
     vertex -3.339061e+000  3.016732e+000  7.600000e+000
   endloop
 endfacet
 facet normal  7.669484e-001 -6.417087e-001 -2.636731e-004
   outer loop
     vertex -3.518242e+000  2.805704e+000  0.000000e+000
     vertex -3.339061e+000  3.016732e+000  7.600000e+000
     vertex -3.558491e+000  2.754477e+000  7.600000e+000
   endloop
 endfacet
 facet normal  8.045978e-001 -5.938202e-001  2.585046e-004
   outer loop
     vertex -3.718074e+000  2.534940e+000  0.000000e+000
     vertex -3.518242e+000  2.805704e+000  0.000000e+000
     vertex -3.558491e+000  2.754477e+000  7.600000e+000
   endloop
 endfacet
 facet normal  8.134611e-001 -5.816193e-001 -2.800462e-004
   outer loop
     vertex -3.718074e+000  2.534940e+000  0.000000e+000
     vertex -3.558491e+000  2.754477e+000  7.600000e+000
     vertex -3.757373e+000  2.476317e+000  7.600000e+000
   endloop
 endfacet
 facet normal  8.467242e-001 -5.320321e-001  2.744470e-004
   outer loop
     vertex -3.897114e+000  2.250000e+000  0.000000e+000
     vertex -3.718074e+000  2.534940e+000  0.000000e+000
     vertex -3.757373e+000  2.476317e+000  7.600000e+000
   endloop
 endfacet
 facet normal  8.552767e-001 -5.181715e-001 -2.955578e-004
   outer loop
     vertex -3.897114e+000  2.250000e+000  0.000000e+000
     vertex -3.757373e+000  2.476317e+000  7.600000e+000
     vertex -3.934560e+000  2.183859e+000  7.600000e+000
   endloop
 endfacet
 facet normal  8.841154e-001 -4.672686e-001  2.895277e-004
   outer loop
     vertex -4.054360e+000  1.952477e+000  0.000000e+000
     vertex -3.897114e+000  2.250000e+000  0.000000e+000
     vertex -3.934560e+000  2.183859e+000  7.600000e+000
   endloop
 endfacet
 facet normal  8.921538e-001 -4.517316e-001 -3.102077e-004
   outer loop
     vertex -4.054360e+000  1.952477e+000  0.000000e+000
     vertex -3.934560e+000  2.183859e+000  7.600000e+000
     vertex -4.089028e+000  1.878790e+000  7.600000e+000
   endloop
 endfacet
 facet normal  9.165622e-001 -3.998920e-001  3.037468e-004
   outer loop
     vertex -4.188932e+000  1.644035e+000  0.000000e+000
     vertex -4.054360e+000  1.952477e+000  0.000000e+000
     vertex -4.089028e+000  1.878790e+000  7.600000e+000
   endloop
 endfacet
 facet normal  9.238795e-001 -3.826834e-001 -3.239959e-004
   outer loop
     vertex -4.188932e+000  1.644035e+000  0.000000e+000
     vertex -4.089028e+000  1.878790e+000  7.600000e+000
     vertex -4.219885e+000  1.562874e+000  7.600000e+000
   endloop
 endfacet
 facet normal  9.438833e-001 -3.302790e-001  3.171042e-004
   outer loop
     vertex -4.300078e+000  1.326398e+000  0.000000e+000
     vertex -4.188932e+000  1.644035e+000  0.000000e+000
     vertex -4.219885e+000  1.562874e+000  7.600000e+000
   endloop
 endfacet
 facet normal  9.502705e-001 -3.114255e-001 -3.369225e-004
   outer loop
     vertex -4.300078e+000  1.326398e+000  0.000000e+000
     vertex -4.219885e+000  1.562874e+000  7.600000e+000
     vertex -4.326375e+000  1.237933e+000  7.600000e+000
   endloop
 endfacet
 facet normal  9.659258e-001 -2.588190e-001  3.296000e-004
   outer loop
     vertex -4.387176e+000  1.001344e+000  0.000000e+000
     vertex -4.300078e+000  1.326398e+000  0.000000e+000
     vertex -4.326375e+000  1.237933e+000  7.600000e+000
   endloop
 endfacet
 facet normal  9.711745e-001 -2.383694e-001 -3.489875e-004
   outer loop
     vertex -4.387176e+000  1.001344e+000  0.000000e+000
     vertex -4.326375e+000  1.237933e+000  7.600000e+000
     vertex -4.407885e+000  9.058433e-001  7.600000e+000
   endloop
 endfacet
 facet normal  9.864708e-001 -1.639369e-001 -3.601907e-004
   outer loop
     vertex -4.449739e+000  6.706902e-001  0.000000e+000
     vertex -4.407885e+000  9.058433e-001  7.600000e+000
     vertex -4.463942e+000  5.685237e-001  7.600000e+000
   endloop
 endfacet
 facet normal  9.825664e-001 -1.859116e-001  3.412340e-004
   outer loop
     vertex -4.449739e+000  6.706902e-001  0.000000e+000
     vertex -4.387176e+000  1.001344e+000  0.000000e+000
     vertex -4.407885e+000  9.058433e-001  7.600000e+000
   endloop
 endfacet
 facet normal  9.960710e-001 -8.855782e-002 -3.705321e-004
   outer loop
     vertex -4.487417e+000  3.362854e-001  0.000000e+000
     vertex -4.463942e+000  5.685237e-001  7.600000e+000
     vertex -4.494224e+000  2.279213e-001  7.600000e+000
   endloop
 endfacet
 facet normal  9.937121e-001 -1.119645e-001  3.520064e-004
   outer loop
     vertex -4.487417e+000  3.362854e-001  0.000000e+000
     vertex -4.449739e+000  6.706902e-001  0.000000e+000
     vertex -4.463942e+000  5.685237e-001  7.600000e+000
   endloop
 endfacet
 facet normal  9.999197e-001 -1.266737e-002 -3.800119e-004
   outer loop
     vertex -4.500000e+000 -1.143932e-014  0.000000e+000
     vertex -4.494224e+000  2.279213e-001  7.600000e+000
     vertex -4.498556e+000 -1.139972e-001  7.600000e+000
   endloop
 endfacet
 facet normal  9.993006e-001 -3.739119e-002  3.619170e-004
   outer loop
     vertex -4.500000e+000 -1.143932e-014  0.000000e+000
     vertex -4.487417e+000  3.362854e-001  0.000000e+000
     vertex -4.494224e+000  2.279213e-001  7.600000e+000
   endloop
 endfacet
 facet normal  9.979947e-001  6.329622e-002 -3.886299e-004
   outer loop
     vertex -4.487417e+000 -3.362854e-001  0.000000e+000
     vertex -4.498556e+000 -1.139972e-001  7.600000e+000
     vertex -4.476912e+000 -4.552574e-001  7.600000e+000
   endloop
 endfacet
 facet normal  9.993006e-001  3.739119e-002  3.709658e-004
   outer loop
     vertex -4.487417e+000 -3.362854e-001  0.000000e+000
     vertex -4.500000e+000 -1.143932e-014  0.000000e+000
     vertex -4.498556e+000 -1.139972e-001  7.600000e+000
   endloop
 endfacet
 facet normal  9.903071e-001  1.388943e-001 -3.963861e-004
   outer loop
     vertex -4.449739e+000 -6.706902e-001  0.000000e+000
     vertex -4.476912e+000 -4.552574e-001  7.600000e+000
     vertex -4.429418e+000 -7.938889e-001  7.600000e+000
   endloop
 endfacet
 facet normal  9.937121e-001  1.119645e-001  3.791530e-004
   outer loop
     vertex -4.449739e+000 -6.706902e-001  0.000000e+000
     vertex -4.487417e+000 -3.362854e-001  0.000000e+000
     vertex -4.476912e+000 -4.552574e-001  7.600000e+000
   endloop
 endfacet
 facet normal  9.769013e-001  2.136904e-001 -4.032805e-004
   outer loop
     vertex -4.387176e+000 -1.001344e+000  0.000000e+000
     vertex -4.429418e+000 -7.938889e-001  7.600000e+000
     vertex -4.356347e+000 -1.127936e+000  7.600000e+000
   endloop
 endfacet
 facet normal  9.825664e-001  1.859116e-001  3.864783e-004
   outer loop
     vertex -4.387176e+000 -1.001344e+000  0.000000e+000
     vertex -4.449739e+000 -6.706902e-001  0.000000e+000
     vertex -4.429418e+000 -7.938889e-001  7.600000e+000
   endloop
 endfacet
 facet normal  9.578548e-001  2.872526e-001 -4.093132e-004
   outer loop
     vertex -4.300078e+000 -1.326398e+000  0.000000e+000
     vertex -4.356347e+000 -1.127936e+000  7.600000e+000
     vertex -4.258122e+000 -1.455471e+000  7.600000e+000
   endloop
 endfacet
 facet normal  9.659258e-001  2.588190e-001  3.929419e-004
   outer loop
     vertex -4.300078e+000 -1.326398e+000  0.000000e+000
     vertex -4.387176e+000 -1.001344e+000  0.000000e+000
     vertex -4.356347e+000 -1.127936e+000  7.600000e+000
   endloop
 endfacet
 facet normal  9.332774e-001  3.591562e-001 -4.144841e-004
   outer loop
     vertex -4.188932e+000 -1.644035e+000  0.000000e+000
     vertex -4.258122e+000 -1.455471e+000  7.600000e+000
     vertex -4.135310e+000 -1.774601e+000  7.600000e+000
   endloop
 endfacet
 facet normal  9.438833e-001  3.302790e-001  3.985436e-004
   outer loop
     vertex -4.188932e+000 -1.644035e+000  0.000000e+000
     vertex -4.300078e+000 -1.326398e+000  0.000000e+000
     vertex -4.258122e+000 -1.455471e+000  7.600000e+000
   endloop
 endfacet
 facet normal  9.033111e-001  4.289860e-001 -4.187932e-004
   outer loop
     vertex -4.054360e+000 -1.952477e+000  0.000000e+000
     vertex -4.135310e+000 -1.774601e+000  7.600000e+000
     vertex -3.988620e+000 -2.083485e+000  7.600000e+000
   endloop
 endfacet
 facet normal  9.165622e-001  3.998920e-001  4.032836e-004
   outer loop
     vertex -4.054360e+000 -1.952477e+000  0.000000e+000
     vertex -4.188932e+000 -1.644035e+000  0.000000e+000
     vertex -4.135310e+000 -1.774601e+000  7.600000e+000
   endloop
 endfacet
 facet normal  8.681289e-001  4.963387e-001 -4.222404e-004
   outer loop
     vertex -3.897114e+000 -2.250000e+000  0.000000e+000
     vertex -3.988620e+000 -2.083485e+000  7.600000e+000
     vertex -3.818899e+000 -2.380338e+000  7.600000e+000
   endloop
 endfacet
 facet normal  8.841153e-001  4.672686e-001  4.071618e-004
   outer loop
     vertex -3.897114e+000 -2.250000e+000  0.000000e+000
     vertex -4.054360e+000 -1.952477e+000  0.000000e+000
     vertex -3.988620e+000 -2.083485e+000  7.600000e+000
   endloop
 endfacet
 facet normal  8.279340e-001  5.608254e-001 -4.248259e-004
   outer loop
     vertex -3.718074e+000 -2.534940e+000  0.000000e+000
     vertex -3.818899e+000 -2.380338e+000  7.600000e+000
     vertex -3.627127e+000 -2.663447e+000  7.600000e+000
   endloop
 endfacet
 facet normal  8.467241e-001  5.320320e-001  4.101781e-004
   outer loop
     vertex -3.718074e+000 -2.534940e+000  0.000000e+000
     vertex -3.897114e+000 -2.250000e+000  0.000000e+000
     vertex -3.818899e+000 -2.380338e+000  7.600000e+000
   endloop
 endfacet
 facet normal  7.829584e-001  6.220739e-001 -4.265495e-004
   outer loop
     vertex -3.518242e+000 -2.805704e+000  0.000000e+000
     vertex -3.627127e+000 -2.663447e+000  7.600000e+000
     vertex -3.414412e+000 -2.931176e+000  7.600000e+000
   endloop
 endfacet
 facet normal  8.045977e-001  5.938201e-001  4.123327e-004
   outer loop
     vertex -3.518242e+000 -2.805704e+000  0.000000e+000
     vertex -3.718074e+000 -2.534940e+000  0.000000e+000
     vertex -3.627127e+000 -2.663447e+000  7.600000e+000
   endloop
 endfacet
 facet normal  7.334620e-001  6.797304e-001 -4.274113e-004
   outer loop
     vertex -3.298733e+000 -3.060777e+000  0.000000e+000
     vertex -3.414412e+000 -2.931176e+000  7.600000e+000
     vertex -3.181981e+000 -3.181981e+000  7.600000e+000
   endloop
 endfacet
 facet normal  7.579717e-001  6.522874e-001  4.136254e-004
   outer loop
     vertex -3.298733e+000 -3.060777e+000  0.000000e+000
     vertex -3.518242e+000 -2.805704e+000  0.000000e+000
     vertex -3.414412e+000 -2.931176e+000  7.600000e+000
   endloop
 endfacet
 facet normal  6.797304e-001  7.334620e-001 -4.274113e-004
   outer loop
     vertex -3.060777e+000 -3.298733e+000  0.000000e+000
     vertex -3.181981e+000 -3.181981e+000  7.600000e+000
     vertex -2.931176e+000 -3.414412e+000  7.600000e+000
   endloop
 endfacet
 facet normal  7.071067e-001  7.071067e-001  4.140563e-004
   outer loop
     vertex -3.060777e+000 -3.298733e+000  0.000000e+000
     vertex -3.298733e+000 -3.060777e+000  0.000000e+000
     vertex -3.181981e+000 -3.181981e+000  7.600000e+000
   endloop
 endfacet
 facet normal  6.220739e-001  7.829584e-001 -4.265495e-004
   outer loop
     vertex -2.805704e+000 -3.518242e+000  0.000000e+000
     vertex -2.931176e+000 -3.414412e+000  7.600000e+000
     vertex -2.663447e+000 -3.627127e+000  7.600000e+000
   endloop
 endfacet
 facet normal  6.522874e-001  7.579717e-001  4.136254e-004
   outer loop
     vertex -2.805704e+000 -3.518242e+000  0.000000e+000
     vertex -3.060777e+000 -3.298733e+000  0.000000e+000
     vertex -2.931176e+000 -3.414412e+000  7.600000e+000
   endloop
 endfacet
 facet normal  5.608254e-001  8.279340e-001 -4.248259e-004
   outer loop
     vertex -2.534940e+000 -3.718074e+000  0.000000e+000
     vertex -2.663447e+000 -3.627127e+000  7.600000e+000
     vertex -2.380338e+000 -3.818899e+000  7.600000e+000
   endloop
 endfacet
 facet normal  5.938201e-001  8.045977e-001  4.123327e-004
   outer loop
     vertex -2.534940e+000 -3.718074e+000  0.000000e+000
     vertex -2.805704e+000 -3.518242e+000  0.000000e+000
     vertex -2.663447e+000 -3.627127e+000  7.600000e+000
   endloop
 endfacet
 facet normal  4.963387e-001  8.681289e-001 -4.222404e-004
   outer loop
     vertex -2.250000e+000 -3.897114e+000  0.000000e+000
     vertex -2.380338e+000 -3.818899e+000  7.600000e+000
     vertex -2.083485e+000 -3.988620e+000  7.600000e+000
   endloop
 endfacet
 facet normal  5.320320e-001  8.467241e-001  4.101781e-004
   outer loop
     vertex -2.250000e+000 -3.897114e+000  0.000000e+000
     vertex -2.534940e+000 -3.718074e+000  0.000000e+000
     vertex -2.380338e+000 -3.818899e+000  7.600000e+000
   endloop
 endfacet
 facet normal  4.289860e-001  9.033111e-001 -4.187932e-004
   outer loop
     vertex -1.952477e+000 -4.054360e+000  0.000000e+000
     vertex -2.083485e+000 -3.988620e+000  7.600000e+000
     vertex -1.774601e+000 -4.135310e+000  7.600000e+000
   endloop
 endfacet
 facet normal  4.672686e-001  8.841153e-001  4.071618e-004
   outer loop
     vertex -1.952477e+000 -4.054360e+000  0.000000e+000
     vertex -2.250000e+000 -3.897114e+000  0.000000e+000
     vertex -2.083485e+000 -3.988620e+000  7.600000e+000
   endloop
 endfacet
 facet normal  3.591562e-001  9.332774e-001 -4.144841e-004
   outer loop
     vertex -1.644035e+000 -4.188932e+000  0.000000e+000
     vertex -1.774601e+000 -4.135310e+000  7.600000e+000
     vertex -1.455471e+000 -4.258122e+000  7.600000e+000
   endloop
 endfacet
 facet normal  3.998920e-001  9.165622e-001  4.032836e-004
   outer loop
     vertex -1.644035e+000 -4.188932e+000  0.000000e+000
     vertex -1.952477e+000 -4.054360e+000  0.000000e+000
     vertex -1.774601e+000 -4.135310e+000  7.600000e+000
   endloop
 endfacet
 facet normal  3.302790e-001  9.438833e-001  3.985436e-004
   outer loop
     vertex -1.326398e+000 -4.300078e+000  0.000000e+000
     vertex -1.644035e+000 -4.188932e+000  0.000000e+000
     vertex -1.455471e+000 -4.258122e+000  7.600000e+000
   endloop
 endfacet
 facet normal  2.872526e-001  9.578548e-001 -4.093132e-004
   outer loop
     vertex -1.326398e+000 -4.300078e+000  0.000000e+000
     vertex -1.455471e+000 -4.258122e+000  7.600000e+000
     vertex -1.127936e+000 -4.356347e+000  7.600000e+000
   endloop
 endfacet
 facet normal  2.136904e-001  9.769013e-001 -4.032805e-004
   outer loop
     vertex -1.001344e+000 -4.387176e+000  0.000000e+000
     vertex -1.127936e+000 -4.356347e+000  7.600000e+000
     vertex -7.938889e-001 -4.429418e+000  7.600000e+000
   endloop
 endfacet
 facet normal  2.588190e-001  9.659258e-001  3.929419e-004
   outer loop
     vertex -1.001344e+000 -4.387176e+000  0.000000e+000
     vertex -1.326398e+000 -4.300078e+000  0.000000e+000
     vertex -1.127936e+000 -4.356347e+000  7.600000e+000
   endloop
 endfacet
 facet normal  1.859116e-001  9.825664e-001  3.864783e-004
   outer loop
     vertex -6.706902e-001 -4.449739e+000  0.000000e+000
     vertex -1.001344e+000 -4.387176e+000  0.000000e+000
     vertex -7.938889e-001 -4.429418e+000  7.600000e+000
   endloop
 endfacet
 facet normal  1.388943e-001  9.903071e-001 -3.963861e-004
   outer loop
     vertex -6.706902e-001 -4.449739e+000  0.000000e+000
     vertex -7.938889e-001 -4.429418e+000  7.600000e+000
     vertex -4.552574e-001 -4.476912e+000  7.600000e+000
   endloop
 endfacet
 facet normal  6.329622e-002  9.979947e-001 -3.886299e-004
   outer loop
     vertex -3.362854e-001 -4.487417e+000  0.000000e+000
     vertex -4.552574e-001 -4.476912e+000  7.600000e+000
     vertex -1.139972e-001 -4.498556e+000  7.600000e+000
   endloop
 endfacet
 facet normal  1.119645e-001  9.937121e-001  3.791530e-004
   outer loop
     vertex -3.362854e-001 -4.487417e+000  0.000000e+000
     vertex -6.706902e-001 -4.449739e+000  0.000000e+000
     vertex -4.552574e-001 -4.476912e+000  7.600000e+000
   endloop
 endfacet
 facet normal -1.266737e-002  9.999197e-001 -3.800119e-004
   outer loop
     vertex  7.166969e-015 -4.500000e+000  0.000000e+000
     vertex -1.139972e-001 -4.498556e+000  7.600000e+000
     vertex  2.279213e-001 -4.494224e+000  7.600000e+000
   endloop
 endfacet
 facet normal  3.739119e-002  9.993006e-001  3.709658e-004
   outer loop
     vertex  7.166969e-015 -4.500000e+000  0.000000e+000
     vertex -3.362854e-001 -4.487417e+000  0.000000e+000
     vertex -1.139972e-001 -4.498556e+000  7.600000e+000
   endloop
 endfacet
 facet normal -8.855782e-002  9.960710e-001 -3.705321e-004
   outer loop
     vertex  3.362854e-001 -4.487417e+000  0.000000e+000
     vertex  2.279213e-001 -4.494224e+000  7.600000e+000
     vertex  5.685237e-001 -4.463942e+000  7.600000e+000
   endloop
 endfacet
 facet normal -3.739119e-002  9.993006e-001  3.619170e-004
   outer loop
     vertex  3.362854e-001 -4.487417e+000  0.000000e+000
     vertex  7.166969e-015 -4.500000e+000  0.000000e+000
     vertex  2.279213e-001 -4.494224e+000  7.600000e+000
   endloop
 endfacet
 facet normal -1.639369e-001  9.864708e-001 -3.601907e-004
   outer loop
     vertex  6.706902e-001 -4.449739e+000  0.000000e+000
     vertex  5.685237e-001 -4.463942e+000  7.600000e+000
     vertex  9.058433e-001 -4.407885e+000  7.600000e+000
   endloop
 endfacet
 facet normal -1.119645e-001  9.937121e-001  3.520064e-004
   outer loop
     vertex  6.706902e-001 -4.449739e+000  0.000000e+000
     vertex  3.362854e-001 -4.487417e+000  0.000000e+000
     vertex  5.685237e-001 -4.463942e+000  7.600000e+000
   endloop
 endfacet
 facet normal -2.383694e-001  9.711745e-001 -3.489875e-004
   outer loop
     vertex  1.001344e+000 -4.387176e+000  0.000000e+000
     vertex  9.058433e-001 -4.407885e+000  7.600000e+000
     vertex  1.237933e+000 -4.326375e+000  7.600000e+000
   endloop
 endfacet
 facet normal -1.859116e-001  9.825664e-001  3.412340e-004
   outer loop
     vertex  1.001344e+000 -4.387176e+000  0.000000e+000
     vertex  6.706902e-001 -4.449739e+000  0.000000e+000
     vertex  9.058433e-001 -4.407885e+000  7.600000e+000
   endloop
 endfacet
 facet normal -3.114255e-001  9.502705e-001 -3.369225e-004
   outer loop
     vertex  1.326398e+000 -4.300078e+000  0.000000e+000
     vertex  1.237933e+000 -4.326375e+000  7.600000e+000
     vertex  1.562874e+000 -4.219885e+000  7.600000e+000
   endloop
 endfacet
 facet normal -2.588190e-001  9.659258e-001  3.296000e-004
   outer loop
     vertex  1.326398e+000 -4.300078e+000  0.000000e+000
     vertex  1.001344e+000 -4.387176e+000  0.000000e+000
     vertex  1.237933e+000 -4.326375e+000  7.600000e+000
   endloop
 endfacet
 facet normal -3.826834e-001  9.238795e-001 -3.239959e-004
   outer loop
     vertex  1.644035e+000 -4.188932e+000  0.000000e+000
     vertex  1.562874e+000 -4.219885e+000  7.600000e+000
     vertex  1.878790e+000 -4.089028e+000  7.600000e+000
   endloop
 endfacet
 facet normal -3.302790e-001  9.438833e-001  3.171042e-004
   outer loop
     vertex  1.644035e+000 -4.188932e+000  0.000000e+000
     vertex  1.326398e+000 -4.300078e+000  0.000000e+000
     vertex  1.562874e+000 -4.219885e+000  7.600000e+000
   endloop
 endfacet
 facet normal -4.517316e-001  8.921538e-001 -3.102077e-004
   outer loop
     vertex  1.952477e+000 -4.054360e+000  0.000000e+000
     vertex  1.878790e+000 -4.089028e+000  7.600000e+000
     vertex  2.183859e+000 -3.934560e+000  7.600000e+000
   endloop
 endfacet
 facet normal -3.998920e-001  9.165622e-001  3.037468e-004
   outer loop
     vertex  1.952477e+000 -4.054360e+000  0.000000e+000
     vertex  1.644035e+000 -4.188932e+000  0.000000e+000
     vertex  1.878790e+000 -4.089028e+000  7.600000e+000
   endloop
 endfacet
 facet normal -4.672686e-001  8.841154e-001  2.895277e-004
   outer loop
     vertex  2.250000e+000 -3.897114e+000  0.000000e+000
     vertex  1.952477e+000 -4.054360e+000  0.000000e+000
     vertex  2.183859e+000 -3.934560e+000  7.600000e+000
   endloop
 endfacet
 facet normal -5.181715e-001  8.552767e-001 -2.955578e-004
   outer loop
     vertex  2.250000e+000 -3.897114e+000  0.000000e+000
     vertex  2.183859e+000 -3.934560e+000  7.600000e+000
     vertex  2.476317e+000 -3.757373e+000  7.600000e+000
   endloop
 endfacet
 facet normal -5.320321e-001  8.467242e-001  2.744470e-004
   outer loop
     vertex  2.534940e+000 -3.718074e+000  0.000000e+000
     vertex  2.250000e+000 -3.897114e+000  0.000000e+000
     vertex  2.476317e+000 -3.757373e+000  7.600000e+000
   endloop
 endfacet
 facet normal -5.816193e-001  8.134611e-001 -2.800462e-004
   outer loop
     vertex  2.534940e+000 -3.718074e+000  0.000000e+000
     vertex  2.476317e+000 -3.757373e+000  7.600000e+000
     vertex  2.754477e+000 -3.558491e+000  7.600000e+000
   endloop
 endfacet
 facet normal -5.938202e-001  8.045978e-001  2.585046e-004
   outer loop
     vertex  2.805704e+000 -3.518242e+000  0.000000e+000
     vertex  2.534940e+000 -3.718074e+000  0.000000e+000
     vertex  2.754477e+000 -3.558491e+000  7.600000e+000
   endloop
 endfacet
 facet normal -6.417087e-001  7.669484e-001 -2.636731e-004
   outer loop
     vertex  2.805704e+000 -3.518242e+000  0.000000e+000
     vertex  2.754477e+000 -3.558491e+000  7.600000e+000
     vertex  3.016732e+000 -3.339061e+000  7.600000e+000
   endloop
 endfacet
 facet normal -6.522874e-001  7.579717e-001  2.417007e-004
   outer loop
     vertex  3.060777e+000 -3.298733e+000  0.000000e+000
     vertex  2.805704e+000 -3.518242e+000  0.000000e+000
     vertex  3.016732e+000 -3.339061e+000  7.600000e+000
   endloop
 endfacet
 facet normal -6.980928e-001  7.160072e-001 -2.464384e-004
   outer loop
     vertex  3.060777e+000 -3.298733e+000  0.000000e+000
     vertex  3.016732e+000 -3.339061e+000  7.600000e+000
     vertex  3.261568e+000 -3.100351e+000  7.600000e+000
   endloop
 endfacet
 facet normal -7.071068e-001  7.071068e-001  2.240352e-004
   outer loop
     vertex  3.298733e+000 -3.060777e+000  0.000000e+000
     vertex  3.060777e+000 -3.298733e+000  0.000000e+000
     vertex  3.261568e+000 -3.100351e+000  7.600000e+000
   endloop
 endfacet
 facet normal -7.504460e-001  6.609317e-001 -2.283421e-004
   outer loop
     vertex  3.298733e+000 -3.060777e+000  0.000000e+000
     vertex  3.261568e+000 -3.100351e+000  7.600000e+000
     vertex  3.487570e+000 -2.843739e+000  7.600000e+000
   endloop
 endfacet
 facet normal -7.579717e-001  6.522874e-001  2.055081e-004
   outer loop
     vertex  3.518242e+000 -2.805704e+000  0.000000e+000
     vertex  3.298733e+000 -3.060777e+000  0.000000e+000
     vertex  3.487570e+000 -2.843739e+000  7.600000e+000
   endloop
 endfacet
 facet normal -7.984660e-001  6.020398e-001 -2.093842e-004
   outer loop
     vertex  3.518242e+000 -2.805704e+000  0.000000e+000
     vertex  3.487570e+000 -2.843739e+000  7.600000e+000
     vertex  3.693435e+000 -2.570707e+000  7.600000e+000
   endloop
 endfacet
 facet normal -8.045978e-001  5.938202e-001  1.861195e-004
   outer loop
     vertex  3.718074e+000 -2.534940e+000  0.000000e+000
     vertex  3.518242e+000 -2.805704e+000  0.000000e+000
     vertex  3.693435e+000 -2.570707e+000  7.600000e+000
   endloop
 endfacet
 facet normal -8.418756e-001  5.396717e-001 -1.895649e-004
   outer loop
     vertex  3.718074e+000 -2.534940e+000  0.000000e+000
     vertex  3.693435e+000 -2.570707e+000  7.600000e+000
     vertex  3.877974e+000 -2.282831e+000  7.600000e+000
   endloop
 endfacet
 facet normal -8.467242e-001  5.320321e-001  1.658695e-004
   outer loop
     vertex  3.897114e+000 -2.250000e+000  0.000000e+000
     vertex  3.718074e+000 -2.534940e+000  0.000000e+000
     vertex  3.877974e+000 -2.282831e+000  7.600000e+000
   endloop
 endfacet
 facet normal -8.804240e-001  4.741873e-001 -1.688841e-004
   outer loop
     vertex  3.897114e+000 -2.250000e+000  0.000000e+000
     vertex  3.877974e+000 -2.282831e+000  7.600000e+000
     vertex  4.040120e+000 -1.981774e+000  7.600000e+000
   endloop
 endfacet
 facet normal -8.841154e-001  4.672686e-001  1.447579e-004
   outer loop
     vertex  4.054360e+000 -1.952477e+000  0.000000e+000
     vertex  3.897114e+000 -2.250000e+000  0.000000e+000
     vertex  4.040120e+000 -1.981774e+000  7.600000e+000
   endloop
 endfacet
 facet normal -9.138886e-001  4.059650e-001 -1.473419e-004
   outer loop
     vertex  4.054360e+000 -1.952477e+000  0.000000e+000
     vertex  4.040120e+000 -1.981774e+000  7.600000e+000
     vertex  4.178938e+000 -1.669273e+000  7.600000e+000
   endloop
 endfacet
 facet normal -9.165622e-001  3.998920e-001  1.227850e-004
   outer loop
     vertex  4.188932e+000 -1.644035e+000  0.000000e+000
     vertex  4.054360e+000 -1.952477e+000  0.000000e+000
     vertex  4.178938e+000 -1.669273e+000  7.600000e+000
   endloop
 endfacet
 facet normal -9.420763e-001  3.353985e-001 -1.249383e-004
   outer loop
     vertex  4.188932e+000 -1.644035e+000  0.000000e+000
     vertex  4.178938e+000 -1.669273e+000  7.600000e+000
     vertex  4.293627e+000 -1.347134e+000  7.600000e+000
   endloop
 endfacet
 facet normal -9.438833e-001  3.302791e-001  9.995066e-005
   outer loop
     vertex  4.300078e+000 -1.326398e+000  0.000000e+000
     vertex  4.188932e+000 -1.644035e+000  0.000000e+000
     vertex  4.293627e+000 -1.347134e+000  7.600000e+000
   endloop
 endfacet
 facet normal -9.648243e-001  2.628954e-001 -1.016732e-004
   outer loop
     vertex  4.300078e+000 -1.326398e+000  0.000000e+000
     vertex  4.293627e+000 -1.347134e+000  7.600000e+000
     vertex  4.383523e+000 -1.017216e+000  7.600000e+000
   endloop
 endfacet
 facet normal -9.820013e-001  1.888743e-001 -7.754685e-005
   outer loop
     vertex  4.387176e+000 -1.001344e+000  0.000000e+000
     vertex  4.383523e+000 -1.017216e+000  7.600000e+000
     vertex  4.448107e+000 -6.814250e-001  7.600000e+000
   endloop
 endfacet
 facet normal -9.659258e-001  2.588190e-001  7.625495e-005
   outer loop
     vertex  4.387176e+000 -1.001344e+000  0.000000e+000
     vertex  4.300078e+000 -1.326398e+000  0.000000e+000
     vertex  4.383523e+000 -1.017216e+000  7.600000e+000
   endloop
 endfacet
 facet normal -9.935080e-001  1.137626e-001 -5.255916e-005
   outer loop
     vertex  4.449739e+000 -6.706902e-001  0.000000e+000
     vertex  4.448107e+000 -6.814250e-001  7.600000e+000
     vertex  4.487008e+000 -3.416990e-001  7.600000e+000
   endloop
 endfacet
 facet normal -9.825665e-001  1.859116e-001  5.169791e-005
   outer loop
     vertex  4.449739e+000 -6.706902e-001  0.000000e+000
     vertex  4.387176e+000 -1.001344e+000  0.000000e+000
     vertex  4.448107e+000 -6.814250e-001  7.600000e+000
   endloop
 endfacet
 facet normal -9.992780e-001  3.799399e-002 -2.671020e-005
   outer loop
     vertex  4.487417e+000 -3.362854e-001  0.000000e+000
     vertex  4.487008e+000 -3.416990e-001  7.600000e+000
     vertex  4.500000e+000  0.000000e+000  7.600000e+000
   endloop
 endfacet
 facet normal -9.937122e-001  1.119645e-001  2.627958e-005
   outer loop
     vertex  4.487417e+000 -3.362854e-001  0.000000e+000
     vertex  4.449739e+000 -6.706902e-001  0.000000e+000
     vertex  4.487008e+000 -3.416990e-001  7.600000e+000
   endloop
 endfacet
 facet normal -9.993007e-001  3.739119e-002  0.000000e+000
   outer loop
     vertex  4.500000e+000  0.000000e+000  0.000000e+000
     vertex  4.487417e+000 -3.362854e-001  0.000000e+000
     vertex  4.500000e+000  0.000000e+000  7.600000e+000
   endloop
 endfacet
endsolid
